<svg version="1.1" xmlns="http://www.w3.org/2000/svg" xmlns:xlink="http://www.w3.org/1999/xlink" width="631.79263" height="573.26615" viewBox="0,0,631.79263,573.26615"><g transform="translate(-77,9.45174)"><g data-paper-data="{&quot;isPaintingLayer&quot;:true}" fill-rule="nonzero" stroke="none" stroke-linecap="butt" stroke-linejoin="miter" stroke-miterlimit="10" stroke-dasharray="" stroke-dashoffset="0" style="mix-blend-mode: normal"><path d="M403,180.00001c0,88.14694 -72.97758,159.60417 -163,159.60417c-90.02242,0 -163,-71.45723 -163,-159.60417c0,-88.14694 72.97758,-159.60417 163,-159.60417c90.02242,0 163,71.45723 163,159.60417z" fill="#4b0f7f" stroke-width="0"/><path d="M131.33333,180.00001c0,-60.01493 48.65173,-108.66667 108.66667,-108.66667c60.01493,0 108.66667,48.65173 108.66667,108.66667c0,60.01493 -48.65173,108.66667 -108.66667,108.66667c-60.01493,0 -108.66667,-48.65173 -108.66667,-108.66667z" fill="#7a19d0" stroke-width="0"/><path d="M198.04694,210.19004c0.38281,-0.49364 0.76808,-0.98465 1.15712,-1.47176c0.77026,-0.96444 1.11018,-2.39341 2.19503,-2.9821c0.29551,-0.16036 0.59418,-0.31382 0.89562,-0.46127c7.40167,-10.42071 14.59363,-20.8947 21.52085,-31.68427c-0.60141,-1.30619 -1.10131,-2.64107 -1.32367,-4.05442c-0.14546,-0.92453 0.29493,-1.79999 0.8327,-2.63973c-0.65037,-1.36718 -1.21656,-2.76223 -1.55266,-4.23346c-0.27665,-1.21099 0.89738,-2.31815 1.27772,-3.50068c0.5249,-1.63204 1.19687,-2.99119 1.96003,-4.24939c1.24594,-3.59067 2.65138,-7.12515 3.67325,-10.8003c1.18952,-4.27812 1.61942,-9.79668 4.55443,-13.40566c2.91024,-3.57853 7.40747,-3.32311 10.70732,-6.02787c2.41849,-1.98235 4.03397,-5.3587 5.95551,-7.76584c4.32078,-5.41271 7.72617,-10.85892 12.67009,-15.86255c2.98397,0.64304 6.50964,0.09805 8.95192,1.92913c0.09108,0.06829 0.17761,0.14014 0.25991,0.2153c0.8799,-0.66512 1.76399,-1.32361 2.6485,-1.97775c0.56025,-0.52439 1.1089,-1.05007 1.63324,-1.58146c1.6652,-1.6876 3.00435,-3.93625 5.34198,-4.88941c1.17091,-0.47744 2.37849,-0.84909 3.59998,-1.18057c1.44789,-0.94372 2.78304,-1.87656 3.99674,-3.35552l9.76449,-2.39148c-0.01355,0.39101 -0.02008,0.78283 -0.02195,1.17519c2.99116,-2.88624 6.1124,-5.63855 9.38934,-8.08471c0,0 4.64757,-3.38564 8.03321,1.26194c2.25812,3.0998 0.94267,5.63822 -0.18394,6.98517c1.00567,3.48642 -2.21043,5.92918 -2.21043,5.92918c-2.54853,1.91723 -4.62949,4.39144 -7.0499,6.46808c-4.47408,3.83863 -9.61567,6.96564 -13.77245,11.1462c-0.03796,0.03818 -0.07585,0.07641 -0.11369,0.11471l0.05903,4.13398c-4.66807,9.56864 -11.3875,17.53825 -18.34444,25.4407c-5.24752,11.03965 -10.87015,21.69724 -17.05075,32.11331c0.09807,0.8953 0.11971,1.79184 0.01452,2.69043c-0.18675,1.59531 -2.1704,2.37527 -3.13282,3.6612c-1.75956,2.35102 -3.53349,4.6929 -5.21245,7.10214c-0.34184,0.49053 -0.68378,0.98069 -1.02584,1.47049c-1.05242,1.59005 -2.1205,3.17589 -3.20492,4.75804c-2.46705,3.59939 -4.97702,7.18302 -7.67629,10.6126c-0.72381,1.00655 -1.44959,2.01234 -2.17765,3.01752c-0.01046,0.01775 -0.02092,0.03549 -0.03137,0.05324c0.09223,0.68313 0.12767,1.37171 0.08532,2.06776c-0.09899,1.62692 -2.15864,2.33789 -3.39322,3.50472c-0.54766,0.89138 -1.10175,1.77598 -1.66372,2.65438c-0.37834,0.79383 -0.74227,1.59744 -1.21902,2.3317c-2.20386,3.39415 -4.70686,6.83838 -7.33709,10.09594c-0.6187,1.11249 -1.25917,2.19656 -2.30552,2.7688c-0.65175,0.75856 -1.30806,1.50214 -1.96648,2.22738l-4.01411,-1.24242c-1.51941,1.50164 -3.05287,2.96123 -4.59304,4.36914c-3.98573,3.64348 -8.49799,6.66758 -12.65455,10.1149c-1.50313,1.24664 -3.01853,2.48156 -4.55342,3.69162c-0.61068,0.82526 -1.2199,1.65171 -1.82735,2.47956c-5.35461,7.29742 -10.35138,14.7329 -16.007,21.80875l-9.97639,5.54045c-0.34227,-3.81977 -1.09746,-7.62489 -1.02681,-11.45931c0.04796,-2.60289 2.02572,-4.5925 2.96616,-6.81218c0.12448,-0.29381 0.24494,-0.58926 0.36197,-0.88609c-1.0902,-3.07747 1.33282,-5.57816 1.6799,-5.91548l0.82272,-4.3199c0.95091,-2.03248 1.80886,-4.04173 2.74374,-6.0225c1.09214,-3.30289 2.29516,-6.57606 3.7995,-9.84625l5.71851,-1.21715l1.28806,0.88589c0.9263,0.56622 1.91483,1.08538 2.73253,1.73376l1.45696,-7.14322c0.51881,-0.70717 1.02351,-1.42117 1.51745,-2.14043c-0.42465,-1.93061 -0.77898,-3.86563 -0.71107,-5.82708c0.04117,-1.18908 1.4501,-1.88717 2.14569,-2.85244c0.85298,-1.18368 1.5167,-2.50209 2.1082,-3.8358l2.40285,-2.82477c0,0 1.94886,-1.78034 4.41196,-1.60806zM246.95226,170.60059c0.01545,-0.02593 0.0309,-0.05186 0.04634,-0.07779c-0.0205,0.02793 -0.04095,0.05582 -0.06135,0.08366z" fill="#f6deff" stroke-width="0.5"/><path d="M212.06402,136.30806c0.47153,0.40973 0.94031,0.82177 1.40497,1.23736c0.92001,0.82282 2.32781,1.24187 2.85511,2.35784c0.14364,0.30399 0.28021,0.61075 0.41063,0.91994c9.99193,7.97102 20.04875,15.73564 30.43541,23.25351c1.33768,-0.52767 2.69835,-0.95238 4.1219,-1.09561c0.9312,-0.0937 1.78075,0.3948 2.58921,0.97855c1.40131,-0.57315 2.82575,-1.0607 4.31343,-1.31427c1.22453,-0.20872 2.26452,1.0252 3.42402,1.47087c1.60024,0.61506 2.91982,1.36174 4.13353,2.19385c3.51564,1.44415 6.96628,3.04442 10.57876,4.26956c4.20516,1.42614 9.69118,2.16298 13.13095,5.2946c3.41075,3.10519 2.90504,7.58119 5.42166,11.02667c1.84446,2.52523 5.12551,4.3264 7.4218,6.37913c5.16345,4.61577 10.41137,8.31945 15.13164,13.53459c-0.80837,2.94349 -0.46075,6.49405 -2.42512,8.83047c-0.07326,0.08713 -0.14982,0.16952 -0.22945,0.2475c0.61504,0.91561 1.22323,1.83503 1.82704,2.75462c0.49235,0.58861 0.98663,1.16571 1.48796,1.71885c1.59216,1.75668 3.76266,3.21909 4.58404,5.60622c0.41143,1.1957 0.71519,2.42212 0.97807,3.66019c0.86155,1.49824 1.71851,2.88331 3.12752,4.17757l1.84348,9.88261c-0.38965,-0.03532 -0.78049,-0.06368 -1.17214,-0.08742c2.71502,3.14739 5.28907,6.4172 7.54877,9.82539c0,0 3.12132,4.82906 -1.70776,7.95038c-3.22085,2.08182 -5.682,0.62692 -6.96406,-0.57302c-3.53706,0.80977 -5.79675,-2.53749 -5.79675,-2.53749c-1.77219,-2.65144 -4.12656,-4.86708 -6.06505,-7.39948c-3.58327,-4.68109 -6.41882,-9.98899 -10.36118,-14.37234c-0.036,-0.04003 -0.07206,-0.07999 -0.10819,-0.11991l-4.13084,-0.17149c-9.29356,-5.19418 -16.87623,-12.3474 -24.37861,-19.73401c-10.72998,-5.85472 -21.05759,-12.06268 -31.11295,-18.81427c-0.89937,0.04801 -1.79573,0.01964 -2.68706,-0.13547c-1.58242,-0.27538 -2.2506,-2.29943 -3.48088,-3.33203c-2.24928,-1.88787 -4.48864,-3.78958 -6.80055,-5.60023c-0.47071,-0.36865 -0.94105,-0.73738 -1.41102,-1.10621c-1.52891,-1.13941 -3.05275,-2.29423 -4.572,-3.46516c-3.45628,-2.66385 -6.89443,-5.36967 -10.16821,-8.25591c-0.96464,-0.77879 -1.92841,-1.55951 -2.89144,-2.34246c-0.01714,-0.01143 -0.03427,-0.02287 -0.05141,-0.03429c-0.68721,0.05401 -1.37669,0.05101 -2.0693,-0.03007c-1.61887,-0.18952 -2.21393,-2.2856 -3.31013,-3.5833c-0.85947,-0.5965 -1.71181,-1.19903 -2.55752,-1.80909c-0.77151,-0.422 -1.55358,-0.83016 -2.26013,-1.3471c-3.26603,-2.38963 -6.56538,-5.08072 -9.67127,-7.88844c-1.07627,-0.67975 -2.12296,-1.37965 -2.63598,-2.45627c-0.72105,-0.69302 -1.42689,-1.38976 -2.1143,-2.08758l1.46424,-3.93862c-1.41461,-1.60075 -2.78646,-3.21319 -4.10633,-4.82944c-3.41565,-4.18263 -6.18353,-8.85644 -9.39379,-13.19869c-1.16092,-1.57028 -2.30945,-3.15216 -3.43207,-4.75212c-0.78994,-0.65573 -1.58114,-1.31007 -2.37385,-1.96272c-6.9876,-5.75305 -14.133,-11.15652 -20.88259,-17.19776l-4.97574,-10.26971c3.83291,-0.12882 7.67421,-0.67073 11.49873,-0.38646c2.59617,0.19297 4.47244,2.27856 6.63625,3.34127c0.28641,0.14066 0.57469,0.27741 0.86454,0.4108c3.13345,-0.91696 5.49519,1.64168 5.81264,2.00702l4.26732,1.06224c1.97632,1.06272 3.93462,2.03134 5.8602,3.07518c3.23688,1.27455 6.4379,2.65815 9.61915,4.34243l0.8965,5.77746l-0.95631,1.23668c-0.61697,0.8933 -1.19043,1.85135 -1.88338,2.63164l7.0509,1.85287c0.67715,0.55742 1.36191,1.10114 2.05252,1.6344c1.95128,-0.31638 3.90304,-0.56229 5.85766,-0.38516c1.18494,0.10739 1.80341,1.55304 2.7284,2.30135c1.13429,0.91763 2.41366,1.65381 3.71232,2.31873l2.68644,2.55657c0,0 1.66894,2.04507 1.35963,4.49474zM248.86588,187.34411c0.02503,0.01687 0.05006,0.03374 0.07509,0.0506c-0.02674,-0.02202 -0.05345,-0.044 -0.08011,-0.06592z" fill="#f6deff" stroke-width="0.5"/><path d="M282.13238,131.28113c1.11803,2.23607 -1.11803,3.3541 -1.11803,3.3541l-1.61803,0.76393c-3.54079,2.65559 -7.34436,4.41769 -10.82203,7.06185c0.88233,3.15964 -2.27731,4.73946 -2.27731,4.73946l-0.35066,0.09868c-1.66487,1.24326 -3.24205,2.53766 -5.16146,3.40735c-0.42428,0.19224 -1.06277,-0.1401 -1.38334,0.19785c-0.36826,0.38822 -0.05645,1.10062 -0.3002,1.57698c-0.9185,1.79501 -2.11825,3.4409 -3.35513,5.03332c-1.99983,2.57469 -4.31501,4.93198 -6.44114,7.42767c0.61425,1.16925 1.03725,2.45469 1.22744,3.81473c5.22172,0.42547 10.61197,1.96529 15.69733,2.97463l2.67171,1.66226c0,0 0.32201,0.32201 0.64981,0.86063c2.11082,-0.0937 4.24997,-0.1467 6.19173,0.16874c2.08264,0.33832 4.07422,1.11232 6.14354,1.52438l1.80028,0.57974c0,0 2.37171,0.79057 1.58114,3.16228c-0.79057,2.37171 -3.16228,1.58114 -3.16228,1.58114l-1.19972,-0.42026c-1.97377,-0.39634 -3.87236,-1.13474 -5.85646,-1.47562c-1.85648,-0.31895 -3.95173,-0.233 -6.00199,-0.12169c-0.04702,0.05034 -0.09569,0.1007 -0.14605,0.15106c-2.30545,2.30545 -4.6109,1.07364 -5.55954,0.37499c-1.51071,-0.39805 -2.99532,-0.91369 -4.53514,-1.17127c-1.96065,-0.32798 -4.00346,-0.11423 -5.93499,-0.58424c-1.43787,-0.34989 -2.87784,-0.89095 -4.35495,-0.87706c-0.1679,0.23894 -0.34447,0.47135 -0.52926,0.69675c3.56344,4.32151 7.36034,8.33824 11.78198,11.97041l1.57273,3.50681c0,0 0.75452,1.88631 -0.08396,3.57223c2.1725,1.84178 4.24378,3.73837 6.4057,5.73841c2.58138,2.38809 5.48046,3.23657 8.23223,5.26777l0.61803,0.26393c0,0 2.23607,1.11803 1.11803,3.3541c-1.11803,2.23607 -3.3541,1.11803 -3.3541,1.11803l-1.38197,-0.73607c-2.97423,-2.2772 -5.76236,-3.03917 -8.76777,-5.73223c-2.76813,-2.48044 -5.32094,-4.86722 -8.17497,-7.16822c-0.85869,-0.318 -1.47643,-0.92848 -1.8834,-1.46906c-0.0578,-0.04353 -0.11575,-0.08703 -0.17386,-0.13049c0,0 -1.35414,-1.0156 -0.99825,-2.48969c-4.91771,-2.96974 -8.9742,-7.95568 -12.61875,-12.84084c-0.45361,0.05318 -0.91511,0.08053 -1.383,0.08053c-0.23972,0 -0.47777,-0.00718 -0.71393,-0.02133c-1.2197,-0.00376 -2.43651,-0.13653 -3.55167,-0.40996c-0.00049,0.03344 -0.00213,0.0668 -0.00508,0.10008c-0.1758,1.98062 -0.86158,3.89824 -0.99001,5.88249c-0.3176,4.90699 0.36553,9.66943 -0.57184,14.53222l0.08253,1.16651c0,0 0,4.06971 -3.98245,4.24422c-0.20464,0.73778 -0.29661,1.50845 -0.26755,2.25578v2.5c0,0 0,2.5 -2.5,2.5c-2.5,0 -2.5,-2.5 -2.5,-2.5v-2.5c0.04195,-1.69615 0.3901,-3.42183 1.01691,-5.01936c-0.26691,-0.80916 -0.26691,-1.48064 -0.26691,-1.48064l0.08253,-2.83349c0.92857,-4.41936 0.12179,-8.9801 0.42816,-13.46778c0.15024,-2.20061 0.51707,-7.16353 1.14352,-9.33319c0.17683,-0.61242 0.45484,-1.19297 0.74747,-1.76799c-1.84869,0.25137 -3.69467,0.49976 -5.56084,1.01008c-2.85603,0.78101 -5.55035,2.15212 -8.37981,2.96619c-3.00302,0.86399 -6.59385,1.0967 -9.82837,1.15862c-0.401,0.3811 -0.79243,0.77766 -1.20831,1.12406c-2.59731,2.16339 -3.21387,1.96276 -6.18406,2.59496l-0.22252,0.81632c0,0 -1.76777,1.76777 -3.53553,0c-1.76777,-1.76777 0,-3.53553 0,-3.53553l2.77748,-2.18368c0.64451,-0.11736 1.21692,-0.2925 1.74033,-0.50977c-0.10339,-0.21169 -0.19792,-0.44274 -0.28195,-0.69481c-1.34397,-4.0319 2.68794,-5.37587 2.68794,-5.37587l2.84397,-0.7181c6.4202,0.0638 11.31227,-2.19855 17.40916,-3.85762c2.24409,-0.61066 4.48964,-0.81035 6.71994,-1.12215c-2.50922,-2.14125 -4.97438,-4.34168 -7.6791,-6.37022l-1.35066,-0.59868c0,0 -3.80132,-1.90066 -1.90066,-5.70197c0.1526,-0.30521 0.31746,-0.57365 0.49162,-0.80928c-2.32709,-1.19218 -4.38142,-2.55885 -6.6903,-4.29006l-1.26777,-1.23223c0,0 -1.76777,-1.76777 0,-3.53553c1.76777,-1.76777 3.53553,0 3.53553,0l0.73223,0.76777c3.03168,2.27433 5.40831,3.77074 8.92848,5.17881c0,0 2.04799,0.81919 1.5271,2.84232l1.09442,0.57887c2.74399,2.05799 6.01353,3.99041 8.4552,6.3948c0.0012,0.00118 0.00239,0.00236 0.00359,0.00353c0.41192,-0.44212 0.85266,-0.84168 1.32901,-1.18356c0.14343,-4.2709 0.4122,-8.50139 0.4122,-12.81477v-2.5c0,0 0,-3.65073 3.38357,-4.18505c0.27321,-2.83011 0.96223,-5.50749 2.04524,-8.24343l1.55342,-1.83929c0,0 1.76777,-1.76777 3.53553,0c1.76777,1.76777 0,3.53553 0,3.53553l-0.44658,0.16071c-1.19935,2.96181 -1.83846,5.87219 -1.82119,9.07152c0,0 0,0.02301 -0.00221,0.06462c0.25221,0.78878 0.25221,1.43538 0.25221,1.43538v2.5c0,4.07517 -0.23954,8.07435 -0.38702,12.10126c0.4002,0.1002 0.79227,0.22092 1.17502,0.36098c2.04222,-2.36162 4.20536,-4.63016 6.11213,-7.07774c1.5105,-1.93893 2.72368,-5.79654 4.34467,-7.3897c1.61425,-1.58653 5.44799,-2.88161 7.4552,-4.3948l1.64934,-0.90132c0,0 1.00278,-0.50139 2.23578,-0.47409c3.74069,-2.99077 7.84355,-4.8586 11.66488,-7.7246l2.38197,-1.23607c0,0 2.23607,-1.11803 3.3541,1.11803z" fill="#000000" stroke-width="0.5"/><path d="M552.29263,245.79831c0,-1.38071 1.11929,-2.5 2.5,-2.5c1.38071,0 2.5,1.11929 2.5,2.5c0,1.38071 -1.11929,2.5 -2.5,2.5c-1.38071,0 -2.5,-1.11929 -2.5,-2.5z" fill="#9966ff" stroke-width="0.5"/><path d="M563.711,62.7847c-0.98639,5.91836 -6.90476,4.93197 -6.90476,4.93197l-5.8384,-0.97532c-6.92497,-0.78137 -13.70661,-2.54818 -20.50245,-4.09168c-3.65877,-0.83099 -7.42415,-1.14631 -11.07363,-2.01719c-2.14161,-0.51106 -19.63231,-5.97231 -21.38227,-6.5147c-12.55835,-2.68444 -25.19101,-5.93741 -37.95551,-7.44047c-8.16274,-0.96119 -18.25481,-1.5158 -26.46101,-1.88232c-11.07153,-0.4945 -22.01317,0.26148 -32.94035,1.27813c-4.54843,3.08147 -9.09728,6.21501 -13.84843,8.91465c-1.12577,0.63967 -2.42678,0.95853 -3.5033,1.67799c-0.78386,0.52388 -1.21503,1.47779 -2,2c-3.17644,2.11317 -7.14467,4.40405 -10.4967,6.32201c-2.97605,1.70283 -6.42894,2.51063 -8.76892,5.05318c0,0 -4.24264,4.24264 -8.48528,0c-4.24264,-4.24264 0,-8.48528 0,-8.48528c5.77804,-5.54651 14.09028,-8.18439 20.73438,-12.62481c0.1939,-0.12959 0.36622,-0.28549 0.52766,-0.45467c-1.57182,0.1165 -3.14522,0.22236 -4.72051,0.31467c-8.87069,0.51984 -17.47472,-1.01073 -26.29888,-0.99255c0,0 -6,0 -6,-6c0,-6 6,-6 6,-6c8.62397,0.01569 17.04734,1.51856 25.70112,1.00745c8.98355,-0.53059 17.903,-1.47983 26.82198,-2.33786c1.43033,-0.94917 2.86834,-1.87961 4.32251,-2.77349c2.43591,-1.49736 5.22566,-2.32355 7.85829,-3.43937c4.39063,-1.86094 8.34675,-4.68524 12.61282,-6.82329c0.42109,-0.21055 8.18295,-4.09661 8.38718,-4.17671c1.66745,-0.65399 3.57956,-0.6844 5.14171,-1.56063c1.29839,-0.72828 1.89948,-2.38958 3.19819,-3.11729c1.47528,-0.82665 3.29382,-0.80513 4.87452,-1.40611c3.74437,-1.42361 6.91497,-4.00581 10.44557,-5.76258c0.77066,-0.38347 1.76909,-0.23118 2.48172,-0.71401c1.1708,-0.79325 1.79958,-2.25234 3,-3c3.62148,-2.25556 10.45965,-3.44859 14.56316,-3.8669c1.4781,-0.15068 3.00056,0.37483 4.45658,0.07906c1.75913,-0.35734 3.24562,-1.62003 5,-2c1.51181,-0.32743 3.10065,0.06681 4.63976,-0.08782c4.64103,-0.46625 9.01188,-2.30704 13.53379,-2.94297c1.10432,-0.1553 7.84729,-0.04707 9.22799,-0.03252c3.34993,-0.83748 6.86503,-0.76343 10.30777,-1.02986c7.00803,-0.54234 13.3388,-1.01509 20.42533,-1.01509c8.35458,0 17.15181,-0.57601 25.49488,0.02044c4.75173,0.33971 9.41116,1.51627 14.14892,2.0142c18.75997,1.97164 37.44753,3.50548 56.1526,6.01845c4.61585,0.62012 9.30421,0.51159 13.9367,0.99187c4.39702,0.45587 9.12116,1.98492 13.4203,3.06695c11.80229,1.68604 23.57052,3.90242 35.34148,5.90854l3.50512,-0.02044c0,0 6,0 6,6c0,6 -6,6 -6,6l-4.49488,-0.02044c-12.22472,-1.99842 -24.41565,-4.34248 -36.65852,-6.09146c-4.01611,-0.99779 -8.4736,-2.54068 -12.5797,-2.93305c-4.67848,-0.44707 -9.40415,-0.39135 -14.0633,-1.00813c-18.60617,-2.46313 -37.19073,-4.01473 -55.8474,-5.98155c-4.63853,-0.489 -9.19867,-1.65382 -13.85108,-1.9858c-8.01265,-0.57176 -16.48617,0.02044 -24.50512,0.02044c-6.88204,0 -12.77858,0.46544 -19.57467,0.98491c-3.23745,0.24746 -6.54229,0.18265 -9.69223,0.97014c-2.92393,0.02293 -5.8788,-0.4559 -8.77201,-0.03252c-2.67952,0.39211 -5.21466,1.49676 -7.87941,1.97917c-2.18922,0.39632 -4.37294,0.85752 -6.5868,1.07787c-1.11495,0.11097 -2.26798,-0.33764 -3.36024,-0.08782c-1.74987,0.40024 -3.23886,1.65272 -5,2c-4.05694,0.79999 -11.27848,-0.52393 -14.98026,2.21217c-1.13728,0.84059 -1.81835,2.22302 -3,3c-1.04331,0.68601 -2.40248,0.72552 -3.51828,1.28599c-3.87967,1.94877 -7.40371,4.70401 -11.55443,6.23742c-0.99476,0.3675 -2.21075,0.05736 -3.12548,0.59389c-1.15584,0.67794 -1.62815,2.2361 -2.80181,2.88271c-2.12521,1.17085 -4.61097,1.52452 -6.85829,2.43937c-2.63007,1.07067 -5.07296,2.55336 -7.61282,3.82329c-0.31694,0.15806 -0.63216,0.3192 -0.94592,0.4829c2.81338,-0.01717 5.6335,0.02891 8.46231,0.15386c8.5134,0.37604 19.00735,0.9575 27.4683,1.9584c13.31591,1.57522 26.48458,4.93422 39.58244,7.74751c0.37162,0.11477 19.66591,6.10396 21.15048,6.4566c3.6014,0.85546 7.31693,1.16193 10.92637,1.98281c6.46343,1.46995 12.9083,3.18831 19.49755,3.90832l6.1616,1.02468c0,0 5.91836,0.98639 4.93197,6.90476z" fill="#7a19d0" stroke-width="0.5"/><path d="M593.79263,352.79831c6,0 6,6 6,6l-0.17914,3.45521c-0.53322,1.83366 -0.56257,3.89752 -1.59966,5.50098c-3.98241,6.15729 -6.35073,4.85557 -13.2212,5.04381c-11.41414,0.31272 -20.78524,-4.25192 -31.16654,-8.40481c-3.49272,-1.30782 -15.479,-5.79386 -15.71357,-5.90203c-5.45106,-2.5138 -10.66355,-5.60692 -15.7792,-8.86443c2.90837,2.55528 5.80652,5.12152 8.67823,7.71614c4.66889,4.21838 8.94304,8.88392 13.82771,12.85043c6.84906,5.56165 14.05046,10.68447 21.09491,16.01057c3.2898,1.35347 6.61523,2.60244 10.03568,3.56465c3.69887,1.04053 7.58313,1.2536 11.35336,1.99502c3.12042,0.61364 6.15671,1.68387 9.31347,2.06914c2.43395,0.29706 4.90396,-0.02311 7.35594,-0.03467h2c0,0 6,0 6,6c0,6 -6,6 -6,6h-2c-2.88135,-0.01156 -5.78291,0.30614 -8.64406,-0.03467c-2.58177,-0.30753 -5.0978,-1.00129 -7.62837,-1.6175c1.7714,1.49549 3.55647,2.9743 5.36951,4.41907c5.45315,4.34547 11.33591,8.14172 16.70455,12.59117c11.36884,9.42233 23.08324,19.04206 33.53349,29.49384c2.02484,2.02514 3.56909,4.63082 5.99307,6.15579l2.6718,5.9923c0,0 0,6 -6,6c-3.57007,0 -5.01591,-2.12424 -5.60146,-3.84482c-2.02462,-1.86636 -3.78283,-4.05653 -5.73367,-6.00709c-10.10739,-10.10592 -21.47712,-19.3871 -32.46651,-28.50616c-5.32481,-4.41855 -11.16838,-8.17816 -16.57971,-12.49031c-0.29455,-0.23472 -17.98627,-15.15238 -18.40506,-15.49726c-2.69735,-2.22125 -5.45335,-4.36786 -8.23633,-6.47969c-4.77192,-1.86436 -9.00853,-3.52305 -9.2525,-3.6228c-7.17336,-2.93307 -14.38108,-5.80957 -21.36689,-9.16493c-6.25701,-3.00531 -12.09874,-6.80947 -18.20703,-10.10657c-8.12272,-4.38444 -16.46617,-8.35567 -24.44337,-13.00479c-3.30066,-1.92539 -6.61433,-3.83195 -9.93071,-5.73516c9.68007,10.38173 19.62132,20.50713 30.08078,30.16189c8.50661,7.86735 18.04162,14.93709 27.19295,22.05513c2.86991,2.23225 5.87504,4.28939 8.70933,6.56669c2.20882,1.77475 4.02569,4.05238 6.41081,5.58204c3.18935,2.04544 6.99236,3.01894 10.15758,5.10153l1.35508,0.62574c0,0 5.36656,2.68328 2.68328,8.04984c-2.68328,5.36656 -8.04984,2.68328 -8.04984,2.68328l-2.64492,-1.37426c-3.03238,-2.05779 -6.76166,-2.91385 -9.84242,-4.89847c-2.78516,-1.79419 -4.99803,-4.35348 -7.58919,-6.41796c-2.79064,-2.22341 -5.73329,-4.2501 -8.54982,-6.44063c-9.43037,-7.33439 -19.19385,-14.62358 -27.97302,-22.71605c-18.55448,-17.13382 -35.54712,-35.70898 -52.26924,-54.61019c-1.32694,-1.49986 -2.57276,-3.06705 -3.78893,-4.65897c-8.50388,-5.4689 -16.77696,-11.28994 -24.62817,-17.75034c-4.68104,-3.85182 -8.19448,-8.93622 -12.35761,-13.3427c-4.68368,-4.95745 -6.53328,-5.82311 -12.17147,-12.18618c-2.57137,-2.90196 -4.70573,-6.165 -7.14907,-9.17555c-1.65014,-2.0332 -3.30479,-4.09374 -4.89401,-6.19919c-0.23646,0.69878 -0.4279,1.40639 -0.5038,2.13702c-0.40434,3.89203 0.08704,8.36322 0.04495,12.2669c-0.01413,1.31013 -0.40483,2.65609 -0.09628,3.92945c0.60256,2.48668 1.96508,4.72931 2.78197,7.15405c3.83799,11.3922 7.76599,23.50147 14.39036,33.71747c1.97008,3.03824 4.4892,5.68324 6.6922,8.55707c6.45147,8.41599 12.24651,17.06656 20.23329,24.17119c2.1558,1.91769 16.44219,12.98967 18.57759,14.65373c12.46412,10.19637 25.86425,18.52815 38.88631,27.919c8.23722,5.94027 12.80137,9.65067 21.5354,14.70236c9.79869,5.66749 20.03206,10.5002 30.1487,15.56223c4.2608,2.13196 8.02504,5.20032 12.35761,7.18236c3.55923,1.62826 7.51202,2.23926 11.14659,3.6916c2.96761,1.18583 5.6592,2.99223 8.6158,4.20527c4.40489,1.80725 14.37537,4.45718 18.60214,5.85361c4.66112,1.53993 9.12635,3.68392 13.86703,4.95805c6.29265,1.69124 12.63668,3.1927 18.90498,4.97208c3.59171,1.02665 7.18732,2.04436 10.81153,2.94961l0.54479,-0.17914c0,0 6,0 6,6c0,6 -6,6 -6,6l-3.45521,-0.17914c-3.75001,-0.93829 -7.47147,-1.98884 -11.18847,-3.05039c-6.33143,-1.79865 -12.74297,-3.30348 -19.09502,-5.02792c-4.82708,-1.31044 -9.38347,-3.47342 -14.13297,-5.04195c-5.77624,-1.90762 -13.72228,-3.83173 -19.39786,-6.14639c-2.95914,-1.20682 -5.64902,-3.01737 -8.6158,-4.20527c-3.79325,-1.51881 -7.90768,-2.19469 -11.6218,-3.89786c-3.66212,-1.67932 -6.89266,-4.1743 -10.38011,-6.19144c-1.25002,-0.72301 -2.51199,-1.42446 -3.78316,-2.10942c-0.05522,0.0607 -0.08694,0.09243 -0.08694,0.09243l-5.24264,2.75736c-12.06009,-0.11822 -25.04737,-5.55842 -36.08662,-9.97245c-0.80476,-0.32178 -1.60842,-0.64548 -2.41097,-0.97114c12.44879,6.96841 25.1052,13.5703 38.07086,19.52341c10.28324,4.72149 20.6126,9.29033 30.8401,14.13478c7.46237,3.53469 14.95551,7.97905 22.74268,10.68616c3.70602,1.28835 7.54073,2.18209 11.25356,3.45065c8.24321,2.81644 16.00793,6.68506 24.65544,8.24387c12.1067,2.18237 24.97566,2.49655 37.13854,0.9578c7.79123,-1.08358 14.30668,-3.7194 21.56805,-6.62395c4.9356,-1.97424 10.53527,-3.39085 14.90014,-6.42144l2.64492,-1.37426c0,0 5.36656,-2.68328 8.04984,2.68328c2.68328,5.36656 -2.68328,8.04984 -2.68328,8.04984l-1.35508,0.62574c-5.26143,3.41669 -11.27077,5.24692 -17.09986,7.57856c-8.19305,3.27722 -15.64037,6.09199 -24.43195,7.37605c-13.39542,1.65622 -27.52946,1.40028 -40.86146,-1.0422c-9.50603,-1.74154 -17.35465,-5.60425 -26.40586,-8.69806c-3.85732,-1.31848 -7.83961,-2.25491 -11.68513,-3.60741c-11.7371,-4.12803 -23.06555,-10.92393 -34.35942,-16.152c-28.58702,-13.23327 -56.45246,-27.02956 -83.49416,-43.25666c-28.98035,-16.22339 -57.28088,-33.52854 -84.62564,-52.41478c-6.56474,-4.53407 -12.85941,-9.45455 -19.47292,-13.91718c-5.73406,-3.8692 -11.64714,-7.52469 -17.44004,-11.32744c0.85113,1.69393 1.65089,3.21483 1.97435,3.90811c2.3697,5.07892 3.74038,10.65973 6.68961,15.42554c1.27416,2.05898 3.2363,3.61047 4.69193,5.54541c1.39069,1.84863 2.33917,4.01899 3.83239,5.78583c4.50933,5.33563 9.61081,10.16546 14.83276,14.80596c2.98915,2.65631 6.42548,4.77899 9.41457,7.43537c2.93805,2.61103 5.31126,5.83011 8.33637,8.33975c9.34731,7.75457 21.32966,14.33817 32.73734,18.30032c1.01297,-0.02583 2.02594,-0.05165 3.03891,-0.07748h2c0,0 6,0 6,6c0,6 -6,6 -6,6h-2c-1.6537,-0.02583 -3.3074,-0.05165 -4.96109,-0.07748c-13.59444,-4.41083 -27.37932,-11.73775 -38.46818,-20.90248c-3.13675,-2.59246 -5.61071,-5.90933 -8.65334,-8.61164c-2.99158,-2.65697 -6.43108,-4.7795 -9.41963,-7.43987c-5.68693,-5.06242 -11.21663,-10.35501 -16.1378,-16.1646c-1.61207,-1.9031 -2.67376,-4.21693 -4.16761,-6.21417c-1.66845,-2.23069 -3.85307,-4.07915 -5.30807,-6.45459c-3.15396,-5.14919 -4.75645,-11.10281 -7.31039,-16.57446c-1.63717,-3.50752 -4.40773,-8.16435 -5.37037,-12.01127c-0.67362,-2.69193 -1.00177,-5.40438 -1.15271,-8.12837c-4.6056,-3.78796 -8.91561,-7.93424 -12.73602,-12.67291c0,0 -3.74817,-4.68521 0.93704,-8.43338c4.68521,-3.74817 8.43338,0.93704 8.43338,0.93704c1.29586,1.63487 2.66505,3.19335 4.09604,4.68652c0.76013,-1.47917 2.25985,-2.93835 5.21875,-2.93835c6,0 6,6 6,6c0,2.18442 -0.08856,4.40489 -0.12181,6.62843c8.84668,6.6391 18.67068,12.17283 27.72575,18.28297c0.06252,0.04219 0.39159,0.27566 0.92242,0.65393c-8.13404,-7.71911 -15.53988,-15.57149 -22.69568,-24.42243c-2.03673,-2.51921 -12.10311,-14.92778 -14.02504,-18.1398c-1.53414,-2.56394 -3.86489,-9.28059 -5.27908,-12.54517c-0.74245,-1.71392 -1.884,-3.27488 -2.36605,-5.07942c-0.37693,-1.41101 -0.107,-2.91901 -0.16051,-4.37852c0,0 0,-6 6,-6c6,0 6,6 6,6c-0.28443,2.87337 2.50731,7.19024 3.54328,9.7039c3.66048,8.88178 9.58404,15.43135 15.61872,22.89405c8.16858,10.10154 16.60276,18.75737 26.2305,27.54844c4.8831,4.45875 9.76526,9.2421 15.18239,13.03489c5.49092,3.84446 11.44067,7.01052 16.88686,10.91809c8.03534,5.76526 14.54986,10.99489 22.87694,16.34266c20.89917,13.44584 43.01003,24.23167 66.03138,33.44381c1.81676,0.72699 3.65262,1.4039 5.49882,2.0531c-7.6133,-4.57386 -12.78292,-8.59129 -20.33432,-14.04089c-13.20669,-9.53083 -26.79128,-17.99903 -39.44172,-28.33661c-2.69975,-2.10362 -16.65636,-12.90998 -19.09438,-15.09066c-8.55231,-7.64962 -14.86146,-16.77789 -21.76671,-25.82881c-2.41419,-3.16435 -5.14848,-6.09947 -7.3078,-9.44293c-7.10764,-11.00537 -11.54881,-23.98259 -15.60964,-36.28253c-0.98369,-2.97952 -2.53746,-5.78295 -3.21803,-8.84595c-0.43896,-1.97559 -0.07868,-4.04685 -0.09628,-6.07055c-0.03737,-4.29684 -0.44789,-9.48677 0.04495,-13.7331c0.5378,-4.6336 2.0439,-6.63488 1.95505,-11.2669c0,0 0,-2.49814 1.61194,-4.27053c-1.5905,-3.98329 -2.56892,-8.19937 -2.61194,-12.72947c0,0 0,-6 6,-6c6,0 6,6 6,6c-0.04047,2.94096 0.5809,5.75399 1.63089,8.44691c4.28796,-2.08331 7.25151,2.06567 7.25151,2.06567c1.75261,2.4642 3.63466,4.84127 5.25783,7.39259c0.71228,1.11956 0.91013,2.54106 1.72722,3.58658c1.31001,1.67624 3.12798,2.89175 4.56308,4.46223c4.34417,4.75398 8.92767,9.29061 13.6096,13.71235c9.83845,9.29167 19.73913,19.12585 28.51175,29.42468c2.22573,2.61295 4.23963,5.40073 6.30375,8.14631c13.66073,8.69075 27.89067,16.50182 41.89828,24.67293c7.85696,4.58772 16.09096,8.48891 24.09525,12.8094c2.73788,1.47783 5.41917,3.0632 8.10992,4.6297c-0.32439,-0.2999 -0.65028,-0.59809 -0.97801,-0.8942c-8.58769,-7.75923 -17.41257,-15.26391 -26.03895,-22.98215c-7.69397,-6.88671 -14.71365,-13.97145 -22.11357,-21.16032c-8.03874,-7.80947 -16.50847,-15.12043 -24.24385,-23.25001c-6.02903,-6.33627 -11.02551,-13.49285 -16.33386,-20.39585c-1.36911,-1.78039 -7.88153,-9.22795 -9.23341,-11.32406c-5.46103,-8.4674 -10.32747,-17.74451 -14.49087,-26.88481c-2.74038,-6.0162 -5.70571,-11.55026 -7.34741,-18.00272c0,0 -1.45521,-5.82086 4.36564,-7.27607c5.82086,-1.45521 7.27607,4.36564 7.27607,4.36564c1.41129,5.7741 4.21501,10.62277 6.65259,15.99728c3.87439,8.54249 8.42812,17.18214 13.50913,25.11519c2.48351,3.87754 5.95852,7.02656 8.76659,10.67594c0.44845,0.58281 0.89433,1.16763 1.33857,1.75375c-0.54923,-1.24599 -1.0873,-2.49661 -1.61446,-3.75131c-3.58784,-8.53935 -5.47663,-14.70413 -3.29412,-23.79085c0,0 1.45521,-5.82086 7.27607,-4.36564c5.82086,1.45521 4.36564,7.27607 4.36564,7.27607c-1.69495,6.41696 0.10623,10.05628 2.70588,16.20915c3.02106,7.15027 6.40637,14.16185 10.19755,20.93534c2.55331,4.56184 6.22619,8.42223 9.74619,12.28738c3.84344,4.22031 7.15834,8.99398 11.54107,12.65113c8.79107,7.33567 18.67941,13.69876 28.33828,19.79677c9.3938,5.93066 18.66195,12.80496 28.78814,17.45776c4.85903,2.23263 10.02103,3.73608 15.02857,5.61207c6.32561,2.53002 14.48201,6.64399 21.56656,7.64014c2.10994,0.29668 5.517,-0.34925 8.0249,0.14834c0.09239,-0.54689 0.33357,-1.10189 0.42114,-1.64851l-0.17914,-0.54479c0,0 0,-6 6,-6z" fill="#7a19d0" stroke-width="0.5"/><path d="M654.79263,269.79831c0,6 -6,6 -6,6l-5.49488,-0.02044c-3.92672,-0.64222 -16.77253,-2.73501 -18.77275,-3.11499c-7.22979,-1.37344 -14.36717,-3.61227 -21.42142,-6.00052c2.54828,2.00549 5.10066,4.00693 7.66114,5.99943c16.07304,12.50771 31.85103,25.05002 46.94323,38.76895c3.41698,3.10606 7.11124,5.91277 10.37812,9.17634c1.81076,1.80893 3.09788,4.09538 4.90657,5.90638c1.44441,1.44625 3.29247,2.4354 4.80152,3.81408c3.497,3.19488 6.68918,6.75021 9.53119,10.53956c0.56997,0.56286 1.13994,1.12571 1.70992,1.68857l2,2c0,0 4.24264,4.24264 0,8.48528c-4.24264,4.24264 -8.48528,0 -8.48528,0l-2,-2c-0.76336,-0.77048 -1.52672,-1.54095 -2.29008,-2.31143c-4.04273,-5.3903 -8.98531,-8.97001 -13.66728,-13.64636c-1.87307,-1.87082 -3.22246,-4.2207 -5.09343,-6.09362c-3.09514,-3.09838 -6.6229,-5.73341 -9.86332,-8.67951c-14.86494,-13.51483 -30.40741,-25.85908 -46.24035,-38.17749c-11.18618,-8.70312 -22.21175,-17.58738 -33.42266,-26.22719c-4.33858,-1.29518 -8.69181,-2.55754 -13.0702,-3.80189c-28.8484,-11.25191 -58.36408,-20.6044 -87.26258,-31.70456c-12.64046,-4.85531 -24.6744,-10.87583 -37.14355,-16.05731c-7.18342,-2.98502 -14.67721,-5.16735 -21.93271,-7.97261c-9.05435,-3.50075 -17.78256,-7.87004 -26.45447,-12.20411c0,0 -5.36656,-2.68328 -2.68328,-8.04984c2.68328,-5.36656 8.04984,-2.68328 8.04984,-2.68328c7.60653,3.80496 15.25751,7.64541 23.15166,10.84794c-1.02485,-0.88215 -1.83494,-2.27672 -1.83494,-4.48138c0,-6 6,-6 6,-6c5.42418,0 11.57158,-0.75674 16.96109,0.07748c1.04169,0.16124 1.95662,0.85007 3,1c1.37708,0.19788 2.81532,-0.27038 4.17355,0.03079c1.88946,0.41895 3.5372,1.62602 5.41481,2.09526c5.0828,1.27026 10.45869,1.39324 15.4039,3.12335c3.22651,1.12881 6.22856,2.82045 9.37966,4.14529c6.07071,2.55234 12.57593,4.11847 18.40242,7.18767c3.20914,1.69047 5.84824,4.3405 9.05787,6.03004c3.13492,1.65021 6.70439,2.35025 9.87289,3.93505c3.55089,1.77607 6.73934,4.20738 10.22108,6.11545c3.54155,1.94085 7.33261,3.41069 10.83394,5.42318c0.18318,0.10529 14.29121,9.3301 16.5844,10.82916c10.08573,6.7254 19.82032,13.8921 29.4113,21.24699c6.41143,1.92999 12.79329,3.93914 19.18046,6.0682c10.56739,3.52246 21.38897,7.76335 32.37026,9.82754c5.72217,1.07561 11.48753,1.90741 17.22725,2.88501l4.50512,-0.02044c0,0 6,0 6,6zM437.08873,193.25503c12.37676,5.14236 24.31064,11.12381 36.85645,15.94269c20.54971,7.89321 41.41785,14.88111 62.12633,22.32571c-4.127,-2.80163 -8.21013,-5.67463 -12.53382,-8.15555c-3.43604,-1.97158 -7.1589,-3.40497 -10.63231,-5.30995c-3.33558,-1.8294 -6.376,-4.18369 -9.77892,-5.88455c-3.2537,-1.62628 -6.90812,-2.371 -10.12711,-4.06495c-3.1716,-1.66901 -5.77841,-4.28604 -8.94213,-5.96996c-5.55252,-2.95537 -11.80176,-4.36832 -17.59758,-6.81233c-2.90033,-1.22302 -5.65546,-2.79777 -8.62034,-3.85471c-4.67103,-1.66516 -9.78531,-1.67353 -14.5961,-2.87665c-1.60558,-0.40154 -2.96977,-1.54486 -4.58519,-1.90474c-1.245,-0.27736 -2.56359,0.21009 -3.82645,0.03079c-1.04363,-0.14817 -1.96314,-0.81017 -3,-1c-4.61824,-0.84551 -10.35938,0.07748 -15.03891,0.07748c0,0 -0.08411,0 -0.23241,-0.00996c4.9632,1.80404 20.2231,7.33979 20.52851,7.46668z" fill="#7a19d0" stroke-width="0.5"/><path d="M610.79263,182.79831c0,6 -6,6 -6,6l-4.40083,-0.0134c-9.60371,-1.26874 -19.48051,-2.06007 -28.98839,-3.94428c0.68556,0.61113 1.35906,1.23779 2.17386,1.64301c1.8124,0.90133 3.96457,0.97525 5.77195,1.88661c6.1292,3.09062 10.44785,7.85824 16.22805,11.11339c0.94531,0.53236 2.16642,0.4632 3.08267,1.04414c4.09422,2.59591 5.45736,4.12683 8.37533,7.02789c0.92882,1.16006 2.50193,1.6688 3.91175,2.13874l3.08825,2.86126c0,0 4.24264,4.24264 0,8.48528c-4.24264,4.24264 -8.48528,0 -8.48528,0l-0.91175,-1.13874c-2.27983,-0.75994 -4.32542,-2.228 -6.08825,-3.86126c-1.71532,-1.72798 -3.57439,-3.71588 -5.62467,-4.97211c-0.87255,-0.53462 -2.03142,-0.44368 -2.91733,-0.95586c-5.60307,-3.23933 -9.87357,-7.96474 -15.77195,-10.88661c-1.96447,-0.97314 -4.26908,-1.12923 -6.22805,-2.11339c-1.61514,-0.81142 -2.83798,-2.2512 -4.36975,-3.21077c-3.89649,-2.44096 -8.44321,-3.68919 -12.51179,-5.72882c-4.34966,-2.18054 -8.34538,-5.97204 -12.76114,-7.888c-2.71401,-1.17758 -5.94089,-0.74182 -8.67661,-1.86806c-4.57434,-1.88316 -8.44876,-5.2654 -13.07121,-7.02718c-6.76027,-2.57658 -13.93693,-4.63907 -20.82726,-6.93584c-5.25614,-1.97732 -10.79034,-3.14086 -16.07928,-5.0287c-2.13716,-0.76284 -3.97627,-2.21883 -6.09346,-3.03546c-2.13199,-0.82234 -4.41653,-1.17999 -6.59813,-1.85987c-4.76746,-1.48575 -9.26967,-3.94466 -14.18783,-4.80945c-1.64148,-0.28863 -3.36564,0.32657 -5,0c-2.64181,-0.52787 -5.19448,-1.48156 -7.67502,-2.53263c-0.99384,-0.42112 -1.64943,-1.46737 -2.65999,-1.84661c-4.895,-1.83699 -10.66755,-2.19933 -15.65112,-3.86804c-1.23004,-0.41187 -2.20004,-1.42752 -3.4313,-1.83575c-1.89838,-0.6294 -4.06776,0.51617 -6,0c-4.58625,-1.22516 -6.78718,-4.02215 -11.62148,-3.83949c0,0 -6,0 -6,-6c0,-6 6,-6 6,-6c1.71155,0.03609 3.46288,-0.26038 5.13465,0.10826c3.28543,0.72446 6.04369,3.01411 9.24387,4.05224c1.9024,0.61714 4.06428,-0.50296 6,0c1.63098,0.42378 2.96935,1.63346 4.5687,2.16425c5.22835,1.73517 11.18394,2.19621 16.34888,4.13196c1.24041,0.46489 2.14225,1.58759 3.34001,2.15339c1.62807,0.76906 3.43351,0.94919 5.25979,1.07087c-4.56346,-2.17113 -9.23461,-4.11885 -13.74409,-6.40009c-8.3703,-4.23434 -16.96086,-9.9878 -24.6081,-15.3764c-5.99901,-4.22718 -11.20167,-9.4914 -16.58974,-14.47396c-2.0322,-1.87926 -4.49819,-3.29305 -6.35165,-5.34881c-3.09202,-3.42951 -5.50903,-6.90444 -6.98528,-10.78162c-1.5767,-0.03729 -3.11704,-0.14664 -4.57813,-0.37758c-3.04393,-0.48111 -5.98387,-1.50749 -9.0253,-2.00416c0,0 -5.91836,-0.98639 -4.93197,-6.90476c0.98639,-5.91836 6.90476,-4.93197 6.90476,-4.93197c3.02152,0.5123 5.95892,1.45074 8.9747,1.99584c0.68744,0.12425 1.41631,0.2081 2.17383,0.26107c0.84218,-1.24987 2.30929,-2.33855 4.86507,-2.33855c2.39733,0 3.8368,0.95787 4.70112,2.10816c1.16169,-0.06176 2.27516,-0.10816 3.29888,-0.10816c14.47334,0 28.75231,-1.84294 43.29888,-0.99255c14.07223,0.82266 27.75424,3.67184 41.72995,5.08142c2.63869,0.662 5.22294,1.60135 7.91608,1.98601c3.92161,0.56011 7.93162,0.28773 11.85465,0.83779c10.90456,1.52896 21.87868,4.72486 32.57896,7.24785c3.09209,0.72908 6.25838,1.16574 9.30106,2.07937c7.22976,2.17089 14.00487,5.66496 21.16644,8.05116c2.68636,0.89508 5.58587,1.0835 8.23566,2.08165c2.99429,1.12791 5.73737,2.83452 8.6016,4.26075c4.78306,2.3817 15.18752,7.41426 19.70912,10.41766c2.13261,1.41656 3.73793,3.54328 5.89169,4.92747c2.5197,1.61939 5.54358,2.36004 8.03479,4.02293c2.65905,1.77493 4.76901,4.26812 7.30418,6.21589c6.50078,4.99453 14.33087,8.89765 20.43165,14.36002c2.70136,2.41868 4.74382,5.57115 7.66707,7.71639c5.37742,4.48582 10.35118,8.58669 14.27053,14.37801l1.37426,2.64492c0,0 2.68328,5.36656 -2.68328,8.04984c-5.36656,2.68328 -8.04984,-2.68328 -8.04984,-2.68328l-0.62574,-1.35508c-3.07629,-4.71271 -7.41245,-8.02863 -11.72947,-11.62199c-1.48469,-1.13261 -3.12973,-2.08131 -4.45408,-3.39782c-1.47474,-1.46601 -2.33733,-3.49017 -3.87885,-4.8858c-1.59567,-1.44465 -3.65581,-2.27818 -5.41073,-3.52456c-4.72873,-3.35844 -9.56253,-6.57634 -14.15763,-10.11542c-2.33668,-1.79967 -4.24079,-4.14958 -6.69582,-5.78411c-2.47022,-1.64465 -5.46909,-2.37201 -7.96521,-3.97707c-2.22612,-1.43145 -3.90882,-3.60049 -6.10831,-5.07253c-3.63518,-2.43288 -14.74427,-7.80114 -18.29088,-9.58234c-2.46929,-1.24014 -4.80952,-2.77328 -7.3984,-3.73925c-2.49773,-0.93197 -5.23531,-1.075 -7.76434,-1.91835c-7.0511,-2.35133 -13.71364,-5.81494 -20.83356,-7.94884c-5.47698,-1.64149 -11.13334,-2.61073 -16.69894,-3.92063c-7.26441,-1.70973 -16.19867,-4.02877 -23.48203,-5.04222c-4.00006,-0.55659 -8.08649,-0.30004 -12.08436,-0.87214c-2.749,-0.39339 -5.38928,-1.34266 -8.08392,-2.01399c-13.4916,-1.33724 -26.68931,-4.11444 -40.27005,-4.91858c-14.02877,-0.83068 -27.79021,0.92645 -41.75136,1.00476c2.33467,2.87778 5.59958,5.27195 8.09627,7.57215c5.02668,4.63109 9.8137,9.60265 15.41026,13.52604c7.27211,5.09801 15.44709,10.62788 23.3919,14.6236c4.84991,2.43919 9.88868,4.4872 14.76235,6.87857c21.73334,10.66393 43.45676,20.76572 65.87946,29.9009c10.95214,4.47018 22.37711,7.79691 33.71539,11.13123c4.00556,1.17794 13.16986,3.912 16.01058,4.4947c9.23083,1.89346 18.84699,2.60668 28.18487,3.8889l3.59917,-0.0134c0,0 6,0 6,6z" fill="#7a19d0" stroke-width="0.5"/><path d="M552.48473,420.90094c1.89737,5.6921 -3.79473,7.58947 -3.79473,7.58947l-3.93627,1.23042c-0.1277,0.00199 -7.6721,0.15909 -8.55232,0.04828c-12.19629,-1.5354 -22.78173,-8.34619 -32.74407,-14.98324c-6.47938,-4.31665 -11.1079,-6.48954 -17.46864,-11.34751c-5.65951,-4.32242 -10.63327,-10.1714 -15.15625,-15.64664c-5.16189,-6.24867 -11.04053,-11.91344 -15.86449,-18.42654c-0.19584,-0.26441 -7.39467,-12.27054 -9.14634,-15.18998c-5.31868,-8.87767 -8.95856,-16.46333 -13.43132,-25.76635c-2.78109,-5.78448 -5.09639,-9.59836 -7.251,-15.60059c-3.03642,-8.45873 -5.29478,-18.11786 -10.3681,-25.72585c-2.28987,-3.43391 -6.34775,-7.13923 -9.22121,-10.04145c-1.76471,-1.78237 -3.3032,-3.81315 -5.26562,-5.37519c-1.16634,-0.92837 -2.78948,-1.13002 -4,-2c-2.64145,-1.89836 -4.9651,-4.20401 -7.42295,-6.33473c-0.87228,-0.75618 -1.38855,-1.91867 -2.37174,-2.52368c-2.54773,-1.56775 -5.52363,-2.37643 -8.02526,-4.01674c0,0 -4.9923,-3.3282 -1.6641,-8.3205c3.3282,-4.9923 8.3205,-1.6641 8.3205,-1.6641c2.45439,1.67487 5.46322,2.39535 7.97474,3.98326c3.71789,2.35062 6.62474,6.6018 10.20532,9.14159c1.21589,0.86246 2.83792,1.0663 4,2c5.95534,4.78497 13.25239,12.1909 17.51317,18.58336c5.61087,8.41801 8.30033,18.89415 11.6319,28.27415c1.75708,4.94704 4.49208,9.70537 6.749,14.39941c4.37697,9.1034 7.71761,16.16208 12.91658,24.81348c2.84319,4.73864 5.21202,9.79288 8.50576,14.23019c4.70346,6.33647 10.44776,11.83349 15.46936,17.92094c4.03939,4.89677 8.44281,10.17401 13.50991,14.00588c4.89966,3.70525 11.41369,7.23834 16.53136,10.65249c10.4402,6.96496 20.05198,12.74249 32.70361,13.06504l2.06373,-0.76958c0,0 5.6921,-1.89737 7.58947,3.79473z" fill="#851be2" stroke-width="0.5"/><path d="M534.74403,455.65109c1.55791,-0.95486 4.42458,-1.96209 7.29124,0.90458c4.24264,4.24264 0,8.48528 0,8.48528l-5.24264,2.75736c-7.22714,-0.14136 -11.52332,-3.53771 -17.77753,-6.6816c-3.05624,-1.53633 -6.39425,-2.50521 -9.35442,-4.21936c-3.56364,-2.0636 -6.68111,-4.82168 -10.13395,-7.06576c-5.69409,-3.70071 -11.98743,-6.39698 -17.81458,-9.88443c-5.99645,-3.58878 -11.24772,-8.31441 -17.13336,-12.08217c-6.23911,-3.99403 -12.88973,-7.30551 -19.33089,-10.96478c-8.83237,-6.42074 -17.79377,-11.21211 -26.89331,-17.18459c-4.87939,-3.20259 -8.91396,-7.54241 -13.52969,-11.11453c-17.81256,-13.78519 -36.30332,-26.5722 -52.27492,-42.56014c-4.53868,-4.54332 -8.69173,-9.48448 -12.54294,-14.6235c-3.2401,-4.32356 -5.52143,-5.9171 -7.05391,-11.24063c-0.19714,-0.68482 -0.16051,-6.13136 -0.16051,-7.37852c0,0 0,-6 6,-6c6,0 6,6 6,6c0,1.54142 -0.57592,3.13709 -0.16051,4.62148c0.49897,1.78297 4.76767,6.52169 4.94609,6.75937c5.77425,7.69222 11.98514,14.69923 19.21595,21.14837c13.67725,12.19872 28.91216,22.58701 43.37585,33.78411c4.4619,3.45419 8.33281,7.68917 13.06064,10.76935c8.96591,5.84128 17.82705,10.60926 26.51636,16.93153c6.42243,3.63509 13.04324,6.94163 19.25944,10.9191c5.79867,3.71031 10.95429,8.3915 16.86664,11.91783c5.95735,3.55316 12.36751,6.33842 18.18542,10.11557c3.25599,2.11388 6.16784,4.75264 9.52762,6.69734c2.83916,1.64336 6.05233,2.54558 8.98401,4.01755c3.4573,1.73587 6.4452,4.49382 10.17387,5.17118z" fill="#851be2" stroke-width="0.5"/><path d="M612.79263,186.79831c-3.75433,0 -5.15949,-2.34916 -5.68542,-4.10765c-2.67867,-2.29345 -5.83339,-3.94707 -8.99787,-5.52579c-2.33521,-1.16501 -16.80388,-8.40552 -18.14439,-9.0711c-7.10529,-3.52786 -14.39809,-6.66788 -21.66929,-9.83972c-4.64537,-2.0264 -8.86741,-4.97565 -13.58471,-6.82844c-2.46122,-0.96668 -5.178,-1.11089 -7.70219,-1.89863c-2.76301,-0.86226 -5.42176,-2.02867 -8.13264,-3.043c-15.82126,-4.74185 -31.35145,-11.06293 -47.44597,-14.84243c-6.62399,-1.55552 -13.39319,-2.44344 -20.01605,-4.00377c-4.72407,-1.11298 -9.27665,-2.88395 -14,-4c-3.32497,-0.78564 -6.81777,-0.48523 -10.21271,-0.86869c-3.37787,-0.38153 -6.62049,-1.6333 -10,-2c-4.85654,-0.52697 -9.48956,-0.9708 -14.40877,-0.9708c0,0 -6,0 -6,-6c0,-6 6,-6 6,-6c5.29925,0 10.38298,0.43822 15.59123,1.0292c3.37767,0.38326 6.62065,1.63186 10,2c3.92394,0.42746 7.93742,0.26037 11.78729,1.13131c4.73379,1.0709 9.27527,2.88982 14,4c6.61309,1.5539 13.37116,2.44107 19.98395,3.99623c16.47204,3.87382 32.36345,10.29587 48.55403,15.15757c2.62245,0.98567 5.19364,2.12034 7.86736,2.957c2.72305,0.85209 5.64288,1.05621 8.29781,2.10137c4.99387,1.96592 9.49397,5.03051 14.41529,7.17156c7.39003,3.21509 14.7917,6.42091 22.0111,10.00273c10.58947,5.25384 23.1336,9.75505 31.73457,18.21038l1.75736,5.24264c0,0 0,6 -6,6z" fill="#851be2" stroke-width="0.5"/><path d="M612.79263,86.79831c0,6 -6,6 -6,6l-3.96109,-0.07748c-7.49044,-2.49681 -15.85237,-2.17114 -23.58836,-4.12604c-6.67989,-1.68802 -12.91044,-5.51345 -19.70547,-6.92919c-3.27783,-0.68293 -6.69418,-0.43673 -9.99486,-0.9989c-5.45949,-0.92986 -10.46261,-3.65126 -15.78099,-5.19578c-3.744,-1.0873 -7.55532,-1.9291 -11.34774,-2.83312c-9.40884,-2.24282 -18.70207,-2.81092 -28.29215,-3.87709c-8.79808,-0.97812 -17.48041,-2.99526 -26.32933,-2.9624c-7.94735,0 -16.48766,-0.8465 -24.40877,-0.0292c-3.52831,0.36405 -7.0442,1.01942 -10.59123,1.0292c-5.99985,0.01654 -12.00013,0 -18,0c-2.34644,0 -4.72798,-0.48418 -7.03891,-0.07748c-3.51705,0.61897 -7.11191,2.16128 -10.64477,2.9313c-4.4986,0.98051 -8.66736,1.10504 -13.13963,2.02966c0,0 -5.88348,1.1767 -7.06018,-4.70679c-1.1767,-5.88348 4.70679,-7.06018 4.70679,-7.06018c4.38269,-0.85317 8.53503,-0.9868 12.86037,-1.97034c3.73363,-0.84899 7.60516,-2.46337 11.35523,-3.0687c0.68188,-0.11007 8.88195,-0.07748 8.96109,-0.07748c5.99983,0 12.00019,-0.01862 18,0c3.15289,0.00978 6.27065,-0.66585 9.40877,-0.9708c8.34508,-0.81093 17.22314,-0.0292 25.59123,-0.0292c9.33904,0.0294 18.39173,2.00721 27.67067,3.0376c10.07049,1.11829 19.82066,1.77533 29.70785,4.12291c3.99037,0.94746 7.99676,1.84506 11.93568,2.98773c5.04053,1.46225 9.75373,4.15066 14.93559,4.98337c3.30924,0.53179 6.72668,0.30423 10.00514,1.0011c7.00601,1.4892 13.41549,5.37189 20.29453,7.07081c7.36719,1.81948 15.26313,1.49112 22.41164,3.87396l2.03891,-0.07748c0,0 6,0 6,6z" fill="#851be2" stroke-width="0.5"/><path d="M668.03527,437.04095c-4.24264,4.24264 -8.48528,0 -8.48528,0l-2.4382,-2.50435c-3.35559,-1.98223 -6.90805,-3.66377 -10.06676,-5.94669c-3.31736,-2.39759 -6.07892,-5.49076 -9.2828,-8.03801c-8.08326,-6.42659 -15.91432,-12.45165 -23.80995,-19.14363c-6.88838,-5.83829 -14.12785,-11.26716 -21.06146,-17.0519c-7.26577,-6.06186 -14.09859,-12.75934 -21.11783,-19.10357c-17.78862,-16.07794 -35.32401,-32.30359 -52.26874,-49.27493c-8.50633,-8.52051 -16.64678,-17.34572 -25.01442,-25.99794c-6.59701,-6.82137 -13.52133,-13.32871 -20.17593,-20.09493c6.65865,7.42306 12.75827,15.33812 17.66819,23.90175c12.68091,22.11742 24.85091,44.8821 42.67501,63.38112c6.00088,7.32167 11.68323,14.69286 18.37817,21.3878l1,1c0,0 4.24264,4.24264 0,8.48528c-4.24264,4.24264 -8.48528,0 -8.48528,0l-1,-1c-6.86851,-6.86851 -12.72332,-14.39086 -18.86696,-21.90652c-18.33666,-19.09021 -31.07562,-42.48341 -44.07986,-65.32456c-5.43668,-9.5492 -13.11994,-17.88265 -20.31732,-26.05064c-4.55094,-5.16466 -9.56382,-9.91289 -14.60941,-14.59549c-4.11268,-3.81681 -5.53628,-6.11984 -10.1679,-9.344c-2.22006,-1.54543 -4.78905,-2.53523 -7.04411,-4.02913c0,0 -4.9923,-3.3282 -1.6641,-8.3205c3.3282,-4.9923 8.3205,-1.6641 8.3205,-1.6641c2.21611,1.48892 4.77192,2.4352 6.95589,3.97087c6.59429,4.6368 6.33365,5.54661 11.8321,10.656c4.37805,4.06826 8.76513,8.2666 13.01664,12.6309c-4.90251,-5.63847 -9.37042,-11.70302 -14.49826,-17.14928c-8.69649,-9.23651 -17.81801,-18.34058 -27.50759,-26.53364c-3.78934,-3.20409 -7.23083,-6.88701 -11.41107,-9.56112c-2.39725,-1.53352 -5.1695,-2.39493 -7.65085,-3.78825c-3.95508,-2.22085 -7.68799,-4.84462 -11.74834,-6.86661c0,0 -5.36656,-2.68328 -2.68328,-8.04984c2.68328,-5.36656 8.04984,-2.68328 8.04984,-2.68328c2.2037,1.10577 4.3222,2.36802 6.42925,3.65192c1.73474,-2.28535 4.88747,-2.28535 4.88747,-2.28535c1.9129,0.08582 3.89515,-0.26009 5.7387,0.25745c1.59742,0.44844 2.8131,1.76445 4.27286,2.55309c4.17729,2.25681 8.23822,4.74553 12.53842,6.75829c2.74967,1.28702 5.89694,1.70707 8.50234,3.26558c2.72638,1.63087 4.65413,4.3593 7.26656,6.16709c1.76646,1.22238 3.94819,1.72962 5.77596,2.85827c4.42549,2.73274 8.3084,6.25998 12.50148,9.33747c6.18462,4.53917 12.80689,8.46074 18.99447,12.99587c2.03439,1.49109 3.70304,3.45868 5.80161,4.85799c2.93025,1.95387 6.38129,3.07522 9.22077,5.15881c2.34513,1.72084 3.95949,4.28393 6.19076,6.15004c3.61835,3.02618 8.01089,5.00396 11.78583,7.83239c4.67056,3.49949 9.09146,7.32395 13.75817,10.82857c3.9685,2.39002 7.53638,5.39099 11.24183,8.17143c1.99493,1.49692 4.29811,2.57096 6.21417,4.16761c4.53813,3.78161 8.48328,8.23939 13.02308,12.01901c6.33546,5.2746 12.59022,10.70629 18.93907,15.94782c2.73522,2.25816 5.8516,4.04669 8.47729,6.43131c1.94767,1.76886 3.34567,4.1818 5.56056,5.60186l2.43871,2.39741c0,0 4.24264,4.24264 0,8.48528c-4.24264,4.24264 -8.48528,0 -8.48528,0l-1.56129,-1.60259c-1.10645,-0.76044 -2.36696,-1.33504 -3.31936,-2.28133c-1.22144,-1.21361 -1.84654,-2.95798 -3.12008,-4.11681c-2.32797,-2.11829 -5.15269,-3.6262 -7.58489,-5.62396c-6.37042,-5.23253 -12.65619,-10.70676 -18.99875,-15.99692c-4.52112,-3.77094 -8.45425,-8.21191 -12.97692,-11.98099c-1.77711,-1.48099 -3.93483,-2.44486 -5.78583,-3.83239c-3.54867,-2.66014 -6.9512,-5.55339 -10.75817,-7.82857c-4.82889,-3.61735 -9.41683,-7.5489 -14.24183,-11.17143c-1.71106,-1.28463 -10.84418,-7.02988 -12.21417,-8.16761c-2.11414,-1.75572 -3.59263,-4.22552 -5.80924,-5.84996c-2.69551,-1.9754 -5.99848,-2.98771 -8.77923,-4.84119c-2.23379,-1.48891 -4.03321,-3.55497 -6.19839,-5.14201c-6.19117,-4.53802 -12.81586,-8.46407 -19.00553,-13.00413c-5.26553,-3.86221 -5.55074,-5.01554 -11.49852,-8.66253c-1.98122,-1.21482 -4.31354,-1.81847 -6.22404,-3.14173c-0.32265,-0.22347 -0.63319,-0.46301 -0.93507,-0.71401c6.78896,6.28143 13.31561,12.90044 19.61938,19.59932c6.33476,6.7318 11.68171,14.4222 18.06493,21.06997c15.73491,16.38704 31.7218,32.67212 47.77319,48.74716c16.79761,16.82399 34.1819,32.90626 51.81608,48.84457c6.93986,6.27245 13.69563,12.90704 20.88217,18.89643c6.89564,5.74696 14.08967,11.14552 20.93854,16.9481c13.74474,11.64497 27.36742,23.65192 42.84049,32.87167l3.5618,3.49565c0,0 4.24264,4.24264 0,8.48528zM437.1611,213.23141c1.28575,1.12961 2.56212,2.27317 3.82935,3.42903c-1.22988,-1.20903 -2.41119,-2.47976 -3.82935,-3.42903z" fill="#851be2" stroke-width="0.5"/><path d="M670.54011,219.80336c0.74916,-1.50168 2.24915,-3.00505 5.25252,-3.00505c6,0 6,6 6,6l-4.54479,7.82086c-8.11492,2.0253 -16.35988,2.42026 -24.66032,2.38713c4.20511,1.05793 4.20511,5.79201 4.20511,5.79201l-0.04495,4.7331c-0.60064,1.66293 -0.76975,3.60004 -1.36737,5.2649c0.47075,0.00142 0.94152,0.00209 1.41232,0.002h8c0,0 6,0 6,6c0,6 -6,6 -6,6h-8c-17.31708,-0.00329 -34.60113,-0.98563 -51.80642,-3.05444c-11.72067,-1.40932 -23.37893,-3.81049 -35.1167,-5.30241c-18.70594,-2.67808 -37.9131,-6.38476 -56.01373,-11.96436c-5.65307,-1.74258 -10.79031,-4.85806 -16.26554,-7.09761c-5.56733,-2.27723 -11.40894,-3.8294 -17.01621,-6.00643c-1.99142,-0.77317 -3.97004,-1.59115 -5.9386,-2.44028c7.53033,5.56229 15.58398,9.72255 23.69727,14.41869c7.9354,4.59317 15.50797,9.9019 23.62688,14.18755c10.38732,5.48305 21.09949,10.37443 31.49488,15.88207c18.55219,8.55911 37.36834,17.95389 57.9302,20.40652c3.11393,0.37143 6.27196,-0.02928 9.40797,-0.02928h1c0,0 6,0 6,6c0,6 -6,6 -6,6h-1c-2.24706,0 -10.30989,0.00386 -10.59203,-0.02928c-22.0742,-2.59256 -42.15913,-12.40039 -62.0698,-21.59348c-10.48971,-5.54934 -21.29701,-10.49093 -31.77443,-16.02503c-8.27547,-4.37104 -15.94473,-9.73216 -24.03432,-14.41291c-8.98553,-5.19915 -17.9466,-9.81048 -26.19623,-16.19014c-4.01838,-3.10752 -7.42695,-6.9529 -10.80396,-10.74763c-3.57225,-4.01412 -5.95475,-5.02329 -8.79977,-10.13422c-0.19291,-0.34656 -0.36045,-0.70421 -0.51009,-1.06973c-4.60747,-2.19124 -9.33834,-4.49664 -11.31421,-5.65735c-2.53848,-1.49121 -4.75006,-3.48245 -7.19498,-5.12256c-1.84179,-1.23551 -4.00834,-2.01814 -5.65853,-3.49988c-2.62326,-2.35547 -5.00883,-6.14655 -7.04395,-9.1896c0,0 -2.44546,-3.66819 0.00038,-6.81214c-2.39944,-0.58554 -4.82581,-1.08465 -7.14949,-1.91121c-6.06409,-2.15708 -10.97765,-6.26932 -17.3138,-7.784c0,0 -5.82086,-1.45521 -4.36564,-7.27607c1.45521,-5.82086 7.27607,-4.36564 7.27607,-4.36564c6.78157,1.74952 12.19542,5.9447 18.6862,8.216c3.53204,1.23596 7.30391,1.69925 10.83444,2.93952c3.46171,1.21609 6.7146,2.97521 10.07133,4.46001c-0.91488,-0.67672 -1.81991,-1.35865 -2.71399,-2.04552c-3.98414,-3.06075 -8.08461,-6.02512 -11.64158,-9.5733c-1.25795,-1.25484 -2.06896,-2.89478 -3.22433,-4.24465c-2.58683,-3.02229 -5.91685,-5.8955 -8.70992,-8.68857c0,0 -4.24264,-4.24264 0,-8.48528c4.24264,-4.24264 8.48528,0 8.48528,0c3.00207,3.00207 6.5148,6.07814 9.29008,9.31143c1.01384,1.18116 1.67662,2.65304 2.77567,3.75535c7.0882,7.10929 16.32052,12.86456 24.82522,18.05917c6.52229,3.98377 12.88483,8.25982 19.6558,11.80451c2.9455,1.54201 6.09389,2.66878 9.10758,4.0712c1.61527,0.48429 3.22645,0.98169 4.8325,1.49564c7.02011,2.24647 13.9052,4.91657 20.9774,6.99325c16.91637,4.96731 34.24586,8.68475 51.37084,12.84967c25.11079,3.1181 49.91049,8.24628 75.20692,9.50915c12.2844,0.61327 25.2701,1.66933 37.46282,-0.60168zM640.64277,232.79644c-27.72008,-0.55705 -54.85242,-6.16516 -82.26284,-9.75354c7.96993,2.41842 15.96225,4.67384 24.03846,6.97987c10.69948,3.05507 20.15726,5.99091 31.16317,7.72052c4.25219,0.66824 15.92436,2.52902 18.87327,2.93352c3.21975,0.44165 6.44774,0.83202 9.6838,1.13149c0.89321,0.08266 1.81243,-0.13416 2.69533,-0.00589l-0.04134,-3.0041c0,0 0,-4.84371 4.35202,-5.82708c-2.82971,-0.04372 -5.66465,-0.11778 -8.50188,-0.1748zM432.73431,188.4342c-1.48991,-0.49365 -2.93819,-1.09622 -4.3699,-1.74241c0.52503,0.69153 1.00697,1.2649 1.37658,1.58871c1.25609,1.10046 2.9489,1.57842 4.34147,2.50012c2.3003,1.52251 4.35241,3.41652 6.72168,4.82807c-0.0186,-1.77595 -0.01234,-3.72728 -0.01157,-4.65452c-2.69774,-0.79975 -5.38542,-1.6344 -8.05825,-2.51999zM461.20524,205.47896c7.84935,3.69377 15.71629,7.60763 23.806,10.7446c5.59734,2.1705 11.42587,3.72403 16.98379,5.99357c5.30226,2.16515 10.25522,5.23514 15.73446,6.90239c17.3869,5.29056 35.79253,8.87092 53.74506,11.42976c2.73182,0.34715 5.45993,0.74422 8.18582,1.16682c-0.16439,-0.0478 -0.32889,-0.09523 -0.49349,-0.14224c-13.20402,-3.77132 -26.19019,-7.42165 -39.21206,-11.82451c-9.13049,-3.51067 -18.49463,-6.7811 -27.55995,-10.45097c-12.30231,-4.98029 -23.76999,-12.09512 -35.46511,-18.22113c-0.19081,-0.09995 -0.38247,-0.19814 -0.5749,-0.29477c-7.91979,-2.35459 -15.93412,-4.40523 -23.92099,-6.55912c-0.05791,0.75 -0.03562,1.48801 0.19826,2.19645c0.60157,1.82222 1.95837,3.31416 2.70378,5.08242c0.19831,0.47043 0.35055,0.95902 0.48443,1.45461c2.48597,1.16773 4.52667,2.11827 5.3849,2.52214z" fill="#420d70" stroke-width="0.5"/><path d="M626.26725,201.77414c0.84985,-0.58373 1.99157,-0.97583 3.52539,-0.97583c6,0 6,6 6,6l-6,7c-10.79262,0 -22.55746,-0.61074 -33.03825,-3.37632c-4.16386,-1.09872 -8.27061,-2.45348 -12.25785,-4.0804c-3.39939,-1.38707 -6.41421,-3.63178 -9.84531,-4.93843c-3.55175,-1.3526 -7.33333,-2 -11,-3c-12.72981,-6.25579 -25.62244,-12.02178 -38.3984,-18.16892c-8.74392,-4.20713 -17.67319,-7.58921 -26.21973,-12.26939c-14.29805,-7.82977 -27.52154,-17.03781 -40.85045,-26.3696c-9.11773,-6.38348 -17.72143,-12.99758 -26.21702,-20.1759c-1.93249,-1.63285 -4.17816,-2.94048 -5.83899,-4.84897c-1.884,-2.16495 -2.72581,-5.06167 -4.32631,-7.44386c0,0 -3.3282,-4.9923 1.6641,-8.3205c4.9923,-3.3282 8.3205,1.6641 8.3205,1.6641c1.38349,2.0884 2.01647,4.67756 3.67369,6.55614c1.15098,1.3047 2.8156,2.04792 4.16101,3.15103c8.35278,6.84847 16.57873,13.38217 25.44455,19.5872c12.97299,9.07955 25.82528,18.04918 39.73551,25.67678c20.37712,11.17369 42.44012,19.15718 63.13435,29.75221c3.66667,1 7.44855,1.64662 11,3c6.96851,2.65554 13.45195,6.6784 20.66523,8.57063c8.45009,2.21668 17.80803,2.88354 26.66797,3.01004z" fill="#420d70" stroke-width="0.5"/><path d="M616.47785,113.54648c-3.74817,4.68521 -8.43338,0.93704 -8.43338,0.93704l-4.79335,-3.8419c-6.451,-4.3091 -13.54082,-8.10647 -20.79019,-11.41657c7.1937,5.27157 14.28355,10.67588 21.47881,15.71697c3.32575,2.33007 6.82199,4.41521 10.09725,6.81574c2.15173,1.57706 3.97085,3.5861 6.16513,5.1034c2.21464,1.53138 4.80389,2.46894 7.01267,4.00877c4.1212,2.87306 5.77862,4.65594 8.82049,7.68573l0.44064,-0.12392c0,0 5.36656,2.68328 2.68328,8.04984c-2.68328,5.36656 -8.04984,2.68328 -8.04984,2.68328l-3.55936,-2.12392c-4.46173,-4.4833 -9.03422,-6.75272 -14.16684,-10.30549c-2.31515,-1.60253 -4.25511,-3.69855 -6.52629,-5.36282c-3.17746,-2.32837 -6.57495,-4.34229 -9.80165,-6.60192c-8.02184,-5.6176 -16.05414,-11.34754 -24.03534,-17.02495c-8.59895,-6.11684 -17.33844,-12.80789 -26.83483,-17.54372c-2.52969,-1.26155 -5.38074,-1.77723 -7.94238,-2.97257c-2.43533,-1.1364 -4.57038,-2.85145 -7,-4c-2.60956,-1.23361 -5.40504,-1.97908 -8.23243,-2.63356c-0.39612,-0.0508 -0.79175,-0.10418 -1.18672,-0.16086c-3.8191,-0.54808 -7.61085,-1.33693 -11.4562,-1.65185c-13.50827,-1.10628 -27.58218,0.70929 -41.00454,1.98795c-9.50077,0.90507 -19.21904,1.46555 -28.64962,2.95612c-10.24552,1.61937 -20.56602,3.91731 -30.74381,5.95452c0,0 -5.88348,1.1767 -7.06018,-4.70679c-0.62211,-3.11055 0.7292,-4.90548 2.14117,-5.90646c-0.93811,0.3899 -1.87166,0.7905 -2.79975,1.2032c-2.45946,1.09367 -5.48062,1.23047 -7.48712,3.02463c-0.80592,0.72063 -0.9536,1.99036 -1.72817,2.74457c-1.566,1.52481 -5.41254,2.37931 -5.55054,4.65473c0,0 -1.89737,5.6921 -7.58947,3.79473c-5.6921,-1.89737 -3.79473,-7.58947 -3.79473,-7.58947c0.64129,-1.58153 0.86912,-3.40295 1.92386,-4.7446c1.64487,-2.09229 4.67544,-2.68751 6.5256,-4.60068c0.91989,-0.95121 1.23873,-2.42855 2.27183,-3.25543c5.50555,-4.40658 14.3878,-6.76163 20.90707,-9.13584c4.36729,-1.59049 6.97051,-3.11215 11.68523,-4.20558c8.61118,-1.99709 17.29409,-1.63646 26.00569,-2.14891c2.68278,-0.15781 5.31654,-0.85416 8,-1c13.15668,-0.71502 26.33699,0.92719 39.31742,2.78077c9.63526,2.10141 17.48421,4.41634 26.98417,6.91686c1.60781,0.4232 3.23348,0.80517 4.85858,1.19233c5.18106,0.67576 10.43958,0.96299 15.50257,2.23874c11.30444,2.84845 22.16281,7.37155 33.05278,11.45521c12.83652,4.82621 25.78582,10.96502 37.19883,18.56118l5.20665,4.1581c0,0 4.68521,3.74817 0.93704,8.43338zM438.87212,71.86934c6.68113,-1.0539 13.49907,-1.66236 20.28842,-2.24387c-1.66638,0.01478 -3.33173,0.06669 -4.99508,0.16124c-2.68309,0.15251 -5.31722,0.84219 -8,1c-8.02653,0.47215 -16.05581,0.03029 -23.99431,1.85109c-3.27303,0.75071 -7.17146,2.65319 -10.31477,3.79442c-1.21254,0.44023 -2.42124,0.89234 -3.62423,1.35919c10.14727,-2.03676 20.43188,-4.31182 30.63998,-5.92206z" fill="#420d70" stroke-width="0.5"/><path d="M561.03527,31.04095c-3.50448,3.50448 -7.00897,1.21946 -8.12234,0.31825c-0.70288,-0.12543 -1.40406,-0.24107 -2.10371,-0.34737c-2.81912,0.00731 -5.6189,-0.05289 -8.38942,-0.22511c-2.4829,-0.15435 -4.95428,-0.45316 -7.42357,-0.77563c-9.71665,0.14426 -19.37389,1.48022 -29.435,2.73779c-10.70353,1.42731 -21.72954,2.39637 -32.3569,4.33722c-4.83688,0.88335 -18.42626,4.45083 -23.09537,5.56604c-4.86428,1.16182 -9.83705,1.82427 -14.71473,2.92846c-4.82876,1.09312 -9.22605,3.63878 -13.98721,4.99644c-3.21426,0.91656 -6.67812,0.86544 -9.83045,1.97647c-3.59123,1.26572 -6.76054,3.51321 -10.22548,5.09219c-8.11422,3.69768 -11.34123,4.2097 -18.54691,8.34207c-6.68534,3.83396 -12.31911,8.53998 -18.68336,12.80284c0,0 -4.9923,3.3282 -8.3205,-1.6641c-3.3282,-4.9923 1.6641,-8.3205 1.6641,-8.3205c3.18239,-2.10966 5.91297,-4.84412 9.04411,-7.02913c1.30968,-0.91394 2.90334,-1.34592 4.27253,-2.16803c2.06076,-1.23736 3.91128,-2.81044 6,-4c8.44244,-4.8081 10.19417,-4.62569 19.60694,-8.8887c3.8189,-1.72957 7.34833,-4.12261 11.30107,-5.51949c3.3671,-1.18992 7.05447,-1.2032 10.48915,-2.18108c4.77021,-1.3581 9.18128,-3.88294 14.01279,-5.00356c5.06255,-1.17421 10.23117,-1.86146 15.28527,-3.07154c2.92762,-0.70095 7.87025,-1.97787 12.67879,-3.16967c-3.68963,-0.05799 -7.38121,-0.18892 -11.06358,0.01605c-7.98895,0.44468 -15.80397,2.18458 -23.70766,2.97825c-1.57843,0.1585 -3.19432,-0.29009 -4.75902,-0.02879c-2.23155,0.37266 -4.30888,1.39955 -6.51274,1.91111c-3.41945,0.79373 -7.04971,0.68926 -10.37225,1.82212c-4.74887,1.61919 -9.47242,3.89078 -14.39777,5.12124c-2.41775,0.60401 -4.94447,0.64427 -7.39605,1.09161c-5.55475,1.01358 -10.91699,3.02432 -16.25604,4.804c0,0 -5.6921,1.89737 -7.58947,-3.79473c-1.89737,-5.6921 3.79473,-7.58947 3.79473,-7.58947c5.82776,-1.94259 11.67958,-4.0974 17.74396,-5.196c2.18646,-0.39609 4.44835,-0.36907 6.60395,-0.90839c4.6614,-1.16626 9.09318,-3.4041 13.60223,-4.87876c3.61035,-1.18074 7.94983,-1.33392 11.62775,-2.17788c2.52543,-0.5795 4.93133,-1.66364 7.48726,-2.08889c1.72333,-0.28672 3.50256,0.14431 5.24098,-0.02879c8.09015,-0.80558 16.11213,-2.5681 24.29234,-3.02175c0.16669,-0.00924 12.85805,-0.00745 14.29888,-0.00745c20.47512,0 40.84998,0.10759 61.27189,1.00616c3.90729,0.17192 7.78472,0.73234 11.66731,1.23399c5.38903,-0.04919 10.79684,0.23631 16.29701,1.02884c16.77748,0.01331 33.92285,-2.14493 50.21901,1.91015l0.54479,-0.17914c0,0 6,0 6,6c0,6 -6,6 -6,6l-3.45521,-0.17914c-12.21703,-3.07023 -25.19716,-2.3364 -38.03381,-1.85874c-0.08541,0.09348 -0.17481,0.187 -0.26834,0.28053z" fill="#420d70" stroke-width="0.5"/><path d="M461.79263,557.79831c0,6 -6,6 -6,6h-3c-5.55901,-0.01306 -8.8464,0.28238 -14.48636,-1.18702c-13.73875,-3.5794 -26.16566,-10.71902 -39.57738,-15.17907c-6.53717,-2.61178 -13.00785,-5.51621 -19.99755,-6.72852c-2.9598,-0.51335 -6.00012,-0.46341 -8.95715,-0.99246c-10.96877,-1.96244 -11.65576,-3.09432 -22.51583,-6.11241c-5.96478,-1.65766 -12.12195,-2.53733 -18.12874,-4.03559c-6.55244,-1.63437 -12.87418,-4.55813 -19.20778,-6.93347c-9.50127,-3.56334 -19.73692,-7.04991 -28.87112,-11.49461c-22.58122,-10.98801 -40.55688,-30.08254 -55.94316,-49.36629c-7.38098,-14.66362 -16.30218,-29.57216 -18.26997,-46.23746c-1.00704,-8.52865 0.09957,-17.89008 0.98819,-26.36291c0.21026,-2.00473 1.66847,-17.19465 2.06146,-19.43148c0.48104,-2.73799 1.4702,-5.36655 2.0173,-8.09211c0.49044,-2.44332 0.487,-4.97845 1.09161,-7.39605c0.40154,-1.60558 1.5168,-2.97628 1.90474,-4.58519c0.53339,-2.21211 -0.40257,-4.58152 -0.03079,-6.82645c0.68928,-4.16203 2.68181,-7.90474 4.93022,-11.36711c0,0 3.3282,-4.9923 8.3205,-1.6641c4.9923,3.3282 1.6641,8.3205 1.6641,8.3205c-1.35279,1.94838 -2.66438,4.22979 -3.06978,6.63289c-0.39777,2.35789 0.45813,4.83286 -0.03079,7.17355c-0.39571,1.89446 -1.62602,3.5372 -2.09526,5.41481c-0.53875,2.15574 -0.47424,4.42473 -0.90839,6.60395c-0.53096,2.66518 -1.50828,5.23207 -1.9827,7.90789c-0.26856,1.51472 -1.85904,17.81615 -1.93854,18.56852c-0.79682,7.54143 -1.90262,16.03218 -1.01181,23.63709c1.73369,14.80067 9.99095,28.18739 16.46315,41.22879c14.15528,17.5253 30.66315,35.17678 51.32371,45.16746c8.73121,4.22209 18.53612,7.53345 27.60078,10.93235c6.03981,2.2647 12.07588,5.10753 18.32032,6.63957c9.95714,2.44293 19.48856,4.79334 29.37482,7.5026c6.21016,1.70185 12.68534,2.2209 19.02346,3.35694c7.70115,1.38034 14.7925,4.38396 22.00245,7.27148c16.66498,5.56762 31.9299,15.68267 49.93625,15.63391h3c0,0 6,0 6,6z" fill="#420d70" stroke-width="0.5"/><path d="M677.79263,378.79831c0,1.8405 -0.56458,3.11643 -1.34736,4.00097c0.34736,1.10112 0.34736,1.99903 0.34736,1.99903l-0.3079,2.89737c-0.81649,1.78176 -0.93451,4.10179 -2.44946,5.34527c-5.74166,4.71282 -8.77372,2.58255 -14.55379,0.29438c-4.33119,-1.7146 -16.53445,-7.32932 -20.29447,-9.05448c-7.20473,-3.30566 -13.97118,-7.01128 -20.83047,-10.72041c-1.13598,-0.3431 -2.26698,-0.69229 -3.39247,-1.04755c-19.45285,-6.14027 -38.4043,-14.62505 -57.36299,-22.12914c-21.45107,-8.49061 -43.00539,-16.7786 -64.63935,-24.79117c-2.1055,-0.77991 -4.2062,-1.56919 -6.30253,-2.36728c2.29739,3.21262 4.60898,6.41525 6.91003,9.62509c2.25732,3.14884 4.08106,6.61089 6.51304,9.62687c12.9455,16.05414 31.36022,27.4295 50.04603,35.3733c10.16206,3.44846 20.46565,6.77319 31.20316,7.97199c6.61315,0.73833 13.74635,-0.07734 20.42226,0.05323l3.93627,1.23042c0,0 5.6921,1.89737 3.79473,7.58947c-1.89737,5.6921 -7.58947,3.79473 -7.58947,3.79473l-2.06373,-0.76958c-6.28055,0.23865 -13.36413,0.74073 -19.57774,0.05323c-11.86492,-1.31279 -23.17428,-4.90607 -34.40541,-8.71269c-20.64839,-8.79877 -40.72575,-21.28262 -55.05614,-38.98837c-2.59554,-3.20689 -4.56534,-6.87549 -6.97237,-10.22619c-4.68672,-6.52414 -9.4352,-13.00637 -13.96524,-19.64026c-1.21252,-1.77565 -2.64557,-3.416 -3.88028,-5.17522c-11.62108,-4.7703 -23.14762,-9.76121 -34.65281,-14.8765c-3.68242,-1.63723 -7.47062,-3.11254 -11.2718,-4.56529c0.36173,1.35054 0.74308,2.68113 1.14299,3.98598c1.61768,5.27827 3.20252,10.66367 5.92827,15.46443c1.71526,3.02103 4.01528,5.67803 5.80651,8.65464c2.02479,3.36473 3.47854,7.06335 5.62926,10.349c8.62295,13.17328 20.62585,23.89198 32.13605,34.44047c12.45068,11.455 27.62642,19.77172 42.51382,27.56732c7.5323,3.9442 15.3102,9.00655 23.12654,12.31132c14.49917,6.1303 29.35785,11.88294 44.32816,16.73401c6.90806,2.23853 14.02734,3.78191 20.94741,5.98303c5.97857,1.90165 11.83844,4.21075 17.91697,5.76349l2.2669,-0.04495c0,0 6,0 6,6c0,6 -6,6 -6,6l-3.7331,-0.04495c-6.80709,-1.67309 -13.40351,-4.11051 -20.08303,-6.23651c-6.95474,-2.2136 -14.10924,-3.76791 -21.05259,-6.01697c-9.96373,-3.2274 -19.8919,-6.83549 -29.69406,-10.70157h-1.43723c-7.4021,-0.0433 -13.71893,-2.04238 -20.81093,-4.27982c-16.03172,-5.0578 -31.45637,-12.45604 -45.34732,-21.98188c-1.72004,1.2617 -3.84175,1.2617 -3.84175,1.2617l-0.10263,-0.3079c-0.47304,0.15768 -6.21925,2.07871 -6.45105,2.13097c-2.59025,0.58403 -5.4676,0.31676 -7.8102,1.56682c-4.66139,2.48741 -10.19905,5.54148 -15.50146,6.50185c-5.59925,1.01413 -12.41189,0.10826 -18.13465,0.10826c-2.12617,-0.0535 -4.30157,0.29748 -6.37852,-0.16051c-1.824,-0.40221 -3.36598,-1.62249 -5.07942,-2.36605c-3.5654,-1.54724 -7.0169,-3.35332 -10.42932,-5.21381c-1.96035,-1.0688 -3.86904,-2.18263 -5.73511,-3.33665c6.54228,5.41435 13.16892,10.72487 19.84715,15.98256c3.40338,2.20742 6.80853,4.36849 10.17048,6.5072c8.29514,5.5127 16.20926,10.95944 25.26996,15.21169c9.09208,4.26699 18.38104,7.96715 27.64167,11.83676c13.57171,5.67102 27.02351,11.19388 41.16002,15.37369c9.72673,2.87596 19.65848,4.44536 29.61124,6.26276c4.13467,0.75501 13.45203,2.65022 18.29468,2.91393c9.14558,0.49805 18.45945,-0.01159 27.62718,-0.01159l-0.68328,-0.36656c0,0 5.36656,-2.68328 8.04984,2.68328c2.68328,5.36656 -2.68328,8.04984 -2.68328,8.04984l-4.68328,1.63344c-9.41327,0 -18.9836,0.51935 -28.37282,-0.01159c-5.64866,-0.31942 -14.48196,-2.1337 -19.70532,-3.08607c-2.66194,-0.48535 -5.32086,-0.95656 -7.97438,-1.43941c8.0817,3.77106 16.29139,7.58303 24.73907,9.77899c9.35251,2.43116 18.69193,3.75808 28.31345,3.75808l-0.68328,-0.36656c0,0 5.36656,-2.68328 8.04984,2.68328c0.49949,0.99898 0.72004,1.90499 0.74819,2.71801c0.38351,0.00355 0.76755,0.00694 1.15214,0.01022c0.20759,-0.05483 0.41517,-0.10966 0.62276,-0.16449c0.78662,-1.2224 3.3845,-4.45159 7.79362,-2.24702c5.36656,2.68328 2.68328,8.04984 2.68328,8.04984l-4.91135,5.13757c-1.57404,0.37806 -3.14808,0.75613 -4.72211,1.13419c-12.81369,0.08555 -25.13451,-0.17821 -37.84049,-2.05812c-11.06248,-1.63675 -22.50237,-6.4375 -32.95921,-10.26406c-7.182,-2.62816 -14.3749,-5.24133 -21.43572,-8.17957c-4.82914,-2.00956 -9.20477,-4.97073 -13.80388,-7.46214c-12.50455,-6.77393 -24.72586,-13.91436 -36.7519,-21.5103c-6.67028,-4.21311 -13.3352,-8.5053 -19.87955,-12.96622c-2.45106,-1.11614 -4.91494,-2.20958 -7.39613,-3.27272c-16.41416,-7.03503 -32.5898,-14.60024 -48.97371,-21.70336c-9.38992,-4.07093 -18.9929,-7.67215 -28.39124,-11.71484c6.8109,5.77612 13.30919,12.06566 20.40639,17.45895c9.06455,6.88833 18.4324,13.33301 27.4621,20.27813c13.42848,10.3372 27.86295,20.57715 42.66281,28.86637c10.00182,5.60189 20.78667,9.75835 31.39578,14.00199c4.83023,1.93209 9.44301,4.52371 14.48134,5.8196c2.92424,0.75214 5.88455,1.41318 8.88154,1.78046c1.30104,0.15944 2.63947,-0.1377 3.94915,-0.15964c0.13379,-0.34684 0.30581,-0.68866 0.46533,-1.03213c0.05229,-0.95915 0.58415,-5.83744 5.9943,-5.83744c6,0 6,6 6,6l-0.3079,2.89737c-0.84665,2.53995 -2.35805,7.6321 -4.18384,8.97009c-1.77615,1.30161 -4.31401,0.94773 -6.50826,1.13255c-7.61984,0.64181 -15.06325,-1.17535 -22.08662,-3.97245c-6.76348,-2.69359 -13.61457,-5.29137 -20.39089,-8.06356c-0.32431,0.03602 -0.52249,0.03602 -0.52249,0.03602h-1c-5.09888,0 -10.99824,0.67968 -15.96109,-0.07748c-2.32502,-0.35472 -4.45343,-1.5212 -6.71643,-2.1618c-6.2957,-1.78216 -12.55469,-3.75954 -18.61857,-6.21744c-10.21379,-4.14001 -19.68131,-8.69272 -29.02997,-14.54956c-10.0681,-6.30755 -19.34368,-14.64621 -28.64072,-22.26061c-0.10661,0.60505 -0.31911,1.2551 -0.66664,1.95017c-2.68328,5.36656 -8.04984,2.68328 -8.04984,2.68328l0.68328,-0.36656c-6.03576,0 -12.57399,0.55552 -18.59123,-0.0292c-1.6917,-0.16439 -3.31072,-0.8123 -5,-1c-6.00265,-0.66696 -11.35771,-0.78114 -17.04488,-3.58091c-2.35207,-1.15792 -4.38159,-2.87988 -6.57239,-4.31983c-7.66545,-4.62619 -15.43221,-10.64841 -21.89519,-16.79937c-5.495,-5.22971 -9.77445,-11.60448 -14.55735,-17.4925c-9.82083,-12.09003 -20.28159,-24.81338 -25.93081,-39.60306c-1.47723,-3.8674 -3.02058,-10.41658 -3.38771,-14.68025c-0.36444,-4.23242 -0.23124,-9.1869 -0.02044,-13.49488c0.03708,-0.75773 0.40642,-1.51743 0.25745,-2.2613c-0.50894,-2.54136 -3.65916,-3.67165 -5.50009,-5.49606c0,0 -4.24264,-4.24264 0,-8.48528c4.24264,-4.24264 8.48528,0 8.48528,0c2.68904,2.70962 7.24406,6.46572 8.49991,10.50394c0.30226,0.97193 0.25745,6.835 0.25745,8.7387c0,7.2102 -0.07634,13.94595 2.59185,20.82486c5.27732,13.60554 15.0167,25.2581 24.06919,36.39694c6.1607,7.58057 6.09051,9.33201 13.49781,16.34656c5.89737,5.58468 13.03806,11.18197 20.04965,15.36157c1.8092,1.22672 3.48051,2.68677 5.42761,3.68017c4.30649,2.19714 8.41311,1.91442 12.95512,2.41909c1.68928,0.1877 3.3093,0.82555 5,1c5.07589,0.52373 10.63255,0.07467 15.8081,-0.01454c-21.73714,-17.55157 -42.39397,-36.60104 -60.12092,-58.31242c-1.49285,-1.82839 -2.39361,-4.09652 -3.91846,-5.8983c-2.1506,-2.54119 -4.97638,-4.46856 -7.05542,-7.06863c-2.0116,-2.51573 -3.23999,-5.58182 -5.13989,-8.18295c-2.53153,-3.46588 -5.80852,-6.32133 -8.63541,-9.55083c-3.55696,-4.06357 -6.9477,-7.93472 -10.77187,-11.75889c0,0 -4.24264,-4.24264 0,-8.48528c4.24264,-4.24264 8.48528,0 8.48528,0c2.25905,2.25905 4.56869,4.56542 6.85966,6.92119c3.74997,-2.31155 7.14034,1.07881 7.14034,1.07881c3.01362,3.03755 6.89613,4.95004 9.88065,7.88392c1.27378,1.25217 1.99314,2.99251 3.25523,4.25646c0.82892,0.83014 1.68019,1.63631 2.54694,2.42589c4.28804,-1.82002 7.06684,2.34817 7.06684,2.34817c4.07057,6.23591 10.8182,11.33986 17.10254,15.18797c1.95324,1.19603 4.20759,1.85507 6.13888,3.08622c4.78838,3.05245 8.97863,7.00278 13.8561,9.91076c15.20484,9.06524 32.05259,14.6066 48.21767,21.6047c1.87744,0.81277 3.75207,1.63181 5.62457,2.45559c-7.51663,-5.42036 -14.7253,-11.2287 -21.1747,-17.6744c-3.10394,-3.10217 -6.04254,-6.36751 -8.87323,-9.73337c-0.71365,-0.65158 -1.42572,-1.30525 -2.13617,-1.96109c-6.84132,-6.31544 -13.90624,-11.8732 -20.79399,-18.11765c-2.3152,-2.09897 -4.13689,-4.73384 -6.59593,-6.6623c-2.11469,-1.6584 -4.85174,-2.38532 -7,-4c-1.75804,-1.32138 -2.73807,-3.56329 -4.60635,-4.72359c-2.09923,-1.30373 -4.6868,-1.57472 -6.98741,-2.47674c-3.3779,-1.32441 -6.69498,-2.88559 -10.21949,-3.74705c0,0 -5.82086,-1.45521 -4.36564,-7.27607c1.45521,-5.82086 7.27607,-4.36564 7.27607,-4.36564c4.04599,1.02942 7.91311,2.68036 11.78051,4.25295c2.98801,1.21501 6.2599,1.84185 9.01259,3.52326c2.14637,1.31105 3.38009,3.7693 5.39365,5.27641c0.10891,0.08152 0.21933,0.16078 0.33108,0.23801c-0.13318,-0.31787 -0.27111,-0.63335 -0.41611,-0.94528c-2.49742,-5.37267 -4.72165,-10.14798 -6.31766,-15.84696c-0.7121,-2.54276 -2.42661,-4.74022 -3.07877,-7.29901c-0.53816,-2.11149 -0.09126,-4.43949 -0.85261,-6.48115c0,0 -1.89737,-5.6921 3.79473,-7.58947c5.6921,-1.89737 7.58947,3.79473 7.58947,3.79473c0.41014,1.31209 1.02304,2.57731 1.23042,3.93627c0.1802,1.18084 -0.36528,2.42189 -0.08303,3.58258c0.57576,2.36768 2.24106,4.36116 2.92123,6.70099c0.13283,0.45693 0.2691,0.90551 0.40874,1.34706c0.387,-1.76754 1.65777,-4.66953 5.83053,-4.66953c6,0 6,6 6,6c-0.04374,3.63212 -2.16578,8.08001 -0.51291,11.57268c2.082,4.39947 4.97939,6.81999 8.09103,10.54907c1.79468,2.15079 2.96561,4.79403 4.8684,6.8498c0.54659,0.59054 13.61618,11.73549 14.4991,12.50827c5.37094,4.70092 10.71724,9.4675 16.52065,13.62274c3.58018,2.56341 7.55579,4.52852 11.42098,6.63781c5.16939,2.82101 10.14718,6.52403 16.11275,6.25963c4.95364,0 11.02311,0.99362 15.86535,0.10826c4.35719,-0.79667 8.60875,-3.64075 12.49854,-5.49815c3.41265,-1.62957 7.25713,-2.24687 11.02414,-3.06312c-7.07812,-5.44364 -13.95442,-11.08293 -20.5312,-17.20716c-10.92441,-10.1727 -20.54932,-21.94243 -29.91913,-33.53127c-6.712,-8.30158 -13.55535,-16.70707 -19.82939,-25.33418c-1.09013,-1.49899 -1.72601,-3.29871 -2.83754,-4.7819c-3.96607,-5.29221 -8.01179,-9.37576 -13.95405,-12.32591c0,0 -5.36656,-2.68328 -2.68328,-8.04984c2.68328,-5.36656 8.04984,-2.68328 8.04984,-2.68328c7.51484,3.77993 13.03243,8.99418 18.04595,15.67409c1.22088,1.62668 1.96617,3.57325 3.16246,5.2181c2.89136,3.97548 5.94011,7.83327 8.96611,11.70811c-2.57581,-5.04346 -4.27989,-10.52761 -5.93336,-15.94805c-1.25552,-4.11585 -2.34195,-8.44983 -3.23408,-12.86204c-0.7626,-0.32966 -1.52102,-0.66546 -2.27445,-1.00862c-9.40757,-4.28485 -18.46978,-10.76605 -26.97089,-16.58003c-5.50352,-3.7639 -11.51306,-6.89661 -16.45531,-11.37208c-2.07542,-1.8794 -3.60779,-4.28275 -5.42025,-6.41688c-2.11156,-2.48632 -5.21521,-4.38686 -6.35175,-7.44443c-0.82715,-2.22524 0.64096,-4.70454 0.96143,-7.05682c0,0 1.45521,-5.82086 7.27607,-4.36564c5.82086,1.45521 4.36564,7.27607 4.36564,7.27607c-0.34619,0.31439 -1.31816,0.56833 -1.03857,0.94318c0.88772,1.19015 2.59265,1.51143 3.64825,2.55557c1.71131,1.69273 2.80247,3.95979 4.57975,5.58312c1.5797,1.44286 3.60799,2.30168 5.37442,3.50875c6.47132,4.4221 12.17216,8.72533 18.8028,12.87088c3.76451,2.35361 7.4591,4.86514 11.31847,7.05831c-0.22365,-2.23935 -0.39034,-4.45983 -0.49679,-6.64322c-0.19576,-4.0152 0.17167,-8.04374 -0.00302,-12.05992c-0.52188,-11.99833 -2.52076,-23.50527 1.30174,-35.16925c0,0 1.89737,-5.6921 7.58947,-3.79473c1.09115,0.36372 1.9034,0.86688 2.5036,1.44265c-0.42812,-0.83057 -0.8743,-1.64993 -1.39327,-2.42235c0,0 -3.3282,-4.9923 1.6641,-8.3205c4.9923,-3.3282 8.3205,1.6641 8.3205,1.6641c1.44401,2.17975 2.26063,4.76329 3.87515,6.81994c1.34521,1.7136 3.25639,2.9154 4.66527,4.57705c4.39544,5.18403 8.19248,10.88103 12.84875,15.83211c5.43509,5.77921 11.22193,11.21723 16.83173,16.82703c5.26135,5.26135 10.26902,10.9044 15.83283,15.84154c7.93659,7.04267 16.78087,12.90607 24.79285,19.81935c2.98726,2.57761 5.69373,5.48238 8.79254,7.92475c6.50205,5.12467 14.74973,10.06294 21.65507,14.66657c7.63787,4.90987 15.81082,10.95552 23.68333,15.4716c8.00878,4.59425 16.89434,7.68806 24.91327,12.28634c5.04126,2.8908 9.77353,6.32701 14.94805,8.97187c8.49734,4.34326 17.02873,8.2058 25.43214,12.63427c16.03755,4.83104 33.12286,8.42431 49.56777,10.71361l0.16895,-0.05783c0,0 6,0 6,6zM436.1952,289.1891c7.79178,3.46177 15.59211,6.86812 23.4252,10.18694c-1.68468,-3.62511 -3.51582,-7.19442 -4.62308,-11.02389c-0.57343,-1.98323 -0.5302,-4.10392 -1.02777,-6.10753c-0.54763,-2.20521 -1.73632,-4.24223 -2.09945,-6.48522c-0.70605,-4.36106 -0.19964,-9.82605 -0.09521,-14.49344c-4.34348,-4.34328 -15.28727,-15.28705 -15.36374,-15.36854c-4.7535,-5.06616 -8.66897,-10.86026 -13.15125,-16.16789c-1.63604,-1.9373 -3.78536,-3.41567 -5.33473,-5.42295c-0.46019,-0.5962 -0.86175,-1.23104 -1.23368,-1.88559c0.30455,1.74073 -0.20677,3.27469 -0.20677,3.27469c-3.3979,9.96639 -1.14292,20.59941 -0.69826,30.83075c0.17281,3.97627 -0.18758,7.96434 -0.00302,11.94008c0.1985,4.27603 0.65687,8.72374 1.34236,13.16539c6.358,2.50497 12.85284,4.79529 19.06939,7.55721zM497.1295,314.33959c12.86341,4.76423 25.6987,9.62556 38.50107,14.5686c-3.09158,-2.09785 -6.15024,-4.17797 -9.12443,-6.09002c-7.21723,-4.81141 -15.71531,-9.9361 -22.50587,-15.27828c-3.18651,-2.50685 -5.97801,-5.48043 -9.04652,-8.1304c-8.14916,-7.03764 -17.13614,-13.00684 -25.20715,-20.18065c-2.09462,-1.86177 -4.11435,-3.81875 -6.09902,-5.81714c0.02087,0.14344 0.04336,0.28532 0.06758,0.42551c0.33097,1.91599 1.42571,3.62929 1.90055,5.51478c0.48616,1.93044 0.4323,3.97638 0.97223,5.89247c1.30641,4.63617 3.96524,8.78308 5.74797,13.25774c0.90669,2.27579 1.30902,4.74688 2.15038,7.04074c7.49735,3.03889 15.03815,5.98031 22.64321,8.79664zM510.0757,498.9733c0.0085,-0.02409 0.01678,-0.04821 0.02483,-0.07236zM400.64586,459.87058c-9.0614,-6.97114 -18.46957,-13.43342 -27.56088,-20.35493c-7.77531,-5.9196 -14.84254,-12.8744 -22.37419,-19.10005c-10.99638,-9.08959 -22.34709,-17.68055 -32.98496,-27.20581c-0.00966,-0.00865 -0.01931,-0.0173 -0.02896,-0.02595c0.17101,0.18375 0.34158,0.36788 0.51164,0.55245c10.95478,11.88941 21.93876,24.20775 34.47286,34.49281c6.1275,5.02802 12.44505,9.81985 18.66631,14.73138c6.26942,4.94954 12.50849,9.93777 18.80819,14.84872c4.30325,3.35461 8.33068,7.11188 12.96283,9.99539c8.71454,5.42482 17.47364,9.57733 26.97003,13.45044c0.57211,0.23334 1.14634,0.46132 1.72249,0.68439c-10.75684,-6.83824 -21.21952,-14.42348 -31.16537,-22.06884z" fill="#420d70" stroke-width="0.5"/></g></g></svg>