<svg version="1.1" xmlns="http://www.w3.org/2000/svg" xmlns:xlink="http://www.w3.org/1999/xlink" width="25.05951" height="25.77488" viewBox="0,0,25.05951,25.77488"><g transform="translate(-228.83457,-167.08629)"><g data-paper-data="{&quot;isPaintingLayer&quot;:true}" fill="#bf00ff" fill-rule="nonzero" stroke="none" stroke-width="0.5" stroke-linecap="butt" stroke-linejoin="miter" stroke-miterlimit="10" stroke-dasharray="" stroke-dashoffset="0" style="mix-blend-mode: normal"><path d="M249.73134,190.50348c-2.42536,0.60634 -3.0317,-1.81902 -3.0317,-1.81902l-0.26004,-1.39223c-1.43025,-2.58918 -2.13872,-3.7706 -4.49529,-4.45866c-0.08741,0.04437 -0.14084,0.06574 -0.14084,0.06574c-3.5972,1.41588 -4.4356,2.51979 -5.85728,6.10728l-0.69948,2.11209c0,0 -0.79057,2.37171 -3.16228,1.58114c-2.37171,-0.79057 -1.58114,-3.16228 -1.58114,-3.16228l0.80052,-2.38791c1.52464,-3.78129 3.04507,-5.92949 5.98975,-7.62457c-0.05827,-0.05947 -0.08912,-0.09649 -0.08912,-0.09649l-0.82945,-1.10046c-2.03145,-1.52359 -3.55589,-2.7548 -5.92848,-3.67881c0,0 -2.32119,-0.92848 -1.39272,-3.24967c0.92848,-2.32119 3.24967,-1.39272 3.24967,-1.39272c2.77008,1.13106 4.69496,2.53877 7.07152,4.32119l0.70976,0.80705c2.20758,-3.04743 4.37333,-5.79058 8.11176,-7.37824l2.63615,-0.61928c0,0 2.44047,-0.54233 2.98279,1.89814c0.54233,2.44047 -1.89814,2.98279 -1.89814,2.98279l-1.86385,0.38072c-2.7482,0.99611 -4.4914,3.41705 -6.14215,5.85661c3.25972,1.15115 4.94408,3.1066 6.89907,6.60809l0.73996,2.60777c0,0 0.60634,2.42536 -1.81902,3.0317z"/></g></g></svg>