<svg version="1.1" xmlns="http://www.w3.org/2000/svg" xmlns:xlink="http://www.w3.org/1999/xlink" width="355.73892" height="355.73892" viewBox="0,0,355.73892,355.73892"><g transform="translate(-54.60761,-5.22822)"><g data-paper-data="{&quot;isPaintingLayer&quot;:true}" fill-rule="nonzero" stroke-linecap="butt" stroke-linejoin="miter" stroke-miterlimit="10" stroke-dasharray="" stroke-dashoffset="0" style="mix-blend-mode: normal"><path d="M394,186.00001c0,88.14694 -72.97758,159.60417 -163,159.60417c-90.02242,0 -163,-71.45723 -163,-159.60417c0,-88.14694 72.97758,-159.60417 163,-159.60417c90.02242,0 163,71.45723 163,159.60417z" fill="#4b0f7f" stroke="none" stroke-width="0"/><path d="M122.33333,186.00001c0,-60.01493 48.65173,-108.66667 108.66667,-108.66667c60.01493,0 108.66667,48.65173 108.66667,108.66667c0,60.01493 -48.65173,108.66667 -108.66667,108.66667c-60.01493,0 -108.66667,-48.65173 -108.66667,-108.66667z" fill="#7a19d0" stroke="none" stroke-width="0"/><path d="M244.64478,156.52924c0.67496,-2.35166 1.93041,-4.5397 2.37103,-6.9463c0.81517,-4.45239 -0.82463,-9.65995 3.79565,-13.1387c1.7349,-1.30626 4.25905,-0.96282 6.42868,-1.05737c0.43863,-0.01912 0.88247,-0.01542 1.32836,0.01061c-0.09485,-0.41426 -0.14495,-0.84557 -0.14495,-1.28859c0,-0.67809 0.11738,-1.32877 0.33292,-1.93282c-0.92608,-1.40523 -1.82743,-2.67787 -2.28482,-3.61711c-2.01192,-4.13142 -3.70599,-10.8958 -2.44436,-15.53743c1.41654,-5.21155 5.18998,-8.61088 10.55888,-9.55888c0.2938,-0.05188 0.59307,-0.08788 0.89669,-0.11119c2.71421,-1.93979 8.49677,-3.71391 11.21641,-3.47297c2.52437,0.22365 5.82414,-0.32424 7.46439,1.57368c0.42601,-0.04927 0.85586,-0.09054 1.29035,-0.12233c0.19589,-1.03499 0.39295,-2.12567 1.15366,-2.78681c0.18352,-0.1595 6.89356,-2.68536 8.1949,-3.17735l0.65361,-0.3268c0.20023,-2.76622 1.31205,-4.39678 2.5744,-7.00146c0,0 2.57148,-5.14296 7.71443,-2.57148c5.14296,2.57148 2.57148,7.71443 2.57148,7.71443c-0.51537,0.98205 -1.36484,1.91254 -1.3937,3.02123c-0.04585,1.76096 1.33548,1.63565 1.79211,3.87243c0.73621,3.60627 0.2671,7.65444 -2.07629,10.6578c-1.05764,1.35551 -2.76252,2.04757 -4.14403,3.07102c-0.51771,0.38353 -0.9776,0.86129 -1.55363,1.14991c-0.1422,0.07125 -0.43968,-0.30174 -0.4551,-0.14343c-0.22008,2.25876 -0.59898,4.69295 -1.93469,6.5277c-0.659,0.90521 -2.00887,1.0573 -2.81176,1.83774c-1.38364,1.34495 -2.00604,3.32088 -3.28138,4.76893c-2.24384,2.54773 -4.11649,5.09354 -5.73661,8.0064c-2.04706,4.4639 -3.69772,9.11904 -6.01869,13.44622c-1.45419,2.71118 -3.27747,5.18695 -5.31339,7.50147c0.00934,0.92908 0.03419,1.84297 0.03419,2.71111c-0.15124,3.12166 -1.2079,5.97808 -2.69101,8.69296c1.18403,0.423 2.37672,0.82385 3.58551,1.18305c4.25646,1.26485 9.76656,1.79209 13.32317,4.79034c3.52661,2.97295 3.19184,7.46498 5.83793,10.81205c1.93935,2.45311 5.28666,4.12793 7.65951,6.09165c5.33559,4.41565 10.72085,7.91665 15.63644,12.94811c-0.69562,2.97216 -0.21295,6.50689 -2.08685,8.91647c-0.06988,0.08986 -0.14325,0.17512 -0.21985,0.25607c0.64949,0.8915 1.29226,1.78707 1.9307,2.68299c0.51442,0.56942 1.03033,1.12726 1.55238,1.6609c1.65795,1.69473 3.8826,3.07337 4.79435,5.42745c0.4567,1.17916 0.80697,2.3931 1.11684,3.62026c0.91802,1.46432 1.82714,2.81574 3.28446,4.05534l2.21875,9.80518c-0.39071,-0.02044 -0.78235,-0.0339 -1.17462,-0.04269c2.83299,3.04164 5.52978,6.21098 7.91772,9.53059c0,0 3.30308,4.70661 -1.40354,8.00969c-3.13917,2.20306 -5.65398,0.843 -6.98083,-0.30721c-3.50363,0.94397 -5.88924,-2.31475 -5.88924,-2.31475c-1.87195,-2.58197 -4.30904,-4.70629 -6.34263,-7.16297c-3.75905,-4.54114 -6.79482,-9.73713 -10.90136,-13.96705c-0.0375,-0.03862 -0.07506,-0.07719 -0.11269,-0.1157l-4.13438,-0.01395c-9.48475,-4.83624 -17.33451,-11.69529 -25.11293,-18.79064c-8.02246,-3.98845 -15.83614,-8.17476 -23.49511,-12.63191c-2.11739,0.85166 -4.34263,1.37015 -6.61932,1.71335c-0.57764,0.77466 -1.19132,1.52334 -1.87754,2.21628c-2.7418,2.76866 -5.77877,5.12245 -8.88019,7.38599c-2.1598,5.01517 -4.6788,9.89505 -7.90138,14.73767c-5.25929,7.87729 -10.75744,14.85319 -18.52569,20.35553l-2.99613,1.24108c-1.35832,0.81998 -2.76436,0.94224 -2.76436,0.94224c-0.58467,0.05073 -1.16949,0.10062 -1.75438,0.15026c-4.69846,5.10949 -12.80704,6.26593 -18.67226,9.26431c-1.73957,0.86678 -3.58632,1.50968 -5.31287,2.4021c-1.89711,0.98057 -3.4559,3.4585 -5.57099,3.16368c-3.85764,-0.53771 -6.27,-1.72979 -7.548,-3.29554c-0.91515,1.39766 -1.81907,2.82093 -2.83101,4.23955c-4.50083,7.06086 -15.63758,12.51553 -21.12091,2.54768c-0.90505,-1.64523 -0.56456,-3.75454 -0.36345,-5.62148c0.38822,-3.60385 3.01875,-7.142 4.74517,-10.0373c2.21378,-3.71263 4.41107,-7.21835 6.88518,-10.60504c0.26473,-0.72161 0.5344,-1.42944 0.74507,-2.10193c0.30531,-0.97457 1.54859,-1.36112 2.13569,-2.19676c0.7027,-1.00017 0.90337,-2.3198 1.69306,-3.25281c1.37017,-1.61884 3.21456,-2.90393 5.11195,-4.08738c1.37286,-1.55546 2.75982,-3.09692 4.16768,-4.61935c-0.42594,-0.81901 -0.7804,-1.76812 -1.04925,-2.8604c-0.55308,-2.24705 1.96983,-4.19239 3.09969,-6.21193c2.67798,-4.78666 7.15529,-7.98797 11.35893,-11.32698l0.44185,-0.01361l-0.11763,-0.19604l2.41896,-1.45138c0.88181,-0.55015 1.92348,-0.86804 3.03939,-0.86804c1.96912,0 3.70706,0.98981 4.74341,2.49904c3.25287,-1.4113 6.89219,-2.46796 10.14537,-3.39064c2.5837,-0.29267 5.18201,-0.49313 7.78223,-0.57156c3.33992,-3.10577 7.47745,-6.49021 10.68355,-9.23355c0.79431,-0.67966 1.90915,-0.94225 2.64565,-1.68417c0.9523,-0.95931 1.4161,-2.32187 2.32466,-3.3227c1.02122,-1.12493 2.04948,-2.08733 3.02075,-3.05389c-0.35109,-0.24794 -0.70198,-0.4967 -1.05266,-0.74627c-3.55528,-2.53019 -7.09405,-5.10303 -10.47545,-7.86242c-0.99362,-0.74146 -1.98644,-1.48489 -2.97861,-2.23057c-0.01756,-0.01077 -0.03511,-0.02154 -0.05268,-0.03231c-0.68465,0.08016 -1.37376,0.10344 -2.06895,0.04881c-1.62492,-0.12769 -2.29943,-2.19957 -3.44427,-3.45455c-0.88157,-0.56331 -1.75625,-1.13292 -2.6246,-1.71031c-0.78703,-0.3923 -1.58409,-0.77034 -2.30981,-1.25999c-3.35472,-2.26343 -6.75423,-4.82684 -9.96486,-7.51415c-1.10139,-0.63824 -2.17399,-1.29775 -2.72767,-2.35404c-0.74694,-0.66504 -1.47882,-1.33437 -2.19232,-2.00549l1.31308,-3.99156c-1.47459,-1.54568 -2.90688,-3.10467 -4.28739,-4.66944c-3.57256,-4.04942 -6.51654,-8.61436 -9.88996,-12.83112c-1.21992,-1.52489 -2.42788,-3.06186 -3.61066,-4.61786c-0.81436,-0.62515 -1.62992,-1.24887 -2.44692,-1.87084c-7.20177,-5.48259 -14.54789,-10.60982 -21.52281,-16.38946l-5.36349,-10.07264c3.82522,-0.27479 7.64307,-0.9627 11.47565,-0.82438c2.60164,0.0939 4.55603,2.10647 6.75877,3.08595c0.29157,0.12965 0.58485,0.25531 0.87957,0.37756c3.09624,-1.03571 5.55377,1.43107 5.88491,1.78406l4.3047,0.89884c2.01538,0.98664 4.00917,1.87993 5.97313,2.84962c3.2831,1.15028 6.53452,2.41087 9.77766,3.9727l1.11601,5.7391l-0.90848,1.27222c-0.58249,0.91617 -1.11901,1.89538 -1.78172,2.7015l7.1164,1.58283c0.6979,0.53121 1.40289,1.04843 2.11332,1.555c1.93781,-0.3905 3.87877,-0.71063 5.83872,-0.6081c1.18817,0.06215 1.86127,1.48319 2.81412,2.19571c1.16843,0.87373 2.47493,1.56062 3.79799,2.17558l2.78192,2.45233c0,0 1.74566,1.97998 1.52993,4.43965l-0.00003,-0.00002c0.4868,0.39147 0.97094,0.78534 1.45111,1.18291c0.95069,0.78717 2.37344,1.15225 2.94289,2.24732c0.15512,0.29829 0.30328,0.59963 0.44539,0.90362c9.01151,6.64313 18.06672,13.12612 27.34253,19.4151c0.64063,-1.60569 1.20246,-3.24455 1.67114,-4.90706zM194.67354,217.79874v-0.26067c-0.13552,0.06214 -0.26978,0.12512 -0.40266,0.18894c0.13465,0.02145 0.26886,0.04542 0.40266,0.07172zM195.77796,217.05977c-0.23785,0.09751 -0.47309,0.19717 -0.70513,0.29911c0.13133,0 0.28771,0 0.45767,0c0.08221,-0.09995 0.16467,-0.19967 0.24746,-0.29911z" fill="#f6deff" stroke="none" stroke-width="0.5"/><path d="M191.27828,136.66309c2.23607,-1.11803 3.3541,1.11803 3.3541,1.11803l0.40766,0.83179c5.20614,8.67691 12.79694,15.57872 21.24302,21.20611c0,0 0.32568,0.21712 0.6334,0.60841c0.24645,0.24385 0.37985,0.42172 0.37985,0.42172l0.94639,1.39396c2.75898,1.5168 5.68742,4.14656 8.62203,5.16777c2.88788,1.00495 5.94791,1.89413 9.03183,2.67215c-0.43323,-6.58979 -1.27407,-13.14147 -1.22957,-19.76511l-0.41024,-1.95244c-3.40213,-3.78588 -3.16166,-8.39284 -1.18164,-13.39482l-0.17881,-1.07152c0,0 0,-2.5 2.5,-2.5c2.5,0 2.5,2.5 2.5,2.5l-0.17881,2.92848c-0.91785,2.26665 -1.60469,4.61249 -0.87144,6.59502c0.22073,-0.07521 0.45919,-0.13946 0.71675,-0.19097c4.16747,-0.83349 5.00096,3.33397 5.00096,3.33397l0.56185,2.91471c0.03471,6.09795 0.69284,12.12516 1.13181,18.17793c2.22719,-2.62622 4.6961,-5.09096 7.00057,-7.62508c1.45545,-1.60049 3.86099,-3.41834 5.2525,-5.37157c-0.02466,-0.08644 -0.04663,-0.17711 -0.06565,-0.2722c-0.31532,-1.57662 0.58613,-2.34205 1.26968,-2.68758c0.54302,-1.03787 1.60497,-2.05271 3.68177,-2.05271c1.11512,0 1.93765,0.29259 2.54437,0.72422c1.03135,-0.20399 2.05824,-0.41463 3.08071,-0.64105c1.13,-1.51416 2.58986,-3.6355 4.19528,-4.53736c2.05534,-1.1546 6.10187,-1.3279 8.4333,-1.78365l2.74634,-0.01217c0,0 2.5,0 2.5,2.5c0,2.5 -2.5,2.5 -2.5,2.5l-2.25366,-0.01217c-0.1237,0.02542 -0.25402,0.04904 -0.38997,0.07127c0.0906,0.26576 0.14362,0.57682 0.14362,0.9409c0,2.5 -2.5,2.5 -2.5,2.5l0.42848,-0.17881c-4.05974,1.62206 -8.17427,2.58941 -12.3624,3.43637l-0.12005,0.82084c-2.71065,6.0441 -8.42902,10.48305 -13.08755,15.46948c0.82632,0.54331 1.58436,1.18198 2.25846,1.90035c6.83726,0.91523 13.24298,-1.10374 19.94106,-2.49162c0.43495,-0.2818 0.83567,-0.38198 0.83567,-0.38198c5.90788,-1.46873 11.90989,-2.2188 17.87911,-3.38047c0.27324,-0.24786 1.88412,-1.57282 3.495,0.03806c1.76777,1.76777 0,3.53553 0,3.53553l-1.77748,1.18368c-4.74811,0.94651 -9.52931,1.59551 -14.26102,2.54836c0.01362,0.15982 0.02073,0.32646 0.02073,0.50019c0,4.25 -4.25,4.25 -4.25,4.25l0.33349,-0.08253c-6.46389,1.28948 -12.47562,2.92671 -18.83412,2.95887c-0.00722,0.72868 -0.07678,1.44244 -0.20361,2.13619c1.63889,0.96032 3.14357,2.16608 4.78544,3.81024c2.29599,2.29919 3.66153,6.16528 6.60321,7.78157c4.20703,2.31153 8.91371,3.70511 13.21625,5.84435l2.58704,1.29352c-0.03553,-0.72257 0.20489,-1.63358 1.39427,-2.22827c2.23607,-1.11803 3.3541,1.11803 3.3541,1.11803c0.55716,1.16737 0.82105,2.52745 1.67148,3.5021c2.05161,2.35125 5.13297,3.55005 7.69072,5.33761c3.68423,2.57483 7.30779,5.08357 10.90173,7.77833l1.76777,1.73223c0,0 1.76777,1.76777 0,3.53553c-1.76777,1.76777 -3.53553,0 -3.53553,0l-1.23223,-1.26777c-3.54975,-2.66298 -7.12488,-5.13658 -10.76654,-7.68042c-1.17649,-0.82182 -7.8476,-5.29099 -8.64101,-6.20364c-0.0357,-0.04107 -0.07071,-0.0826 -0.10507,-0.12458c-0.05471,0.13389 -0.11658,0.27033 -0.18606,0.4093c-1.90066,3.80132 -5.70197,1.90066 -5.70197,1.90066l-3,-1.5c-5.63986,-2.83803 -12.52784,-4.33848 -17.15112,-8.84342c-3.13614,-3.05586 -4.77415,-6.59163 -8.03503,-8.78108c-2.15517,1.76448 -4.91055,2.82318 -7.91319,2.82318c-0.41638,0 -0.82801,-0.02036 -1.23394,-0.06014c0.31764,1.53402 0.57911,3.1125 0.90468,4.74314c1.08409,5.42981 2.53758,10.85796 3.93463,16.21767c1.11093,4.26206 3.86263,7.58856 4.629,11.98406l0.26564,-0.63473c0,0 4.25,0 4.25,4.25c0,1.39881 -0.46039,2.33722 -1.07811,2.96678c1.04738,0.21998 2.10226,0.41368 3.17178,0.55696c3.48323,0.46662 6.86183,0.48659 10.33356,0.98256l2.32278,-0.00629c0,0 2.5,0 2.5,2.5c0,2.5 -2.5,2.5 -2.5,2.5l-2.67722,-0.00629c-3.58295,-0.51185 -7.06616,-0.53949 -10.66644,-1.01744c-4.10745,-0.54528 -7.99528,-1.83738 -12.06733,-2.51028c0,0 -2.46598,-0.411 -2.05499,-2.87698c0.26326,-1.57953 1.36962,-1.97871 2.13102,-2.06158c-2.04119,-3.33181 -4.09475,-6.86608 -5.58166,-10.37739c-1.58025,-3.73172 -2.2937,-8.23893 -3.21969,-12.17358c-0.67925,-2.88622 -1.452,-5.75215 -2.03443,-8.65946c-0.51882,-2.58982 -0.4893,-5.31514 -1.48501,-7.6957c-4.73757,7.60677 -9.9372,15.04821 -15.52557,22.03366l-1.31349,1.35025c0,0 -0.36804,0.36804 -0.97531,0.71772c-0.38155,0.49388 -0.76374,0.98716 -1.1734,1.45142c-2.9628,3.3577 -6.88127,6.38597 -10.08872,9.59342l-0.0317,0.35027c0,0 -1.11803,2.23607 -3.3541,1.11803c-2.23607,-1.11803 -1.11803,-3.3541 -1.11803,-3.3541l0.9683,-1.64973c2.91681,-2.91681 6.52501,-5.70644 9.31041,-8.73423c-2.22409,-2.82696 0.45216,-5.50321 0.45216,-5.50321l0.68651,-0.64975c4.92132,-6.15165 9.58678,-12.68208 13.81824,-19.37655c-0.47366,0.24277 -0.94638,0.48756 -1.41737,0.7365c-1.20266,0.63569 -2.27621,1.67843 -3.33516,2.71247c-0.15828,0.6696 -0.53274,1.37867 -1.24182,2.08774c-3.0052,3.0052 -6.01041,0 -6.01041,0l-0.00497,-0.76555c-2.07295,0.3899 -4.04393,0.76055 -6.06135,1.58154l-1.63791,0.55052c0,0 -2.37171,0.79057 -3.16228,-1.58114c-0.79057,-2.37171 1.58114,-3.16228 1.58114,-3.16228l1.36209,-0.44948c2.62985,-1.03705 5.15477,-1.48359 7.88534,-2.02066l-0.00686,-1.05815c2.25292,-1.67263 4.00859,-3.89526 6.46782,-5.305c2.72325,-1.56109 5.666,-2.80129 8.39557,-4.43935c0,0 1.76711,-1.06027 3.57862,-0.47367c0.0766,-0.29835 0.16395,-0.59239 0.26159,-0.88169c-2.09179,-0.65435 -4.17685,-1.32658 -6.29878,-1.90749c-1.08597,-0.2973 -2.26876,-0.20985 -3.32324,-0.60454c-3.88627,-1.45463 -7.87543,-4.62823 -11.37797,-6.83223l-2.05361,-2.60604c0,0 -1.66917,-2.22556 -0.50598,-4.42592c-7.62713,-5.57351 -14.38343,-12.24731 -19.23775,-20.33784l-0.59234,-1.16821c0,0 -1.11803,-2.23607 1.11803,-3.3541z" fill="#000000" stroke="none" stroke-width="0.5"/><path d="M67.85761,183.09768c0,-90.91681 73.70264,-164.61946 164.61946,-164.61946c90.91682,0 164.61945,73.70264 164.61945,164.61946c0,90.91682 -73.70264,164.61946 -164.61945,164.61946c-90.91682,0 -164.61946,-73.70264 -164.61946,-164.61946z" fill="none" stroke="#7a19d0" stroke-width="26.5"/></g></g></svg>