<svg version="1.1" xmlns="http://www.w3.org/2000/svg" xmlns:xlink="http://www.w3.org/1999/xlink" width="608.5" height="434.5" viewBox="0,0,608.5,434.5"><g transform="translate(63.75,38.0625)"><g data-paper-data="{&quot;isPaintingLayer&quot;:true}" fill-rule="nonzero" stroke-linejoin="miter" stroke-miterlimit="10" stroke-dasharray="" stroke-dashoffset="0" style="mix-blend-mode: normal"><path d="M-63.5,396.1875v-434h608v434z" fill="#000000" stroke="#000000" stroke-width="0.5" stroke-linecap="butt"/><path d="" fill="#0015ff" stroke="#00ffff" stroke-width="5.5" stroke-linecap="butt"/><path d="" fill="#0015ff" stroke="#00ffff" stroke-width="5.5" stroke-linecap="butt"/><path d="" fill="#0015ff" stroke="#00ffff" stroke-width="5.5" stroke-linecap="butt"/><path d="" fill="none" stroke="#00ffff" stroke-width="5.5" stroke-linecap="round"/><path d="" fill="none" stroke="#00ffff" stroke-width="5.5" stroke-linecap="round"/><path d="" fill="none" stroke="#00ffff" stroke-width="5.5" stroke-linecap="round"/><path d="" fill="none" stroke="#00ffff" stroke-width="5.5" stroke-linecap="round"/><path d="" fill="none" stroke="#00ffff" stroke-width="5.5" stroke-linecap="round"/><path d="" fill="none" stroke="#00ffff" stroke-width="5.5" stroke-linecap="round"/><path d="" fill="none" stroke="#00ffff" stroke-width="5.5" stroke-linecap="butt"/><path d="M122.29666,180c0,-65.00576 52.69758,-117.70334 117.70334,-117.70334c65.00576,0 117.70334,52.69758 117.70334,117.70334c0,65.00576 -52.69758,117.70334 -117.70334,117.70334c-65.00576,0 -117.70334,-52.69758 -117.70334,-117.70334z" fill="#00a013" stroke="#00c016" stroke-width="12.5" stroke-linecap="butt"/><path d="M180.55387,180c0,-32.83119 26.61494,-59.44613 59.44613,-59.44613c32.83119,0 59.44613,26.61494 59.44613,59.44613c0,32.83119 -26.61494,59.44613 -59.44613,59.44613c-32.83119,0 -59.44613,-26.61494 -59.44613,-59.44613z" fill="none" stroke="#00c016" stroke-width="27" stroke-linecap="butt"/><path d="M237.78989,70.46344v16.02305" fill="none" stroke="#00d619" stroke-width="5" stroke-linecap="round"/><path d="M239.96251,269.10267l0.27158,19.82513" fill="none" stroke="#00d619" stroke-width="5" stroke-linecap="round"/><path d="M350.4944,176.61833l-18.46724,0.54316" fill="none" stroke="#00d619" stroke-width="5" stroke-linecap="round"/><path d="M286.13061,98.18192l7.33258,-13.03571" fill="none" stroke="#00d619" stroke-width="5" stroke-linecap="round"/><path d="M319.80618,131.31432l13.85044,-6.78943" fill="none" stroke="#00d619" stroke-width="5" stroke-linecap="round"/><path d="M291.83374,255.30162l8.96204,15.4799" fill="none" stroke="#00d619" stroke-width="5" stroke-linecap="round"/><path d="M323.87984,219.18187l13.57885,9.5052" fill="none" stroke="#00d619" stroke-width="5" stroke-linecap="round"/><path d="M147.89631,177.39916l-17,-1" fill="none" stroke="#00d619" stroke-width="5" stroke-linecap="round"/><path d="M155.89631,134.89916l-11.5,-7" fill="none" stroke="#00d619" stroke-width="5" stroke-linecap="round"/><path d="M191.39632,99.39915l-8,-12" fill="none" stroke="#00d619" stroke-width="5" stroke-linecap="round"/><path d="M155.89632,220.89915l-13.5,8.5" fill="none" stroke="#00d619" stroke-width="5" stroke-linecap="round"/><path d="M188.89632,252.39915l-11.5,17.5" fill="none" stroke="#00d619" stroke-width="5" stroke-linecap="round"/><path d="M234.25,180c0,-3.17564 2.57436,-5.75 5.75,-5.75c3.17564,0 5.75,2.57436 5.75,5.75c0,3.17564 -2.57436,5.75 -5.75,5.75c-3.17564,0 -5.75,-2.57436 -5.75,-5.75z" fill="#008a10" stroke="none" stroke-width="0.5" stroke-linecap="butt"/></g></g></svg>