<svg version="1.1" xmlns="http://www.w3.org/2000/svg" xmlns:xlink="http://www.w3.org/1999/xlink" width="7.75" height="12.55042" viewBox="0,0,7.75,12.55042"><g transform="translate(-236.19816,-169.94958)"><g data-paper-data="{&quot;isPaintingLayer&quot;:true}" fill-rule="nonzero" stroke="none" stroke-width="0.5" stroke-linecap="butt" stroke-linejoin="miter" stroke-miterlimit="10" stroke-dasharray="" stroke-dashoffset="0" style="mix-blend-mode: normal"><path d="M237.44816,175.19958c0,-1.38071 1.11929,-2.5 2.5,-2.5c1.38071,0 2.5,1.11929 2.5,2.5c0,0.05033 -0.00149,0.10032 -0.00442,0.14992c0.16293,0.33196 0.25442,0.70534 0.25442,1.10008c0,0.30783 -0.05564,0.60267 -0.15741,0.875c0.10177,0.27233 0.15741,0.56717 0.15741,0.875c0,0.41669 -0.10195,0.80957 -0.28225,1.15506c0.05486,0.20587 0.08409,0.42221 0.08409,0.64536c0,1.38071 -1.11929,2.5 -2.5,2.5c-1.38071,0 -2.5,-1.11929 -2.5,-2.5c0,-0.41669 0.10194,-0.80957 0.28225,-1.15506c-0.05486,-0.20587 -0.08409,-0.42221 -0.08409,-0.64536c0,-0.30783 0.05563,-0.60267 0.1574,-0.875c-0.10177,-0.27233 -0.1574,-0.56717 -0.1574,-0.875c0,-0.05033 0.00149,-0.10032 0.00442,-0.14992c-0.16293,-0.33196 -0.25442,-0.70534 -0.25442,-1.10008z" fill="#ff5a00"/><path d="M243.94816,175.94958c0,1.38071 -1.11929,2.5 -2.5,2.5c-0.59162,0 -1.13524,-0.2055 -1.56337,-0.54902c-0.35305,0.19074 -0.75719,0.29902 -1.18663,0.29902c-1.38071,0 -2.5,-1.11929 -2.5,-2.5c0,-1.08761 0.69452,-2.01301 1.66425,-2.35689c-0.10612,-0.27736 -0.16425,-0.57844 -0.16425,-0.89311c0,-1.38071 1.11929,-2.5 2.5,-2.5c1.38071,0 2.5,1.11929 2.5,2.5c0,0.42963 -0.10838,0.83396 -0.29928,1.18712c0.90919,0.37413 1.54928,1.26875 1.54928,2.31288z" fill="#ff5a00"/></g></g></svg>