<svg version="1.1" xmlns="http://www.w3.org/2000/svg" xmlns:xlink="http://www.w3.org/1999/xlink" width="483.53435" height="217.96622" viewBox="0,0,483.53435,217.96622"><g transform="translate(179,4.1875)"><g stroke-miterlimit="10"><path d="M-179,-1.6875c0,-1.38071 1.11929,-2.5 2.5,-2.5c1.38071,0 2.5,1.11929 2.5,2.5c0,1.38071 -1.11929,2.5 -2.5,2.5c-1.38071,0 -2.5,-1.11929 -2.5,-2.5z" fill="#ffffff" stroke="none" stroke-width="0.5"/><path d="" fill="#ffffff" stroke="none" stroke-width="0.5"/><path d="" fill="#ffffff" stroke="none" stroke-width="0.5"/><path d="M179.5,208.80953v-57.61905h121v57.61905z" fill-opacity="0.81569" fill="#550084" stroke="none" stroke-width="0"/><text transform="translate(207.33189,193.15323) scale(0.97092,0.97092)" font-size="40" xml:space="preserve" fill-opacity="0.50196" fill="#000000" stroke="none" stroke-width="1" font-family="&quot;Orbitron-VariableFont_wght&quot;, Sans Serif" font-weight="normal" text-anchor="start"><tspan x="0" dy="0">roll</tspan></text><text transform="translate(205.37701,191.65104) scale(0.97092,0.97092)" font-size="40" xml:space="preserve" fill="#ffffff" stroke="none" stroke-width="1" font-family="&quot;Orbitron-VariableFont_wght&quot;, Sans Serif" font-weight="normal" text-anchor="start"><tspan x="0" dy="0">roll</tspan></text><text transform="translate(191.47496,205.47103) scale(0.33568,0.33568)" font-size="40" xml:space="preserve" fill-opacity="0.50196" fill="#000000" stroke="none" stroke-width="1" font-family="&quot;Orbitron-VariableFont_wght&quot;, Sans Serif" font-weight="normal" text-anchor="start"><tspan x="0" dy="0">aurora potion</tspan></text><text transform="translate(190.36141,203.58019) scale(0.33568,0.33568)" font-size="40" xml:space="preserve" fill="#ff0000" stroke="none" stroke-width="1" font-family="&quot;Orbitron-VariableFont_wght&quot;, Sans Serif" font-weight="normal" text-anchor="start"><tspan x="0" dy="0">aurora potion</tspan></text><path d="M180.71828,175.3333h-2.47258v-26.11045h26.43684v2.31161" fill="none" stroke="#ffffff" stroke-width="4.5"/><path d="M299.61797,185.23969l2.47252,-0.01691l0.17853,26.10984l-26.43622,0.18077l-0.01581,-2.31156" fill="none" stroke="#ffffff" stroke-width="4.5"/></g></g></svg>