<svg version="1.1" xmlns="http://www.w3.org/2000/svg" xmlns:xlink="http://www.w3.org/1999/xlink" width="630.03527" height="558.67308" viewBox="0,0,630.03527,558.67308"><g transform="translate(-86,13.18879)"><g data-paper-data="{&quot;isPaintingLayer&quot;:true}" fill-rule="nonzero" stroke="none" stroke-linecap="butt" stroke-linejoin="miter" stroke-miterlimit="10" stroke-dasharray="" stroke-dashoffset="0" style="mix-blend-mode: normal"><path d="M412,202.00001c0,88.14694 -72.97758,159.60417 -163,159.60417c-90.02242,0 -163,-71.45723 -163,-159.60417c0,-88.14694 72.97758,-159.60417 163,-159.60417c90.02242,0 163,71.45723 163,159.60417z" fill="#4b0f7f" stroke-width="0"/><path d="M140.33333,202.00001c0,-60.01493 48.65173,-108.66667 108.66667,-108.66667c60.01493,0 108.66667,48.65173 108.66667,108.66667c0,60.01493 -48.65173,108.66667 -108.66667,108.66667c-60.01493,0 -108.66667,-48.65173 -108.66667,-108.66667z" fill="#7a19d0" stroke-width="0"/><path d="M296.95259,242.60403c-3.87036,-1.79528 -8.20121,-2.95897 -11.76126,-5.43093c-5.32358,-3.69651 -8.54317,-8.85894 -11.75764,-14.21585c-0.5061,-0.2796 -1.02651,-0.6147 -1.56696,-1.01887c-1.10535,-0.82664 -1.90307,-2.00312 -2.54049,-3.27044c-1.39512,-0.72553 -2.95623,-1.09603 -5.06542,-1.93004c-4.98517,-1.97124 -10.24242,-3.75639 -14.88746,-6.4475c-2.99671,-1.73615 -5.53969,-4.37073 -8.33913,-6.2266c-4.92333,-3.26388 -10.97489,-5.66463 -14.05047,-11.17645c-0.54712,-0.98051 -0.37725,-2.26674 -0.95253,-3.23101c-0.14807,-0.2482 -0.55512,0.31069 -0.83429,0.23595c-1.77425,-0.47496 -3.70192,-0.7732 -5.19074,-1.84883c-2.07206,-1.497 -3.10462,-4.06199 -4.67574,-6.07844c-2.72247,-2.121 -5.1886,-4.79633 -8.19274,-6.52081c-1.99961,-1.14784 -4.32004,-1.80043 -6.0924,-3.27513c-0.71556,-0.59538 -1.05756,-1.54491 -1.71486,-2.20406c-2.30725,-2.31378 -5.06276,-4.3253 -7.34708,-6.74976c-2.16522,-1.23805 -5.21906,-2.98714 -5.24456,-3.01062c-1.74648,-1.60822 -3.70627,-3.2674 -4.53471,-5.49232c-0.4256,-1.14302 -0.66608,-1.99806 -0.76816,-2.62107c-0.14489,-0.20896 -0.2795,-0.42053 -0.40417,-0.62636c-0.24554,-0.40539 -0.41332,-0.84464 -0.54348,-1.30042c-0.69965,-0.37121 -1.42378,-0.7115 -2.15942,-1.0361c-2.48835,-0.28077 -4.93001,-0.96402 -6.47364,-2.43921c-0.21203,-0.07557 -0.42917,-0.16461 -0.65758,-0.26963c-1.02709,-0.08007 -1.93853,-0.34426 -2.518,-1.13302c-0.14089,-0.19178 -0.27611,-0.38094 -0.40579,-0.56754c-0.07845,-0.05064 -0.15832,-0.10236 -0.23964,-0.15518c-3.80486,-2.47129 -11.02594,-11.08389 -3.87866,-15.33273c-1.30578,-0.77422 -2.50926,-2.20133 -2.50926,-4.83191c0,-5.75 5.75,-5.75 5.75,-5.75c5.3413,0 11.49071,-0.08821 16.57343,1.88685c6.40473,2.48878 11.46016,7.6939 16.86343,11.75332c2.23684,1.68052 7.0126,4.58218 8.62901,7.04397c0.93875,1.42971 2.24106,2.89701 3.01006,4.45747c0.16813,-0.07831 0.3396,-0.15044 0.51467,-0.21594c9.32928,-6.38261 13.90672,2.80742 11.99209,9.58875c1.37024,0.85712 2.73552,1.73022 4.09553,2.64739c2.75141,1.8555 6.2949,2.82893 8.33291,5.44804c0.36534,0.46952 0.36078,1.14851 0.13979,1.80546c0.03867,0.01835 0.07674,0.035 0.11413,0.04961c1.1485,0.44902 2.25507,1.00002 3.39993,1.45822c0.58121,0.23262 9.91255,3.88233 11.25608,4.15111c3.78571,0.75734 8.21587,-0.52349 11.47947,1.53905c1.81754,1.14865 2.17036,3.71229 3.24662,5.5736c1.12622,1.9477 1.62464,4.24772 2.9287,6.08111c1.10566,1.55446 2.83929,2.62026 4.28177,3.89345c0.11572,-0.03372 0.23073,-0.06891 0.34486,-0.10588l0.79753,0.38381v-0.43939h3c3.17564,0 5.75,2.57437 5.75,5.75c0,1.92548 -0.94643,3.62991 -2.39946,4.67347c0.63246,0.28573 1.26817,0.56754 1.90467,0.84934c0.39324,0.12591 0.76806,0.293 1.11939,0.4962c0.26865,0.11947 0.53719,0.23936 0.80543,0.35994l0.31996,-0.10665v-0.5223h2.5c3.02004,0 5.49629,2.32827 5.7317,5.28778c0.72987,0.52463 1.43805,1.08595 2.1193,1.69229c3.44567,3.06676 5.57195,7.41681 9.47004,10.07598c0.42447,0.28957 0.80246,0.66487 1.17516,1.04651c0.48627,0.14183 0.93271,0.32228 1.32487,0.55125c0.15238,0.08898 0.30355,0.17974 0.45358,0.27219l0.04365,-0.13094l2.86539,0.95513c0.07193,0.01762 0.14274,0.04084 0.21224,0.07075l1.29658,0.43219c1.71362,0.52701 3.08589,1.83332 3.70323,3.5053c0.0883,0.08028 0.18748,0.14352 0.30467,0.17925c2.52641,0.7703 5.91989,0.16167 8.50212,0.60539c1.95937,0.33669 3.84575,1.01002 5.76864,1.51503c1.75478,2.09476 5.16136,3.55359 5.26434,6.28428c0.14896,3.94964 -2.80654,6.36655 -5.86102,8.17198c0.05083,0.25703 0.10882,0.50796 0.1798,0.74831c0.89163,3.01901 2.15357,7.44959 0.58864,10.5588c-1.42197,2.82519 -6.0245,5.18786 -9.025,5.64522c-1.12736,0.17184 -2.25064,-0.5468 -3.38851,-0.47127c-1.0978,0.07287 -2.0937,0.69654 -3.17364,0.90681c-3.80978,0.74178 -7.75239,1.08484 -11.6224,1.06978l-0.49728,-0.40269l-0.0638,0.31901l-2.39555,-0.47911c-2.68748,-0.4827 -4.72679,-2.83281 -4.72679,-5.65923c0,-2.44573 1.52694,-4.53482 3.67952,-5.36595c-1.09832,-0.69371 -2.19849,-1.38426 -3.37325,-1.92918zM256.67025,179.47629c0.14662,0.11528 0.29318,0.23059 0.43967,0.34591c0.02744,-0.12502 0.00556,-0.22645 -0.11413,-0.28634c-0.10703,-0.05355 -0.2156,-0.06957 -0.32555,-0.05957zM298.28656,231.01044c0.01187,-0.08293 0.02517,-0.16484 0.03996,-0.24562c-2.56084,-1.24516 -5.09361,-2.59342 -7.57357,-4.04736c-0.13075,-0.01101 -0.26418,-0.02306 -0.40067,-0.03655c0.39863,0.33413 0.81428,0.64983 1.24902,0.94431c2.05512,1.39204 4.35371,2.41461 6.68525,3.38522z" fill="#f6deff" stroke-width="0.5"/><path d="M235.84326,195.04961c0.32237,-0.56682 0.61321,-1.16486 1.0075,-1.67188c1.84889,-2.37744 3.71394,-5.25152 5.82947,-7.38845c2.44328,-2.468 4.9009,-4.97714 7.42868,-7.41605c0.0177,-4.384 4.65973,-5.31241 4.65973,-5.31241c0.55244,-0.11049 1.07001,-0.2226 1.55846,-0.33918c0.83745,-0.70608 1.68614,-1.39656 2.54778,-2.06803c2.12177,-1.65348 3.64046,-4.356 6.20915,-5.15459c0.17832,-0.05544 0.35736,-0.10752 0.53706,-0.15649l-0.07758,-0.13577l3.41232,-1.9499c0.86038,-0.51299 1.86601,-0.8077 2.94047,-0.8077c0.0355,0 0.07092,0.00032 0.10626,0.00096c0.75128,-0.70182 1.57712,-1.37535 2.40638,-2.04763c-0.44712,-1.19707 -0.54956,-2.52193 -0.12256,-3.96481c0.48111,-1.62573 1.48046,-2.99852 2.80101,-4.16234c0.75714,-2.69559 3.62618,-3.24318 7.7564,-5.61262c0.82701,-0.0355 1.69844,0.16323 2.48103,-0.10651c0.33163,-0.1143 0.27447,-0.65905 0.50561,-0.92291c0.71079,-0.81139 1.48563,-1.56885 2.29845,-2.278c2.31401,-2.01884 5.24305,-3.14417 6.95521,-5.80339c1.63468,-2.53888 1.82179,-5.89022 3.42096,-8.3757c1.62387,-2.52387 4.04049,-4.17415 6.62429,-5.51753c0.56898,-0.29582 1.38178,-0.16422 1.81546,-0.63663c0.7963,-0.8674 0.89139,-2.22006 1.64084,-3.12826c4.14177,-5.01909 10.62324,-6.68438 15.99799,-9.70976c1.63675,-0.92131 2.96698,-2.74127 4.83965,-2.88578c0.40004,-0.03087 0.79908,-0.03926 1.19729,-0.02906l-0.03746,-0.26225l3.40208,-0.48601c0.29674,-0.04724 0.60105,-0.07178 0.91109,-0.07178c3.17564,0 5.75,2.57436 5.75,5.75c0,0.86807 -0.19236,1.6912 -0.53678,2.42911c1.8075,0.96915 3.03678,2.87646 3.03678,5.07089v2.5h-0.57046c-0.02847,0.05888 -0.05792,0.1172 -0.08832,0.17494l-0.47006,0.94011l0.52179,1.45642c-0.48747,0.46577 -0.97455,0.9321 -1.46201,1.39802c-0.01807,0.05555 -0.03268,0.10857 -0.0426,0.15817c-0.21659,1.08293 -0.32608,2.19912 -0.69957,3.23842c-1.33819,3.72372 -3.51155,7.15953 -5.94878,10.22591c-2.46816,3.10531 -7.88445,6.92154 -9.20363,10.67004c-0.34619,0.98371 -0.01729,2.17758 -0.53598,3.08229c-1.06096,1.85056 -2.32809,3.70404 -4.06481,4.94259c-2.16637,1.54496 -5.14069,1.37705 -7.69888,2.10896c-1.41399,0.40455 -2.09387,2.09435 -3.32137,2.90445c-1.65506,1.09228 -3.78846,2.13864 -5.86619,2.82125c-0.53289,1.50101 -0.95773,3.06091 -1.52725,4.53212c0.24258,1.20737 0.10125,2.64579 -1.01202,4.11928c1.08077,0.61303 1.93044,1.41105 2.24342,2.56076c0.79735,2.92899 -2.28099,5.67257 -3.96466,8.19844c-0.53902,0.80864 -1.74785,0.8846 -2.5,1.5c-1.75127,1.43286 -3.55588,2.8028 -5.25478,4.29738c-1.94073,1.70732 -3.39327,3.9055 -5.21797,5.73631c0,0 -4.06586,4.06586 -8.13173,0c-0.6103,-0.6103 -1.03738,-1.2206 -1.3225,-1.81714c-0.93323,0.5271 -1.83564,0.81265 -2.49904,0.27478l-2.66696,0.88899c-0.60766,0.21847 -1.26275,0.33751 -1.94564,0.33751c-1.03651,0 -2.00896,-0.27425 -2.84874,-0.75415c-2.4984,2.4695 -4.55134,2.83294 -8.17699,3.23456c-0.37992,0.04209 -0.86354,0.11864 -1.35369,0.16775c0.85801,2.84485 -1.70082,4.78966 -4.46307,7.40733c-0.67809,0.6426 -1.7287,0.75481 -2.51543,1.25039l0.45793,0.49412c0.09519,0.21212 0.25465,0.40966 0.33992,0.62403c0.66964,-0.22363 1.35928,-0.42239 2.06008,-0.42403c2.51361,-0.00588 7.1178,0.14953 9.58737,0.60375c3.7015,0.68081 6.72937,3.37316 10.06842,5.10963l-4.22753,4.27101c0.15042,0.03448 0.30167,0.06278 0.45389,0.08368c0.43158,0.05925 0.86768,0.11749 1.30726,0.17573c2.90268,-5.93174 11.05714,-10.68746 16.47684,-8.49708c6.12467,2.47529 6.87821,5.87637 5.51023,9.22233c3.34332,-0.09175 6.64872,-0.3705 9.96006,-0.60562c2.3067,-2.86005 6.18176,-1.56836 6.18176,-1.56836l1.81719,0.61619c0.44676,0.21309 1.49527,0.20702 1.47903,0.58874c0.66673,0 1.38548,0 1.38548,0c3.17564,0 5.75,2.57436 5.75,5.75c0,3.17564 -2.57436,5.75 -5.75,5.75h-2.5v-0.52437c-0.07932,0.03458 -0.15896,0.06847 -0.23894,0.10164l0.23894,0.42274c-2.87163,0 -5.7174,0.1747 -8.56159,0.37805c0.20194,0.58681 0.31159,1.21657 0.31159,1.87195c0,3.17564 -2.57436,5.75 -5.75,5.75c-0.42718,0 -0.84348,-0.04658 -1.24409,-0.13495l-1.15293,-0.23059c-0.0827,0.28366 -0.18785,0.57714 -0.31789,0.88057c-2.26504,5.28508 -7.55012,3.02005 -7.55012,3.02005c-3.9149,-1.72014 -7.7908,-3.44741 -9.62853,-7.43264c-1.59761,0.77527 -3.31835,1.45577 -5.24643,2.08841c-1.10458,0.36244 -2.11012,1.21101 -3.27263,1.20539c-2.63494,-0.01272 -5.20268,-0.83926 -7.80402,-1.25888c-0.46953,-1.32376 -0.50494,-2.896 -1.40859,-3.97128c-0.51285,-0.61025 -1.66387,-0.06885 -2.34064,-0.49003c-1.94601,-1.21106 -4.11788,-2.37937 -5.36268,-4.30397c-1.40024,-2.16493 -1.72492,-4.56833 -1.29254,-6.86083c-0.16583,-0.00013 -0.33145,-0.01356 -0.49684,-0.04456c-1.89844,-0.35576 -3.76752,-1.08908 -5.37969,-2.15282c-0.54421,-0.35908 -0.96685,-0.85428 -1.35582,-1.38718c-1.00141,1.06012 -2.08371,2.05331 -3.20661,2.95575c0.20098,0.58556 0.31008,1.21382 0.31008,1.86756c0,1.31539 -0.44169,2.52762 -1.18485,3.49647l-1.46515,1.95353l-0.37098,-0.27824c-0.28933,0.57428 -0.63149,1.118 -1.04842,1.61847c-1.30323,1.56433 -3.86886,1.27817 -5.83678,1.80053c-0.49327,0.13093 -0.98801,0.25634 -1.48408,0.3766c-0.01555,0.07721 -0.03136,0.1549 -0.04743,0.23306c-0.18754,0.9124 -0.65029,1.72818 -1.21761,2.49229c1.01005,1.89867 1.14548,4.38896 -0.09105,7.6403c-0.79383,2.0873 -5.97039,4.47219 -8.30667,5.16087c-3.38097,0.99663 -6.93611,1.26345 -10.3847,1.99483c1.76525,0.89128 4.2971,2.8603 4.67617,4.29682c0.69989,2.65226 -1.52605,5.31924 -2.85958,7.71633c-0.54254,0.97523 -1.81415,1.31593 -2.60387,2.10445c-5.06827,5.06063 -8.4948,10.88983 -16.40773,11.14249c-1.99712,0.06377 -3.95476,-0.30852 -5.91894,-0.62833c-1.39746,0.83669 -3.42768,1.29831 -5.87647,-0.32861c-3.33473,0.36465 -9.98273,1.68922 -12.40923,0.35438c-0.32503,-0.1788 -0.63612,-0.3761 -0.93559,-0.58886l-0.11254,0.28135l-2.37564,-0.95026c-2.1838,-0.81541 -3.73886,-2.92034 -3.73886,-5.38848c0,-2.82642 2.0393,-5.17654 4.72678,-5.65923l1.81879,-0.36376c2.89093,-1.49506 5.98402,-2.51333 8.85745,-3.72622c1.91326,-0.80759 3.84091,-2.88365 5.63854,-4.02242c0.5277,-0.33429 1.27215,-0.35761 1.6797,-0.83103c0.54844,-0.63709 1.07588,-1.32103 1.5901,-2.03064c-0.00546,-0.01607 -0.01089,-0.0322 -0.01629,-0.0484c-1.81831,-5.45493 3.63662,-7.27324 3.63662,-7.27324c0.67544,-0.22515 1.35125,-0.44637 2.02753,-0.66365c0.49815,-0.60101 1.01395,-1.18747 1.54485,-1.75887c0.3556,-0.38273 1.02903,-0.47865 1.24228,-0.95557c0.5072,-1.13431 0.25273,-2.52848 0.81176,-3.63817c0.74376,-1.47638 2.00506,-2.62892 3.00759,-3.94339c0.28504,-0.15449 0.56786,-0.31227 0.84869,-0.47298c-0.57861,-0.8971 -0.91439,-1.96556 -0.91439,-3.11245c0,-1.2675 0.41011,-2.43921 1.10488,-3.38968c-0.13506,-0.1686 -0.27497,-0.34962 -0.42075,-0.54445c-4.67207,-6.24416 -5.98,-7.56721 1.99439,-13.70882c2.11807,-1.63127 7.47884,-0.89943 10.00489,-1.07906c0.04054,-0.00288 1.58776,-0.38432 2.89012,-0.55634c1.53923,-2.08476 3.42326,-4.09246 5.77318,-5.14751c0.98782,-0.4435 2.19651,-0.61725 3.46443,-0.54688c0.28606,-0.14577 0.5726,-0.2871 0.85971,-0.42415c0.11212,-0.44927 0.27709,-0.87761 0.48792,-1.27805l1.44827,-2.89654l4.57148,-3.57148c0,0 2.59386,-1.29693 5.01842,-0.20659zM316.63765,148.69862c-0.51492,0.1735 -1.02604,0.35844 -1.53548,0.54838c0.3635,-0.03501 0.73183,-0.07627 1.10857,-0.13476c0.25223,-0.03916 0.37596,-0.19216 0.42691,-0.41362z" fill="#f6deff" stroke-width="0.5"/><path d="M203.46784,144.57796c2.32119,-0.92848 3.24967,1.39272 3.24967,1.39272l0.93011,2.34145c3.26216,5.68821 6.84511,11.07929 10.3014,16.58982c0.45173,-0.16359 0.9391,-0.25279 1.4473,-0.25279c0.43941,0 0.86325,0.06669 1.26195,0.19049l3.40562,0.97303l-0.03818,0.13362c0.1735,0.00815 0.34705,0.0201 0.52064,0.03623c1.23775,0.11502 2.22212,1.04193 3.26518,1.78077c1.12446,0.24036 2.92666,0.98681 3.27533,3.30499c3.54816,2.30982 6.92668,4.90757 10.07565,7.70123c0.01989,-0.53786 0.11071,-0.90115 0.11071,-0.90115c1.77114,-6.82762 1.37311,-13.93343 1.37311,-20.96922v-0.5c0,0 0,-2.35247 1.75022,-3.55698c0.02417,-5.27371 1.11025,-9.33595 2.52669,-14.39752c1.36529,-4.87879 1.85578,-6.96413 6.18685,-9.68923l3.28624,-0.35627c0,0 2.5,0 2.5,2.5c0,2.5 -2.5,2.5 -2.5,2.5l-0.71376,-0.35627c-3.28074,1.82696 -2.90064,2.96187 -3.93967,6.73251c-1.2859,4.66654 -2.35542,8.22063 -2.34672,13.06683c1.75015,1.20452 1.75015,3.55693 1.75015,3.55693v0.5c0,7.37022 0.1946,14.58487 -1.33914,21.76848c0.83535,-0.17595 1.70144,-0.26848 2.58914,-0.26848c0.60563,0 1.2012,0.04307 1.78381,0.12632c0.43809,-2.87974 3.61515,-3.3336 3.61515,-3.3336c5.66403,-0.74955 11.33824,0.74778 17.01156,-0.00164c1.84446,-0.24364 3.76336,-0.87538 5.58225,-1.63969c0.14629,-1.72871 2.01694,-2.10284 2.01694,-2.10284c5.42927,-1.08378 10.96352,-2.03271 16.49029,-2.04855l-0.11803,-0.23607c0,0 2.23607,-1.11803 3.3541,1.11803c1.11803,2.23607 -1.11803,3.3541 -1.11803,3.3541l-2.11803,0.76393c-3.08255,-0.00999 -6.18214,0.32098 -9.25917,0.80551c0.00917,0.12355 0.00917,0.19449 0.00917,0.19449l-2.34934,4.30132c-3.46409,1.71102 -7.43682,3.38752 -11.31118,3.90761c-2.60924,0.35026 -5.2395,0.191 -7.86184,0.00329c8.34145,5.63012 15.71496,12.76129 22.81737,19.8264c1.21543,0.4188 2.70499,1.44531 2.70499,3.96139c0,0.1228 -0.00355,0.24205 -0.01044,0.35786c2.62205,0.91504 4.95364,2.44258 7.54668,3.99841l1.48153,1.37597c0,0 1.76777,1.76777 0,3.53553c-1.76777,1.76777 -3.53553,0 -3.53553,0l-0.51847,-0.62403c-3.10796,-1.86478 -5.97145,-4.23939 -9.71376,-4.14373c0,0 -1.54116,0 -2.20339,-1.21005l-0.80181,-0.28475c-6.56395,-6.58295 -13.36628,-13.30479 -21.0196,-18.71127c-0.03053,0.48711 -0.08896,0.96665 -0.17371,1.43704c2.50643,2.46061 5.01095,4.99543 7.07602,7.6893c2.13224,2.78149 3.94616,6.36138 5.76684,9.39312l1.15697,2.28595c0,0 1.16899,2.33798 -0.16015,4.26361c2.71897,2.92649 4.79838,6.43832 6.5949,10.01901l1,2c0,0 1.11803,2.23607 -1.11803,3.3541c-2.23607,1.11803 -3.3541,-1.11803 -3.3541,-1.11803l-1,-2c-2.03617,-4.08777 -4.5376,-8.37597 -8.26393,-11.11803c0,0 -0.20698,-0.15523 -0.43783,-0.43241c-0.57566,-0.59128 -0.86349,-1.16694 -0.86349,-1.16694l-0.84303,-1.71405c-1.66088,-2.77082 -3.27574,-6.07258 -5.23316,-8.60688c-1.42265,-1.84193 -3.07524,-3.61536 -4.78757,-5.33935c-0.3679,0.29631 -0.75294,0.5722 -1.15339,0.82595c2.11304,3.4285 1.71445,7.01323 2.04778,11.01489c0.23587,2.83159 0.52068,5.53768 0.52068,8.41878v0.5c0,0 0,0.40848 -0.12664,0.97218c0.24727,0.02546 0.51534,0.09072 0.80512,0.20663c2.32119,0.92848 1.39272,3.24967 1.39272,3.24967c-2,5 -4,10 -6,15l0.17881,-0.42848c0,0 0,2.5 -2.5,2.5c-2.5,0 -2.5,-2.5 -2.5,-2.5l0.17881,-1.42848c1.78912,-4.47279 3.57823,-8.94558 5.36735,-13.41837c-0.31644,0.06251 -0.66413,0.09685 -1.04616,0.09685c-4.25,0 -4.25,-4.25 -4.25,-4.25v-0.5c0,-3.78747 -0.2887,-7.42909 -0.48931,-11.19872c-0.02473,-0.46465 -0.20305,-3.2399 -0.87901,-3.91362c-1.09684,-1.09321 -2.74037,-1.44657 -4.06829,-2.24332c0,0 -0.5274,-0.31644 -1.06056,-0.9092c-2.46547,1.38477 -5.06121,2.8725 -7.13733,4.61473c-2.12656,1.78455 -4.06173,3.84416 -6.42889,5.29447l-0.1814,0.36086c0,0 -1.93013,1.93013 -4.24356,1.1499c-2.95204,2.7684 -6.0086,5.40512 -9.26164,7.8449l-1.61325,1.08013c0,0 -2.08013,1.38675 -3.46688,-0.69338c-1.38675,-2.08013 0.69338,-3.46688 0.69338,-3.46688l1.38675,-0.91987c3.22326,-2.41745 6.24323,-5.03875 9.16047,-7.79174c-0.05002,-1.82912 1.33432,-3.21346 1.33432,-3.21346l1.8186,-1.63914c2.10083,-1.22283 3.69883,-3.15524 5.57111,-4.70553c1.99611,-1.65283 4.3769,-3.11393 6.73396,-4.47451c-0.28576,-0.62739 -0.52116,-1.28255 -0.70105,-1.96032c-5.81123,-0.07617 -11.79752,-0.3032 -17.44456,-0.99812l-1.47285,0.03282c0,0 -1.58861,0 -2.82332,-0.97125c-3.60477,-0.50272 -7.05286,-1.07399 -10.68639,-0.3273l-2.78086,-0.57974c0,0 -2.37171,-0.79057 -1.58114,-3.16228c0.79057,-2.37171 3.16228,-1.58114 3.16228,-1.58114l0.21914,0.42026c3.64582,-0.71268 7.05392,-0.39888 10.59972,0.05414c1.02526,-2.35269 3.89057,-2.35269 3.89057,-2.35269l2.52715,0.03282c3.8963,0.49567 7.99748,0.75006 12.07467,0.87159c-5.06659,-4.55709 -10.75336,-8.49774 -16.83617,-11.53915l-0.19309,-0.37867l-0.12255,0.16341l-1.39064,-1.04298c-0.44807,-0.20628 -0.78034,-0.53222 -0.98085,-0.77036c-0.51715,-0.48964 -0.91132,-1.10785 -1.13136,-1.80346c-4.02851,-6.60017 -8.34859,-12.93652 -12.19846,-19.69618l-1.06989,-2.65855c0,0 -0.92848,-2.32119 1.39272,-3.24967zM262.35447,183.34256c0.07931,0.10435 0.15701,0.20998 0.23307,0.31686c0.12184,-0.11752 0.24532,-0.22339 0.36992,-0.31851c-0.20116,-0.00125 -0.40217,-0.00078 -0.60299,0.00165z" fill="#000000" stroke-width="0.5"/><path d="M651.1592,179.48159c-2.68328,5.36656 -8.04984,2.68328 -8.04984,2.68328l-0.16525,-0.42687c-12.17363,-1.76421 -23.19902,-6.39172 -35.00998,-9.64045c-5.44906,-1.49882 -11.08109,-2.31415 -16.47738,-3.99307c-10.40625,-3.25437 -20.80983,-5.62829 -31.30583,-8.53609c-7.68417,-2.12881 -15.19669,-4.84862 -22.88368,-6.96723c-5.8932,-1.62423 -11.95412,-2.56754 -17.90275,-3.9753c-13.29793,-3.147 -26.39933,-7.15794 -39.57357,-10.82244c-9.84064,0.02806 -19.60473,0.19185 -29.40706,0.96569c-3.12472,0.24668 -5.9506,1.98218 -8.97449,2.80728c-1.95608,0.53373 -4.03659,0.49392 -6,1c-3.16506,0.81581 -6.23526,2.89701 -8.8128,4.86198c-1.57163,1.19812 -1.82794,2.49395 -3.16388,4.16388c-1.21017,1.51271 -2.58884,2.90208 -3.64775,4.52427c0,0 -3.3282,4.9923 -8.3205,1.6641c-4.9923,-3.3282 -1.6641,-8.3205 -1.6641,-8.3205c2.56158,-3.78504 5.63831,-8.39369 9.18837,-11.31185c3.76988,-3.09885 8.51436,-5.80718 13.1872,-7.13802c1.95004,-0.55538 4.04379,-0.46675 6,-1c1.62461,-0.44286 3.21736,-1.04036 4.81615,-1.60315c-11.61982,-2.84075 -23.23832,-5.68374 -34.77812,-8.83019c0,0 -5.78858,-1.5787 -4.20988,-7.36729c1.5787,-5.78858 7.36729,-4.20988 7.36729,-4.20988c21.07793,5.74994 42.42146,10.47902 63.55315,16.04006c2.15945,0.56828 4.31551,1.1525 6.46937,1.74727c0.7999,0.00069 1.59952,0.00126 2.39878,0.00126c12.81902,0 24.94176,-0.04708 37.68772,1.6386c8.01382,1.07137 16.15652,1.24294 24.15043,2.42023c10.67813,1.5726 20.0894,4.86728 30.57552,7.11009c5.07298,1.08502 10.34588,1.39912 15.25764,3.06855c3.94778,1.3418 7.78848,2.98014 11.68272,4.4702l1.79985,0.69225c0,0 5.60007,2.15387 3.4462,7.75395c-2.15387,5.60007 -7.75395,3.4462 -7.75395,3.4462l-1.79985,-0.69225c-11.02774,-4.26526 -13.7636,-4.55366 -25.45994,-7.07674c-10.06004,-2.1701 -19.17692,-5.37737 -29.42448,-6.88991c-0.64568,-0.0953 -1.29236,-0.184 -1.9399,-0.2671c7.05386,2.02371 14.3233,4.58768 21.34011,6.5316c10.61751,2.94146 21.15109,5.35842 31.68134,8.64675c5.26103,1.6522 10.7659,2.41297 16.08236,3.87703c11.29553,3.11059 21.87299,7.69371 33.52276,9.33086l3.83475,1.57313c0,0 5.36656,2.68328 2.68328,8.04984z" fill="#7a19d0" stroke-width="0.5"/><path d="M552.79263,206.79831c0,6 -6,6 -6,6h-2c-2.4429,-0.03362 -4.8334,0.73832 -7.2669,0.95505c-0.7686,0.06845 -1.539,0.09933 -2.31041,0.10918c12.90072,5.44757 25.85587,10.7449 38.15403,17.52358c8.13354,4.48316 15.76551,9.49358 23.93405,13.9485c7.12674,4.25922 15.23353,7.78172 20.12928,14.65976c1.05557,1.48297 3.03511,2.61257 3.19944,4.42542c0.24927,2.74993 -1.38084,5.34699 -2.07125,8.02048l-4.44004,3.35034c0,0 -4.9923,3.3282 -8.3205,-1.6641c-2.86359,-4.29538 0.43241,-7.35884 1.40845,-8.13045c-0.1698,-0.35923 -0.36295,-0.69841 -0.65608,-0.9524c-4.48789,-3.88872 -10.1037,-6.24332 -15.20134,-9.2892c-8.10624,-4.42223 -15.70531,-9.41128 -23.77466,-13.85906c-13.89586,-7.65932 -28.67081,-13.35165 -43.2071,-19.60811c-5.00112,-2.15249 -9.7502,-4.8745 -14.79797,-6.91519c-1.62539,-0.6571 -3.27005,-1.26161 -4.92669,-1.83352c-13.55331,-0.21544 -27.12546,-0.39155 -40.58042,0.25356c-7.86411,0.37705 -15.38962,1.00616 -23.27189,1.00616c0,0 -6,0 -6,-6c0,-6 6,-6 6,-6c7.70102,0 15.03931,-0.63016 22.72811,-0.99384c1.92855,-0.09122 3.86233,-0.15165 5.79961,-0.1891c-0.02004,-0.00536 -0.04009,-0.01071 -0.06014,-0.01605c-3.55758,-0.94779 -7.28697,-1.11385 -10.86846,-1.96684c-3.31829,-0.7903 -6.45943,-2.25227 -9.79735,-2.95503c-2.90837,-0.61233 -5.93618,-0.45712 -8.86306,-0.97374c-4.67502,-0.82519 -9.24177,-2.21041 -13.9251,-2.98703c0,0 -5.91836,-0.98639 -4.93197,-6.90476c0.98639,-5.91836 6.90476,-4.93197 6.90476,-4.93197c4.73205,0.79235 9.34995,2.17935 14.0749,3.01297c3.01818,0.5325 6.13787,0.39492 9.13694,1.02626c3.47299,0.73111 6.75,2.22314 10.20265,3.04497c3.66938,0.87341 7.48805,1.05734 11.13154,2.03316c0.65997,0.17676 18.11566,6.34281 20.40737,7.12323c4.84414,1.6496 9.77647,3.05647 14.62982,4.67778c4.4768,0 8.9536,0 13.4304,0c5.08899,0 10.19979,0.51631 15.2669,0.04495c2.9192,-0.27155 5.80143,-1.01711 8.7331,-1.04495h2c0,0 6,0 6,6z" fill="#7a19d0" stroke-width="0.5"/><path d="M571.9246,317.53839c-9.64783,-2.9651 -19.40503,-4.91483 -29.23287,-7.14517c6.64979,2.84312 13.09262,5.90068 19.59036,9.34261c18.03258,9.5822 34.56254,21.91624 52.41915,31.81463c2.61637,1.45032 5.42087,2.54485 8.02633,4.01468c3.95677,2.23214 9.26462,7.15673 13.96242,8.54107l4.10263,6.6921c0,0 0,2.10997 -1.25123,3.82744c6.89711,2.80714 13.75946,5.70071 20.62768,8.66325l2.86619,2.26667c0,0 4.24264,4.24264 0,8.48528c-4.24264,4.24264 -8.48528,0 -8.48528,0l0.86619,0.26667c-13.79568,-5.95092 -27.56422,-11.61692 -41.6497,-16.86177c-6.61176,-2.46195 -13.40799,-4.37326 -19.98188,-6.95829c-20.75143,-8.16957 -41.83634,-14.84154 -62.93919,-22.01402c-13.0442,-4.43349 -25.83547,-9.66933 -38.91784,-13.97247c-3.29891,-1.0851 -19.40596,-5.49587 -22.05379,-6.42904c-3.71169,-1.3081 -7.15559,-3.32047 -10.8928,-4.55377c-3.91424,-1.29173 -8.07418,-1.71626 -12.01416,-2.92722c-9.32828,-2.86708 -18.51863,-6.29062 -28.16058,-7.87437c0,0 -5.91836,-0.98639 -4.93197,-6.90476c0.98639,-5.91836 6.90476,-4.93197 6.90476,-4.93197c11.21439,1.89278 21.54173,6.43035 32.54788,9.11785c3.07882,0.75179 6.26688,1.09004 9.27739,2.08056c3.86094,1.27033 7.42828,3.32401 11.26104,4.677c7.13387,2.51829 14.6057,3.97676 21.79236,6.34019c13.13779,4.32054 25.98303,9.57587 39.08216,14.02753c21.27139,7.22896 42.52288,13.96359 63.44061,22.19864c5.76037,2.27062 11.69895,4.00135 17.52661,6.06371c-11.05808,-6.21728 -21.95167,-12.57817 -32.80376,-19.21001c-8.66462,-5.29505 -17.27287,-11.09014 -26.24394,-15.83839c-8.40479,-4.46373 -16.71091,-8.22433 -25.54644,-11.73666c-9.50114,-3.77693 -19.2291,-8.12504 -29.38159,-9.89664c-22.52833,-3.93117 -45.42644,-5.40263 -68.02617,-9.00476c-15.00791,-2.39208 -29.68291,-6.81496 -44.76107,-8.96093c0,0 -5.9397,-0.84853 -5.09117,-6.78823c0.84853,-5.9397 6.78823,-5.09117 6.78823,-5.09117c9.48098,1.3592 18.80737,3.6002 28.15541,5.67605c0.17314,-5.73635 5.99606,-5.73635 5.99606,-5.73635c3.9697,0.0478 7.79793,1.52027 11.7331,2.04495c2.31287,0.30838 4.69468,-0.3605 7,0c4.11689,0.64379 8.05809,2.14206 12.13729,2.99262c5.95465,1.24162 11.97479,2.16 17.99566,3.02525c6.30377,0.90591 12.54975,2.21094 18.87135,2.98265c4.97417,0.60723 10.04832,0.23058 15,1c11.74861,1.82556 23.09485,4.40434 34.6369,7.11403c11.39758,2.67577 22.73066,4.79345 33.89882,8.30146c-2.87354,-2.15804 -5.74621,-4.31867 -8.62105,-6.48188c-6.31337,-3.78327 -12.11486,-8.12221 -18.54978,-11.72521c-10.96824,-6.14126 -22.38723,-10.4863 -33.67854,-15.83512c-3.03046,-1.43556 -5.7544,-3.46602 -8.78437,-4.90265c-8.42206,-3.99322 -18.55599,-5.07977 -27.39457,-7.77858c-0.20197,-0.06167 -0.61716,-0.2063 -1.19454,-0.41338c-5.47021,-1.06194 -10.91577,-2.25952 -16.35184,-3.46703c0,0 -3.15535,-0.70119 -4.31949,-3.3902c-1.75725,-0.20368 -3.54049,-0.26003 -5.28803,-0.53619c-3.83311,-0.60574 -7.66535,-1.24446 -11.45336,-2.08747c-2.19409,-0.48829 -4.24964,-1.54961 -6.46974,-1.90125c-3.67681,-0.58237 -7.44514,0.05799 -11.16779,0.05799c0,0 -6,0 -6,-6c0,-6 6,-6 6,-6c0.95987,0 12.33295,-0.01698 12.83221,0.05799c6.10377,0.91657 11.9801,3.04944 18.0769,4.01128c2.79446,0.44086 5.66481,0.42936 8.41814,1.07937c5.28892,1.24861 13.36617,4.75015 18.9205,6.62704c4.79543,0.92918 9.61247,1.72792 14.44835,2.26483c3.74359,0.41564 7.53487,0.42822 11.25228,1.03491c7.50309,1.22452 14.79048,3.53867 22.24233,5.04391c14.1632,2.8609 28.55317,6.07482 42.45443,10.11061c11.34237,3.2929 21.76183,7.69498 32.5868,12.27235c5.95372,2.51755 12.15828,4.4159 18.09718,6.96822c0.23205,0.09973 21.8587,10.01714 22.1153,10.13479c16.62682,8.58065 33.37298,16.83099 49.55642,26.19902c8.01033,4.6369 15.61985,8.41115 22.24181,14.95303l-1,9.48528c0,0 -4.24264,4.24264 -8.48528,0c-1.24312,-1.24312 -1.75776,-2.48625 -1.86409,-3.62265c-5.12544,-4.24555 -10.977,-6.99814 -16.89411,-10.42432c-15.93696,-9.22799 -32.43542,-17.34619 -48.80847,-25.80155c-7.1739,-3.28684 -14.27084,-6.74685 -21.51981,-9.86463c-5.94303,-2.5561 -12.15287,-4.45557 -18.1118,-6.97439c-10.38288,-4.38881 -20.3254,-8.62388 -31.20423,-11.78505c-8.84188,-2.56927 -17.88785,-4.79547 -26.94343,-6.80713c4.5462,2.09085 9.05522,4.29284 13.48628,6.7832c6.74087,3.78854 12.83737,8.30222 19.45022,12.27479c8.20676,6.13791 16.40162,12.27448 24.58328,18.44637l2.31143,2.29008c0,0 4.24264,4.24264 0,8.48528c-4.24264,4.24264 -8.48528,0 -8.48528,0l-1.68857,-1.70992c-1.3639,-1.01591 -2.72645,-2.0324 -4.08797,-3.04947c-0.24609,3.08773 -2.82979,5.51674 -5.98082,5.51674h-4c0,0 -3.12929,0 -4.86803,-2.25992z" fill="#7a19d0" stroke-width="0.5"/><path d="M550.10053,478.69568c-0.51327,-1.5398 -0.47115,-2.80191 -0.13656,-3.82389c-0.46034,-0.63199 -0.89419,-1.31487 -1.41398,-1.83084c-2.00738,-1.99259 -4.00873,-3.9913 -6,-6c-1.79602,-1.81174 -3.31093,-3.94718 -5.37053,-5.45255c-4.62383,-3.37956 -9.81144,-5.95284 -14.99568,-8.38696c-0.87779,-0.41214 -1.77438,-0.78103 -2.67948,-1.13034c0.51706,0.48805 1.02761,0.98271 1.53097,1.48457c2.5564,2.54871 4.6699,5.51 7.13884,8.14354c4.46826,4.76614 9.74196,8.7856 13.86116,13.85646c1.8212,2.24196 4.94189,4.36009 4.75736,7.24264c-0.20139,3.14591 -2.94457,6.01901 -5.7039,7.54328c-5.83442,3.22296 -14.23552,-2.12468 -18.73293,-4.06041l-2.80581,-2.24023c0,0 -4.24264,-4.24264 0,-8.48528c1.31551,-1.31551 2.63102,-1.81522 3.82006,-1.87857c-3.59984,-3.88528 -7.08129,-7.88515 -10.82006,-11.63615c-6.92695,-6.94962 -15.55297,-12.43038 -23.42832,-18.18499c-5.52635,-3.85119 -11.05993,-7.72647 -16.64707,-11.51721c-3.97884,-1.64397 -7.92431,-3.37211 -11.92045,-4.97365c-10.63459,-4.26204 -21.79774,-7.25468 -32.65888,-10.87469c0,0 -5.6921,-1.89737 -3.79473,-7.58947c0.50938,-1.52813 1.29226,-2.50927 2.16507,-3.12696c-0.37698,-0.20054 -0.75466,-0.3998 -1.13312,-0.5976c-5.31832,-2.77973 -11.11019,-4.5399 -16.6522,-6.84155c-11.46039,-4.75961 -22.81623,-9.92278 -34.60416,-13.85084c-4.36844,-1.45568 -8.76205,-2.957 -13.14535,-4.53c7.37514,5.26474 14.04188,9.88564 21.20475,15.67499c3.97958,3.21647 8.18546,6.1811 11.88181,9.71942c0.96206,0.92093 1.90786,1.858 2.84149,2.80714c1.1704,0.91042 2.34939,1.80964 3.54125,2.69208c4.28943,3.17585 8.91064,5.89148 13.15722,9.1244c4.71889,3.59249 9.17293,7.53326 13.99017,10.99276c15.09018,10.83698 30.68542,20.79837 45.23518,32.38494c5.79879,4.63854 13.55,10.60533 18.8544,15.80147c7.03529,6.8917 9.95293,11.19635 16.00968,18.85902c3.61739,4.57653 7.08067,8.36693 9.03799,13.89074l0.3079,3.89737c0,0 0,6 -6,6c-6,0 -6,-6 -6,-6l0.3079,-0.10263c-1.16928,-3.96796 -4.54046,-7.0442 -7.05918,-10.23304c-5.58593,-7.07212 -8.56008,-11.43724 -14.99898,-17.73653c-4.88085,-4.77502 -12.6496,-10.76341 -17.94587,-14.99782c-7.34042,-5.85124 -14.95711,-11.27702 -22.63959,-16.61258c10.16906,11.46148 20.18216,23.04432 31.03533,33.89616c9.21676,9.25485 17.71604,20.07072 24.94043,30.98252l0.18196,0.50766c1.8911,1.00974 3.17799,3.00272 3.17799,5.29627c0,3.31371 -2.68629,6 -6,6h-5c0,0 -6,0 -6,-6c0,-1.41327 0.33289,-2.49365 0.84185,-3.31955c-6.2008,-8.81634 -13.10389,-17.48945 -20.62883,-24.98295c-14.5685,-14.57923 -27.65473,-30.43883 -41.59453,-45.59844c-7.01664,-7.63063 -14.89967,-14.47176 -22.0119,-22.01434c-4.42265,-4.69025 -8.63206,-9.59079 -13.15269,-14.18363c-5.45756,-4.31113 -13.64936,-10.791 -14.05819,-11.10433c-4.60905,-3.53237 -9.62951,-6.5141 -14.16949,-10.13482c-2.35755,-1.88019 -4.49379,-4.02246 -6.73236,-6.04413c-0.34702,-0.25807 -0.69521,-0.51843 -1.04467,-0.78133c-0.79085,-0.59494 -1.57281,-1.33022 -2.36398,-2.07724c-1.59151,-1.23491 -3.2345,-2.40332 -4.88841,-3.55756c-0.70201,-0.23498 -1.43138,-0.32279 -2.19679,-0.2017c0,0 -5.80417,0 -5.99518,-5.70867c-0.27955,-0.22206 -0.55732,-0.44643 -0.83308,-0.67338c-4.78331,-3.93677 -9.3381,-8.20021 -14.49994,-11.62565c0,0 -4.9923,-3.3282 -1.6641,-8.3205c3.3282,-4.9923 8.3205,-1.6641 8.3205,-1.6641c0.69648,0.46622 1.38349,0.94554 2.06262,1.4357c2.54583,-1.18327 5.29246,0.19004 5.29246,0.19004c13.44745,6.74437 28.00868,11.93786 42.23322,16.68088c12.05572,4.01985 23.67421,9.28125 35.39584,14.14916c5.77719,2.39923 11.79683,4.2742 17.3478,7.15845c7.1411,3.71047 13.99572,7.95388 21.11881,11.69883c4.76324,2.50427 9.73135,4.65387 14.28551,7.52084c4.15511,2.61577 8.26226,5.32268 12.33932,8.07822c1.23697,0.50351 2.47825,0.99612 3.72655,1.47111c8.62716,3.2827 18.16079,6.01408 26.40975,10.17327c3.07627,1.55107 5.92265,3.54221 9.03618,5.01705c3.97726,1.88398 8.09518,3.57895 12.15794,5.39872c-4.3526,-3.87793 -8.81623,-7.6309 -13.40019,-11.23018c-5.54961,-4.35749 -11.73157,-7.84322 -17.62049,-11.72993c-14.30944,-9.44428 -29.1552,-17.92636 -43.02475,-28.01629c-26.58042,-15.90778 -54.70225,-29.59326 -83.23783,-41.5743c-11.03799,-4.63444 -21.63873,-10.3449 -32.71929,-14.87459c-5.08132,-2.07722 -11.05021,-3.76488 -16.18958,-6.08125c-7.00605,-3.1577 -13.61625,-7.04929 -20.77041,-9.90258c0,0 -5.57086,-2.22834 -3.34252,-7.7992c2.22834,-5.57086 7.7992,-3.34252 7.7992,-3.34252c7.30339,2.92915 14.07569,6.86417 21.22959,10.09742c3.72026,1.68139 13.97663,5.16861 15.81042,5.91875c11.11666,4.54747 21.75191,10.27149 32.8271,14.91922c29.22261,12.26337 58.03183,26.28389 85.21578,42.63189c13.85622,10.07429 28.68153,18.55071 42.97525,27.98371c6.14815,4.05741 12.57936,7.72908 18.37951,12.27007c6.22134,4.87076 12.22804,10.02314 18.0417,15.38164c1.77363,-1.63186 4.2923,-1.63186 4.2923,-1.63186l0.50495,0.00969c-8.45714,-7.35892 -16.25283,-15.31354 -25.10947,-22.21307c-12.92958,-10.07245 -27.48648,-18.20471 -41.3168,-26.89826c-3.39105,-2.13157 -6.53484,-4.63987 -9.92005,-6.78071c-6.08096,-3.84566 -12.50705,-7.13956 -18.49394,-11.13009c-6.39097,-4.25987 -10.06361,-7.53762 -16.61261,-12.04269c-3.33028,-2.29091 -6.90605,-4.21749 -10.18678,-6.57881c-3.21759,-2.31586 -6.04171,-5.15185 -9.28292,-7.43453c-4.34426,-3.05953 -8.87645,-5.58324 -13.17806,-8.51824c-6.52175,-2.85365 -13.19402,-5.36663 -19.73811,-8.17139c-15.22326,-6.5246 -31.24047,-11.83039 -45.64306,-20.03244c0,0 -5.20946,-2.97683 -2.23263,-8.18629c2.97683,-5.20946 8.18629,-2.23263 8.18629,-2.23263c13.94912,8.00081 29.64557,13.09159 44.41642,19.42162c2.8455,1.21944 5.71581,2.38281 8.58734,3.54334c3.798,-2.46219 7.26205,1.00186 7.26205,1.00186c1.4355,1.45805 2.95615,2.7379 4.53184,3.91015c3.41851,1.53364 6.70852,3.37206 10.22354,4.66785c4.54972,1.67722 9.46948,2.23668 13.98572,4.00207c3.70167,1.44698 7.23756,3.32223 11.00422,4.59044c0.18675,0.06288 13.55939,3.48223 16.53746,4.26929c12.56564,3.32091 25.01121,6.78369 37.72498,9.51208c8.69548,2.6867 17.17936,5.60221 25.75707,8.63656c5.81973,2.05872 11.87988,3.53626 17.45658,6.18352c3.15031,1.49545 6.00567,3.56424 9.15084,5.07047c7.33857,3.51447 15.09465,6.17926 22.21406,10.11881c2.15965,1.19505 4.05855,2.81641 6.17449,4.08724c2.50625,1.50524 5.13012,2.92696 7.2392,4.95152l-1,9.48528c0,0 -4.24264,4.24264 -8.48528,0c-1.00536,-1.00536 -1.53424,-2.01071 -1.75602,-2.95961c-0.67212,-0.36097 -1.35815,-0.70361 -2.00478,-1.08887c-2.11074,-1.25756 -3.99758,-2.87668 -6.14512,-4.07031c-6.86602,-3.81623 -14.3817,-6.33044 -21.46633,-9.72363c-3.04525,-1.45853 -5.80487,-3.46899 -8.84916,-4.92953c-5.27023,-2.52847 -11.03268,-3.86705 -16.54342,-5.81648c-8.24869,-2.91799 -16.41658,-5.7449 -24.77567,-8.33474c-12.71986,-2.7216 -25.1722,-6.19445 -37.74228,-9.51662c-1.89524,-0.5009 -6.40578,-1.65642 -10.35225,-2.67328c4.02111,2.96892 8.70175,6.5416 12.21297,8.88287c5.90117,3.93487 12.24178,7.17241 18.23675,10.96282c3.37639,2.13477 6.51092,4.63765 9.89289,6.76358c14.11079,8.87015 28.95092,17.18404 42.13958,27.46455c9.42676,7.34813 17.74736,15.78258 26.72717,23.64493c1.8455,2.29486 9.38977,10.34405 7.34355,14.09891c-1.90687,3.49914 -6.88043,3.96143 -10.43792,5.826l-2.75905,8.22377c2.41165,2.40349 4.97328,4.96927 5.76438,5.76036c1.20947,1.20947 6.33606,6.32982 6.39741,6.43871c1.51575,2.68985 2.02346,5.8341 3.03519,8.75115l-6.77787,4.74488c0,0 -5.6921,1.89737 -7.58947,-3.79473z" fill="#7a19d0" stroke-width="0.5"/><path d="M393.79263,535.79831c0,-1.16077 0.22456,-2.09697 0.5868,-2.85206c-0.18495,-0.72724 -0.38776,-1.45358 -0.50933,-2.18685c-0.73269,-4.41944 -1.25524,-8.53857 -2.71139,-12.89735c-1.47432,-3.69141 -3.54733,-7.1302 -4.94351,-10.85187c-0.87634,-2.33599 -1.28254,-4.838 -1.98634,-7.23031c-5.43624,-0.36355 -5.43624,-5.98156 -5.43624,-5.98156v-2c0.0265,-0.69734 -0.02143,-1.43916 -0.12266,-2.20611c-0.39678,-0.62577 -0.77995,-1.25907 -1.13697,-1.90664c-3.58094,-6.49522 -7.02095,-13.07355 -10.83774,-19.43304c-1.71359,-2.85516 -9.88204,-17.10925 -11.88172,-20.10628c-1.83999,-2.75768 -4.09174,-5.22268 -5.96936,-7.95488c-1.73847,-2.52971 -3.02917,-5.35888 -4.86872,-7.81607c-9.21876,-12.31399 -20.89883,-23.4966 -32.92226,-32.8848c-4.46007,-3.48254 -8.06544,-7.44882 -12.7533,-10.81358c-3.0267,-2.17245 -6.39615,-3.82243 -9.59423,-5.73364c0,0 -5.14496,-3.08697 -2.05798,-8.23193c1.72618,-2.87696 4.09585,-3.17994 5.84961,-2.88799c-6.26568,-3.60532 -12.65093,-5.64141 -17.9473,-10.78239c0,0 -4.24264,-4.24264 0,-8.48528c4.24264,-4.24264 8.48528,0 8.48528,0c4.3321,4.54161 10.42389,5.93607 15.76892,9.05318c5.17063,3.0154 11.21289,6.64389 15.79237,10.54941c6.12413,5.22283 11.10261,11.71059 16.57754,17.54095c2.78309,2.96376 5.92872,5.58197 8.6176,8.63146c2.43665,2.76343 4.45333,5.87092 6.72641,8.77038c6.2461,7.96732 12.92177,15.82832 18.30842,24.43234c4.35452,6.95541 7.77674,14.45468 11.48144,21.7769c3.72506,7.36246 7.58538,14.6637 10.99912,22.17558c0.84999,3.26849 1.85706,6.33194 2.57052,9.4524c1.5611,2.43133 3.21939,4.80846 4.40344,7.43576c1.46125,3.24239 1.84067,6.88224 3.08899,10.21241c1.43224,3.82081 3.53937,7.36023 5.05649,11.14813c2.34844,7.05738 4.22176,14.6846 4.36609,22.06375l-7,6c0,0 -6,0 -6,-6z" fill="#7a19d0" stroke-width="0.5"/><path d="M229.03527,513.55567c4.24264,4.24264 0,8.48528 0,8.48528l-2.43871,2.39741c-6.61175,4.30102 -16.50113,8.00887 -21.34721,-1.34395c-0.8773,-1.69317 -0.17546,-3.81465 -0.42752,-5.70487c-0.51273,-3.84491 -1.02276,-7.71229 -1.0292,-11.59123c-0.01697,-10.22254 -0.2571,-20.22327 1.01159,-30.37282c0.00532,-12.24841 2.22128,-23.09125 6.3324,-34.62957c2.3604,-6.62472 4.12708,-13.33994 7.28508,-19.67214c5.36408,-10.75568 12.60559,-19.9875 19.44474,-29.75076c2.00322,-2.8597 4.0396,-5.70584 6.28614,-8.37864c2.04646,-2.43476 1.75368,-3.81177 4.28133,-6.31936c3.4779,-3.45029 5.59068,-4.17612 9.67544,-6.24327c0,0 5.36656,-2.68328 8.04984,2.68328c1.3787,2.7574 0.63223,4.80641 -0.41953,6.14703c1.05296,1.65553 1.05296,3.53626 1.05296,3.53626c-0.19421,1.96201 1.3472,3.71234 1.83949,5.62148c0.53418,2.07156 -0.30223,4.31308 0.08303,6.41742c0.18983,1.03686 0.87416,1.95345 1,3c0.0948,0.78845 0.07748,8.33908 0.07748,9.96109c0,7.41475 0.54312,15.04259 -0.01509,22.42533c-1.0494,13.87908 -1.98491,27.61509 -1.98491,41.57467c0,1.67983 -0.01369,3.36028 -0.07748,5.03891l0.76958,2.06373c0,0 1.89737,5.6921 -3.79473,7.58947c-5.6921,1.89737 -7.58947,-3.79473 -7.58947,-3.79473l-1.23042,-3.93627c-0.04538,-2.32006 -0.07748,-4.64059 -0.07748,-6.96109c0,-5.43828 -0.42161,-11.0821 0.02044,-16.49488c0.16504,-2.02086 0.85332,-3.97773 1,-6c0.31181,-4.29886 -0.3563,-8.63461 -0.00535,-12.93045c0.19192,-2.3492 0.81595,-4.65017 1,-7c0.42719,-5.45413 -0.01509,-11.09874 -0.01509,-16.57467c0,-4.09924 0.61086,-8.96919 0.07748,-13.03891c-0.13698,-1.04515 -0.83876,-1.95831 -1,-3c-0.28468,-1.83916 0.66182,-3.8138 0.08303,-5.58258c-0.39224,-1.19867 -1.28594,-2.19902 -1.77723,-3.35281c-0.52934,0.96443 -1.04887,1.93858 -1.74323,2.77822c-2.02347,2.44685 -3.89392,5.01957 -5.71386,7.62136c-6.5013,9.29428 -13.42819,18.02485 -18.55526,28.24924c-2.94128,5.86548 -4.51547,12.1844 -6.71492,18.32786c-3.77184,10.53543 -5.67252,20.1914 -5.6676,31.37043c-1.23979,9.91831 -0.97063,19.63679 -0.98841,29.62718c-0.0062,3.48464 0.69818,6.93481 0.9708,10.40877c0.00036,0.00458 0.00072,0.00918 0.00109,0.01378c0.78345,-0.27904 1.55216,-0.58533 2.22418,-1.06261l1.56129,-1.60259c0,0 4.24264,-4.24264 8.48528,0z" fill="#7a19d0" stroke-width="0.5"/><path d="M574.79263,109.79831c0,-0.67787 0.07659,-1.27916 0.21245,-1.81252c-0.51601,-1.70866 -1.1344,-3.41166 -2.07991,-4.67922c-0.77192,-1.03484 -1.9485,-1.71055 -2.7726,-2.70433c-0.7784,-0.93867 -1.19763,-2.18556 -1.75385,-3.29699l-1.56719,-0.58441c-2.75591,0.03536 -12.52341,0.1901 -14.46424,0.06238c-2.35194,-0.15477 -4.64834,-0.84108 -7,-1c-6.45645,-0.4363 -13.10162,0.01509 -19.57467,0.01509c-29,0 -58,0 -87,0c-23.11857,0 -46.02627,-0.81898 -68.54479,4.82086c0,0 -5.82086,1.45521 -7.27607,-4.36564c-1.45521,-5.82086 4.36564,-7.27607 4.36564,-7.27607c4.27549,-1.06706 8.54908,-1.42998 12.80051,-2.14332c6.77422,-1.13664 13.52289,-2.67834 20.38281,-3.02966c12.68639,-0.64972 25.56798,-0.00616 38.27189,-0.00616c29,0 58,0 87,0c5.46805,0 10.9018,0.13505 16.32609,0.31028c-2.30424,-0.93197 -4.63537,-1.82166 -7.00713,-2.6585c-22.02395,-7.77078 -44.1282,-14.16944 -66.77418,-19.83093c-15.118,-3.7795 -30.37346,-7.63459 -45.98562,-8.83707c-7.49752,-0.57747 -15.03944,0.01622 -22.55916,0.01622c-8.37537,0 -18.19715,-0.45234 -26.57467,-0.01509c-9.44401,0.49291 -18.84079,2.34563 -27.88533,4.81409c-1.31643,0.35928 -2.6927,0.46636 -4.02595,0.75259c0.78244,1.53637 1.1385,3.73739 -0.82884,6.19658c-3.74817,4.68521 -8.43338,0.93704 -8.43338,0.93704c-2.4154,-2.98178 -6.99599,-5.11617 -7.24619,-8.94535c-0.20406,-3.12305 3.72442,-5.13655 6.20107,-7.05c3.25559,-2.51527 7.53085,-2.47434 11.25328,-3.48886c4.5476,-1.23942 9.1085,-2.55894 13.78436,-3.15323c5.44167,-0.69162 10.85257,-1.74216 16.33032,-2.03268c8.64474,-0.45849 18.75487,-0.01509 27.42533,-0.01509c7.81361,0 15.65015,-0.58191 23.44084,0.01622c16.29594,1.2511 32.23264,5.21749 48.01438,9.16293c23.00938,5.75234 45.4817,12.25703 67.85759,20.15675c9.73003,3.43515 18.99216,7.53804 28.19511,12.21101c2.51017,1.27459 5.23732,2.23027 7.46257,3.95473c1.96123,1.51986 3.0494,4.76028 4.66957,6.69443c0.98735,1.17869 2.35087,2.0324 3.2274,3.29567c2.43181,3.50477 3.49985,7.63652 4.82465,11.6109l-6.6921,7.89737c0,0 -6,0 -6,-6z" fill="#7a19d0" stroke-width="0.5"/><path d="M419.1897,22.76794c-13.80364,-1.35425 -27.56499,-3.14122 -41.31447,-4.97163c-0.05373,0.002 -0.0826,0.002 -0.0826,0.002h-1c-5.23316,-0.00721 -10.44633,0.6471 -15.6682,0.99082c-3.82496,0.25177 -7.71118,-0.63326 -11.4996,-0.04881c-3.28331,0.50652 -9.31078,3.17627 -12.45369,3.89749c-2.10703,0.48351 -4.39388,0.11307 -6.4313,0.83575c-4.07651,1.44594 -9.74835,5.31566 -13.27269,8.06795c-3.1201,2.4366 -5.8238,5.36922 -8.8706,7.89687c-0.58207,0.48289 -1.519,0.44963 -2.03569,1.00191c-0.28642,0.30615 0.02664,0.84896 -0.07614,1.2554c-0.25843,1.02192 -0.66667,2 -1,3c0,0 -1.89737,5.6921 -7.58947,3.79473c-5.6921,-1.89737 -3.79473,-7.58947 -3.79473,-7.58947c0.56069,-1.68207 2.18891,-6.77817 2.92386,-7.7446c1.00289,-1.31876 2.72007,-1.90411 3.96431,-2.99809c3.05576,-2.68675 5.9135,-5.61029 9.1294,-8.10313c4.57815,-3.54881 11.40538,-8.02081 16.72731,-9.93205c2.40235,-0.86275 5.08218,-0.58731 7.5687,-1.16425c4.59588,-1.06638 8.88298,-3.38659 13.54631,-4.10251c1.39262,-0.2138 7.36503,-0.01738 10.70037,-0.01337c-9.15997,-1.75038 -18.37068,-3.05498 -27.86817,-3.04462c0,0 -6,0 -6,-6c0,-6 6,-6 6,-6c12.30271,0.01215 24.1297,2.02806 35.97143,4.45769c-0.87158,-1.14735 -1.40044,-2.79648 -0.74058,-5.10602c1.64833,-5.76914 7.41747,-4.12082 7.41747,-4.12082c11.70833,3.35407 23.52475,4.40214 35.40785,6.86716c9.33265,1.93596 18.43758,5.03945 27.77798,6.9321c3.9754,0.80554 8.07033,0.97056 12.02083,1.89044c0.28401,0.06613 22.80014,7.06783 23.342,7.23623c15.83723,4.92183 31.27328,10.84036 46.6663,16.89631c0.08506,0.01773 0.17021,0.03511 0.25544,0.05213c4.41184,0.88091 8.96864,0.99583 13.33649,2.07393l-0.45521,-0.17914c0,0 5.721,0 5.99019,5.58641c3.90295,1.52445 7.81264,3.03489 11.73489,4.51741c8.50924,3.22926 16.5031,7.65837 24.77321,11.44105c15.34129,7.01697 30.64898,13.0927 44.81064,22.45004c2.7302,1.80398 5.11647,4.09536 7.84545,5.90119c0.26854,0.1777 0.5486,0.34056 0.83671,0.49292c4.74458,2.00768 9.45555,4.12744 14.23725,6.04012l3.0143,2.32822c0,0 4.24264,4.24264 0,8.48528c-4.24264,4.24264 -8.48528,0 -8.48528,0l1.0143,0.32822c-0.94159,-0.37663 -1.88034,-0.76123 -2.81708,-1.15137c-0.99036,1.35508 -2.29608,2.60592 -3.8378,3.70747c-2.258,1.61332 -5.42025,1.19427 -8.13038,1.7914l-0.30311,0.4482c0,0 -5.36656,2.68328 -8.04984,-2.68328c-2.68328,-5.36656 2.68328,-8.04984 2.68328,-8.04984l3.21925,-1.35131c-0.5685,-0.23241 -1.13782,-0.4623 -1.70813,-0.68913c-5.93576,-2.36081 -12.22976,-3.74027 -18.17468,-6.07791c-9.75101,-3.83424 -12.22963,-6.10333 -21.84626,-9.93027c-6.78342,-2.69947 -13.88582,-4.51896 -20.78092,-6.91886c-11.16986,-3.88776 -22.23717,-8.08372 -33.39112,-12.02034c-25.29428,-8.92739 -50.78229,-17.00271 -76.40656,-24.91317c-4.71807,-1.45651 -9.42229,-2.95217 -14.13269,-4.42316c-4.90332,-0.49645 -9.8264,-0.86167 -14.69853,-1.33966z" fill="#7a19d0" stroke-width="0.5"/><path d="M567.46443,160.79061c-4.9923,-3.3282 -1.6641,-8.3205 -1.6641,-8.3205l1.04539,-0.4682c-1.63433,-0.33271 -1.56165,-2.9477 -2.36322,-4.41031c-1.02441,-1.8692 -2.31704,-3.5809 -3.57121,-5.30438c-4.22846,-5.81079 -9.12388,-11.14494 -14.27216,-16.15896c-6.79292,-6.61577 -13.71745,-13.3819 -20.72475,-19.75183c-5.11956,-4.65389 -11.44827,-8.29887 -17.27215,-12.04196c-8.54055,-5.48913 -17.12426,-10.88388 -25.72871,-16.27207c-20.14201,-9.51218 -40.32478,-18.20706 -61.92601,-23.95042c-10.25227,-2.72589 -20.87792,-3.76393 -31.3254,-5.41929c-3.79812,-0.60179 -7.54555,-1.59369 -11.3787,-1.90157c-6.02764,-0.48414 -16.95814,0.40589 -22.88841,0.97686c-4.1475,0.39933 -8.45442,0.25872 -12.39593,1.60989c-1.06287,0.36436 -1.74412,1.4702 -2.77911,1.90751c-2.40916,1.01793 -5.05003,1.37422 -7.52995,2.20501c0,0 -5.6921,1.89737 -7.58947,-3.79473c-1.89737,-5.6921 3.79473,-7.58947 3.79473,-7.58947c2.12421,-0.705 4.41813,-0.90116 6.47005,-1.79499c1.17378,-0.51131 2.00387,-1.69494 3.22089,-2.09249c2.67683,-0.87442 13.11892,-2.15129 15.60407,-2.39011c6.97163,-0.66997 18.0599,-1.54576 25.04052,-1.00004c4.14187,0.3238 8.19602,1.36648 12.3003,2.01055c10.87074,1.70591 21.86698,2.84936 32.53393,5.67419c22.53718,5.9683 43.61912,15.0516 64.60673,25.02089c8.85514,5.52437 17.68072,11.06133 26.45957,16.70611c6.25836,4.02411 13.00818,7.99543 18.53956,12.97986c6.00259,5.40905 11.55419,11.30212 17.50035,16.77315c12.22175,11.24516 23.85503,23.02839 27.56831,39.60137l-2.95461,5.5318c0,0 -3.3282,4.9923 -8.3205,1.6641z" fill="#4b0f7f" stroke-width="0.5"/><path d="M602.03527,210.04095c-4.24264,4.24264 -8.48528,0 -8.48528,0l-1.55736,-1.64264c-2.13122,-2.85053 -3.62363,-6.16592 -5.915,-8.88937c-2.3879,-2.8382 -13.0832,-12.26138 -15.13413,-14.108c-8.15237,-6.32656 -16.4179,-12.9362 -25.17598,-18.42105c-4.50594,-2.82189 -9.63661,-4.49473 -14.46409,-6.72228c-4.68896,-2.16364 -9.31356,-4.49669 -14.14798,-6.31221c-18.60936,-6.98856 -38.88419,-9.95418 -58.36239,-13.23093c-8.33075,-1.40145 -14.02251,-3.11257 -22.45794,-3.93362c-5.05238,-0.49177 -10.45074,0.01747 -15.5425,0.01747c0,0 -6,0 -6,-6c0,-6 6,-6 6,-6c5.39374,0 11.10822,-0.49724 16.4575,0.01747c9.89705,0.95229 13.95812,2.45413 23.54206,4.06638c20.25164,3.40682 41.22651,6.58229 60.57631,13.82713c5.09479,1.90756 9.97352,4.35071 14.91333,6.62973c5.19268,2.39569 10.67394,4.26698 15.53591,7.27772c9.34962,5.7897 18.15407,12.84563 26.82402,19.57895c3.70876,3.33656 13.41267,11.79327 16.86587,15.892c2.353,2.79287 3.88887,6.19279 6.085,9.11063l0.44264,0.35736c0,0 4.24264,4.24264 0,8.48528z" fill="#4b0f7f" stroke-width="0.5"/><path d="M636.61349,285.25352c-0.88584,3.54334 -3.38938,4.3905 -5.21288,4.51098c-0.85806,0.6156 -2.02391,1.03381 -3.60797,1.03381c-2.85442,0 -4.35089,-1.35795 -5.13543,-2.78181c-18.03898,-4.13549 -36.34391,-6.90592 -54.32845,-11.39951c-24.93425,-6.31252 -49.50281,-13.50448 -74.07613,-21.01968c-4.9114,-1.50204 -10.12718,-1.77307 -15.10707,-3.0295c-9.03621,-2.27983 -17.55387,-7.03407 -26.3311,-10.10498c-3.31809,-1.16091 -6.80097,-1.82056 -10.09956,-3.03576c-6.9045,-2.54361 -13.5616,-5.74023 -20.50813,-8.16669c-5.35597,-1.87086 -10.98424,-3.37994 -15.74233,-6.46978c0,0 -4.9923,-3.3282 -1.6641,-8.3205c3.3282,-4.9923 8.3205,-1.6641 8.3205,-1.6641c3.83222,2.66076 8.61699,3.59472 13.02607,5.11969c7.02595,2.43007 13.74707,5.67499 20.72347,8.24385c3.2327,1.19035 6.64908,1.82586 9.90044,2.96424c8.53226,2.98737 16.87988,7.71233 25.6689,9.89502c4.91286,1.22008 10.04706,1.50683 14.89293,2.9705c24.54944,7.41502 49.0372,14.67979 73.92387,20.98032c15.09336,3.77552 30.41151,6.33613 45.6118,9.50325c-0.89914,-1.42698 -1.82974,-2.83165 -2.85269,-4.17116c-9.95625,-13.03726 -23.43434,-23.71296 -35.6994,-34.41252c-7.4469,-5.95672 -14.63261,-12.42874 -22.13141,-18.30676c-4.10875,-3.22069 -8.60048,-6.03495 -13.07447,-8.82c-1.66064,-0.36257 -3.31454,-0.749 -4.94948,-1.20027c-15.99169,-4.41398 -31.68737,-9.91942 -47.80333,-13.948c-7.13075,-1.78251 -14.47042,-2.65685 -21.58942,-4.48576c-7.57486,-1.94602 -14.94427,-4.64676 -22.53191,-6.54234c-9.83142,-2.45612 -19.12918,-4.15001 -27.77179,-9.80545c0,0 -4.9923,-3.3282 -1.6641,-8.3205c2.90515,-4.35772 7.07823,-2.37577 8.09219,-1.8015c0.03695,-0.16906 0.08048,-0.34191 0.13097,-0.51862c1.64833,-5.76914 7.41747,-4.12082 7.41747,-4.12082c5.32396,1.54157 10.92756,1.86483 16.38051,2.85801c10.01381,1.82388 19.18712,6.04905 29.12457,8.02304c5.83085,1.15825 11.86063,1.43394 17.55628,3.13684c3.61487,1.08078 7.01397,2.78309 10.51866,4.1804c6.0773,2.42299 12.37117,4.33422 18.28887,7.12443c8.22513,3.87817 15.82064,9.17103 23.38824,14.17486c4.74583,1.0264 9.52094,1.94597 14.07171,3.60669c6.78525,2.47616 12.89338,6.64261 19.74844,8.91837c2.03886,0.67687 4.23164,0.74401 6.34746,1.11601c5.76445,3.34514 9.16926,5.33802 13.47021,10.33439l0.45672,5.2961c0,0 0,6 -6,6c-6,0 -6,-6 -6,-6l0.45672,-0.7039c-0.59064,0.77938 -1.8414,-0.69915 -2.66522,-1.22604c-1.28336,-0.8208 -2.57638,-1.62639 -3.86457,-2.43958c-1.34314,-0.21005 -2.64322,-0.49294 -3.91076,-0.83319c2.05632,1.72282 4.1196,3.42908 6.20108,5.09449c12.98917,11.32609 27.06077,22.649 37.6149,36.43386c3.61077,4.71606 6.30871,10.06235 9.41192,15.13004c1.53756,0.64395 4.69136,2.54123 3.57678,6.99953z" fill="#4b0f7f" stroke-width="0.5"/><path d="M608.79263,303.79831c0,6 -6,6 -6,6h-1c-11.375,-0.0391 -22.55034,-2.79197 -33.77186,-4.19101c-7.97589,-0.99439 -16.44785,-1.75552 -24.67198,-2.35164c5.79492,3.75644 11.53104,7.59734 17.0409,11.74045c9.64499,7.25251 18.68899,15.48509 27.92568,23.24509c13.96738,11.74658 27.98463,24.36532 39.18346,38.83533c3.40762,4.40298 9.70116,10.50953 8.07608,17.32338c-0.55599,2.33121 -2.70642,4.06999 -4.6279,5.5023c-1.47056,1.09619 -3.4622,1.21241 -5.19329,1.81862l-4.96109,0.07748c0,0 -6,0 -6,-6c0,-6 6,-6 6,-6l1.25282,0.03194c-3.03265,-3.63214 -5.73681,-7.5401 -8.81554,-11.13559c-9.72302,-11.355 -21.1884,-21.66118 -32.63352,-31.26557c-9.06474,-7.61554 -17.93466,-15.71156 -27.40082,-22.82858c-10.43644,-7.84651 -21.71279,-14.57075 -32.62008,-21.74768c-1.0252,-0.00246 -2.05001,-0.02071 -3.0742,-0.06318c-7.23754,-0.30016 -14.46489,-0.99324 -21.70865,-0.99134c-6.99902,0.00184 -14.00086,0.03863 -21,0c-3.708,-0.02046 -7.62828,-0.60351 -11.10263,0.6921c0,0 -0.69535,0.23178 -1.68099,0.29029c0.99594,0.66641 1.99856,1.32247 3.0127,1.96063c21.41838,13.47762 43.0559,26.35498 63.99102,40.59086c7.83279,5.32738 15.28285,11.21344 23.13998,16.49521c6.24354,4.19707 12.92995,7.72231 19.08009,12.05509c24.25062,17.08458 46.86336,36.50562 69.60586,55.48528l0.79437,1.71806c2.41338,0.77692 4.1596,3.04077 4.1596,5.71247c0,3.31371 -2.68629,6 -6,6h-7c0,0 -6,0 -6,-6c0,-1.23175 0.25287,-2.21063 0.65478,-2.98856c-20.59111,-17.20138 -41.15017,-34.63017 -63.09495,-50.09562c-6.0965,-4.29648 -12.73046,-7.78344 -18.91991,-11.94491c-7.86639,-5.28896 -15.32441,-11.18169 -23.16755,-16.51391c-20.83895,-14.17048 -42.38347,-26.98046 -63.70145,-40.40002c-5.0334,-3.1685 -9.77331,-6.79214 -14.84261,-9.90288c-14.37283,-8.81979 -30.2077,-15.81642 -45.14779,-23.61288c-7.1272,-3.71932 -14.49789,-6.9702 -21.54476,-10.83958c-4.84814,-2.66208 -9.31779,-6.10432 -14.46411,-8.13078c0,0 -5.57086,-2.22834 -3.34252,-7.7992c2.22834,-5.57086 7.7992,-3.34252 7.7992,-3.34252c5.57618,2.25881 10.51052,5.85789 15.78377,8.75423c6.97187,3.82932 14.26782,7.03954 21.31984,10.71916c15.14571,7.90276 31.1621,15.01377 45.73974,23.94337c2.12649,1.30259 4.19655,2.69321 6.25385,4.10385c-0.00592,-0.01739 -0.0118,-0.03485 -0.01764,-0.05238c-1.89737,-5.6921 3.79473,-7.58947 3.79473,-7.58947c4.75786,-1.48724 9.91254,-1.2837 14.89737,-1.3079c6.99933,-0.03397 14.00077,-0.00179 21,0c1.11206,0.00028 2.22375,0.01606 3.33517,0.04371c-2.39369,-1.03714 -4.79409,-2.06249 -7.12504,-3.2256c-0.65279,-0.32573 -20.20353,-10.10318 -21.10392,-10.47264c-5.65697,-2.32125 -11.75534,-3.45673 -17.40231,-5.8022c-8.35204,-3.46902 -15.923,-6.87769 -24.8806,-8.65979c0,0 -5.88348,-1.1767 -4.70679,-7.06018c1.1767,-5.88348 7.06018,-4.70679 7.06018,-4.70679c9.70947,1.95118 18.06375,5.55406 27.1194,9.34021c5.62945,2.35366 11.7214,3.4704 17.36609,5.78727c1.42284,0.58401 20.3403,10.05528 21.90635,10.83693c5.3803,2.68541 11.10286,4.69423 16.32702,7.67202c3.60362,2.05408 6.77377,4.79067 10.21697,7.1036c0.08968,0.06024 0.17938,0.12044 0.26912,0.1806c4.3087,-0.08421 8.6202,-0.29859 12.91777,-0.02966c10.54877,0.6601 21.92664,1.5896 32.41144,2.89347c10.68562,1.32884 21.44994,4.14689 32.28914,4.09906h1c0,0 6,0 6,6z" fill="#4b0f7f" stroke-width="0.5"/><path d="M558.79263,441.79831c0,6 -6,6 -6,6l-2.84649,-0.06001c-0.81553,-0.11653 -1.63127,-0.23107 -2.44721,-0.34379c-3.4631,2.58378 -10.27913,2.89346 -13.6674,2.32633c-2.43187,-0.40704 -4.6942,-1.51101 -7.0413,-2.26652l-8.10434,-3.03803c0,0 -0.50701,-0.19013 -1.15928,-0.60846c-3.15207,-0.34816 -6.30413,-0.69632 -9.45527,-1.05303c-17.29468,-1.95777 -34.11674,-6.67029 -51.30151,-9.24278c-4.1867,-0.63042 -8.05525,-1.34517 -11.85589,-2.13119c3.24957,3.03638 6.5071,6.06187 9.79401,9.04992c5.79806,5.28816 12.20081,11.47486 16.91498,17.80832c1.6685,2.24163 2.71008,4.89043 4.18412,7.26446c2.73764,4.40913 7.81177,8.25953 2.22822,14.53742c-1.52205,1.71133 -11.78264,2.15091 -14.37729,1.6491c-2.00101,-0.387 -3.76194,-1.58821 -5.71137,-2.18278c-7.52596,-2.29539 -15.31336,-3.81433 -22.50892,-7.19042c-3.73036,-1.75025 -7.37432,-3.67903 -11.06148,-5.51854l-3.26687,-1.63344c0,0 -5.36656,-2.68328 -2.68328,-8.04984c2.68328,-5.36656 8.04984,-2.68328 8.04984,-2.68328l3.26687,1.63344c8.83511,4.42791 14.31433,7.03001 23.78855,9.99057c2.65934,0.83101 5.44658,1.20703 8.10731,2.03359c0.89531,0.27813 1.71905,0.76685 2.56576,1.18054c-0.6814,-1.34726 -1.34813,-2.70262 -2.24208,-3.91233c-1.55007,-2.09761 -3.58517,-3.78914 -5.36822,-5.69267c-3.27374,-3.49497 -6.40865,-7.14043 -9.95824,-10.35486c-2.24579,-2.04166 -4.47773,-4.10095 -6.70275,-6.16931c-1.07677,1.02701 -2.53499,1.6576 -4.14049,1.6576c-0.83582,0 -1.63173,-0.1709 -2.35468,-0.47967l-4.87366,-1.94947l0.11799,-0.29496c-0.39985,-0.07272 -0.7975,-0.16085 -1.19259,-0.26685c-2.1031,-0.56425 -3.06882,-3.09423 -4.69858,-4.53828c-4.14945,-3.67662 -4.49525,-3.58726 -9.20697,-6.4007l-3.11971,-2.07776c0,0 -2.94243,-1.96162 -2.80339,-5.13188c-0.26147,-0.23304 -0.52286,-0.46653 -0.78421,-0.70045c-0.95267,-0.20969 -1.57533,-0.34935 -1.72316,-0.38816c-5.85724,-1.53773 -11.38958,-4.12264 -17.13386,-6.0397c-4.91212,-1.63934 -10.03006,-2.58567 -15.01069,-4.00332c-9.43959,-2.68682 -18.9787,-6.7727 -28.23451,-10.07834c-3.85079,-1.37528 -14.23332,-5.08053 -14.59616,-5.24989c-2.86374,-1.33664 -5.21574,-3.60744 -8.04244,-5.02075c-3.83264,-1.91627 -8.0846,-3.04342 -11.67158,-5.38751c0,0 -4.9923,-3.3282 -1.6641,-8.3205c3.3282,-4.9923 8.3205,-1.6641 8.3205,-1.6641c3.10877,2.13362 6.95598,2.92622 10.32842,4.61249c2.79865,1.39936 5.1254,3.64903 7.95756,4.97925c6.55457,3.07858 17.94911,6.37342 24.70474,8.78615c5.47857,1.95663 10.87387,4.30451 16.46459,5.88562c2.88253,0.81521 5.80883,1.47996 8.71484,2.212c-7.01489,-6.41943 -14.07633,-12.78951 -21.34284,-18.8767c-5.79989,-4.85859 -12.02335,-9.19048 -17.91842,-13.93313c-11.2839,-9.07801 -22.13967,-18.66807 -33.12262,-28.10144c-0.71283,-0.61226 -1.42537,-1.22988 -2.13824,-1.85097c-0.88284,-0.45976 -1.76966,-0.91099 -2.65952,-1.35441c0,0 -2.54613,-1.27306 -3.25396,-3.81919c-3.4565,-3.00677 -6.95814,-5.97112 -10.57102,-8.67992c-3.02817,-2.2704 -6.56724,-3.85089 -9.42295,-6.33473c-0.21476,-0.18679 -7.93118,-7.90983 -8.31143,-8.29008c0,0 -4.24264,-4.24264 0,-8.48528c4.24264,-4.24264 8.48528,0 8.48528,0c2.56642,2.56642 4.96595,5.30984 7.68857,7.70992c2.57028,2.26579 5.83623,3.60906 8.57705,5.66527c5.61117,4.2096 10.98293,8.99281 16.3143,13.64174c5.06429,2.70394 9.99804,5.66962 14.65958,9.00694c5.44171,3.89588 10.32896,8.55082 15.89843,12.26177c8.11699,5.40837 16.5738,10.12499 24.27242,16.19719c11.28546,8.90128 21.37022,18.92269 32.2709,28.22073c4.8648,4.14956 10.15792,7.78281 14.97958,11.98242c2.59842,2.2632 5.16858,4.56083 7.72046,6.8805c1.24966,0.26657 2.49716,0.54245 3.74113,0.83349c9.75112,2.28132 17.49107,4.20993 27.39222,5.68912c10.84282,1.62959 21.54361,4.11902 32.31074,6.21445c-0.04436,-0.33097 -0.06802,-0.68411 -0.06802,-1.06092c0,-3.00637 1.50638,-4.50637 3.00956,-5.25477c-12.45619,-11.06225 -27.63802,-19.61969 -41.37334,-28.77683c-18.29376,-12.57641 -37.42727,-23.72393 -55.94783,-35.96508c-14.92772,-9.86646 -29.68627,-19.88299 -44.78571,-29.49885c-5.81207,-3.70133 -11.93851,-6.88419 -17.91425,-10.31501c-1.89645,-1.0888 -3.46018,-2.72376 -5.41576,-3.70237c-1.18707,-0.59404 -2.66444,-0.3856 -3.86878,-0.94381c-5.49115,-2.54513 -5.5397,-2.97873 -8.94654,-6.30064c0,0 -4.24264,-4.24264 0,-8.48528c4.24264,-4.24264 8.48528,0 8.48528,0c1.79496,1.87366 2.11302,2.46684 5.05346,3.69936c1.31087,0.54946 2.85973,0.42091 4.13122,1.05619c2.34454,1.17141 4.30622,3.00159 6.58424,4.29763c2.57293,1.46381 5.38013,2.48973 7.94463,3.96826c0.19241,0.11093 20.17614,12.82893 20.5233,13.05085c11.76365,7.51986 23.18848,15.47135 34.83211,23.16702c18.55582,12.26417 37.7235,23.4334 56.05217,36.03492c16.34568,10.89682 34.15159,21.03254 48.107,34.96687l0.13491,0.31699l0.07954,-0.06363l3.97014,4.96268c0.84066,1.03258 1.34464,2.35018 1.34464,3.78549c0,1.64397 -0.66117,3.13352 -1.7321,4.21723c5.67152,0.63519 11.34436,1.25143 17.01435,1.89418c-0.90982,-1.08281 -1.82061,-2.16484 -2.75613,-3.2249c-7.27484,-8.2434 -14.6011,-16.43277 -21.83631,-24.7125c-12.91967,-12.03585 -25.63783,-24.37906 -39.40398,-35.46179c-4.793,-3.85871 -9.94879,-7.24405 -14.88796,-10.91381c-7.53606,-5.59922 -14.70756,-11.62415 -22.61005,-16.73067c-9.71003,-6.27454 -20.13689,-12.53747 -30.49811,-17.71476c-2.99819,-1.49813 -6.22776,-2.51463 -9.18265,-4.09646c-0.22848,-0.12231 -7.66096,-5.08134 -9.43527,-6.26421c0,0 -4.9923,-3.3282 -1.6641,-8.3205c3.3282,-4.9923 8.3205,-1.6641 8.3205,-1.6641c2.85891,1.90594 5.53026,4.12397 8.56473,5.73579c2.83866,1.50781 5.94279,2.46535 8.81735,3.90354c10.69692,5.35186 21.47624,11.80023 31.50189,18.28524c8.1715,5.28567 15.59542,11.47904 23.38995,17.26933c5.01509,3.72554 10.24388,7.17061 15.11204,11.08619c14.18784,11.41163 27.30775,24.11424 40.59602,36.53821c7.36905,8.41121 14.82165,16.7416 22.21885,25.12656c2.31878,2.62841 4.50544,5.37309 6.86658,7.9635c1.783,1.95614 4.2145,3.4333 5.81065,5.50378c1.54733,0.20732 3.0941,0.4204 4.64023,0.64018l1.15351,-0.06001c0,0 6,0 6,6z" fill="#4b0f7f" stroke-width="0.5"/><path d="M437.40565,527.42672c-0.85715,-1.62004 -1.48116,-4.24554 1.14434,-6.87105c4.24264,-4.24264 8.48528,0 8.48528,0l3.39741,3.43871c2.22963,3.52424 12.71234,16.03749 2.70989,20.78167c-5.06654,2.40307 -11.10363,-1.92681 -16.38552,-3.80994c-5.42649,-1.93469 -10.11685,-5.51473 -15.19972,-8.22662c-13.83984,-7.38405 -27.05587,-15.59247 -40.1083,-24.29247c-14.84758,-9.89857 -30.25006,-19.12707 -44.43428,-29.98741c-6.9684,-5.33545 -13.17088,-12.07271 -19.57132,-18.07677c-13.74853,-12.8971 -26.76382,-26.62094 -34.19408,-44.28842c-2.53406,-6.02543 -3.94586,-12.15042 -4.71683,-18.34805c-0.31716,0.22355 -0.6293,0.45419 -0.93596,0.692c-2.32899,1.80604 -3.22705,4.9529 -4.61447,7.37151c-2.14409,3.73766 -5.03622,6.78194 -6.51422,10.93566c-0.52248,1.46836 -0.46784,3.08871 -0.87624,4.59279c-1.54467,5.68879 -2.6866,10.91341 -3.92471,16.68177c-1.81336,8.4484 -4.91381,16.07005 -4.87429,24.77822c0,5.33333 0.08059,10.66728 0,16c-0.02329,1.54125 -0.4708,3.11161 -0.16051,4.62148c0.25166,1.22454 1.34443,2.12798 1.78782,3.29684c0.72468,1.91041 1.11704,3.92988 1.67124,5.8977c0.48683,0.5241 3.89535,4.47536 -0.05591,8.42662c-4.24264,4.24264 -8.48528,0 -8.48528,0l-2.44946,-3.34527c-0.74392,-2.24148 -1.11377,-4.60145 -1.93521,-6.81569c-0.60259,-1.62431 -1.87832,-3.00315 -2.21218,-4.70316c-0.47407,-2.41398 -0.13099,-4.91861 -0.16051,-7.37852c-0.06398,-5.33295 0,-10.66667 0,-16c0.03583,-9.62931 3.13266,-17.90444 5.12571,-27.22178c1.26996,-5.93693 2.47219,-11.46411 4.07529,-17.31823c0.48622,-1.77555 0.48555,-3.68046 1.12376,-5.40721c1.90101,-5.14338 4.89272,-8.50713 7.48578,-13.06434c2.22479,-3.91 3.7744,-7.69452 7.38553,-10.62849c2.34646,-1.90646 4.95298,-3.4624 7.69833,-4.72505c-0.09258,-5.63667 0.05494,-11.31636 0.09566,-17.01968c-1.28876,-2.18727 -3.2674,-5.52407 -4.18308,-6.32355c-2.05392,-1.79327 -4.60431,-2.95167 -6.68522,-4.71356c-3.57317,-3.02538 -6.26969,-7.01331 -9.92568,-9.93807c-5.00035,-4.00022 -10.73253,-6.64104 -16.55958,-9.12518c0,0 -5.51487,-2.36352 -3.15135,-7.87839c2.36352,-5.51487 7.87839,-3.15135 7.87839,-3.15135c6.88451,2.9645 13.52896,6.14559 19.44042,10.87482c3.70611,2.96492 6.45019,6.99734 10.07432,10.06193c2.29716,1.9425 5.10256,3.24773 7.31478,5.28644c3.22227,2.96955 3.46051,4.5148 4.80225,6.94994c1.85044,0.95949 2.56129,2.76312 2.83437,4.00727c1.9987,2.31877 4.31469,4.38145 6.07802,6.8827c2.05259,2.91156 3.38065,6.2745 5.21514,9.32818c6.09456,10.14498 10.91055,20.684 16.18565,31.31775c2.25973,4.55525 5.96502,8.24325 8.71296,12.52174c3.33889,5.19859 5.81697,10.91346 9.09526,16.15048c1.57765,2.63091 3.17272,5.25378 4.87562,7.80541l-6.9923,9.3282c0,0 -1.02871,0 -2.23422,-0.42595c4.51597,4.44611 9.06327,8.99589 14.0121,12.76466c13.91518,10.5971 28.99646,19.63326 43.53492,29.32539c14.15992,9.44174 28.58848,17.94571 43.53555,26.0551c0.9646,0.52334 3.25424,1.56176 5.76467,2.90921zM294.33591,411.50221c6.76303,16.04034 18.82932,28.42835 31.31482,40.12617c0.49355,0.46241 0.98588,0.92982 1.47748,1.40111c-0.21187,-0.63187 -0.33557,-1.36967 -0.33557,-2.23118c0,-0.44194 0.03255,-0.85133 0.09286,-1.23056c-0.74554,-1.20647 -1.47969,-2.42008 -2.20955,-3.63582c-3.20828,-5.14095 -5.62553,-10.75352 -8.90474,-15.84952c-1.37943,-2.14368 -3.46591,-3.76261 -4.90856,-5.86426c-1.68809,-2.4592 -3.10549,-5.10116 -4.44721,-7.7652c-4.25699,-8.45246 -8.12555,-16.89905 -12.63683,-25.10634c-1.32755,1.03884 -2.80927,1.33519 -2.80927,1.33519c-0.32416,0.06068 -0.6484,0.12592 -0.97244,0.19578c0.55913,6.33305 1.78751,12.57305 4.33902,18.62463zM260.47329,493.86669c0.0038,0.01142 0.00762,0.02283 0.01144,0.03425z" fill="#4b0f7f" stroke-width="0.5"/></g></g></svg>