<svg version="1.1" xmlns="http://www.w3.org/2000/svg" xmlns:xlink="http://www.w3.org/1999/xlink" width="192.5" height="141.01309" viewBox="0,0,192.5,141.01309"><g transform="translate(-153.64632,-117.25979)"><g data-paper-data="{&quot;isPaintingLayer&quot;:true}" fill-rule="nonzero" stroke="none" stroke-linecap="butt" stroke-linejoin="miter" stroke-miterlimit="10" stroke-dasharray="" stroke-dashoffset="0" style="mix-blend-mode: normal"><path d="M246.5,180c0,21.53911 -2.91015,39 -6.5,39c-3.58985,0 -6.5,-17.46089 -6.5,-39c0,-21.53911 2.91015,-39 6.5,-39c3.58985,0 6.5,17.46089 6.5,39z" fill="#a500e3" stroke-width="0"/><path d="M240.10893,187.99909c-21.53608,0.36094 -39.04329,-2.2562 -39.10345,-5.84555c-0.06016,-3.58935 17.34952,-6.79169 38.8856,-7.15263c21.53608,-0.36094 39.04329,2.2562 39.10345,5.84555c0.06016,3.58935 -17.34952,6.79169 -38.8856,7.15263z" fill="#a500e3" stroke-width="0"/><path d="M252.69235,177.82635c-7.6749,6.9519 -15.54975,10.76249 -17.58898,8.51119c-2.03922,-2.2513 2.52939,-9.71198 10.20429,-16.66388c7.6749,-6.9519 15.54975,-10.76249 17.58898,-8.51119c2.03922,2.2513 -2.52939,9.71198 -10.20429,16.66388z" fill="#a500e3" stroke-width="0"/><path d="M244.95219,192.97359c-7.01074,-7.6212 -10.88179,-15.46651 -8.64623,-17.52299c2.23555,-2.05648 9.73114,2.45461 16.74188,10.07581c7.01074,7.6212 10.88179,15.46651 8.64623,17.52299c-2.23555,2.05648 -9.73114,-2.45461 -16.74188,-10.07581z" fill="#a500e3" stroke-width="0"/><path d="M228.82953,185.65396c7.71199,-6.91074 15.60712,-10.67914 17.63427,-8.41696c2.02715,2.26219 -2.58132,9.6983 -10.29331,16.60904c-7.71199,6.91074 -15.60712,10.67914 -17.63427,8.41696c-2.02715,-2.26219 2.58132,-9.6983 10.29331,-16.60904z" fill="#a500e3" stroke-width="0"/><path d="M236.65666,169.64829c6.78126,7.82608 10.41757,15.78291 8.12192,17.77208c-2.29565,1.98917 -9.65394,-2.74257 -16.43521,-10.56866c-6.78126,-7.82608 -10.41757,-15.78291 -8.12192,-17.77208c2.29565,-1.98917 9.65394,2.74257 16.43521,10.56866z" fill="#a500e3" stroke-width="0"/><path d="M174.65888,245.28544c0.70245,-0.70119 1.4178,-1.38857 2.1408,-2.06799c4.3803,-5.86897 9.39597,-11.07942 13.89402,-16.96586c3.67603,-2.42397 5.92798,-5.96851 8.96519,-8.96614c3.04078,-3.00116 6.90839,-5.26386 10.77352,-7.33963c1.08935,-1.63218 2.20966,-3.25053 3.34971,-4.85232c-0.09084,0.09544 -0.18288,0.18975 -0.27632,0.28274l-0.18386,0.03508l0.04511,0.06766l-1.46599,0.97733c-5.47015,4.53867 -10.52918,9.71861 -16.22558,13.77771l-1.36694,1.82258c-0.31844,0.43431 -0.8324,0.71629 -1.41222,0.71629c-0.9665,0 -1.75,-0.7835 -1.75,-1.75c0,-0.29393 0.07246,-0.57093 0.2005,-0.81411l1.48426,-2.96851c0.08498,-0.32294 0.2074,-0.64001 0.35786,-0.9506c-0.3343,-0.31872 -0.54262,-0.76842 -0.54262,-1.26678c0,-0.49709 0.20726,-0.94578 0.54008,-1.26436l2.27358,-2.18327l0.03909,0.0407l0.0747,-0.14087c0.40043,-0.2701 0.80086,-0.53979 1.20124,-0.80919c1.8474,-2.87851 5.66608,-5.30469 7.90033,-7.39556c4.07185,-3.81055 8.38837,-7.32239 12.4568,-10.98455c4.13422,-3.72137 8.02467,-7.54129 12.67429,-10.57237c-0.29856,-0.10462 -0.60055,-0.32135 -0.8662,-0.71982c-0.16021,-0.24031 -0.25431,-0.4674 -0.29977,-0.67909c-0.0344,0.15408 -0.09226,0.31774 -0.17889,0.49099c-0.78262,1.56525 -2.34787,0.78262 -2.34787,0.78262l-1.67346,-1.09452c-0.98147,-1.489 -2.11057,-2.86348 -3.34037,-4.15662c-0.75192,0.75136 -1.85348,0.31073 -1.85348,0.31073c-3.897,-1.56773 -6.81196,-4.16675 -10.29749,-6.15348c-4.26943,-2.43355 -9.11061,-4.09824 -13.54331,-6.28041c-5.80137,-2.85596 -11.37565,-6.02348 -17.45141,-8.30115l-0.04115,-0.04094l-0.00874,0.01953l-1.68646,-0.75478c-0.62953,-0.26503 -1.0715,-0.8877 -1.0715,-1.61361c0,-0.9665 0.7835,-1.75 1.75,-1.75h3.5l0,0.01351c0.03223,-0.00378 0.06449,-0.00739 0.09678,-0.01084c5.00018,-0.53358 11.31891,2.78981 16.06287,4.0974c0.04486,0.01236 0.08973,0.02473 0.1346,0.0371c-0.71759,-0.44527 -1.43145,-0.89619 -2.14086,-1.35393l-2.9021,-1.45105c-0.59193,-0.2806 -1.00129,-0.8836 -1.00129,-1.5822c0,-0.24912 0.05205,-0.48608 0.14588,-0.7006c-0.48137,-0.4153 -0.96185,-0.8317 -1.44114,-1.24949c-2.65684,-2.31592 -5.00922,-4.89473 -7.62185,-7.24594c-0.82389,-0.74145 -1.96366,-1.17121 -2.5895,-2.08602c-0.04165,-0.06088 -0.08194,-0.12249 -0.12097,-0.18477l-0.02242,0.01681l-1.48939,-1.98586c-0.22618,-0.29487 -0.36061,-0.66381 -0.36061,-1.06414c0,-0.9665 0.7835,-1.75 1.75,-1.75c0.1601,0 0.31518,0.0215 0.46251,0.06177l1.96193,0.49048l-0.01623,0.06493l0.19895,-0.00848c1.94775,0.96746 3.87352,1.94292 5.77792,2.93758c-0.39078,-0.42887 -0.77873,-0.86018 -1.16365,-1.2941c-3.6478,-1.7807 -7.28684,-3.57734 -10.9129,-5.39458c-6.58712,-2.38899 -12.97676,-5.78092 -18.81927,-9.679l-0.03181,-0.03852l-0.00744,0.00992l-1.98371,-1.48778c-0.43431,-0.31844 -0.71629,-0.8324 -0.71629,-1.41222c0,-0.83283 0.58177,-1.52978 1.36108,-1.70663l1.96449,-0.49112l0.00998,0.03992c0.1571,-0.04194 0.31741,-0.07301 0.48162,-0.09089c1.22728,-0.13365 2.36953,0.69768 3.53477,1.10549c4.06578,1.42294 8.39284,3.12802 12.20797,5.09877c5.42081,2.80018 10.82069,5.57375 16.20501,8.41813c4.28957,2.26605 8.34591,4.97619 12.38477,7.7155c1.58509,0.84189 3.18402,1.62597 4.79877,2.30625c8.73445,3.67975 17.81375,7.88327 26.11311,12.5538l1.93716,0.96858c0.59193,0.2806 1.00129,0.8836 1.00129,1.5822c0,0.9665 -0.7835,1.75 -1.75,1.75c-0.18094,0 -0.35546,-0.02746 -0.51963,-0.07844l-3.32647,-0.95042l0.00402,-0.01408c-0.02908,-0.00384 -0.05815,-0.00782 -0.08721,-0.01194c-2.19037,-0.31049 -4.43034,-1.18603 -6.6156,-2.22294c-0.97073,1.45399 -2.42584,0.48391 -2.42584,0.48391l-1.43868,-0.96093c-2.87454,-1.59041 -5.48275,-3.49173 -8.31851,-5.15007c-0.87595,-0.51326 -1.74412,-1.04206 -2.60651,-1.58248c-2.4475,-1.15839 -4.89497,-2.31963 -7.34114,-3.48511c3.6112,2.37178 6.79721,5.27103 10.31441,7.88187c6.22843,4.62339 12.84751,9.03043 19.47135,13.06507c0.39809,0.24248 0.79605,0.48505 1.19409,0.72737c0.75648,0.26506 1.51076,0.53359 2.26256,0.80579l-0.27579,-1.37898c-0.02689,-0.12193 -0.04107,-0.24863 -0.04107,-0.37864c0,-0.9665 0.7835,-1.75 1.75,-1.75c0.37924,0 0.73031,0.12063 1.01692,0.32562l0.84505,0.58757l1.37547,-1.37547l0.32105,0.32105c4.49413,-4.84445 10.12443,-7.6574 16.41988,-10.80448c8.7046,-4.3514 18.3181,-7.82378 27.79532,-10.09403c4.53272,-1.08581 9.2599,-1.52103 13.82944,-2.47554c13.076,-2.72387 26.69853,-2.37098 39.72444,-4.97616l0.17244,0.05866v-0.06718h2.5c0.9665,0 1.75,0.7835 1.75,1.75c0,0.04228 -0.0015,0.0842 -0.00445,0.12573l2.47716,-0.35388c0.09031,-0.01438 0.18293,-0.02185 0.27729,-0.02185c0.9665,0 1.75,0.7835 1.75,1.75c0,0.76612 -0.4923,1.41726 -1.17782,1.65432l-2.29734,0.85511l-0.01014,-0.02724l-0.06137,0.05211c-2.28675,0.63342 -4.58142,1.23899 -6.8834,1.81458c-2.23886,0.55955 -4.51601,1.0623 -6.81199,1.54539c-0.36336,0.2057 -0.72714,0.4106 -1.09134,0.6147c0.50005,0.30806 0.8334,0.86062 0.8334,1.49104c0,0.83283 -0.58177,1.52978 -1.36108,1.70663l-1.96449,0.49112c-2.7552,0.68691 -5.30964,1.55235 -8.12406,2.02628c-0.05858,0.01065 -0.11716,0.02131 -0.17574,0.03196c-11.65708,5.88723 -23.72099,10.95485 -36.16656,15.1022l-3.20406,1.22699c-0.20457,0.08386 -0.42856,0.13009 -0.66334,0.13009c-0.9665,0 -1.75,-0.7835 -1.75,-1.75c0,-0.66013 0.36551,-1.23489 0.90519,-1.53295l3.00313,-1.73113l0.08929,0.1549c0.73453,-0.68578 1.4885,-1.36133 2.25957,-2.02481c-0.97318,0.22047 -1.94616,0.44111 -2.91858,0.6629c-3.04379,2.11693 -7.52648,3.13306 -11.09909,4.52656l2.39594,-0.69102c0.1654,-0.05182 0.34136,-0.07975 0.52385,-0.07975c0.9665,0 1.75,0.7835 1.75,1.75c0,0.64863 -0.35288,1.21484 -0.87714,1.51711l-2.4725,1.4835l-0.01831,-0.03052c-0.06083,0.04624 -0.12265,0.09137 -0.18552,0.13532c-0.98621,0.68935 -2.33598,0.59389 -3.46783,1.00221c-0.10434,0.03764 -6.2573,2.76768 -6.28824,2.78138c-1.89324,0.83864 -3.8067,1.63019 -5.73766,2.37664c0.14141,0.12524 0.28112,0.25456 0.41903,0.38826l1.91189,1.43392c0.43431,0.31844 0.71629,0.8324 0.71629,1.41222c0,0.24921 -0.05209,0.48625 -0.14598,0.70083c3.55469,3.57399 7.05047,7.21313 10.50925,10.8906c6.0776,3.998 11.93632,8.41371 17.50181,13.05984c3.59362,2.99999 6.73134,6.47548 10.52689,9.16377c6.07234,5.82179 12.26314,11.26421 18.72009,16.54143c2.3414,1.59135 4.65505,3.22235 6.90923,4.9409l0.08113,0.30101l0.10366,-0.06911l0.57752,0.86627c1.58458,1.01629 3.79665,2.07136 4.73769,3.40182c0.69888,0.98809 1.96261,2.3312 1.3455,3.37232c-0.24022,0.40526 -0.50701,0.72676 -0.79383,0.9776c2.41336,2.1517 4.73779,4.44495 6.85713,6.56046c0.51433,0.43037 1.04039,0.84882 1.57822,1.2519c0.78878,0.49305 1.69985,0.85582 2.26946,1.55674c0.36744,0.22864 0.73978,0.44895 1.11705,0.66001l0.12098,0.37424l0.1342,-0.10065l1.48939,1.98586c0.22618,0.29487 0.36061,0.66381 0.36061,1.06414c0,0.9665 -0.7835,1.75 -1.75,1.75c-0.48325,0 -0.92075,-0.19588 -1.23744,-0.51256l-2.47487,-2.47487l0.02957,-0.02957c-1.41133,-0.85957 -2.72646,-1.88544 -3.99736,-2.94075c-0.94173,-0.9435 -1.92881,-1.92843 -2.94883,-2.92177c-2.15999,-1.90927 -4.2776,-3.89501 -6.50042,-5.86525c-0.20874,-0.16887 -0.41776,-0.33565 -0.62697,-0.5001c-0.33051,-0.14012 -0.64133,-0.27662 -0.92414,-0.39283c-5.07128,-2.08382 -9.84231,-4.91709 -14.63391,-7.56332c-5.87437,-2.93641 -11.10672,-6.85863 -16.87868,-9.92234c-1.59157,-0.84479 -3.32983,-1.48922 -4.72437,-2.62878l-2.83129,-1.41565c-0.59193,-0.2806 -1.00129,-0.8836 -1.00129,-1.5822c0,-0.76657 0.49288,-1.41802 1.17902,-1.65474c-3.72341,-2.91646 -7.48268,-5.78566 -11.39974,-8.38918l1.59108,-1.37651c-0.4562,-0.36121 -0.91112,-0.72417 -1.36515,-1.08831c-2.66022,-1.69769 -5.3506,-3.35517 -8.08758,-4.95191c-3.34949,-1.68223 -6.10163,-3.94562 -9.28274,-5.88929l-1.77381,-0.44345c-0.77931,-0.17685 -1.36108,-0.8738 -1.36108,-1.70663c0,-0.62352 0.32609,-1.17088 0.81703,-1.48083c-0.30497,-0.26837 -0.60667,-0.52294 -0.97176,-0.79066c-1.49555,-0.68541 -2.9722,-1.40058 -4.40997,-2.17972c-2.19884,-1.19157 -4.07202,-2.25511 -6.22467,-3.2356c-0.13764,0.12507 -0.27382,0.25231 -0.40868,0.38148c-0.18698,0.31712 -0.37098,0.63427 -0.55196,0.95109c-1.18648,2.0601 -2.69934,3.91423 -4.06701,5.85877c-1.09345,1.55466 -2.12601,3.14736 -3.13214,4.75668c0.06537,-0.00741 0.13182,-0.01121 0.19917,-0.01121c0.9665,0 1.75,0.7835 1.75,1.75c0,0.37315 -0.11679,0.71903 -0.31582,1.00307l-1.12081,1.64808l-0.0212,-0.01442l-0.01815,0.06992c-5.40104,6.75306 -10.85327,12.938 -16.90529,18.59615c-3.12273,5.00189 -6.71748,9.87516 -9.91265,14.66792l-0.98494,1.47742c-0.31159,0.48248 -0.85407,0.80186 -1.47114,0.80186c-0.82678,0 -1.51965,-0.57335 -1.7027,-1.34414l-0.2802,0.467c-0.30228,0.52425 -0.86849,0.87714 -1.51711,0.87714c-0.9665,0 -1.75,-0.7835 -1.75,-1.75c0,-0.08861 0.00659,-0.17567 0.01929,-0.26074c-0.57543,0.46751 -1.16289,0.8781 -1.76246,1.18639c-0.62216,0.64593 -1.25422,1.28822 -1.89735,1.9277l-0.18386,0.03508l0.04511,0.06766l-1.48009,0.98673c-0.28167,0.19376 -0.62291,0.30718 -0.99063,0.30718c-0.9665,0 -1.75,-0.7835 -1.75,-1.75c0,-0.48325 0.19588,-0.92075 0.51256,-1.23744l2,-2l0.02997,0.02997c0.0322,-0.0489 0.06486,-0.09753 0.09799,-0.14588c0.29578,-0.43158 0.86776,-0.57321 1.31188,-0.86077c0.90049,-0.94378 1.77994,-1.89454 2.64218,-2.8554c-3.04337,2.50276 -6.08153,5.00385 -8.91802,7.70385c-2.0922,1.98641 -4.25954,3.88892 -6.36153,5.85647c-0.72438,0.96998 -1.42952,1.96079 -2.10895,2.97994l-0.61841,0.65976c-0.2335,0.30068 -0.60703,0.61202 -1.16251,0.64052c-0.33009,0.04864 -0.71059,-0.00214 -1.10161,-0.272c-0.41624,-0.22906 -0.63183,-0.54668 -0.73595,-0.86368c-0.24208,-0.55338 -0.08987,-1.06401 0.09644,-1.41181zM200.70074,222.24495c1.67196,-1.55361 3.3287,-3.11884 4.97381,-4.69339c0.2454,-0.42301 0.49389,-0.8454 0.7453,-1.26712c-3.72838,2.62758 -6.35457,6.20594 -9.4773,9.29389c1.27409,-1.08756 2.53164,-2.19365 3.75818,-3.33337zM198.99973,160.17738c-3.03078,-0.83556 -6.02852,-1.74614 -9.03299,-2.64778c2.32435,1.17871 4.63776,2.38569 6.9863,3.5449c4.23966,2.09264 8.82754,3.72777 12.98428,5.97322c-1.73437,-1.32643 -3.43174,-2.66401 -5.00874,-4.07163c-0.6348,-0.56662 -1.273,-1.13016 -1.91389,-1.69133c-1.34373,-0.37134 -2.68265,-0.74007 -4.01496,-1.10737zM165.3131,123.77769c3.04673,1.66735 6.19343,3.1593 9.40003,4.42568c-1.0387,-0.53777 -2.07789,-1.07666 -3.11762,-1.6176c-2.00338,-1.04231 -4.13113,-1.95434 -6.28241,-2.80808zM284.65182,150.03092c12.1151,-2.90909 24.37658,-4.99434 36.44381,-8.19393c1.76072,-0.46685 3.49239,-0.95919 5.21026,-1.43412c-8.73768,0.91752 -17.59295,1.2985 -26.22972,2.91248c-0.12779,0.11672 -0.27294,0.21474 -0.43114,0.28973l-3.09659,1.54829l-0.02009,-0.04018c-0.0828,0.05133 -0.1668,0.10099 -0.25209,0.14884c-0.98767,0.5541 -2.28554,0.10684 -3.3695,0.43475c-1.01106,0.30586 -1.89184,0.94093 -2.82351,1.4387c-1.79029,0.95652 -3.60064,1.93018 -5.43142,2.89543zM268.9632,153.65913c4.2711,-1.59115 8.42429,-3.53463 12.19924,-5.57333c-3.17748,0.88765 -6.25592,2.00701 -8.92983,3.47431c-1.14022,0.62569 -2.22332,1.33557 -3.26941,2.09902zM245.71096,162.44739c-1.38237,0.91264 -2.32052,1.82197 -3.38518,2.56659c3.40339,-0.45179 6.78566,-0.98202 10.15154,-1.59849c0.41286,-0.45502 0.83978,-0.89993 1.27774,-1.33621l-1.67015,-0.33403c-0.81793,-0.14691 -1.43859,-0.86216 -1.43859,-1.72237c0,-0.2334 0.04569,-0.45613 0.12862,-0.65973c-1.7233,0.97143 -3.41544,1.99588 -5.06398,3.08425zM259.94237,161.20934c-0.36909,0.30726 -0.73919,0.61809 -1.10788,0.93334c1.87959,-0.40909 3.75495,-0.84693 5.62691,-1.3149c0.74601,-0.19633 1.49297,-0.38948 2.24077,-0.57989c0.31233,-0.10331 0.62489,-0.20562 0.93768,-0.30684c-1.98271,0.25733 -3.96685,0.48034 -5.95515,0.8079c-0.58532,0.09643 -1.16512,0.2666 -1.74233,0.46039zM254.60614,157.31002c1.88279,-0.21762 3.79999,-0.56296 5.72835,-1.01305c1.35539,-1.17505 2.70264,-2.37312 4.08739,-3.51941c-1.78501,0.7466 -3.54691,1.52443 -5.27869,2.32794c-1.52319,0.70672 -3.03809,1.43933 -4.53705,2.20453zM288.4757,159.55399c1.99653,-0.71523 3.9893,-1.4516 5.97264,-2.21476c-1.40142,0.34499 -2.80556,0.68119 -4.21139,1.01157c-0.58986,0.40221 -1.17682,0.8044 -1.76125,1.20319zM316.60868,147.01137c-1.48067,0.34113 -2.95487,0.70141 -4.4174,1.09071c1.22864,-0.22476 2.45744,-0.44894 3.6864,-0.67258c0.24422,-0.13852 0.48789,-0.27789 0.73101,-0.41812zM277.7085,153.55238c-1.28673,0.61837 -2.58324,1.21794 -3.88964,1.79055c1.51265,-0.29523 3.02549,-0.58921 4.53852,-0.88198c-0.27906,-0.1796 -0.53504,-0.46261 -0.64888,-0.90856zM243.31272,168.82499c0.52437,-0.23327 1.07213,-0.4444 1.62244,-0.64055c-0.70334,0.10018 -1.40752,0.19695 -2.1126,0.29038c0.16319,0.11692 0.32661,0.23361 0.49016,0.35017zM278.35103,207.55624c0.60534,0.39629 1.13155,0.89831 1.64513,1.41668c0.27289,-0.36333 0.6839,-0.61698 1.15508,-0.68302c-0.77476,-0.51734 -1.61414,-1.11526 -2.71827,-1.80605c-0.45878,-0.28703 -0.92722,-0.56278 -1.40378,-0.82891c-0.16216,0.06293 -0.33603,0.10238 -0.51744,0.11419l0.18354,0.73415c0.55734,0.34506 1.10975,0.6955 1.65576,1.05295zM291.8751,222.06241c0.13221,0.06683 0.26421,0.13389 0.39605,0.20116c-0.16287,-0.13595 -0.32661,-0.27117 -0.49117,-0.40567c-0.47469,-0.31902 -0.94884,-0.63862 -1.42257,-0.95867c0.50499,0.38959 1.01079,0.77749 1.51769,1.16318zM252.32075,186.82513c0.52467,0.13151 1.0438,0.27473 1.5578,0.42879c-0.23466,-0.21449 -0.46941,-0.42895 -0.70429,-0.64335c-0.1163,-0.05193 -0.19788,-0.0999 -0.23151,-0.12071c-0.11642,-0.05406 -0.23333,-0.10747 -0.35077,-0.16023l-0.48336,-0.08056l0.00339,-0.02033c-0.04583,-0.00207 -0.09168,-0.00455 -0.13753,-0.00746c-1.78338,-0.11322 -3.17682,-0.80527 -4.45074,-1.68639c-0.12797,-0.07022 -0.26813,-0.16332 -0.3987,-0.28413c-0.51559,-0.37755 -1.01573,-0.78022 -1.51932,-1.18077c-0.65002,0.04968 -1.40953,-0.06269 -2.12533,-0.23103c-0.32268,0.56418 -0.93413,0.80875 -0.93413,0.80875c-0.12578,0.0481 -0.25017,0.09839 -0.37322,0.1508c0.43947,0.28723 0.87608,0.59019 1.30071,0.88836c2.27513,1.00872 4.54167,2.07496 6.79491,3.18013c0.5144,-1.42629 2.05211,-1.04186 2.05211,-1.04186zM208.18005,220.31613c0.38314,0.36865 0.49538,0.77832 0.48907,1.14196c0.71759,-0.65234 1.42558,-1.30966 2.12488,-1.97216c0.96223,-1.54262 1.87803,-3.09789 2.72076,-4.66741c-1.5241,1.49556 -3.05481,2.98528 -4.59519,4.46705c-0.24818,0.34205 -0.49471,0.68556 -0.73953,1.03055zM233.89632,175.77288c-0.18911,0 -0.37122,-0.03 -0.54182,-0.08549l-1.15133,-0.3454c0.38006,0.3308 0.74884,0.66968 1.10346,1.01866c0.60797,-0.31117 1.22321,-0.61561 1.84147,-0.91725c0.00338,-0.07565 0.01157,-0.15006 0.02426,-0.22292c-0.31924,0.34001 -0.77283,0.55239 -1.27603,0.55239zM217.57188,168.07484c-0.96413,-0.58873 -1.93439,-1.16832 -2.90898,-1.74147c4.70111,3.6197 9.39217,7.3187 12.6895,12.21878l0.32654,-0.09452c0,0 0.79816,0.39908 0.96958,1.19724c0.16725,-0.68154 0.77707,-1.08808 0.77707,-1.08808c0.14026,-0.09105 0.28159,-0.18112 0.42392,-0.27026c-4.34957,-2.88924 -8.1437,-6.36388 -11.85643,-9.96128c-0.14285,-0.0893 -0.2833,-0.17621 -0.4212,-0.26041zM190.44972,144.36268c0.22415,0.07585 0.44222,0.15569 0.65524,0.2388c-1.37638,-0.7417 -2.7666,-1.45138 -4.16329,-2.14821c0.68544,0.67406 1.36724,1.35132 2.05742,2.02142c0.66931,-0.37245 1.45062,-0.11201 1.45062,-0.11201zM223.46726,167.60466c-0.25359,-0.19746 -0.50682,-0.39612 -0.7589,-0.59712c-0.33972,-0.10689 -0.67968,-0.21326 -1.01986,-0.31911c0.17976,0.09841 0.35948,0.19658 0.53917,0.29453c0.40218,0.21922 0.81704,0.42458 1.23959,0.6217zM197.23781,151.72231c1.91047,0.39197 3.62655,1.23037 5.3648,2.11669c-0.22334,-0.20472 -0.44661,-0.40956 -0.66978,-0.61455c-1.90503,-0.86782 -3.83546,-1.67221 -5.77436,-2.41879c0.35966,0.30579 0.71948,0.6113 1.07934,0.91666z" fill="#ddcbe3" stroke-width="0.5"/></g></g></svg>