<svg version="1.1" xmlns="http://www.w3.org/2000/svg" xmlns:xlink="http://www.w3.org/1999/xlink" width="608.5" height="434.5" viewBox="0,0,608.5,434.5"><g transform="translate(63.75,38.0625)"><g data-paper-data="{&quot;isPaintingLayer&quot;:true}" fill-rule="nonzero" stroke-linejoin="miter" stroke-miterlimit="10" stroke-dasharray="" stroke-dashoffset="0" style="mix-blend-mode: normal"><path d="M204.8297,233.46274c13.09355,33.69149 13.20321,65.0863 0.24494,70.12228c-12.95827,5.03598 -34.07743,-18.1939 -47.17097,-51.88539c-13.09355,-33.6915 -13.2032,-65.0863 -0.24494,-70.12228c12.95827,-5.03598 34.07742,18.1939 47.17097,51.88539z" fill="#ff6300" stroke="#000000" stroke-width="0" stroke-linecap="butt"/><path d="M-63.5,396.1875v-434h608v434z" fill="#000000" stroke="#000000" stroke-width="0.5" stroke-linecap="butt"/><path d="" fill="#0015ff" stroke="#00ffff" stroke-width="5.5" stroke-linecap="butt"/><path d="" fill="#0015ff" stroke="#00ffff" stroke-width="5.5" stroke-linecap="butt"/><path d="" fill="#0015ff" stroke="#00ffff" stroke-width="5.5" stroke-linecap="butt"/><path d="" fill="none" stroke="#00ffff" stroke-width="5.5" stroke-linecap="round"/><path d="" fill="none" stroke="#00ffff" stroke-width="5.5" stroke-linecap="round"/><path d="" fill="none" stroke="#00ffff" stroke-width="5.5" stroke-linecap="round"/><path d="" fill="none" stroke="#00ffff" stroke-width="5.5" stroke-linecap="round"/><path d="" fill="none" stroke="#00ffff" stroke-width="5.5" stroke-linecap="round"/><path d="" fill="none" stroke="#00ffff" stroke-width="5.5" stroke-linecap="round"/><path d="" fill="none" stroke="#00ffff" stroke-width="5.5" stroke-linecap="butt"/><path d="M356.47101,235.292c-13.13801,41.24522 -45.2655,67.83991 -71.75879,59.4009c-26.49329,-8.43901 -37.31987,-48.71604 -24.18187,-89.96126c13.13801,-41.24522 45.26551,-67.83991 71.75879,-59.4009c26.49329,8.43901 37.31987,48.71604 24.18187,89.96126z" fill="#ff0000" stroke="#000000" stroke-width="6" stroke-linecap="butt"/><path d="M222.08561,211.78556c15.68021,40.34732 7.38203,81.22023 -18.5345,91.29218c-25.91654,10.07196 -59.63735,-14.47108 -75.31755,-54.8184c-15.6802,-40.34732 -7.38203,-81.22023 18.53451,-91.29219c25.91654,-10.07196 59.63735,14.47109 75.31755,54.81841z" fill="#ff0000" stroke="#000000" stroke-width="6" stroke-linecap="butt"/><path d="M329.4286,241.32317c-10.97071,34.44127 -30.60276,58.94085 -43.8494,54.72134c-13.24664,-4.21951 -15.09164,-35.56025 -4.12093,-70.00152c10.97071,-34.44127 30.60276,-58.94084 43.8494,-54.72134c13.24664,4.2195 15.09165,35.56025 4.12093,70.00152z" fill="#ff6300" stroke="#000000" stroke-width="0" stroke-linecap="butt"/><path d="M305.21667,269.6155c-4.29537,13.48481 -12.04344,23.05754 -17.30581,21.3813c-5.26236,-1.67624 -6.04627,-13.9667 -1.7509,-27.4515c4.29537,-13.48481 12.04345,-23.05754 17.30581,-21.3813c5.26236,1.67624 6.04627,13.96669 1.7509,27.4515z" fill="#ffb800" stroke="none" stroke-width="0" stroke-linecap="butt"/><path d="M313,179.2571c0,62.7659 -32.68321,113.64773 -73,113.64773c-40.31679,0 -73,-50.88183 -73,-113.64773c0,-62.7659 32.68321,-113.64773 73,-113.64773c40.31679,0 73,50.88183 73,113.64773z" fill="#ff0000" stroke="none" stroke-width="0" stroke-linecap="butt"/><path d="M278.29264,199.49064c0,52.41183 -16.34161,94.9 -36.5,94.9c-20.15839,0 -36.5,-42.48817 -36.5,-94.9c0,-52.41183 16.34161,-94.9 36.5,-94.9c20.15839,0 36.5,42.48817 36.5,94.9z" fill="#ff6300" stroke="#000000" stroke-width="0" stroke-linecap="butt"/><path d="M257.29263,249.23439c0,20.52083 -6.49187,37.15625 -14.5,37.15625c-8.00813,0 -14.5,-16.63542 -14.5,-37.15625c0,-20.52084 6.49187,-37.15625 14.5,-37.15625c8.00813,0 14.5,16.63541 14.5,37.15625z" fill="#ffb800" stroke="none" stroke-width="0" stroke-linecap="butt"/><path d="M200.67341,232.98631c13.92398,33.35687 14.81117,64.73933 1.9816,70.09471c-12.82956,5.35537 -34.51758,-17.34431 -48.44156,-50.70118c-13.92398,-33.35687 -14.81117,-64.73933 -1.9816,-70.09471c12.82956,-5.35537 34.51758,17.34431 48.44156,50.70118z" fill="#ff6300" stroke="#000000" stroke-width="0" stroke-linecap="butt"/><path d="M203.75743,270.68537c5.12652,13.19125 5.10927,25.50667 -0.03854,27.50726c-5.14781,2.00059 -13.47679,-7.07122 -18.60331,-20.26247c-5.12652,-13.19126 -5.10927,-25.50667 0.03854,-27.50727c5.14781,-2.0006 13.47679,7.07122 18.60331,20.26247z" fill="#ffb800" stroke="none" stroke-width="0" stroke-linecap="butt"/><path d="M176.79264,223.98581c0,-1.38071 1.11929,-2.5 2.5,-2.5c1.38071,0 2.5,1.11929 2.5,2.5c0,1.38071 -1.11929,2.5 -2.5,2.5c-1.38071,0 -2.5,-1.11929 -2.5,-2.5z" fill="#ff6300" stroke="none" stroke-width="0.5" stroke-linecap="butt"/><path d="M159.79263,303.98581c0,-1.38071 1.11929,-2.5 2.5,-2.5c1.38071,0 2.5,1.11929 2.5,2.5c0,1.38071 -1.11929,2.5 -2.5,2.5c-1.38071,0 -2.5,-1.11929 -2.5,-2.5z" fill="#ff6300" stroke="none" stroke-width="0.5" stroke-linecap="butt"/><path d="M138.79263,285.98581c0,-1.38071 1.11929,-2.5 2.5,-2.5c1.38071,0 2.5,1.11929 2.5,2.5c0,1.38071 -1.11929,2.5 -2.5,2.5c-1.38071,0 -2.5,-1.11929 -2.5,-2.5z" fill="#ff6300" stroke="none" stroke-width="0.5" stroke-linecap="butt"/><path d="M108.79264,255.98581c0,-1.38071 1.11929,-2.5 2.5,-2.5c1.38071,0 2.5,1.11929 2.5,2.5c0,1.38071 -1.11929,2.5 -2.5,2.5c-1.38071,0 -2.5,-1.11929 -2.5,-2.5z" fill="#ff6300" stroke="none" stroke-width="0.5" stroke-linecap="butt"/><path d="M104.79264,174.98581c0,-1.38071 1.11929,-2.5 2.5,-2.5c1.38071,0 2.5,1.11929 2.5,2.5c0,1.38071 -1.11929,2.5 -2.5,2.5c-1.38071,0 -2.5,-1.11929 -2.5,-2.5z" fill="#ff6300" stroke="none" stroke-width="0.5" stroke-linecap="butt"/><path d="M130.79263,112.98581c0,-1.38071 1.11929,-2.5 2.5,-2.5c1.38071,0 2.5,1.11929 2.5,2.5c0,1.38071 -1.11929,2.5 -2.5,2.5c-1.38071,0 -2.5,-1.11929 -2.5,-2.5z" fill="#ff6300" stroke="none" stroke-width="0.5" stroke-linecap="butt"/><path d="M197.79264,34.98581c0,-1.38071 1.11929,-2.5 2.5,-2.5c1.38071,0 2.5,1.11929 2.5,2.5c0,1.38071 -1.11929,2.5 -2.5,2.5c-1.38071,0 -2.5,-1.11929 -2.5,-2.5z" fill="#ff6300" stroke="none" stroke-width="0.5" stroke-linecap="butt"/><path d="M266.79264,40.98581c0,-1.38071 1.11929,-2.5 2.5,-2.5c1.38071,0 2.5,1.11929 2.5,2.5c0,1.38071 -1.11929,2.5 -2.5,2.5c-1.38071,0 -2.5,-1.11929 -2.5,-2.5z" fill="#ff6300" stroke="none" stroke-width="0.5" stroke-linecap="butt"/><path d="M307.79264,70.98581c0,-1.38071 1.11929,-2.5 2.5,-2.5c1.38071,0 2.5,1.11929 2.5,2.5c0,1.38071 -1.11929,2.5 -2.5,2.5c-1.38071,0 -2.5,-1.11929 -2.5,-2.5z" fill="#ff6300" stroke="none" stroke-width="0.5" stroke-linecap="butt"/><path d="M323.79264,120.98581c0,-1.38071 1.11929,-2.5 2.5,-2.5c1.38071,0 2.5,1.11929 2.5,2.5c0,1.38071 -1.11929,2.5 -2.5,2.5c-1.38071,0 -2.5,-1.11929 -2.5,-2.5z" fill="#ff6300" stroke="none" stroke-width="0.5" stroke-linecap="butt"/><path d="M334.79264,112.98581c0,-1.38071 1.11929,-2.5 2.5,-2.5c1.38071,0 2.5,1.11929 2.5,2.5c0,1.38071 -1.11929,2.5 -2.5,2.5c-1.38071,0 -2.5,-1.11929 -2.5,-2.5z" fill="#ff6300" stroke="none" stroke-width="0.5" stroke-linecap="butt"/><path d="M346.79264,68.98581c0,-1.38071 1.11929,-2.5 2.5,-2.5c1.38071,0 2.5,1.11929 2.5,2.5c0,1.38071 -1.11929,2.5 -2.5,2.5c-1.38071,0 -2.5,-1.11929 -2.5,-2.5z" fill="#ff6300" stroke="none" stroke-width="0.5" stroke-linecap="butt"/><path d="M337.79264,37.98581c0,-1.38071 1.11929,-2.5 2.5,-2.5c1.38071,0 2.5,1.11929 2.5,2.5c0,1.38071 -1.11929,2.5 -2.5,2.5c-1.38071,0 -2.5,-1.11929 -2.5,-2.5z" fill="#ff6300" stroke="none" stroke-width="0.5" stroke-linecap="butt"/><path d="M314.79264,121.98581c0,-1.38071 1.11929,-2.5 2.5,-2.5c1.38071,0 2.5,1.11929 2.5,2.5c0,1.38071 -1.11929,2.5 -2.5,2.5c-1.38071,0 -2.5,-1.11929 -2.5,-2.5z" fill="#ff6300" stroke="none" stroke-width="0.5" stroke-linecap="butt"/><path d="M318.79264,97.98581c0,-1.38071 1.11929,-2.5 2.5,-2.5c1.38071,0 2.5,1.11929 2.5,2.5c0,1.38071 -1.11929,2.5 -2.5,2.5c-1.38071,0 -2.5,-1.11929 -2.5,-2.5z" fill="#ff6300" stroke="none" stroke-width="0.5" stroke-linecap="butt"/><path d="M325.79264,57.98581c0,-1.38071 1.11929,-2.5 2.5,-2.5c1.38071,0 2.5,1.11929 2.5,2.5c0,1.38071 -1.11929,2.5 -2.5,2.5c-1.38071,0 -2.5,-1.11929 -2.5,-2.5z" fill="#ff6300" stroke="none" stroke-width="0.5" stroke-linecap="butt"/><path d="M304.79264,25.98581c0,-1.38071 1.11929,-2.5 2.5,-2.5c1.38071,0 2.5,1.11929 2.5,2.5c0,1.38071 -1.11929,2.5 -2.5,2.5c-1.38071,0 -2.5,-1.11929 -2.5,-2.5z" fill="#ff6300" stroke="none" stroke-width="0.5" stroke-linecap="butt"/><path d="M303.79264,93.98581c0,-1.38071 1.11929,-2.5 2.5,-2.5c1.38071,0 2.5,1.11929 2.5,2.5c0,1.38071 -1.11929,2.5 -2.5,2.5c-1.38071,0 -2.5,-1.11929 -2.5,-2.5z" fill="#ff6300" stroke="none" stroke-width="0.5" stroke-linecap="butt"/><path d="M242.79263,54.98581c0,-1.38071 1.11929,-2.5 2.5,-2.5c1.38071,0 2.5,1.11929 2.5,2.5c0,1.38071 -1.11929,2.5 -2.5,2.5c-1.38071,0 -2.5,-1.11929 -2.5,-2.5z" fill="#ff6300" stroke="none" stroke-width="0.5" stroke-linecap="butt"/><path d="M271.79263,71.98581c0,-1.38071 1.11929,-2.5 2.5,-2.5c1.38071,0 2.5,1.11929 2.5,2.5c0,1.38071 -1.11929,2.5 -2.5,2.5c-1.38071,0 -2.5,-1.11929 -2.5,-2.5z" fill="#ff6300" stroke="none" stroke-width="0.5" stroke-linecap="butt"/><path d="M287.79263,49.98581c0,-1.38071 1.11929,-2.5 2.5,-2.5c1.38071,0 2.5,1.11929 2.5,2.5c0,1.38071 -1.11929,2.5 -2.5,2.5c-1.38071,0 -2.5,-1.11929 -2.5,-2.5z" fill="#ff6300" stroke="none" stroke-width="0.5" stroke-linecap="butt"/><path d="M235.79263,23.98581c0,-1.38071 1.11929,-2.5 2.5,-2.5c1.38071,0 2.5,1.11929 2.5,2.5c0,1.38071 -1.11929,2.5 -2.5,2.5c-1.38071,0 -2.5,-1.11929 -2.5,-2.5z" fill="#ff6300" stroke="none" stroke-width="0.5" stroke-linecap="butt"/><path d="M185.79263,73.98581c0,-1.38071 1.11929,-2.5 2.5,-2.5c1.38071,0 2.5,1.11929 2.5,2.5c0,1.38071 -1.11929,2.5 -2.5,2.5c-1.38071,0 -2.5,-1.11929 -2.5,-2.5z" fill="#ff6300" stroke="none" stroke-width="0.5" stroke-linecap="butt"/><path d="M140.79263,27.98581c0,-1.38071 1.11929,-2.5 2.5,-2.5c1.38071,0 2.5,1.11929 2.5,2.5c0,1.38071 -1.11929,2.5 -2.5,2.5c-1.38071,0 -2.5,-1.11929 -2.5,-2.5z" fill="#ff6300" stroke="none" stroke-width="0.5" stroke-linecap="butt"/><path d="M137.79263,127.98581c0,-1.38071 1.11929,-2.5 2.5,-2.5c1.38071,0 2.5,1.11929 2.5,2.5c0,1.38071 -1.11929,2.5 -2.5,2.5c-1.38071,0 -2.5,-1.11929 -2.5,-2.5z" fill="#ff6300" stroke="none" stroke-width="0.5" stroke-linecap="butt"/><path d="M197.79263,53.98581c0,-1.38071 1.11929,-2.5 2.5,-2.5c1.38071,0 2.5,1.11929 2.5,2.5c0,1.38071 -1.11929,2.5 -2.5,2.5c-1.38071,0 -2.5,-1.11929 -2.5,-2.5z" fill="#ff6300" stroke="none" stroke-width="0.5" stroke-linecap="butt"/><path d="M158.79263,126.98581c0,-1.38071 1.11929,-2.5 2.5,-2.5c1.38071,0 2.5,1.11929 2.5,2.5c0,1.38071 -1.11929,2.5 -2.5,2.5c-1.38071,0 -2.5,-1.11929 -2.5,-2.5z" fill="#ff6300" stroke="none" stroke-width="0.5" stroke-linecap="butt"/><path d="M157.79263,76.98581c0,-1.38071 1.11929,-2.5 2.5,-2.5c1.38071,0 2.5,1.11929 2.5,2.5c0,1.38071 -1.11929,2.5 -2.5,2.5c-1.38071,0 -2.5,-1.11929 -2.5,-2.5z" fill="#ff6300" stroke="none" stroke-width="0.5" stroke-linecap="butt"/><path d="M105.79263,49.98581c0,-1.38071 1.11929,-2.5 2.5,-2.5c1.38071,0 2.5,1.11929 2.5,2.5c0,1.38071 -1.11929,2.5 -2.5,2.5c-1.38071,0 -2.5,-1.11929 -2.5,-2.5z" fill="#ff6300" stroke="none" stroke-width="0.5" stroke-linecap="butt"/><path d="M124.79263,132.98581c0,-1.38071 1.11929,-2.5 2.5,-2.5c1.38071,0 2.5,1.11929 2.5,2.5c0,1.38071 -1.11929,2.5 -2.5,2.5c-1.38071,0 -2.5,-1.11929 -2.5,-2.5z" fill="#ff6300" stroke="none" stroke-width="0.5" stroke-linecap="butt"/><path d="M149.79263,152.98581c0,-1.38071 1.11929,-2.5 2.5,-2.5c1.38071,0 2.5,1.11929 2.5,2.5c0,1.38071 -1.11929,2.5 -2.5,2.5c-1.38071,0 -2.5,-1.11929 -2.5,-2.5z" fill="#ff6300" stroke="none" stroke-width="0.5" stroke-linecap="butt"/><path d="M136.79263,151.98581c0,-1.38071 1.11929,-2.5 2.5,-2.5c1.38071,0 2.5,1.11929 2.5,2.5c0,1.38071 -1.11929,2.5 -2.5,2.5c-1.38071,0 -2.5,-1.11929 -2.5,-2.5z" fill="#ff6300" stroke="none" stroke-width="0.5" stroke-linecap="butt"/><path d="M112.79263,199.98581c0,-1.38071 1.11929,-2.5 2.5,-2.5c1.38071,0 2.5,1.11929 2.5,2.5c0,1.38071 -1.11929,2.5 -2.5,2.5c-1.38071,0 -2.5,-1.11929 -2.5,-2.5z" fill="#ff6300" stroke="none" stroke-width="0.5" stroke-linecap="butt"/><path d="M109.79263,241.98581c0,-1.38071 1.11929,-2.5 2.5,-2.5c1.38071,0 2.5,1.11929 2.5,2.5c0,1.38071 -1.11929,2.5 -2.5,2.5c-1.38071,0 -2.5,-1.11929 -2.5,-2.5z" fill="#ff6300" stroke="none" stroke-width="0.5" stroke-linecap="butt"/><path d="M136.79263,296.98581c0,-1.38071 1.11929,-2.5 2.5,-2.5c1.38071,0 2.5,1.11929 2.5,2.5c0,1.38071 -1.11929,2.5 -2.5,2.5c-1.38071,0 -2.5,-1.11929 -2.5,-2.5z" fill="#ff6300" stroke="none" stroke-width="0.5" stroke-linecap="butt"/><path d="M350.79263,290.98581c0,-1.38071 1.11929,-2.5 2.5,-2.5c1.38071,0 2.5,1.11929 2.5,2.5c0,1.38071 -1.11929,2.5 -2.5,2.5c-1.38071,0 -2.5,-1.11929 -2.5,-2.5z" fill="#ff6300" stroke="none" stroke-width="0.5" stroke-linecap="butt"/><path d="M355.79263,268.98581c0,-1.38071 1.11929,-2.5 2.5,-2.5c1.38071,0 2.5,1.11929 2.5,2.5c0,1.38071 -1.11929,2.5 -2.5,2.5c-1.38071,0 -2.5,-1.11929 -2.5,-2.5z" fill="#ff6300" stroke="none" stroke-width="0.5" stroke-linecap="butt"/><path d="M368.79263,237.98581c0,-1.38071 1.11929,-2.5 2.5,-2.5c1.38071,0 2.5,1.11929 2.5,2.5c0,1.38071 -1.11929,2.5 -2.5,2.5c-1.38071,0 -2.5,-1.11929 -2.5,-2.5z" fill="#ff6300" stroke="none" stroke-width="0.5" stroke-linecap="butt"/><path d="M365.79263,261.98581c0,-1.38071 1.11929,-2.5 2.5,-2.5c1.38071,0 2.5,1.11929 2.5,2.5c0,1.38071 -1.11929,2.5 -2.5,2.5c-1.38071,0 -2.5,-1.11929 -2.5,-2.5z" fill="#ff6300" stroke="none" stroke-width="0.5" stroke-linecap="butt"/><path d="M381.79263,271.98581c0,-1.38071 1.11929,-2.5 2.5,-2.5c1.38071,0 2.5,1.11929 2.5,2.5c0,1.38071 -1.11929,2.5 -2.5,2.5c-1.38071,0 -2.5,-1.11929 -2.5,-2.5z" fill="#ff6300" stroke="none" stroke-width="0.5" stroke-linecap="butt"/><path d="M388.79263,247.98581c0,-1.38071 1.11929,-2.5 2.5,-2.5c1.38071,0 2.5,1.11929 2.5,2.5c0,1.38071 -1.11929,2.5 -2.5,2.5c-1.38071,0 -2.5,-1.11929 -2.5,-2.5z" fill="#ff6300" stroke="none" stroke-width="0.5" stroke-linecap="butt"/><path d="M365.79263,209.98581c0,-1.38071 1.11929,-2.5 2.5,-2.5c1.38071,0 2.5,1.11929 2.5,2.5c0,1.38071 -1.11929,2.5 -2.5,2.5c-1.38071,0 -2.5,-1.11929 -2.5,-2.5z" fill="#ff6300" stroke="none" stroke-width="0.5" stroke-linecap="butt"/><path d="M400.79263,211.98581c0,-1.38071 1.11929,-2.5 2.5,-2.5c1.38071,0 2.5,1.11929 2.5,2.5c0,1.38071 -1.11929,2.5 -2.5,2.5c-1.38071,0 -2.5,-1.11929 -2.5,-2.5z" fill="#ff6300" stroke="none" stroke-width="0.5" stroke-linecap="butt"/><path d="M386.79263,221.98581c0,-1.38071 1.11929,-2.5 2.5,-2.5c1.38071,0 2.5,1.11929 2.5,2.5c0,1.38071 -1.11929,2.5 -2.5,2.5c-1.38071,0 -2.5,-1.11929 -2.5,-2.5z" fill="#ff6300" stroke="none" stroke-width="0.5" stroke-linecap="butt"/><path d="M396.79263,150.98581c0,-1.38071 1.11929,-2.5 2.5,-2.5c1.38071,0 2.5,1.11929 2.5,2.5c0,1.38071 -1.11929,2.5 -2.5,2.5c-1.38071,0 -2.5,-1.11929 -2.5,-2.5z" fill="#ff6300" stroke="none" stroke-width="0.5" stroke-linecap="butt"/><path d="M369.79263,162.98581c0,-1.38071 1.11929,-2.5 2.5,-2.5c1.38071,0 2.5,1.11929 2.5,2.5c0,1.38071 -1.11929,2.5 -2.5,2.5c-1.38071,0 -2.5,-1.11929 -2.5,-2.5z" fill="#ff6300" stroke="none" stroke-width="0.5" stroke-linecap="butt"/><path d="M380.79263,192.98581c0,-1.38071 1.11929,-2.5 2.5,-2.5c1.38071,0 2.5,1.11929 2.5,2.5c0,1.38071 -1.11929,2.5 -2.5,2.5c-1.38071,0 -2.5,-1.11929 -2.5,-2.5z" fill="#ff6300" stroke="none" stroke-width="0.5" stroke-linecap="butt"/><path d="M400.79263,187.98581c0,-1.38071 1.11929,-2.5 2.5,-2.5c1.38071,0 2.5,1.11929 2.5,2.5c0,1.38071 -1.11929,2.5 -2.5,2.5c-1.38071,0 -2.5,-1.11929 -2.5,-2.5z" fill="#ff6300" stroke="none" stroke-width="0.5" stroke-linecap="butt"/><path d="M358.79263,192.98581c0,-1.38071 1.11929,-2.5 2.5,-2.5c1.38071,0 2.5,1.11929 2.5,2.5c0,1.38071 -1.11929,2.5 -2.5,2.5c-1.38071,0 -2.5,-1.11929 -2.5,-2.5z" fill="#ff6300" stroke="none" stroke-width="0.5" stroke-linecap="butt"/><path d="M389.79263,174.98581c0,-1.38071 1.11929,-2.5 2.5,-2.5c1.38071,0 2.5,1.11929 2.5,2.5c0,1.38071 -1.11929,2.5 -2.5,2.5c-1.38071,0 -2.5,-1.11929 -2.5,-2.5z" fill="#ff6300" stroke="none" stroke-width="0.5" stroke-linecap="butt"/><path d="M355.79263,147.98581c0,-1.38071 1.11929,-2.5 2.5,-2.5c1.38071,0 2.5,1.11929 2.5,2.5c0,1.38071 -1.11929,2.5 -2.5,2.5c-1.38071,0 -2.5,-1.11929 -2.5,-2.5z" fill="#ff6300" stroke="none" stroke-width="0.5" stroke-linecap="butt"/><path d="M390.79263,130.98581c0,-1.38071 1.11929,-2.5 2.5,-2.5c1.38071,0 2.5,1.11929 2.5,2.5c0,1.38071 -1.11929,2.5 -2.5,2.5c-1.38071,0 -2.5,-1.11929 -2.5,-2.5z" fill="#ff6300" stroke="none" stroke-width="0.5" stroke-linecap="butt"/><path d="M339.79263,144.98581c0,-1.38071 1.11929,-2.5 2.5,-2.5c1.38071,0 2.5,1.11929 2.5,2.5c0,1.38071 -1.11929,2.5 -2.5,2.5c-1.38071,0 -2.5,-1.11929 -2.5,-2.5z" fill="#ff6300" stroke="none" stroke-width="0.5" stroke-linecap="butt"/><path d="M356.79263,122.98581c0,-1.38071 1.11929,-2.5 2.5,-2.5c1.38071,0 2.5,1.11929 2.5,2.5c0,1.38071 -1.11929,2.5 -2.5,2.5c-1.38071,0 -2.5,-1.11929 -2.5,-2.5z" fill="#ff6300" stroke="none" stroke-width="0.5" stroke-linecap="butt"/><path d="M379.79263,107.98581c0,-1.38071 1.11929,-2.5 2.5,-2.5c1.38071,0 2.5,1.11929 2.5,2.5c0,1.38071 -1.11929,2.5 -2.5,2.5c-1.38071,0 -2.5,-1.11929 -2.5,-2.5z" fill="#ff6300" stroke="none" stroke-width="0.5" stroke-linecap="butt"/><path d="M349.79263,96.98581c0,-1.38071 1.11929,-2.5 2.5,-2.5c1.38071,0 2.5,1.11929 2.5,2.5c0,1.38071 -1.11929,2.5 -2.5,2.5c-1.38071,0 -2.5,-1.11929 -2.5,-2.5z" fill="#ff6300" stroke="none" stroke-width="0.5" stroke-linecap="butt"/><path d="M131.79263,65.98581c0,-1.38071 1.11929,-2.5 2.5,-2.5c1.38071,0 2.5,1.11929 2.5,2.5c0,1.38071 -1.11929,2.5 -2.5,2.5c-1.38071,0 -2.5,-1.11929 -2.5,-2.5z" fill="#ff6300" stroke="none" stroke-width="0.5" stroke-linecap="butt"/><path d="M103.79263,125.98581c0,-1.38071 1.11929,-2.5 2.5,-2.5c1.38071,0 2.5,1.11929 2.5,2.5c0,1.38071 -1.11929,2.5 -2.5,2.5c-1.38071,0 -2.5,-1.11929 -2.5,-2.5z" fill="#ff6300" stroke="none" stroke-width="0.5" stroke-linecap="butt"/><path d="M168.79263,100.98581c0,-1.38071 1.11929,-2.5 2.5,-2.5c1.38071,0 2.5,1.11929 2.5,2.5c0,1.38071 -1.11929,2.5 -2.5,2.5c-1.38071,0 -2.5,-1.11929 -2.5,-2.5z" fill="#ff6300" stroke="none" stroke-width="0.5" stroke-linecap="butt"/><path d="M140.79263,93.98581c0,-1.38071 1.11929,-2.5 2.5,-2.5c1.38071,0 2.5,1.11929 2.5,2.5c0,1.38071 -1.11929,2.5 -2.5,2.5c-1.38071,0 -2.5,-1.11929 -2.5,-2.5z" fill="#ff6300" stroke="none" stroke-width="0.5" stroke-linecap="butt"/><path d="M165.79263,47.98581c0,-1.38071 1.11929,-2.5 2.5,-2.5c1.38071,0 2.5,1.11929 2.5,2.5c0,1.38071 -1.11929,2.5 -2.5,2.5c-1.38071,0 -2.5,-1.11929 -2.5,-2.5z" fill="#ff6300" stroke="none" stroke-width="0.5" stroke-linecap="butt"/></g></g></svg>