<svg version="1.1" xmlns="http://www.w3.org/2000/svg" xmlns:xlink="http://www.w3.org/1999/xlink" width="355.73892" height="355.73892" viewBox="0,0,355.73892,355.73892"><g transform="translate(-71.42358,-21.15913)"><g data-paper-data="{&quot;isPaintingLayer&quot;:true}" fill-rule="nonzero" stroke-linecap="butt" stroke-linejoin="miter" stroke-miterlimit="10" stroke-dasharray="" stroke-dashoffset="0" style="mix-blend-mode: normal"><path d="M412,202.00001c0,88.14694 -72.97758,159.60417 -163,159.60417c-90.02242,0 -163,-71.45723 -163,-159.60417c0,-88.14694 72.97758,-159.60417 163,-159.60417c90.02242,0 163,71.45723 163,159.60417z" fill="#4b0f7f" stroke="none" stroke-width="0"/><path d="M140.33333,202.00001c0,-60.01493 48.65173,-108.66667 108.66667,-108.66667c60.01493,0 108.66667,48.65173 108.66667,108.66667c0,60.01493 -48.65173,108.66667 -108.66667,108.66667c-60.01493,0 -108.66667,-48.65173 -108.66667,-108.66667z" fill="#7a19d0" stroke="none" stroke-width="0"/><path d="M296.95259,242.60403c-3.87036,-1.79528 -8.20121,-2.95897 -11.76126,-5.43093c-5.32358,-3.69651 -8.54317,-8.85894 -11.75764,-14.21585c-0.5061,-0.2796 -1.02651,-0.6147 -1.56696,-1.01887c-1.10535,-0.82664 -1.90307,-2.00312 -2.54049,-3.27044c-1.39512,-0.72553 -2.95623,-1.09603 -5.06542,-1.93004c-4.98517,-1.97124 -10.24242,-3.75639 -14.88746,-6.4475c-2.99671,-1.73615 -5.53969,-4.37073 -8.33913,-6.2266c-4.92333,-3.26388 -10.97489,-5.66463 -14.05047,-11.17645c-0.54712,-0.98051 -0.37725,-2.26674 -0.95253,-3.23101c-0.14807,-0.2482 -0.55512,0.31069 -0.83429,0.23595c-1.77425,-0.47496 -3.70192,-0.7732 -5.19074,-1.84883c-2.07206,-1.497 -3.10462,-4.06199 -4.67574,-6.07844c-2.72247,-2.121 -5.1886,-4.79633 -8.19274,-6.52081c-1.99961,-1.14784 -4.32004,-1.80043 -6.0924,-3.27513c-0.71556,-0.59538 -1.05756,-1.54491 -1.71486,-2.20406c-2.30725,-2.31378 -5.06276,-4.3253 -7.34708,-6.74976c-2.16522,-1.23805 -5.21906,-2.98714 -5.24456,-3.01062c-1.74648,-1.60822 -3.70627,-3.2674 -4.53471,-5.49232c-0.4256,-1.14302 -0.66608,-1.99806 -0.76816,-2.62107c-0.14489,-0.20896 -0.2795,-0.42053 -0.40417,-0.62636c-0.24554,-0.40539 -0.41332,-0.84464 -0.54348,-1.30042c-0.69965,-0.37121 -1.42378,-0.7115 -2.15942,-1.0361c-2.48835,-0.28077 -4.93001,-0.96402 -6.47364,-2.43921c-0.21203,-0.07557 -0.42917,-0.16461 -0.65758,-0.26963c-1.02709,-0.08007 -1.93853,-0.34426 -2.518,-1.13302c-0.14089,-0.19178 -0.27611,-0.38094 -0.40579,-0.56754c-0.07845,-0.05064 -0.15832,-0.10236 -0.23964,-0.15518c-3.80486,-2.47129 -11.02594,-11.08389 -3.87866,-15.33273c-1.30578,-0.77422 -2.50926,-2.20133 -2.50926,-4.83191c0,-5.75 5.75,-5.75 5.75,-5.75c5.3413,0 11.49071,-0.08821 16.57343,1.88685c6.40473,2.48878 11.46016,7.6939 16.86343,11.75332c2.23684,1.68052 7.0126,4.58218 8.62901,7.04397c0.93875,1.42971 2.24106,2.89701 3.01006,4.45747c0.16813,-0.07831 0.3396,-0.15044 0.51467,-0.21594c9.32928,-6.38261 13.90672,2.80742 11.99209,9.58875c1.37024,0.85712 2.73552,1.73022 4.09553,2.64739c2.75141,1.8555 6.2949,2.82893 8.33291,5.44804c0.36534,0.46952 0.36078,1.14851 0.13979,1.80546c0.03867,0.01835 0.07674,0.035 0.11413,0.04961c1.1485,0.44902 2.25507,1.00002 3.39993,1.45822c0.58121,0.23262 9.91255,3.88233 11.25608,4.15111c3.78571,0.75734 8.21587,-0.52349 11.47947,1.53905c1.81754,1.14865 2.17036,3.71229 3.24662,5.5736c1.12622,1.9477 1.62464,4.24772 2.9287,6.08111c1.10566,1.55446 2.83929,2.62026 4.28177,3.89345c0.11572,-0.03372 0.23073,-0.06891 0.34486,-0.10588l0.79753,0.38381v-0.43939h3c3.17564,0 5.75,2.57437 5.75,5.75c0,1.92548 -0.94643,3.62991 -2.39946,4.67347c0.63246,0.28573 1.26817,0.56754 1.90467,0.84934c0.39324,0.12591 0.76806,0.293 1.11939,0.4962c0.26865,0.11947 0.53719,0.23936 0.80543,0.35994l0.31996,-0.10665v-0.5223h2.5c3.02004,0 5.49629,2.32827 5.7317,5.28778c0.72987,0.52463 1.43805,1.08595 2.1193,1.69229c3.44567,3.06676 5.57195,7.41681 9.47004,10.07598c0.42447,0.28957 0.80246,0.66487 1.17516,1.04651c0.48627,0.14183 0.93271,0.32228 1.32487,0.55125c0.15238,0.08898 0.30355,0.17974 0.45358,0.27219l0.04365,-0.13094l2.86539,0.95513c0.07193,0.01762 0.14274,0.04084 0.21224,0.07075l1.29658,0.43219c1.71362,0.52701 3.08589,1.83332 3.70323,3.5053c0.0883,0.08028 0.18748,0.14352 0.30467,0.17925c2.52641,0.7703 5.91989,0.16167 8.50212,0.60539c1.95937,0.33669 3.84575,1.01002 5.76864,1.51503c1.75478,2.09476 5.16136,3.55359 5.26434,6.28428c0.14896,3.94964 -2.80654,6.36655 -5.86102,8.17198c0.05083,0.25703 0.10882,0.50796 0.1798,0.74831c0.89163,3.01901 2.15357,7.44959 0.58864,10.5588c-1.42197,2.82519 -6.0245,5.18786 -9.025,5.64522c-1.12736,0.17184 -2.25064,-0.5468 -3.38851,-0.47127c-1.0978,0.07287 -2.0937,0.69654 -3.17364,0.90681c-3.80978,0.74178 -7.75239,1.08484 -11.6224,1.06978l-0.49728,-0.40269l-0.0638,0.31901l-2.39555,-0.47911c-2.68748,-0.4827 -4.72679,-2.83281 -4.72679,-5.65923c0,-2.44573 1.52694,-4.53482 3.67952,-5.36595c-1.09832,-0.69371 -2.19849,-1.38426 -3.37325,-1.92918zM256.67025,179.47629c0.14662,0.11528 0.29318,0.23059 0.43967,0.34591c0.02744,-0.12502 0.00556,-0.22645 -0.11413,-0.28634c-0.10703,-0.05355 -0.2156,-0.06957 -0.32555,-0.05957zM298.28656,231.01044c0.01187,-0.08293 0.02517,-0.16484 0.03996,-0.24562c-2.56084,-1.24516 -5.09361,-2.59342 -7.57357,-4.04736c-0.13075,-0.01101 -0.26418,-0.02306 -0.40067,-0.03655c0.39863,0.33413 0.81428,0.64983 1.24902,0.94431c2.05512,1.39204 4.35371,2.41461 6.68525,3.38522z" fill="#f6deff" stroke="none" stroke-width="0.5"/><path d="M235.84326,195.04961c0.32237,-0.56682 0.61321,-1.16486 1.0075,-1.67188c1.84889,-2.37744 3.71394,-5.25152 5.82947,-7.38845c2.44328,-2.468 4.9009,-4.97714 7.42868,-7.41605c0.0177,-4.384 4.65973,-5.31241 4.65973,-5.31241c0.55244,-0.11049 1.07001,-0.2226 1.55846,-0.33918c0.83745,-0.70608 1.68614,-1.39656 2.54778,-2.06803c2.12177,-1.65348 3.64046,-4.356 6.20915,-5.15459c0.17832,-0.05544 0.35736,-0.10752 0.53706,-0.15649l-0.07758,-0.13577l3.41232,-1.9499c0.86038,-0.51299 1.86601,-0.8077 2.94047,-0.8077c0.0355,0 0.07092,0.00032 0.10626,0.00096c0.75128,-0.70182 1.57712,-1.37535 2.40638,-2.04763c-0.44712,-1.19707 -0.54956,-2.52193 -0.12256,-3.96481c0.48111,-1.62573 1.48046,-2.99852 2.80101,-4.16234c0.75714,-2.69559 3.62618,-3.24318 7.7564,-5.61262c0.82701,-0.0355 1.69844,0.16323 2.48103,-0.10651c0.33163,-0.1143 0.27447,-0.65905 0.50561,-0.92291c0.71079,-0.81139 1.48563,-1.56885 2.29845,-2.278c2.31401,-2.01884 5.24305,-3.14417 6.95521,-5.80339c1.63468,-2.53888 1.82179,-5.89022 3.42096,-8.3757c1.62387,-2.52387 4.04049,-4.17415 6.62429,-5.51753c0.56898,-0.29582 1.38178,-0.16422 1.81546,-0.63663c0.7963,-0.8674 0.89139,-2.22006 1.64084,-3.12826c4.14177,-5.01909 10.62324,-6.68438 15.99799,-9.70976c1.63675,-0.92131 2.96698,-2.74127 4.83965,-2.88578c0.40004,-0.03087 0.79908,-0.03926 1.19729,-0.02906l-0.03746,-0.26225l3.40208,-0.48601c0.29674,-0.04724 0.60105,-0.07178 0.91109,-0.07178c3.17564,0 5.75,2.57436 5.75,5.75c0,0.86807 -0.19236,1.6912 -0.53678,2.42911c1.8075,0.96915 3.03678,2.87646 3.03678,5.07089v2.5h-0.57046c-0.02847,0.05888 -0.05792,0.1172 -0.08832,0.17494l-0.47006,0.94011l0.52179,1.45642c-0.48747,0.46577 -0.97455,0.9321 -1.46201,1.39802c-0.01807,0.05555 -0.03268,0.10857 -0.0426,0.15817c-0.21659,1.08293 -0.32608,2.19912 -0.69957,3.23842c-1.33819,3.72372 -3.51155,7.15953 -5.94878,10.22591c-2.46816,3.10531 -7.88445,6.92154 -9.20363,10.67004c-0.34619,0.98371 -0.01729,2.17758 -0.53598,3.08229c-1.06096,1.85056 -2.32809,3.70404 -4.06481,4.94259c-2.16637,1.54496 -5.14069,1.37705 -7.69888,2.10896c-1.41399,0.40455 -2.09387,2.09435 -3.32137,2.90445c-1.65506,1.09228 -3.78846,2.13864 -5.86619,2.82125c-0.53289,1.50101 -0.95773,3.06091 -1.52725,4.53212c0.24258,1.20737 0.10125,2.64579 -1.01202,4.11928c1.08077,0.61303 1.93044,1.41105 2.24342,2.56076c0.79735,2.92899 -2.28099,5.67257 -3.96466,8.19844c-0.53902,0.80864 -1.74785,0.8846 -2.5,1.5c-1.75127,1.43286 -3.55588,2.8028 -5.25478,4.29738c-1.94073,1.70732 -3.39327,3.9055 -5.21797,5.73631c0,0 -4.06586,4.06586 -8.13173,0c-0.6103,-0.6103 -1.03738,-1.2206 -1.3225,-1.81714c-0.93323,0.5271 -1.83564,0.81265 -2.49904,0.27478l-2.66696,0.88899c-0.60766,0.21847 -1.26275,0.33751 -1.94564,0.33751c-1.03651,0 -2.00896,-0.27425 -2.84874,-0.75415c-2.4984,2.4695 -4.55134,2.83294 -8.17699,3.23456c-0.37992,0.04209 -0.86354,0.11864 -1.35369,0.16775c0.85801,2.84485 -1.70082,4.78966 -4.46307,7.40733c-0.67809,0.6426 -1.7287,0.75481 -2.51543,1.25039l0.45793,0.49412c0.09519,0.21212 0.25465,0.40966 0.33992,0.62403c0.66964,-0.22363 1.35928,-0.42239 2.06008,-0.42403c2.51361,-0.00588 7.1178,0.14953 9.58737,0.60375c3.7015,0.68081 6.72937,3.37316 10.06842,5.10963l-4.22753,4.27101c0.15042,0.03448 0.30167,0.06278 0.45389,0.08368c0.43158,0.05925 0.86768,0.11749 1.30726,0.17573c2.90268,-5.93174 11.05714,-10.68746 16.47684,-8.49708c6.12467,2.47529 6.87821,5.87637 5.51023,9.22233c3.34332,-0.09175 6.64872,-0.3705 9.96006,-0.60562c2.3067,-2.86005 6.18176,-1.56836 6.18176,-1.56836l1.81719,0.61619c0.44676,0.21309 1.49527,0.20702 1.47903,0.58874c0.66673,0 1.38548,0 1.38548,0c3.17564,0 5.75,2.57436 5.75,5.75c0,3.17564 -2.57436,5.75 -5.75,5.75h-2.5v-0.52437c-0.07932,0.03458 -0.15896,0.06847 -0.23894,0.10164l0.23894,0.42274c-2.87163,0 -5.7174,0.1747 -8.56159,0.37805c0.20194,0.58681 0.31159,1.21657 0.31159,1.87195c0,3.17564 -2.57436,5.75 -5.75,5.75c-0.42718,0 -0.84348,-0.04658 -1.24409,-0.13495l-1.15293,-0.23059c-0.0827,0.28366 -0.18785,0.57714 -0.31789,0.88057c-2.26504,5.28508 -7.55012,3.02005 -7.55012,3.02005c-3.9149,-1.72014 -7.7908,-3.44741 -9.62853,-7.43264c-1.59761,0.77527 -3.31835,1.45577 -5.24643,2.08841c-1.10458,0.36244 -2.11012,1.21101 -3.27263,1.20539c-2.63494,-0.01272 -5.20268,-0.83926 -7.80402,-1.25888c-0.46953,-1.32376 -0.50494,-2.896 -1.40859,-3.97128c-0.51285,-0.61025 -1.66387,-0.06885 -2.34064,-0.49003c-1.94601,-1.21106 -4.11788,-2.37937 -5.36268,-4.30397c-1.40024,-2.16493 -1.72492,-4.56833 -1.29254,-6.86083c-0.16583,-0.00013 -0.33145,-0.01356 -0.49684,-0.04456c-1.89844,-0.35576 -3.76752,-1.08908 -5.37969,-2.15282c-0.54421,-0.35908 -0.96685,-0.85428 -1.35582,-1.38718c-1.00141,1.06012 -2.08371,2.05331 -3.20661,2.95575c0.20098,0.58556 0.31008,1.21382 0.31008,1.86756c0,1.31539 -0.44169,2.52762 -1.18485,3.49647l-1.46515,1.95353l-0.37098,-0.27824c-0.28933,0.57428 -0.63149,1.118 -1.04842,1.61847c-1.30323,1.56433 -3.86886,1.27817 -5.83678,1.80053c-0.49327,0.13093 -0.98801,0.25634 -1.48408,0.3766c-0.01555,0.07721 -0.03136,0.1549 -0.04743,0.23306c-0.18754,0.9124 -0.65029,1.72818 -1.21761,2.49229c1.01005,1.89867 1.14548,4.38896 -0.09105,7.6403c-0.79383,2.0873 -5.97039,4.47219 -8.30667,5.16087c-3.38097,0.99663 -6.93611,1.26345 -10.3847,1.99483c1.76525,0.89128 4.2971,2.8603 4.67617,4.29682c0.69989,2.65226 -1.52605,5.31924 -2.85958,7.71633c-0.54254,0.97523 -1.81415,1.31593 -2.60387,2.10445c-5.06827,5.06063 -8.4948,10.88983 -16.40773,11.14249c-1.99712,0.06377 -3.95476,-0.30852 -5.91894,-0.62833c-1.39746,0.83669 -3.42768,1.29831 -5.87647,-0.32861c-3.33473,0.36465 -9.98273,1.68922 -12.40923,0.35438c-0.32503,-0.1788 -0.63612,-0.3761 -0.93559,-0.58886l-0.11254,0.28135l-2.37564,-0.95026c-2.1838,-0.81541 -3.73886,-2.92034 -3.73886,-5.38848c0,-2.82642 2.0393,-5.17654 4.72678,-5.65923l1.81879,-0.36376c2.89093,-1.49506 5.98402,-2.51333 8.85745,-3.72622c1.91326,-0.80759 3.84091,-2.88365 5.63854,-4.02242c0.5277,-0.33429 1.27215,-0.35761 1.6797,-0.83103c0.54844,-0.63709 1.07588,-1.32103 1.5901,-2.03064c-0.00546,-0.01607 -0.01089,-0.0322 -0.01629,-0.0484c-1.81831,-5.45493 3.63662,-7.27324 3.63662,-7.27324c0.67544,-0.22515 1.35125,-0.44637 2.02753,-0.66365c0.49815,-0.60101 1.01395,-1.18747 1.54485,-1.75887c0.3556,-0.38273 1.02903,-0.47865 1.24228,-0.95557c0.5072,-1.13431 0.25273,-2.52848 0.81176,-3.63817c0.74376,-1.47638 2.00506,-2.62892 3.00759,-3.94339c0.28504,-0.15449 0.56786,-0.31227 0.84869,-0.47298c-0.57861,-0.8971 -0.91439,-1.96556 -0.91439,-3.11245c0,-1.2675 0.41011,-2.43921 1.10488,-3.38968c-0.13506,-0.1686 -0.27497,-0.34962 -0.42075,-0.54445c-4.67207,-6.24416 -5.98,-7.56721 1.99439,-13.70882c2.11807,-1.63127 7.47884,-0.89943 10.00489,-1.07906c0.04054,-0.00288 1.58776,-0.38432 2.89012,-0.55634c1.53923,-2.08476 3.42326,-4.09246 5.77318,-5.14751c0.98782,-0.4435 2.19651,-0.61725 3.46443,-0.54688c0.28606,-0.14577 0.5726,-0.2871 0.85971,-0.42415c0.11212,-0.44927 0.27709,-0.87761 0.48792,-1.27805l1.44827,-2.89654l4.57148,-3.57148c0,0 2.59386,-1.29693 5.01842,-0.20659zM316.63765,148.69862c-0.51492,0.1735 -1.02604,0.35844 -1.53548,0.54838c0.3635,-0.03501 0.73183,-0.07627 1.10857,-0.13476c0.25223,-0.03916 0.37596,-0.19216 0.42691,-0.41362z" fill="#f6deff" stroke="none" stroke-width="0.5"/><path d="M203.46784,144.57796c2.32119,-0.92848 3.24967,1.39272 3.24967,1.39272l0.93011,2.34145c3.26216,5.68821 6.84511,11.07929 10.3014,16.58982c0.45173,-0.16359 0.9391,-0.25279 1.4473,-0.25279c0.43941,0 0.86325,0.06669 1.26195,0.19049l3.40562,0.97303l-0.03818,0.13362c0.1735,0.00815 0.34705,0.0201 0.52064,0.03623c1.23775,0.11502 2.22212,1.04193 3.26518,1.78077c1.12446,0.24036 2.92666,0.98681 3.27533,3.30499c3.54816,2.30982 6.92668,4.90757 10.07565,7.70123c0.01989,-0.53786 0.11071,-0.90115 0.11071,-0.90115c1.77114,-6.82762 1.37311,-13.93343 1.37311,-20.96922v-0.5c0,0 0,-2.35247 1.75022,-3.55698c0.02417,-5.27371 1.11025,-9.33595 2.52669,-14.39752c1.36529,-4.87879 1.85578,-6.96413 6.18685,-9.68923l3.28624,-0.35627c0,0 2.5,0 2.5,2.5c0,2.5 -2.5,2.5 -2.5,2.5l-0.71376,-0.35627c-3.28074,1.82696 -2.90064,2.96187 -3.93967,6.73251c-1.2859,4.66654 -2.35542,8.22063 -2.34672,13.06683c1.75015,1.20452 1.75015,3.55693 1.75015,3.55693v0.5c0,7.37022 0.1946,14.58487 -1.33914,21.76848c0.83535,-0.17595 1.70144,-0.26848 2.58914,-0.26848c0.60563,0 1.2012,0.04307 1.78381,0.12632c0.43809,-2.87974 3.61515,-3.3336 3.61515,-3.3336c5.66403,-0.74955 11.33824,0.74778 17.01156,-0.00164c1.84446,-0.24364 3.76336,-0.87538 5.58225,-1.63969c0.14629,-1.72871 2.01694,-2.10284 2.01694,-2.10284c5.42927,-1.08378 10.96352,-2.03271 16.49029,-2.04855l-0.11803,-0.23607c0,0 2.23607,-1.11803 3.3541,1.11803c1.11803,2.23607 -1.11803,3.3541 -1.11803,3.3541l-2.11803,0.76393c-3.08255,-0.00999 -6.18214,0.32098 -9.25917,0.80551c0.00917,0.12355 0.00917,0.19449 0.00917,0.19449l-2.34934,4.30132c-3.46409,1.71102 -7.43682,3.38752 -11.31118,3.90761c-2.60924,0.35026 -5.2395,0.191 -7.86184,0.00329c8.34145,5.63012 15.71496,12.76129 22.81737,19.8264c1.21543,0.4188 2.70499,1.44531 2.70499,3.96139c0,0.1228 -0.00355,0.24205 -0.01044,0.35786c2.62205,0.91504 4.95364,2.44258 7.54668,3.99841l1.48153,1.37597c0,0 1.76777,1.76777 0,3.53553c-1.76777,1.76777 -3.53553,0 -3.53553,0l-0.51847,-0.62403c-3.10796,-1.86478 -5.97145,-4.23939 -9.71376,-4.14373c0,0 -1.54116,0 -2.20339,-1.21005l-0.80181,-0.28475c-6.56395,-6.58295 -13.36628,-13.30479 -21.0196,-18.71127c-0.03053,0.48711 -0.08896,0.96665 -0.17371,1.43704c2.50643,2.46061 5.01095,4.99543 7.07602,7.6893c2.13224,2.78149 3.94616,6.36138 5.76684,9.39312l1.15697,2.28595c0,0 1.16899,2.33798 -0.16015,4.26361c2.71897,2.92649 4.79838,6.43832 6.5949,10.01901l1,2c0,0 1.11803,2.23607 -1.11803,3.3541c-2.23607,1.11803 -3.3541,-1.11803 -3.3541,-1.11803l-1,-2c-2.03617,-4.08777 -4.5376,-8.37597 -8.26393,-11.11803c0,0 -0.20698,-0.15523 -0.43783,-0.43241c-0.57566,-0.59128 -0.86349,-1.16694 -0.86349,-1.16694l-0.84303,-1.71405c-1.66088,-2.77082 -3.27574,-6.07258 -5.23316,-8.60688c-1.42265,-1.84193 -3.07524,-3.61536 -4.78757,-5.33935c-0.3679,0.29631 -0.75294,0.5722 -1.15339,0.82595c2.11304,3.4285 1.71445,7.01323 2.04778,11.01489c0.23587,2.83159 0.52068,5.53768 0.52068,8.41878v0.5c0,0 0,0.40848 -0.12664,0.97218c0.24727,0.02546 0.51534,0.09072 0.80512,0.20663c2.32119,0.92848 1.39272,3.24967 1.39272,3.24967c-2,5 -4,10 -6,15l0.17881,-0.42848c0,0 0,2.5 -2.5,2.5c-2.5,0 -2.5,-2.5 -2.5,-2.5l0.17881,-1.42848c1.78912,-4.47279 3.57823,-8.94558 5.36735,-13.41837c-0.31644,0.06251 -0.66413,0.09685 -1.04616,0.09685c-4.25,0 -4.25,-4.25 -4.25,-4.25v-0.5c0,-3.78747 -0.2887,-7.42909 -0.48931,-11.19872c-0.02473,-0.46465 -0.20305,-3.2399 -0.87901,-3.91362c-1.09684,-1.09321 -2.74037,-1.44657 -4.06829,-2.24332c0,0 -0.5274,-0.31644 -1.06056,-0.9092c-2.46547,1.38477 -5.06121,2.8725 -7.13733,4.61473c-2.12656,1.78455 -4.06173,3.84416 -6.42889,5.29447l-0.1814,0.36086c0,0 -1.93013,1.93013 -4.24356,1.1499c-2.95204,2.7684 -6.0086,5.40512 -9.26164,7.8449l-1.61325,1.08013c0,0 -2.08013,1.38675 -3.46688,-0.69338c-1.38675,-2.08013 0.69338,-3.46688 0.69338,-3.46688l1.38675,-0.91987c3.22326,-2.41745 6.24323,-5.03875 9.16047,-7.79174c-0.05002,-1.82912 1.33432,-3.21346 1.33432,-3.21346l1.8186,-1.63914c2.10083,-1.22283 3.69883,-3.15524 5.57111,-4.70553c1.99611,-1.65283 4.3769,-3.11393 6.73396,-4.47451c-0.28576,-0.62739 -0.52116,-1.28255 -0.70105,-1.96032c-5.81123,-0.07617 -11.79752,-0.3032 -17.44456,-0.99812l-1.47285,0.03282c0,0 -1.58861,0 -2.82332,-0.97125c-3.60477,-0.50272 -7.05286,-1.07399 -10.68639,-0.3273l-2.78086,-0.57974c0,0 -2.37171,-0.79057 -1.58114,-3.16228c0.79057,-2.37171 3.16228,-1.58114 3.16228,-1.58114l0.21914,0.42026c3.64582,-0.71268 7.05392,-0.39888 10.59972,0.05414c1.02526,-2.35269 3.89057,-2.35269 3.89057,-2.35269l2.52715,0.03282c3.8963,0.49567 7.99748,0.75006 12.07467,0.87159c-5.06659,-4.55709 -10.75336,-8.49774 -16.83617,-11.53915l-0.19309,-0.37867l-0.12255,0.16341l-1.39064,-1.04298c-0.44807,-0.20628 -0.78034,-0.53222 -0.98085,-0.77036c-0.51715,-0.48964 -0.91132,-1.10785 -1.13136,-1.80346c-4.02851,-6.60017 -8.34859,-12.93652 -12.19846,-19.69618l-1.06989,-2.65855c0,0 -0.92848,-2.32119 1.39272,-3.24967zM262.35447,183.34256c0.07931,0.10435 0.15701,0.20998 0.23307,0.31686c0.12184,-0.11752 0.24532,-0.22339 0.36992,-0.31851c-0.20116,-0.00125 -0.40217,-0.00078 -0.60299,0.00165z" fill="#000000" stroke="none" stroke-width="0.5"/><path d="M84.67358,199.02859c0,-90.91682 73.70264,-164.61946 164.61946,-164.61946c90.91682,0 164.61946,73.70264 164.61946,164.61946c0,90.91682 -73.70264,164.61946 -164.61946,164.61946c-90.91682,0 -164.61946,-73.70264 -164.61946,-164.61946z" fill="none" stroke="#7a19d0" stroke-width="26.5"/></g></g></svg>