<svg version="1.1" xmlns="http://www.w3.org/2000/svg" xmlns:xlink="http://www.w3.org/1999/xlink" width="77.98936" height="78" viewBox="0,0,77.98936,78"><g transform="translate(-201.00532,-141)"><g data-paper-data="{&quot;isPaintingLayer&quot;:true}" fill="#00e311" fill-rule="nonzero" stroke="none" stroke-width="0" stroke-linecap="butt" stroke-linejoin="miter" stroke-miterlimit="10" stroke-dasharray="" stroke-dashoffset="0" style="mix-blend-mode: normal"><path d="M247,180c0,21.53911 -2.91015,39 -6.5,39c-3.58985,0 -6.5,-17.46089 -6.5,-39c0,-21.53911 2.91015,-39 6.5,-39c3.58985,0 6.5,17.46089 6.5,39z"/><path d="M240.10892,187.99909c-21.53608,0.36094 -39.04329,-2.2562 -39.10345,-5.84555c-0.06016,-3.58935 17.34952,-6.79169 38.8856,-7.15263c21.53608,-0.36094 39.04329,2.2562 39.10345,5.84555c0.06016,3.58935 -17.34952,6.79169 -38.8856,7.15263z"/><path d="M252.69234,177.82635c-7.6749,6.9519 -15.54975,10.76249 -17.58898,8.51119c-2.03922,-2.2513 2.52939,-9.71198 10.20429,-16.66388c7.6749,-6.9519 15.54975,-10.76249 17.58898,-8.51119c2.03922,2.2513 -2.52939,9.71198 -10.20429,16.66388z"/><path d="M244.95218,192.97359c-7.01074,-7.6212 -10.88179,-15.46651 -8.64623,-17.52299c2.23555,-2.05648 9.73114,2.45461 16.74188,10.07581c7.01074,7.6212 10.88179,15.46651 8.64623,17.52299c-2.23555,2.05648 -9.73114,-2.45461 -16.74188,-10.07581z"/><path d="M228.82952,185.65396c7.71199,-6.91074 15.60712,-10.67914 17.63427,-8.41696c2.02715,2.26219 -2.58132,9.6983 -10.29331,16.60904c-7.71199,6.91074 -15.60712,10.67914 -17.63427,8.41696c-2.02715,-2.26219 2.58132,-9.6983 10.29331,-16.60904z"/><path d="M236.65665,169.64829c6.78126,7.82608 10.41757,15.78291 8.12192,17.77208c-2.29565,1.98917 -9.65394,-2.74257 -16.43521,-10.56866c-6.78126,-7.82608 -10.41757,-15.78291 -8.12192,-17.77208c2.29565,-1.98917 9.65394,2.74257 16.43521,10.56866z"/></g></g></svg>