<svg version="1.1" xmlns="http://www.w3.org/2000/svg" xmlns:xlink="http://www.w3.org/1999/xlink" width="608.5" height="434.5" viewBox="0,0,608.5,434.5"><g transform="translate(63.75,38.0625)"><g data-paper-data="{&quot;isPaintingLayer&quot;:true}" fill-rule="nonzero" stroke-linejoin="miter" stroke-miterlimit="10" stroke-dasharray="" stroke-dashoffset="0" style="mix-blend-mode: normal"><path d="M-63.5,396.1875v-434h608v434z" fill="#000000" stroke="#000000" stroke-width="0.5" stroke-linecap="butt"/><path d="" fill="#0015ff" stroke="#00ffff" stroke-width="5.5" stroke-linecap="butt"/><path d="" fill="#0015ff" stroke="#00ffff" stroke-width="5.5" stroke-linecap="butt"/><path d="" fill="#0015ff" stroke="#00ffff" stroke-width="5.5" stroke-linecap="butt"/><path d="" fill="none" stroke="#00ffff" stroke-width="5.5" stroke-linecap="round"/><path d="" fill="none" stroke="#00ffff" stroke-width="5.5" stroke-linecap="round"/><path d="" fill="none" stroke="#00ffff" stroke-width="5.5" stroke-linecap="round"/><path d="" fill="none" stroke="#00ffff" stroke-width="5.5" stroke-linecap="round"/><path d="" fill="none" stroke="#00ffff" stroke-width="5.5" stroke-linecap="round"/><path d="" fill="none" stroke="#00ffff" stroke-width="5.5" stroke-linecap="round"/><path d="" fill="none" stroke="#00ffff" stroke-width="5.5" stroke-linecap="butt"/><path d="M313,179.2571c0,62.7659 -32.68321,113.64773 -73,113.64773c-40.31679,0 -73,-50.88183 -73,-113.64773c0,-62.7659 32.68321,-113.64773 73,-113.64773c40.31679,0 73,50.88183 73,113.64773z" fill="#ff0000" stroke="none" stroke-width="0" stroke-linecap="butt"/><path d="M278.29264,199.49064c0,52.41183 -16.34161,94.9 -36.5,94.9c-20.15839,0 -36.5,-42.48817 -36.5,-94.9c0,-52.41183 16.34161,-94.9 36.5,-94.9c20.15839,0 36.5,42.48817 36.5,94.9z" fill="#ff6300" stroke="#000000" stroke-width="0" stroke-linecap="butt"/><path d="M257.29263,249.23439c0,20.52083 -6.49187,37.15625 -14.5,37.15625c-8.00813,0 -14.5,-16.63542 -14.5,-37.15625c0,-20.52084 6.49187,-37.15625 14.5,-37.15625c8.00813,0 14.5,16.63541 14.5,37.15625z" fill="#ffb800" stroke="none" stroke-width="0" stroke-linecap="butt"/><path d="M167.79264,239.98581c0,-1.38071 1.11929,-2.5 2.5,-2.5c1.38071,0 2.5,1.11929 2.5,2.5c0,1.38071 -1.11929,2.5 -2.5,2.5c-1.38071,0 -2.5,-1.11929 -2.5,-2.5z" fill="#ff6300" stroke="none" stroke-width="0.5" stroke-linecap="butt"/><path d="M148.79263,216.98581c0,-1.38071 1.11929,-2.5 2.5,-2.5c1.38071,0 2.5,1.11929 2.5,2.5c0,1.38071 -1.11929,2.5 -2.5,2.5c-1.38071,0 -2.5,-1.11929 -2.5,-2.5z" fill="#ff6300" stroke="none" stroke-width="0.5" stroke-linecap="butt"/><path d="M144.79263,179.98581c0,-1.38071 1.11929,-2.5 2.5,-2.5c1.38071,0 2.5,1.11929 2.5,2.5c0,1.38071 -1.11929,2.5 -2.5,2.5c-1.38071,0 -2.5,-1.11929 -2.5,-2.5z" fill="#ff6300" stroke="none" stroke-width="0.5" stroke-linecap="butt"/><path d="M125.79264,157.98581c0,-1.38071 1.11929,-2.5 2.5,-2.5c1.38071,0 2.5,1.11929 2.5,2.5c0,1.38071 -1.11929,2.5 -2.5,2.5c-1.38071,0 -2.5,-1.11929 -2.5,-2.5z" fill="#ff6300" stroke="none" stroke-width="0.5" stroke-linecap="butt"/><path d="M155.79263,122.98581c0,-1.38071 1.11929,-2.5 2.5,-2.5c1.38071,0 2.5,1.11929 2.5,2.5c0,1.38071 -1.11929,2.5 -2.5,2.5c-1.38071,0 -2.5,-1.11929 -2.5,-2.5z" fill="#ff6300" stroke="none" stroke-width="0.5" stroke-linecap="butt"/><path d="M174.0604,77.21804c1.76776,1.76776 0,3.53553 0,3.53553l-0.26776,-0.76776c0,1 0,2 0,3c0,0 0,2.5 -2.5,2.5c-2.5,0 -2.5,-2.5 -2.5,-2.5c0,-1 0,-2 0,-3l1.73223,-2.76777c0,0 1.76777,-1.76776 3.53553,0z" fill="#ff6300" stroke="none" stroke-width="0.5" stroke-linecap="butt"/><path d="M203.66434,53.19524c0.79057,2.37171 -1.58114,3.16228 -1.58114,3.16228l-2.94464,0.98154c-0.2642,0.09499 -0.54902,0.14675 -0.84593,0.14675c-0.03207,0 -0.064,-0.00061 -0.09578,-0.0018c-0.74132,-0.00022 -1.75369,-0.27214 -2.24213,-1.61074c-0.02393,-0.063 -0.04539,-0.12722 -0.06424,-0.19254c-0.41351,-1.36449 0.23269,-2.18992 0.82566,-2.63529c0.24581,-0.19996 0.53035,-0.35415 0.84062,-0.44956l2.94531,-0.98177c0,0 2.37171,-0.79057 3.16228,1.58114z" fill="#ff6300" stroke="none" stroke-width="0.5" stroke-linecap="butt"/><path d="M224.79264,36.98581c0,-1.38071 1.11929,-2.5 2.5,-2.5c1.38071,0 2.5,1.11929 2.5,2.5c0,1.38071 -1.11929,2.5 -2.5,2.5c-1.38071,0 -2.5,-1.11929 -2.5,-2.5z" fill="#ff6300" stroke="none" stroke-width="0.5" stroke-linecap="butt"/><path d="M252.79264,32.98581c0,-1.38071 1.11929,-2.5 2.5,-2.5c1.38071,0 2.5,1.11929 2.5,2.5c0,1.38071 -1.11929,2.5 -2.5,2.5c-1.38071,0 -2.5,-1.11929 -2.5,-2.5z" fill="#ff6300" stroke="none" stroke-width="0.5" stroke-linecap="butt"/><path d="M278.57887,44.12954c-2.14373,1.28624 -3.42997,-0.85749 -3.42997,-0.85749c-0.85749,-1.42916 -2.14251,-3.57084 -3,-5c0,0 -1.28624,-2.14373 0.85749,-3.42997c2.14373,-1.28624 3.42997,0.8575 3.42997,0.8575c0.85749,1.42916 1.71499,2.85831 2.57248,4.28746l0.42752,0.71254c0,0 1.28623,2.14373 -0.8575,3.42997z" fill="#ff6300" stroke="none" stroke-width="0.5" stroke-linecap="butt"/><path d="M308.79264,79.98581c0,-1.38071 1.11929,-2.5 2.5,-2.5c1.38071,0 2.5,1.11929 2.5,2.5c0,1.38071 -1.11929,2.5 -2.5,2.5c-1.38071,0 -2.5,-1.11929 -2.5,-2.5z" fill="#ff6300" stroke="none" stroke-width="0.5" stroke-linecap="butt"/><path d="M315.79264,111.98581c0,-1.38071 1.11929,-2.5 2.5,-2.5c1.38071,0 2.5,1.11929 2.5,2.5c0,1.38071 -1.11929,2.5 -2.5,2.5c-1.38071,0 -2.5,-1.11929 -2.5,-2.5z" fill="#ff6300" stroke="none" stroke-width="0.5" stroke-linecap="butt"/><path d="M318.79264,153.98581c0,-1.38071 1.11929,-2.5 2.5,-2.5c1.38071,0 2.5,1.11929 2.5,2.5c0,1.38071 -1.11929,2.5 -2.5,2.5c-1.38071,0 -2.5,-1.11929 -2.5,-2.5z" fill="#ff6300" stroke="none" stroke-width="0.5" stroke-linecap="butt"/><path d="M336.79264,191.98581c0,-1.38071 1.11929,-2.5 2.5,-2.5c1.38071,0 2.5,1.11929 2.5,2.5c0,1.38071 -1.11929,2.5 -2.5,2.5c-1.38071,0 -2.5,-1.11929 -2.5,-2.5z" fill="#ff6300" stroke="none" stroke-width="0.5" stroke-linecap="butt"/><path d="M237.79264,50.98581c0,-1.38071 1.11929,-2.5 2.5,-2.5c1.38071,0 2.5,1.11929 2.5,2.5c0,1.38071 -1.11929,2.5 -2.5,2.5c-1.38071,0 -2.5,-1.11929 -2.5,-2.5z" fill="#ff6300" stroke="none" stroke-width="0.5" stroke-linecap="butt"/><path d="M262.79264,53.98581c0,-1.38071 1.11929,-2.5 2.5,-2.5c1.38071,0 2.5,1.11929 2.5,2.5c0,1.38071 -1.11929,2.5 -2.5,2.5c-1.38071,0 -2.5,-1.11929 -2.5,-2.5z" fill="#ff6300" stroke="none" stroke-width="0.5" stroke-linecap="butt"/><path d="M292.79264,73.98581c0,-1.38071 1.11929,-2.5 2.5,-2.5c1.38071,0 2.5,1.11929 2.5,2.5c0,1.38071 -1.11929,2.5 -2.5,2.5c-1.38071,0 -2.5,-1.11929 -2.5,-2.5z" fill="#ff6300" stroke="none" stroke-width="0.5" stroke-linecap="butt"/><path d="M329.79263,206.98581c0,-1.38071 1.11929,-2.5 2.5,-2.5c1.38071,0 2.5,1.11929 2.5,2.5c0,1.38071 -1.11929,2.5 -2.5,2.5c-1.38071,0 -2.5,-1.11929 -2.5,-2.5z" fill="#ff6300" stroke="none" stroke-width="0.5" stroke-linecap="butt"/><path d="M316.79263,253.98581c0,-1.38071 1.11929,-2.5 2.5,-2.5c1.38071,0 2.5,1.11929 2.5,2.5c0,1.38071 -1.11929,2.5 -2.5,2.5c-1.38071,0 -2.5,-1.11929 -2.5,-2.5z" fill="#ff6300" stroke="none" stroke-width="0.5" stroke-linecap="butt"/><path d="M316.79263,231.98581c0,-1.38071 1.11929,-2.5 2.5,-2.5c1.38071,0 2.5,1.11929 2.5,2.5c0,1.38071 -1.11929,2.5 -2.5,2.5c-1.38071,0 -2.5,-1.11929 -2.5,-2.5z" fill="#ff6300" stroke="none" stroke-width="0.5" stroke-linecap="butt"/><path d="M333.79263,240.98581c0,-1.38071 1.11929,-2.5 2.5,-2.5c1.38071,0 2.5,1.11929 2.5,2.5c0,1.38071 -1.11929,2.5 -2.5,2.5c-1.38071,0 -2.5,-1.11929 -2.5,-2.5z" fill="#ff6300" stroke="none" stroke-width="0.5" stroke-linecap="butt"/><path d="M318.79263,212.98581c0,-1.38071 1.11929,-2.5 2.5,-2.5c1.38071,0 2.5,1.11929 2.5,2.5c0,1.38071 -1.11929,2.5 -2.5,2.5c-1.38071,0 -2.5,-1.11929 -2.5,-2.5z" fill="#ff6300" stroke="none" stroke-width="0.5" stroke-linecap="butt"/><path d="M352.79263,210.98581c0,-1.38071 1.11929,-2.5 2.5,-2.5c1.38071,0 2.5,1.11929 2.5,2.5c0,1.38071 -1.11929,2.5 -2.5,2.5c-1.38071,0 -2.5,-1.11929 -2.5,-2.5z" fill="#ff6300" stroke="none" stroke-width="0.5" stroke-linecap="butt"/><path d="M323.79263,182.98581c0,-1.38071 1.11929,-2.5 2.5,-2.5c1.38071,0 2.5,1.11929 2.5,2.5c0,1.38071 -1.11929,2.5 -2.5,2.5c-1.38071,0 -2.5,-1.11929 -2.5,-2.5z" fill="#ff6300" stroke="none" stroke-width="0.5" stroke-linecap="butt"/><path d="M338.79263,162.98581c0,-1.38071 1.11929,-2.5 2.5,-2.5c1.38071,0 2.5,1.11929 2.5,2.5c0,1.38071 -1.11929,2.5 -2.5,2.5c-1.38071,0 -2.5,-1.11929 -2.5,-2.5z" fill="#ff6300" stroke="none" stroke-width="0.5" stroke-linecap="butt"/><path d="M327.79263,126.98581c0,-1.38071 1.11929,-2.5 2.5,-2.5c1.38071,0 2.5,1.11929 2.5,2.5c0,1.38071 -1.11929,2.5 -2.5,2.5c-1.38071,0 -2.5,-1.11929 -2.5,-2.5z" fill="#ff6300" stroke="none" stroke-width="0.5" stroke-linecap="butt"/><path d="M328.79263,151.98581c0,-1.38071 1.11929,-2.5 2.5,-2.5c1.38071,0 2.5,1.11929 2.5,2.5c0,1.38071 -1.11929,2.5 -2.5,2.5c-1.38071,0 -2.5,-1.11929 -2.5,-2.5z" fill="#ff6300" stroke="none" stroke-width="0.5" stroke-linecap="butt"/><path d="M148.79263,147.98581c0,-1.38071 1.11929,-2.5 2.5,-2.5c1.38071,0 2.5,1.11929 2.5,2.5c0,1.38071 -1.11929,2.5 -2.5,2.5c-1.38071,0 -2.5,-1.11929 -2.5,-2.5z" fill="#ff6300" stroke="none" stroke-width="0.5" stroke-linecap="butt"/><path d="M133.71799,203.37947c0.60634,2.42536 -1.81902,3.0317 -1.81902,3.0317l-4,1c0,0 -2.42536,0.60634 -3.0317,-1.81902c-0.60634,-2.42536 1.81902,-3.0317 1.81902,-3.0317l4,-1c0,0 2.42536,-0.60634 3.0317,1.81902z" fill="#ff6300" stroke="none" stroke-width="0.5" stroke-linecap="butt"/><path d="M157.79263,195.98581c0,-1.38071 1.11929,-2.5 2.5,-2.5c1.38071,0 2.5,1.11929 2.5,2.5c0,1.38071 -1.11929,2.5 -2.5,2.5c-1.38071,0 -2.5,-1.11929 -2.5,-2.5z" fill="#ff6300" stroke="none" stroke-width="0.5" stroke-linecap="butt"/><path d="M148.79263,243.98581c0,-1.38071 1.11929,-2.5 2.5,-2.5c1.38071,0 2.5,1.11929 2.5,2.5c0,1.38071 -1.11929,2.5 -2.5,2.5c-1.38071,0 -2.5,-1.11929 -2.5,-2.5z" fill="#ff6300" stroke="none" stroke-width="0.5" stroke-linecap="butt"/><path d="M144.79263,113.98581c0,-1.38071 1.11929,-2.5 2.5,-2.5c1.38071,0 2.5,1.11929 2.5,2.5c0,1.38071 -1.11929,2.5 -2.5,2.5c-1.38071,0 -2.5,-1.11929 -2.5,-2.5z" fill="#ff6300" stroke="none" stroke-width="0.5" stroke-linecap="butt"/><path d="M171.79263,107.98581c0,-1.38071 1.11929,-2.5 2.5,-2.5c1.38071,0 2.5,1.11929 2.5,2.5c0,1.38071 -1.11929,2.5 -2.5,2.5c-1.38071,0 -2.5,-1.11929 -2.5,-2.5z" fill="#ff6300" stroke="none" stroke-width="0.5" stroke-linecap="butt"/><path d="M198.79263,81.98581c0,-1.38071 1.11929,-2.5 2.5,-2.5c1.38071,0 2.5,1.11929 2.5,2.5c0,1.38071 -1.11929,2.5 -2.5,2.5c-1.38071,0 -2.5,-1.11929 -2.5,-2.5z" fill="#ff6300" stroke="none" stroke-width="0.5" stroke-linecap="butt"/><path d="M204.79263,67.98581c0,-1.38071 1.11929,-2.5 2.5,-2.5c1.38071,0 2.5,1.11929 2.5,2.5c0,1.38071 -1.11929,2.5 -2.5,2.5c-1.38071,0 -2.5,-1.11929 -2.5,-2.5z" fill="#ff6300" stroke="none" stroke-width="0.5" stroke-linecap="butt"/></g></g></svg>