<svg version="1.1" xmlns="http://www.w3.org/2000/svg" xmlns:xlink="http://www.w3.org/1999/xlink" width="112.79293" height="85.5" viewBox="0,0,112.79293,85.5"><g transform="translate(-174.14632,-136.77288)"><g data-paper-data="{&quot;isPaintingLayer&quot;:true}" fill-rule="nonzero" stroke="none" stroke-linecap="butt" stroke-linejoin="miter" stroke-miterlimit="10" stroke-dasharray="" stroke-dashoffset="0" style="mix-blend-mode: normal"><path d="M246.5,180c0,21.53911 -2.91015,39 -6.5,39c-3.58985,0 -6.5,-17.46089 -6.5,-39c0,-21.53911 2.91015,-39 6.5,-39c3.58985,0 6.5,17.46089 6.5,39z" fill="#a500e3" stroke-width="0"/><path d="M240.10893,187.99909c-21.53608,0.36094 -39.04329,-2.2562 -39.10345,-5.84555c-0.06016,-3.58935 17.34952,-6.79169 38.8856,-7.15263c21.53608,-0.36094 39.04329,2.2562 39.10345,5.84555c0.06016,3.58935 -17.34952,6.79169 -38.8856,7.15263z" fill="#a500e3" stroke-width="0"/><path d="M252.69235,177.82635c-7.6749,6.9519 -15.54975,10.76249 -17.58898,8.51119c-2.03922,-2.2513 2.52939,-9.71198 10.20429,-16.66388c7.6749,-6.9519 15.54975,-10.76249 17.58898,-8.51119c2.03922,2.2513 -2.52939,9.71198 -10.20429,16.66388z" fill="#a500e3" stroke-width="0"/><path d="M244.95219,192.97359c-7.01074,-7.6212 -10.88179,-15.46651 -8.64623,-17.52299c2.23555,-2.05648 9.73114,2.45461 16.74188,10.07581c7.01074,7.6212 10.88179,15.46651 8.64623,17.52299c-2.23555,2.05648 -9.73114,-2.45461 -16.74188,-10.07581z" fill="#a500e3" stroke-width="0"/><path d="M228.82953,185.65396c7.71199,-6.91074 15.60712,-10.67914 17.63427,-8.41696c2.02715,2.26219 -2.58132,9.6983 -10.29331,16.60904c-7.71199,6.91074 -15.60712,10.67914 -17.63427,8.41696c-2.02715,-2.26219 2.58132,-9.6983 10.29331,-16.60904z" fill="#a500e3" stroke-width="0"/><path d="M236.65666,169.64829c6.78126,7.82608 10.41757,15.78291 8.12192,17.77208c-2.29565,1.98917 -9.65394,-2.74257 -16.43521,-10.56866c-6.78126,-7.82608 -10.41757,-15.78291 -8.12192,-17.77208c2.29565,-1.98917 9.65394,2.74257 16.43521,10.56866z" fill="#a500e3" stroke-width="0"/><path d="M232.6008,197.03736c0.57115,-0.42141 1.11713,-0.85789 1.62507,-1.31546c0.43687,-0.39355 0.77785,-0.87941 1.1229,-1.36127c-0.1101,0.08867 -0.21679,0.17817 -0.31956,0.26872c-0.85444,0.75283 -1.63815,1.58447 -2.42841,2.40802zM239.33989,181.9653c-1.33505,1.5871 -2.78396,3.04902 -4.30173,4.46935c1.09775,-0.5326 2.24536,-1.02438 3.4827,-1.45658l2.07616,-1.01241c0.23959,-0.12323 0.51132,-0.19278 0.79929,-0.19278c0.15684,0 0.30886,0.02063 0.4535,0.05933c-0.83717,-0.62096 -1.6749,-1.24245 -2.50993,-1.86691zM207.14632,203.02288c0,-0.36773 0.11342,-0.70896 0.30718,-0.99063l0.98673,-1.48009l0.0723,0.0482l0.03044,-0.18696c0.20375,-0.20375 0.40745,-0.40905 0.61118,-0.61565c0.00153,-0.0041 0.00311,-0.0082 0.00474,-0.01231c0.14474,-0.36581 0.45014,-0.60559 0.80185,-0.8116c3.46278,-3.55935 6.96477,-7.40417 10.91234,-10.37064c0.56652,-0.42572 1.37216,-0.47122 1.91104,-0.93144c0.63194,-0.5397 0.88297,-1.43689 1.50602,-1.98683c2.33714,-2.0629 4.98864,-3.45177 7.79709,-4.51055l-0.09127,-0.15212l2.47534,-1.4852c0.26838,-0.16744 0.58541,-0.26419 0.92503,-0.26419c0.10074,0 0.1995,0.00851 0.29558,0.02486c0.02514,-0.01653 0.05029,-0.03306 0.07544,-0.04957c-0.02799,-0.02176 -0.05597,-0.04354 -0.08394,-0.06532c-2.51046,-0.34227 -4.1089,-1.80973 -6.38725,-2.75037c-3.82669,-1.57989 -7.90589,-2.70439 -11.37056,-4.95352l-1.47742,-0.98494c-0.48248,-0.31159 -0.80186,-0.85407 -0.80186,-1.47114c0,-0.62854 0.33137,-1.17969 0.82893,-1.48828c-0.77114,-0.62669 -1.55515,-1.26028 -2.38061,-1.89453c-0.91948,-0.70648 -1.82796,-1.39857 -2.72621,-2.08483c-0.085,-0.04291 -0.16998,-0.08586 -0.25495,-0.12885c-1.61714,-0.70323 -3.22677,-1.4433 -4.81539,-2.224c-2.02594,-0.8379 -4.03514,-1.63863 -5.97874,-2.80015l-0.11037,-0.19202l-0.0501,0.0501l-0.91466,-0.91466c-1.50379,-0.91937 -2.96544,-1.88578 -4.37115,-2.90311c-4.14462,-2.9995 -7.65614,-7.12563 -11.94748,-9.96359l-1.47742,-0.98494c-0.48248,-0.31159 -0.80186,-0.85407 -0.80186,-1.47114c0,-0.03641 0.00111,-0.07255 0.0033,-0.10841c-0.60845,-0.28968 -1.22226,-0.56946 -1.84339,-0.83608l-0.02534,0.08868l-3.32814,-0.9509c-0.75171,-0.19637 -1.30644,-0.88005 -1.30644,-1.6933c0,-0.9665 0.7835,-1.75 1.75,-1.75c0.13001,0 0.25671,0.01418 0.37864,0.04107l2.46457,0.49291l-0.01321,0.06603l0.16866,-0.02746c0.42443,0.16885 0.84513,0.34373 1.26266,0.52385c1.08564,0.17937 2.04358,0.92556 3.0562,1.3885c1.25542,0.57395 2.49559,1.17855 3.73416,1.78674c1.89301,0.54457 4.28954,1.92373 5.6737,2.6263c0.81943,0.41592 1.61768,0.84873 2.40051,1.29579c2.26353,1.19741 4.45584,2.50038 6.66949,3.7657c0.33237,0.17853 0.66358,0.35914 0.99344,0.54218l0.58497,0.19499l-0.03731,0.11192c0.20573,0.11645 0.4109,0.23394 0.61544,0.35253c3.44324,0.86427 6.78001,2.11207 10.00272,3.62311c-1.40359,-1.1537 -2.81825,-2.32309 -4.52259,-2.87888c-1.41357,-0.46097 -2.91398,-0.59726 -4.3565,-0.95753c0,0 -1.69775,-0.42444 -1.27331,-2.12219c0.42444,-1.69775 2.12219,-1.27331 2.12219,-1.27331c1.5389,0.38513 3.14118,0.53299 4.6435,1.04247c3.0681,1.04049 5.15243,3.55244 7.85209,5.16664c4.76115,2.84682 9.24913,6.03068 13.64386,9.34842l1.47313,-0.32736l0.01528,0.06875c0.49143,-0.10229 0.98228,-0.2076 1.47266,-0.31536c4.74139,-1.9382 9.68619,-3.24041 14.68777,-4.87943c9.3531,-3.065 18.95078,-5.74648 28.61482,-7.64787l0.17244,0.0596v-0.06811h2c0.9665,0 1.75,0.7835 1.75,1.75c0,0.54757 -0.25149,1.03641 -0.64527,1.3573c0.66849,0.24618 1.14527,0.88876 1.14527,1.6427c0,0.83283 -0.58177,1.52978 -1.36108,1.70663l-1.89346,0.47337c-5.08565,1.89588 -10.2518,3.92066 -15.33172,6.10484c-1.60751,0.90151 -3.25145,1.74729 -4.91679,2.55683c-0.74483,1.2925 -1.77689,2.31345 -2.88141,3.25818c3.92701,-0.51525 7.85704,-1.04576 11.77811,-1.81317c2.43941,-0.47743 4.58671,-2.41145 6.75315,-2.15147c0.25559,-0.20487 0.50295,-0.42362 0.74097,-0.65804l0.49474,0.05294l-0.05696,-0.22784l1.96193,-0.49048c0.14733,-0.04027 0.30241,-0.06177 0.46251,-0.06177c0.9665,0 1.75,0.7835 1.75,1.75c0,0.75117 -0.47328,1.39181 -1.13791,1.63997l-2.34239,0.93696c-3.52381,3.03475 -8.86038,3.40062 -12.973,5.4812c-1.82331,0.92241 -2.97896,2.23431 -4.58614,2.57064c0.02584,0.11965 0.03945,0.24384 0.03945,0.37122c0,0.9665 -0.7835,1.75 -1.75,1.75h-2c-0.20826,0 -0.40803,-0.03638 -0.59329,-0.10313c-1.4991,-0.34582 -3.0033,-0.57873 -4.51024,-0.77079l2.18413,1.7473c0.40761,0.3204 0.66941,0.81794 0.66941,1.37662c0,0.57935 -0.28152,1.09294 -0.71523,1.41144c0.58224,0.32428 1.16749,0.66368 1.76001,1.01888c7.51415,4.50455 13.95267,9.81278 20.36951,15.76089c4.67684,4.33521 10.24487,7.97272 12.37864,14.13454c-1.36544,0.27815 -2.71439,1.01344 -4.09633,0.83444c-0.95781,-0.12406 -1.53521,-1.18011 -2.36663,-1.67156c-2.82701,-1.67103 -5.6452,-3.18048 -8.42919,-4.9521c-1.48171,-0.94291 -2.96612,-1.93467 -4.45916,-2.92852c-0.21215,0.09137 -0.44597,0.14198 -0.69162,0.14198c-0.35518,0 -0.68565,-0.10581 -0.9616,-0.28764l-2.93075,-1.86502c-2.34771,-1.00038 -4.56054,-2.76814 -6.68559,-4.70605c-3.37957,-1.67806 -6.83974,-3.19844 -10.24952,-4.81678c-2.40813,1.54938 -5.23685,2.72697 -7.32645,4.60938c-0.84287,0.7593 -1.32884,1.8622 -2.17565,2.6171c-2.77485,2.47368 -6.54132,4.36596 -9.55163,6.55452c-4.24584,3.08682 -8.31184,6.21085 -12.683,9.12326l-0.04122,0.01221l0.00578,0.00964l-2.47534,1.4852c-0.26838,0.16744 -0.58541,0.26419 -0.92503,0.26419c-0.9665,0 -1.75,-0.7835 -1.75,-1.75c0,-0.15026 0.01894,-0.2961 0.05456,-0.43526c-2.2851,1.7203 -4.61911,3.69551 -7.03986,5.19203c-0.10777,1.03558 -1.21129,1.40342 -1.21129,1.40342l-1.0034,0.2398l-1.98586,1.48939c-0.29487,0.22618 -0.66381,0.36061 -1.06414,0.36061c-0.9665,0 -1.75,-0.7835 -1.75,-1.75c0,-0.36773 0.11342,-0.70896 0.30718,-0.99063l0.98673,-1.48009l0.21236,0.14157l0.1411,-0.52978c4.4036,-1.83874 8.3272,-5.63651 12.35297,-8.34301c1.65485,-1.11255 3.33733,-2.195 5.02671,-3.27241c0.81905,-0.79546 1.58813,-1.5538 2.10512,-2.23887c0.70204,-0.93029 1.39416,-1.86452 2.08195,-2.79943c-3.14483,2.46462 -6.447,4.71143 -10.06159,6.51422l-1.41189,0.94126c-0.28167,0.19376 -0.62291,0.30718 -0.99063,0.30718c-0.9665,0 -1.75,-0.7835 -1.75,-1.75c0,-0.55868 0.2618,-1.05622 0.66941,-1.37662l2.45807,-1.96646c-0.08221,-0.20284 -0.12748,-0.42459 -0.12748,-0.65692zM261.33004,190.20443c-2.44928,-1.9365 -5.12905,-3.87925 -7.89935,-5.52377c0.08209,0.14924 0.14304,0.31174 0.17882,0.48348c1.21371,0.75891 2.42154,1.51199 3.58188,2.28555c1.3723,0.91487 2.75414,1.8318 4.13865,2.75474zM249.93166,182.80277c0.51147,0.3451 1.02976,0.68411 1.5515,1.01916c0.11363,-0.0275 0.2316,-0.04392 0.35268,-0.04803c-0.63201,-0.34304 -1.26728,-0.66791 -1.90419,-0.97113zM243.24635,162.9368c-2.52062,0.60976 -5.04105,1.23208 -7.57393,1.78973c0.86794,0.67286 1.73419,1.34876 2.60019,2.02608l2.14222,-1.83619l0.01159,0.01352c0.02364,-0.02694 0.04746,-0.05375 0.07147,-0.08042c0.84844,-0.94259 1.77539,-1.47894 2.74847,-1.91271zM258.39862,171.26506c-2.30552,0.2819 -4.6223,0.50978 -6.90521,0.7539c-0.11811,0.14426 -0.23665,0.29131 -0.35575,0.44056c1.32436,0.17312 2.64587,0.38779 3.96237,0.7003l1.89592,-1.13755l0.14015,0.23359c0.41399,-0.34276 0.8343,-0.67308 1.26252,-0.99079zM232.11271,169.29738c0.02209,0.01816 0.04417,0.03633 0.06624,0.05451c0.07584,0.03178 0.15169,0.06352 0.22756,0.09522c1.40912,0.30247 2.84214,0.56351 4.27391,0.81678l0.17364,-0.17364c-1.07206,-0.83813 -2.14396,-1.67462 -3.21839,-2.5065c0.00183,0.04119 0.00215,0.08236 0.0009,0.12349c-0.0237,0.78387 -0.71518,1.21772 -1.52387,1.59014zM198.91715,152.77121l-0.00171,-0.0079l-0.00709,0.00354c0.00293,0.00145 0.00586,0.0029 0.0088,0.00435zM192.73845,148.14998c1.35823,1.21557 2.73294,2.39813 4.18111,3.45322c0.58339,0.42504 1.2136,0.77515 1.86012,1.09952l-0.93287,-1.86574c-0.03757,-0.07135 -0.07035,-0.14562 -0.09792,-0.22237c-1.6593,-0.84084 -3.33775,-1.64785 -5.01044,-2.46464zM243.13389,185.73739c0.62687,0.13055 1.24946,0.2782 1.86776,0.4418c-0.70369,-0.52823 -1.41072,-1.05464 -2.11912,-1.5807c0.15357,0.24638 0.24757,0.53372 0.26188,0.84188l0.03453,0.01727l-0.03262,0.06525c0,0.07252 -0.00441,0.14401 -0.01298,0.21421c0.00018,0.0001 0.00037,0.0002 0.00055,0.00029zM235.57275,189.92887c-2.53372,1.13657 -5.03927,2.4647 -7.48995,3.90046c-1.75139,2.11386 -3.44786,4.27641 -5.09648,6.48094c1.62906,-1.12174 3.22956,-2.28122 4.78158,-3.50254c2.76762,-2.17791 5.01559,-4.71541 7.80485,-6.87886zM242.26078,189.22181c-0.18761,-0.09666 -0.37491,-0.19392 -0.56187,-0.29184c-0.16041,0.34041 -0.35963,0.65956 -0.58921,0.96114c0.38398,-0.22385 0.76866,-0.44607 1.15108,-0.6693z" fill="#ddcbe3" stroke-width="0.5"/></g></g></svg>