<svg version="1.1" xmlns="http://www.w3.org/2000/svg" xmlns:xlink="http://www.w3.org/1999/xlink" width="608.5" height="434.5" viewBox="0,0,608.5,434.5"><g transform="translate(64.25,37.25)"><g data-paper-data="{&quot;isPaintingLayer&quot;:true}" fill-rule="nonzero" stroke-linecap="butt" stroke-linejoin="miter" stroke-miterlimit="10" stroke-dasharray="" stroke-dashoffset="0" style="mix-blend-mode: normal"><path d="M-64,397v-434h608v434z" fill="#000000" stroke="#000000" stroke-width="0.5"/><path d="M235,242.5v-125h14v125z" fill="#0014e3" stroke="none" stroke-width="0"/><path d="M175,174.5h130v14h-130z" fill="#0014e3" stroke="none" stroke-width="0"/><path d="M243,176.5v-23h26v23z" fill="#0014e3" stroke="none" stroke-width="0"/><path d="M247,203.5v-23h26v23z" fill="#0014e3" stroke="none" stroke-width="0"/><path d="M215,176.5v-23h26v23z" fill="#0014e3" stroke="none" stroke-width="0"/><path d="M215,208.5v-23h26v23z" fill="#0014e3" stroke="none" stroke-width="0"/><path d="M208,177.5v-11h10v11z" fill="#0014e3" stroke="none" stroke-width="0"/><path d="M208,197.75v-11h10v11z" fill="#0014e3" stroke="none" stroke-width="0"/><path d="M227,216.5v-11h10v11z" fill="#0014e3" stroke="none" stroke-width="0"/><path d="M249,212.75v-11h10v11z" fill="#0014e3" stroke="none" stroke-width="0"/><path d="M270,196v-11h10v11z" fill="#0014e3" stroke="none" stroke-width="0"/><path d="M266.25,177.25v-11h10v11z" fill="#0014e3" stroke="none" stroke-width="0"/><path d="M247.75,155.75v-11h10v11z" fill="#0014e3" stroke="none" stroke-width="0"/><path d="M225.75,154.75v-11h10v11z" fill="#0014e3" stroke="none" stroke-width="0"/></g></g></svg>