<svg version="1.1" xmlns="http://www.w3.org/2000/svg" xmlns:xlink="http://www.w3.org/1999/xlink" width="685.84251" height="582.10566" viewBox="0,0,685.84251,582.10566"><g transform="translate(-68,16.30735)"><g data-paper-data="{&quot;isPaintingLayer&quot;:true}" fill-rule="nonzero" stroke="none" stroke-linecap="butt" stroke-linejoin="miter" stroke-miterlimit="10" stroke-dasharray="" stroke-dashoffset="0" style="mix-blend-mode: normal"><path d="M394,186.00001c0,88.14694 -72.97758,159.60417 -163,159.60417c-90.02242,0 -163,-71.45723 -163,-159.60417c0,-88.14694 72.97758,-159.60417 163,-159.60417c90.02242,0 163,71.45723 163,159.60417z" fill="#4b0f7f" stroke-width="0"/><path d="M122.33333,186.00001c0,-60.01493 48.65173,-108.66667 108.66667,-108.66667c60.01493,0 108.66667,48.65173 108.66667,108.66667c0,60.01493 -48.65173,108.66667 -108.66667,108.66667c-60.01493,0 -108.66667,-48.65173 -108.66667,-108.66667z" fill="#7a19d0" stroke-width="0"/><path d="M244.64478,156.52924c0.67496,-2.35166 1.93041,-4.5397 2.37103,-6.9463c0.81517,-4.45239 -0.82463,-9.65995 3.79565,-13.1387c1.7349,-1.30626 4.25905,-0.96282 6.42868,-1.05737c0.43863,-0.01912 0.88247,-0.01542 1.32836,0.01061c-0.09485,-0.41426 -0.14495,-0.84557 -0.14495,-1.28859c0,-0.67809 0.11738,-1.32877 0.33292,-1.93282c-0.92608,-1.40523 -1.82743,-2.67787 -2.28482,-3.61711c-2.01192,-4.13142 -3.70599,-10.8958 -2.44436,-15.53743c1.41654,-5.21155 5.18998,-8.61088 10.55888,-9.55888c0.2938,-0.05188 0.59307,-0.08788 0.89669,-0.11119c2.71421,-1.93979 8.49677,-3.71391 11.21641,-3.47297c2.52437,0.22365 5.82414,-0.32424 7.46439,1.57368c0.42601,-0.04927 0.85586,-0.09054 1.29035,-0.12233c0.19589,-1.03499 0.39295,-2.12567 1.15366,-2.78681c0.18352,-0.1595 6.89356,-2.68536 8.1949,-3.17735l0.65361,-0.3268c0.20023,-2.76622 1.31205,-4.39678 2.5744,-7.00146c0,0 2.57148,-5.14296 7.71443,-2.57148c5.14296,2.57148 2.57148,7.71443 2.57148,7.71443c-0.51537,0.98205 -1.36484,1.91254 -1.3937,3.02123c-0.04585,1.76096 1.33548,1.63565 1.79211,3.87243c0.73621,3.60627 0.2671,7.65444 -2.07629,10.6578c-1.05764,1.35551 -2.76252,2.04757 -4.14403,3.07102c-0.51771,0.38353 -0.9776,0.86129 -1.55363,1.14991c-0.1422,0.07125 -0.43968,-0.30174 -0.4551,-0.14343c-0.22008,2.25876 -0.59898,4.69295 -1.93469,6.5277c-0.659,0.90521 -2.00887,1.0573 -2.81176,1.83774c-1.38364,1.34495 -2.00604,3.32088 -3.28138,4.76893c-2.24384,2.54773 -4.11649,5.09354 -5.73661,8.0064c-2.04706,4.4639 -3.69772,9.11904 -6.01869,13.44622c-1.45419,2.71118 -3.27747,5.18695 -5.31339,7.50147c0.00934,0.92908 0.03419,1.84297 0.03419,2.71111c-0.15124,3.12166 -1.2079,5.97808 -2.69101,8.69296c1.18403,0.423 2.37672,0.82385 3.58551,1.18305c4.25646,1.26485 9.76656,1.79209 13.32317,4.79034c3.52661,2.97295 3.19184,7.46498 5.83793,10.81205c1.93935,2.45311 5.28666,4.12793 7.65951,6.09165c5.33559,4.41565 10.72085,7.91665 15.63644,12.94811c-0.69562,2.97216 -0.21295,6.50689 -2.08685,8.91647c-0.06988,0.08986 -0.14325,0.17512 -0.21985,0.25607c0.64949,0.8915 1.29226,1.78707 1.9307,2.68299c0.51442,0.56942 1.03033,1.12726 1.55238,1.6609c1.65795,1.69473 3.8826,3.07337 4.79435,5.42745c0.4567,1.17916 0.80697,2.3931 1.11684,3.62026c0.91802,1.46432 1.82714,2.81574 3.28446,4.05534l2.21875,9.80518c-0.39071,-0.02044 -0.78235,-0.0339 -1.17462,-0.04269c2.83299,3.04164 5.52978,6.21098 7.91772,9.53059c0,0 3.30308,4.70661 -1.40354,8.00969c-3.13917,2.20306 -5.65398,0.843 -6.98083,-0.30721c-3.50363,0.94397 -5.88924,-2.31475 -5.88924,-2.31475c-1.87195,-2.58197 -4.30904,-4.70629 -6.34263,-7.16297c-3.75905,-4.54114 -6.79482,-9.73713 -10.90136,-13.96705c-0.0375,-0.03862 -0.07506,-0.07719 -0.11269,-0.1157l-4.13438,-0.01395c-9.48475,-4.83624 -17.33451,-11.69529 -25.11293,-18.79064c-8.02246,-3.98845 -15.83614,-8.17476 -23.49511,-12.63191c-2.11739,0.85166 -4.34263,1.37015 -6.61932,1.71335c-0.57764,0.77466 -1.19132,1.52334 -1.87754,2.21628c-2.7418,2.76866 -5.77877,5.12245 -8.88019,7.38599c-2.1598,5.01517 -4.6788,9.89505 -7.90138,14.73767c-5.25929,7.87729 -10.75744,14.85319 -18.52569,20.35553l-2.99613,1.24108c-1.35832,0.81998 -2.76436,0.94224 -2.76436,0.94224c-0.58467,0.05073 -1.16949,0.10062 -1.75438,0.15026c-4.69846,5.10949 -12.80704,6.26593 -18.67226,9.26431c-1.73957,0.86678 -3.58632,1.50968 -5.31287,2.4021c-1.89711,0.98057 -3.4559,3.4585 -5.57099,3.16368c-3.85764,-0.53771 -6.27,-1.72979 -7.548,-3.29554c-0.91515,1.39766 -1.81907,2.82093 -2.83101,4.23955c-4.50083,7.06086 -15.63758,12.51553 -21.12091,2.54768c-0.90505,-1.64523 -0.56456,-3.75454 -0.36345,-5.62148c0.38822,-3.60385 3.01875,-7.142 4.74517,-10.0373c2.21378,-3.71263 4.41107,-7.21835 6.88518,-10.60504c0.26473,-0.72161 0.5344,-1.42944 0.74507,-2.10193c0.30531,-0.97457 1.54859,-1.36112 2.13569,-2.19676c0.7027,-1.00017 0.90337,-2.3198 1.69306,-3.25281c1.37017,-1.61884 3.21456,-2.90393 5.11195,-4.08738c1.37286,-1.55546 2.75982,-3.09692 4.16768,-4.61935c-0.42594,-0.81901 -0.7804,-1.76812 -1.04925,-2.8604c-0.55308,-2.24705 1.96983,-4.19239 3.09969,-6.21193c2.67798,-4.78666 7.15529,-7.98797 11.35893,-11.32698l0.44185,-0.01361l-0.11763,-0.19604l2.41896,-1.45138c0.88181,-0.55015 1.92348,-0.86804 3.03939,-0.86804c1.96912,0 3.70706,0.98981 4.74341,2.49904c3.25287,-1.4113 6.89219,-2.46796 10.14537,-3.39064c2.5837,-0.29267 5.18201,-0.49313 7.78223,-0.57156c3.33992,-3.10577 7.47745,-6.49021 10.68355,-9.23355c0.79431,-0.67966 1.90915,-0.94225 2.64565,-1.68417c0.9523,-0.95931 1.4161,-2.32187 2.32466,-3.3227c1.02122,-1.12493 2.04948,-2.08733 3.02075,-3.05389c-0.35109,-0.24794 -0.70198,-0.4967 -1.05266,-0.74627c-3.55528,-2.53019 -7.09405,-5.10303 -10.47545,-7.86242c-0.99362,-0.74146 -1.98644,-1.48489 -2.97861,-2.23057c-0.01756,-0.01077 -0.03511,-0.02154 -0.05268,-0.03231c-0.68465,0.08016 -1.37376,0.10344 -2.06895,0.04881c-1.62492,-0.12769 -2.29943,-2.19957 -3.44427,-3.45455c-0.88157,-0.56331 -1.75625,-1.13292 -2.6246,-1.71031c-0.78703,-0.3923 -1.58409,-0.77034 -2.30981,-1.25999c-3.35472,-2.26343 -6.75423,-4.82684 -9.96486,-7.51415c-1.10139,-0.63824 -2.17399,-1.29775 -2.72767,-2.35404c-0.74694,-0.66504 -1.47882,-1.33437 -2.19232,-2.00549l1.31308,-3.99156c-1.47459,-1.54568 -2.90688,-3.10467 -4.28739,-4.66944c-3.57256,-4.04942 -6.51654,-8.61436 -9.88996,-12.83112c-1.21992,-1.52489 -2.42788,-3.06186 -3.61066,-4.61786c-0.81436,-0.62515 -1.62992,-1.24887 -2.44692,-1.87084c-7.20177,-5.48259 -14.54789,-10.60982 -21.52281,-16.38946l-5.36349,-10.07264c3.82522,-0.27479 7.64307,-0.9627 11.47565,-0.82438c2.60164,0.0939 4.55603,2.10647 6.75877,3.08595c0.29157,0.12965 0.58485,0.25531 0.87957,0.37756c3.09624,-1.03571 5.55377,1.43107 5.88491,1.78406l4.3047,0.89884c2.01538,0.98664 4.00917,1.87993 5.97313,2.84962c3.2831,1.15028 6.53452,2.41087 9.77766,3.9727l1.11601,5.7391l-0.90848,1.27222c-0.58249,0.91617 -1.11901,1.89538 -1.78172,2.7015l7.1164,1.58283c0.6979,0.53121 1.40289,1.04843 2.11332,1.555c1.93781,-0.3905 3.87877,-0.71063 5.83872,-0.6081c1.18817,0.06215 1.86127,1.48319 2.81412,2.19571c1.16843,0.87373 2.47493,1.56062 3.79799,2.17558l2.78192,2.45233c0,0 1.74566,1.97998 1.52993,4.43965l-0.00003,-0.00002c0.4868,0.39147 0.97094,0.78534 1.45111,1.18291c0.95069,0.78717 2.37344,1.15225 2.94289,2.24732c0.15512,0.29829 0.30328,0.59963 0.44539,0.90362c9.01151,6.64313 18.06672,13.12612 27.34253,19.4151c0.64063,-1.60569 1.20246,-3.24455 1.67114,-4.90706zM194.67354,217.79874v-0.26067c-0.13552,0.06214 -0.26978,0.12512 -0.40266,0.18894c0.13465,0.02145 0.26886,0.04542 0.40266,0.07172zM195.77796,217.05977c-0.23785,0.09751 -0.47309,0.19717 -0.70513,0.29911c0.13133,0 0.28771,0 0.45767,0c0.08221,-0.09995 0.16467,-0.19967 0.24746,-0.29911z" fill="#f6deff" stroke-width="0.5"/><path d="M191.27828,136.66309c2.23607,-1.11803 3.3541,1.11803 3.3541,1.11803l0.40766,0.83179c5.20614,8.67691 12.79694,15.57872 21.24302,21.20611c0,0 0.32568,0.21712 0.6334,0.60841c0.24645,0.24385 0.37985,0.42172 0.37985,0.42172l0.94639,1.39396c2.75898,1.5168 5.68742,4.14656 8.62203,5.16777c2.88788,1.00495 5.94791,1.89413 9.03183,2.67215c-0.43323,-6.58979 -1.27407,-13.14147 -1.22957,-19.76511l-0.41024,-1.95244c-3.40213,-3.78588 -3.16166,-8.39284 -1.18164,-13.39482l-0.17881,-1.07152c0,0 0,-2.5 2.5,-2.5c2.5,0 2.5,2.5 2.5,2.5l-0.17881,2.92848c-0.91785,2.26665 -1.60469,4.61249 -0.87144,6.59502c0.22073,-0.07521 0.45919,-0.13946 0.71675,-0.19097c4.16747,-0.83349 5.00096,3.33397 5.00096,3.33397l0.56185,2.91471c0.03471,6.09795 0.69284,12.12516 1.13181,18.17793c2.22719,-2.62622 4.6961,-5.09096 7.00057,-7.62508c1.45545,-1.60049 3.86099,-3.41834 5.2525,-5.37157c-0.02466,-0.08644 -0.04663,-0.17711 -0.06565,-0.2722c-0.31532,-1.57662 0.58613,-2.34205 1.26968,-2.68758c0.54302,-1.03787 1.60497,-2.05271 3.68177,-2.05271c1.11512,0 1.93765,0.29259 2.54437,0.72422c1.03135,-0.20399 2.05824,-0.41463 3.08071,-0.64105c1.13,-1.51416 2.58986,-3.6355 4.19528,-4.53736c2.05534,-1.1546 6.10187,-1.3279 8.4333,-1.78365l2.74634,-0.01217c0,0 2.5,0 2.5,2.5c0,2.5 -2.5,2.5 -2.5,2.5l-2.25366,-0.01217c-0.1237,0.02542 -0.25402,0.04904 -0.38997,0.07127c0.0906,0.26576 0.14362,0.57682 0.14362,0.9409c0,2.5 -2.5,2.5 -2.5,2.5l0.42848,-0.17881c-4.05974,1.62206 -8.17427,2.58941 -12.3624,3.43637l-0.12005,0.82084c-2.71065,6.0441 -8.42902,10.48305 -13.08755,15.46948c0.82632,0.54331 1.58436,1.18198 2.25846,1.90035c6.83726,0.91523 13.24298,-1.10374 19.94106,-2.49162c0.43495,-0.2818 0.83567,-0.38198 0.83567,-0.38198c5.90788,-1.46873 11.90989,-2.2188 17.87911,-3.38047c0.27324,-0.24786 1.88412,-1.57282 3.495,0.03806c1.76777,1.76777 0,3.53553 0,3.53553l-1.77748,1.18368c-4.74811,0.94651 -9.52931,1.59551 -14.26102,2.54836c0.01362,0.15982 0.02073,0.32646 0.02073,0.50019c0,4.25 -4.25,4.25 -4.25,4.25l0.33349,-0.08253c-6.46389,1.28948 -12.47562,2.92671 -18.83412,2.95887c-0.00722,0.72868 -0.07678,1.44244 -0.20361,2.13619c1.63889,0.96032 3.14357,2.16608 4.78544,3.81024c2.29599,2.29919 3.66153,6.16528 6.60321,7.78157c4.20703,2.31153 8.91371,3.70511 13.21625,5.84435l2.58704,1.29352c-0.03553,-0.72257 0.20489,-1.63358 1.39427,-2.22827c2.23607,-1.11803 3.3541,1.11803 3.3541,1.11803c0.55716,1.16737 0.82105,2.52745 1.67148,3.5021c2.05161,2.35125 5.13297,3.55005 7.69072,5.33761c3.68423,2.57483 7.30779,5.08357 10.90173,7.77833l1.76777,1.73223c0,0 1.76777,1.76777 0,3.53553c-1.76777,1.76777 -3.53553,0 -3.53553,0l-1.23223,-1.26777c-3.54975,-2.66298 -7.12488,-5.13658 -10.76654,-7.68042c-1.17649,-0.82182 -7.8476,-5.29099 -8.64101,-6.20364c-0.0357,-0.04107 -0.07071,-0.0826 -0.10507,-0.12458c-0.05471,0.13389 -0.11658,0.27033 -0.18606,0.4093c-1.90066,3.80132 -5.70197,1.90066 -5.70197,1.90066l-3,-1.5c-5.63986,-2.83803 -12.52784,-4.33848 -17.15112,-8.84342c-3.13614,-3.05586 -4.77415,-6.59163 -8.03503,-8.78108c-2.15517,1.76448 -4.91055,2.82318 -7.91319,2.82318c-0.41638,0 -0.82801,-0.02036 -1.23394,-0.06014c0.31764,1.53402 0.57911,3.1125 0.90468,4.74314c1.08409,5.42981 2.53758,10.85796 3.93463,16.21767c1.11093,4.26206 3.86263,7.58856 4.629,11.98406l0.26564,-0.63473c0,0 4.25,0 4.25,4.25c0,1.39881 -0.46039,2.33722 -1.07811,2.96678c1.04738,0.21998 2.10226,0.41368 3.17178,0.55696c3.48323,0.46662 6.86183,0.48659 10.33356,0.98256l2.32278,-0.00629c0,0 2.5,0 2.5,2.5c0,2.5 -2.5,2.5 -2.5,2.5l-2.67722,-0.00629c-3.58295,-0.51185 -7.06616,-0.53949 -10.66644,-1.01744c-4.10745,-0.54528 -7.99528,-1.83738 -12.06733,-2.51028c0,0 -2.46598,-0.411 -2.05499,-2.87698c0.26326,-1.57953 1.36962,-1.97871 2.13102,-2.06158c-2.04119,-3.33181 -4.09475,-6.86608 -5.58166,-10.37739c-1.58025,-3.73172 -2.2937,-8.23893 -3.21969,-12.17358c-0.67925,-2.88622 -1.452,-5.75215 -2.03443,-8.65946c-0.51882,-2.58982 -0.4893,-5.31514 -1.48501,-7.6957c-4.73757,7.60677 -9.9372,15.04821 -15.52557,22.03366l-1.31349,1.35025c0,0 -0.36804,0.36804 -0.97531,0.71772c-0.38155,0.49388 -0.76374,0.98716 -1.1734,1.45142c-2.9628,3.3577 -6.88127,6.38597 -10.08872,9.59342l-0.0317,0.35027c0,0 -1.11803,2.23607 -3.3541,1.11803c-2.23607,-1.11803 -1.11803,-3.3541 -1.11803,-3.3541l0.9683,-1.64973c2.91681,-2.91681 6.52501,-5.70644 9.31041,-8.73423c-2.22409,-2.82696 0.45216,-5.50321 0.45216,-5.50321l0.68651,-0.64975c4.92132,-6.15165 9.58678,-12.68208 13.81824,-19.37655c-0.47366,0.24277 -0.94638,0.48756 -1.41737,0.7365c-1.20266,0.63569 -2.27621,1.67843 -3.33516,2.71247c-0.15828,0.6696 -0.53274,1.37867 -1.24182,2.08774c-3.0052,3.0052 -6.01041,0 -6.01041,0l-0.00497,-0.76555c-2.07295,0.3899 -4.04393,0.76055 -6.06135,1.58154l-1.63791,0.55052c0,0 -2.37171,0.79057 -3.16228,-1.58114c-0.79057,-2.37171 1.58114,-3.16228 1.58114,-3.16228l1.36209,-0.44948c2.62985,-1.03705 5.15477,-1.48359 7.88534,-2.02066l-0.00686,-1.05815c2.25292,-1.67263 4.00859,-3.89526 6.46782,-5.305c2.72325,-1.56109 5.666,-2.80129 8.39557,-4.43935c0,0 1.76711,-1.06027 3.57862,-0.47367c0.0766,-0.29835 0.16395,-0.59239 0.26159,-0.88169c-2.09179,-0.65435 -4.17685,-1.32658 -6.29878,-1.90749c-1.08597,-0.2973 -2.26876,-0.20985 -3.32324,-0.60454c-3.88627,-1.45463 -7.87543,-4.62823 -11.37797,-6.83223l-2.05361,-2.60604c0,0 -1.66917,-2.22556 -0.50598,-4.42592c-7.62713,-5.57351 -14.38343,-12.24731 -19.23775,-20.33784l-0.59234,-1.16821c0,0 -1.11803,-2.23607 1.11803,-3.3541z" fill="#000000" stroke-width="0.5"/><path d="M350.79263,559.79831c0,6 -6,6 -6,6l-2.89737,-0.3079c-5.57284,-1.86695 -11.53029,-3.17781 -16.42151,-6.6936c-2.57663,-1.85207 -4.69142,-4.29178 -7.24685,-6.17299c-2.65518,-1.95464 -5.80098,-3.212 -8.34713,-5.30669c-9.45539,-7.77886 -17.68715,-17.87727 -25.27601,-27.40022c-2.66055,-3.33862 -5.64836,-6.44435 -7.95795,-10.03473c-1.37339,-2.13501 -1.72311,-4.80592 -3,-7c-1.01645,-1.74658 -2.70125,-3.02532 -3.81553,-4.71117c-1.65588,-2.50528 -2.97922,-5.21515 -4.46882,-7.82272c-2.88103,-7.65326 -7.38064,-15.23352 -9.39418,-23.17001c-1.01068,-3.98367 -1.28387,-8.12015 -2.04894,-12.15819c-2.32496,-12.27117 -6.9063,-24.1669 -8.10147,-36.68294c-0.02961,-0.3101 -0.02424,-15.36971 -0.02424,-17.53883c0,-7.80314 -0.55694,-15.81153 1.19015,-23.49855c0.43181,-1.89994 1.51729,-3.59358 2.13244,-5.44232c2.35375,-7.07385 4.54522,-13.13811 8.68511,-19.38733c0,0 3.3282,-4.9923 8.3205,-1.6641c4.9923,3.3282 1.6641,8.3205 1.6641,8.3205c-3.61556,5.38142 -5.27102,10.49327 -7.31489,16.61267c-0.52012,1.55726 -1.49164,2.95948 -1.86756,4.55768c-1.53161,6.51145 -0.80985,13.89911 -0.80985,20.50145c0,5.48706 -0.54293,10.99868 -0.02424,16.46117c1.14219,12.02879 5.67171,23.51717 7.89853,35.31706c0.7214,3.82266 0.96796,7.7376 1.89664,11.51526c1.77382,7.21552 6.06257,14.20157 8.66024,21.15653c1.17706,2.05909 2.20706,4.20953 3.53118,6.17728c1.25501,1.86506 3.04989,3.34816 4.18447,5.28883c1.28125,2.19154 1.63322,4.86076 3,7c2.00878,3.14409 4.69795,5.79753 7.03473,8.70613c7.06872,8.79843 14.61659,18.33343 23.40651,25.52981c2.4314,1.99061 5.44752,3.15894 7.97767,5.02243c2.39397,1.76319 4.36,4.06271 6.75315,5.82701c3.93372,2.90005 9.05799,3.80611 13.57849,5.3064l-0.89737,-0.3079c0,0 6,0 6,6z" fill="#7a19d0" stroke-width="0.5"/><path d="M485.24785,470.97745c5.82086,1.45521 4.36564,7.27607 4.36564,7.27607l-1.13483,4.46027c-1.23921,2.8161 -2.07104,5.84929 -3.71763,8.44829c-0.40917,0.64584 -7.16233,7.56566 -8.6723,8.1795c-1.64147,0.6673 -3.52589,0.37901 -5.2961,0.45672c-10.65913,0.46794 -18.75484,-3.32018 -28.25239,-7.43882c-4.66155,-2.02149 -9.6692,-3.16596 -14.34562,-5.15282c-5.20706,-2.21231 -9.66962,-5.87688 -14.46351,-8.88128c-13.32283,-8.34962 -25.90086,-17.64463 -38.23776,-27.38205c-11.56094,-9.14269 -21.55842,-19.4744 -31.95965,-29.91873c-9.67971,-9.71982 -19.78712,-19.49863 -27.66727,-30.801c-5.60433,-8.03821 -9.82769,-16.99417 -14.38081,-25.62606c-1.69298,-3.20958 -3.90077,-6.16801 -5.25,-9.53656c-3.22555,-8.05303 -4.72494,-17.24513 -7.19425,-25.55299c-0.56714,-1.90811 -1.76402,-3.62035 -2.14048,-5.57504c-0.83614,-4.34153 0.10502,-6.56854 1.07088,-10.58986c0,0 1.45521,-5.82086 7.27607,-4.36564c5.82086,1.45521 4.36564,7.27607 4.36564,7.27607c-0.27473,1.04009 -1.31844,3.98888 -0.92912,5.41014c0.4227,1.54309 1.39556,2.89378 1.85952,4.42496c2.40491,7.93677 3.72663,16.73768 6.80575,24.44701c1.19993,3.00433 3.23172,5.60675 4.75,8.46344c4.35136,8.18724 8.29798,16.73123 13.61919,24.37394c7.46824,10.72644 17.15244,19.98085 26.33273,29.199c10.05261,10.09407 19.69124,20.13746 30.87753,28.95273c11.99234,9.46985 24.21726,18.51781 37.17293,26.6315c4.41632,2.76579 8.47706,6.23312 13.28862,8.23371c4.45961,1.85425 9.2286,2.91357 13.65438,4.84718c3.51813,1.53706 6.81713,3.61699 10.46886,4.80219c3.16533,1.02734 6.52392,1.34671 9.82297,1.78372c1.14198,0.15127 2.30999,-0.14372 3.45578,-0.02473c0.2782,0.02889 0.43754,0.54206 0.7039,0.45672c0.22265,-0.07133 -0.1001,-0.52306 0.05346,-0.69936c0.99035,-1.13701 2.46081,-1.85152 3.27424,-3.12113c1.07939,-1.68473 1.52158,-3.70114 2.28237,-5.55171l0.86517,-3.53973c0,0 1.45521,-5.82086 7.27607,-4.36564z" fill="#7a19d0" stroke-width="0.5"/><path d="M615.79263,408.79831c0,6 -6,6 -6,6h-1c-6.09272,0 -12.27333,0.25243 -18.35113,-0.01028c-9.64461,-0.41689 -19.37019,-2.3732 -28.85438,-4.02235c-23.21152,-4.03612 -45.37259,-10.13186 -67.63355,-17.7977c-11.37463,-3.917 -23.04344,-7.31059 -34.29322,-11.56133c-7.15878,-2.70495 -14.06984,-6.02491 -21.10344,-9.04043c-10.46678,-3.92119 -21.14802,-7.62801 -31.37313,-12.16477c-5.01012,-2.22293 -9.49213,-5.48469 -14.2836,-8.14636c-14.22578,-7.90245 -28.08724,-15.31175 -40.86191,-25.57653c-9.81039,-7.8829 -15.52866,-16.99554 -21.50527,-27.793c-2.85736,-5.16216 -4.68061,-6.56481 -5.66289,-12.92616c-0.45585,-2.95216 -0.05165,-5.97406 -0.07748,-8.96109c0,0 0,-6 6,-6c6,0 6,6 6,6c-0.02583,2.3463 -0.3714,4.71094 -0.07748,7.03891c0.46289,3.66617 2.6084,5.97436 4.33711,9.07384c5.23351,9.38338 9.88807,17.35579 18.49473,24.207c12.28657,9.78056 25.50328,16.85075 39.13809,24.42347c4.60586,2.55808 8.89311,5.73384 13.7164,7.85364c9.99683,4.39354 20.41165,8.00097 30.62687,11.83523c6.96638,2.98451 13.80676,6.28143 20.89656,8.95957c11.13169,4.20495 22.68095,7.55621 33.9358,11.43188c21.65923,7.45848 43.19844,13.39295 65.78251,17.32127c9.03129,1.57092 18.31557,3.48326 27.50054,3.86546c5.84701,0.2433 11.78897,-0.01028 17.64887,-0.01028h1c0,0 6,0 6,6z" fill="#7a19d0" stroke-width="0.5"/><path d="M686.51295,393.79831c1.49241,-0.9875 4.50737,-2.2576 7.52233,0.75736c4.24264,4.24264 0,8.48528 0,8.48528l-5.24264,2.75736c-1,0 -2,0 -3,0c-5.76252,0 -11.77224,0.39841 -17.49488,-0.02044c-6.19855,-0.45369 -12.25772,-2.06476 -18.39492,-3.0459c-5.04608,-0.8067 -10.15351,-1.19837 -15.19512,-2.03256c-10.90096,-1.80367 -21.7689,-5.28314 -32.44533,-8.09952c-14.0451,-3.70502 -28.26839,-6.98581 -42.21241,-11.06023c-19.26389,-5.62887 -37.85965,-13.58114 -56.4129,-21.14193c-31.05521,-11.25713 -61.19561,-24.66806 -91.85927,-36.95193c-7.40895,-2.96803 -14.73063,-6.15317 -22.16482,-9.0574c-3.73856,-1.4605 -7.64954,-2.48533 -11.3103,-4.13114c-3.13009,-1.40723 -5.87141,-3.58943 -9,-5c-3.68033,-1.65932 -7.7085,-2.47382 -11.36623,-4.18238c-1.48586,-0.69406 -2.50569,-2.14627 -3.92845,-2.9619c-2.12224,-1.2166 -4.49196,-1.99009 -6.54356,-3.32237c0,0 -4.9923,-3.3282 -1.6641,-8.3205c3.3282,-4.9923 8.3205,-1.6641 8.3205,-1.6641c1.66421,1.15548 3.69607,1.67473 5.45644,2.67763c1.47135,0.83824 2.53677,2.32258 4.07155,3.0381c3.41337,1.59134 7.19824,2.27471 10.63377,3.81762c3.13065,1.40599 5.8709,3.59056 9,5c3.4551,1.55629 7.15905,2.49254 10.6897,3.86886c7.47072,2.91225 14.82462,6.11646 22.2679,9.09814c30.61429,12.26368 60.71061,25.63462 91.70801,36.89253c18.28139,7.44599 36.60311,15.32154 55.5871,20.85807c13.80519,4.02618 27.88435,7.27218 41.78759,10.93977c10.36755,2.7349 20.96719,6.16229 31.55467,7.90048c4.91258,0.80652 9.88876,1.18276 14.80488,1.96744c5.87602,0.9379 11.66994,2.52819 17.60508,2.9541c5.39984,0.38749 11.07148,-0.02044 16.50512,-0.02044c0.2401,0 0.48021,0 0.72031,0z" fill="#7a19d0" stroke-width="0.5"/><path d="M635.1592,262.11503c2.68328,5.36656 -2.68328,8.04984 -2.68328,8.04984l-4.68328,1.63344c-16.04308,0 -32.24289,0.65948 -48.27189,-0.00616c-7.41265,-0.30783 -14.77028,-1.42456 -22.1662,-2.00985c-6.05629,-0.47928 -12.14909,-0.44477 -18.19724,-1.01772c-10.45438,-0.99035 -20.97487,-3.31859 -31.32577,-5.04374c-17.26483,-2.72589 -34.21328,-6.5149 -51.37352,-9.78315c-18.52408,-3.528 -37.30951,-7.05457 -55.40943,-12.39844c-5.53171,-1.6332 -10.46805,-4.84651 -15.70498,-7.2635c-1.93337,-0.8923 -4.12231,-1.13938 -6.05812,-2.02636c-7.45046,-3.41378 -14.57124,-8.76442 -21.09286,-13.65108c0,0 -4.8,-3.6 -1.2,-8.4c3.6,-4.8 8.4,-1.2 8.4,-1.2c5.82191,4.37078 12.22932,9.34094 18.90714,12.34892c1.90289,0.85715 4.04695,1.09904 5.94188,1.97364c4.78274,2.20747 9.23387,5.27626 14.29502,6.7365c17.74043,5.11847 36.04085,8.63932 54.16669,12.09225c17.05307,3.24856 33.89403,7.01713 51.05036,9.72616c10.13137,1.68856 20.44094,3.99461 30.67423,4.95626c7.63128,0.71713 10.97906,0.44321 17.80276,0.98228c7.28541,0.57555 14.53193,1.68833 21.8338,1.99015c15.84821,0.65507 31.86589,-0.00616 47.72811,-0.00616l-0.68328,-0.36656c0,0 5.36656,-2.68328 8.04984,2.68328z" fill="#7a19d0" stroke-width="0.5"/><path d="M673.70566,362.65335c5.14496,-3.08697 8.23193,2.05798 8.23193,2.05798l3.63733,6.48537c0.09996,4.67781 1.22158,9.82686 -3.27403,13.46905c-1.5695,1.27156 -9.66355,1.26703 -11.80714,1.1251c-8.45832,-0.56005 -18.65802,-1.6315 -26.92371,-3.11843c-5.94196,-1.06891 -11.56399,-3.47767 -17.38136,-5.09248c-17.01385,-4.72279 -33.74248,-9.24967 -50.42123,-15.13375c-21.319,-7.52111 -41.74184,-17.55134 -62.59801,-26.25032c-25.3721,-11.53089 -50.5334,-23.48509 -75.92174,-34.96403c-4.6962,-2.12332 -9.09331,-4.88074 -13.82585,-6.92179c-11.27833,-4.8641 -24.27133,-9.26252 -36.36232,-11.55671c-2.76188,-0.52405 -5.95538,0.32848 -8.76178,0.02451c-2.17981,-0.2361 -4.32767,-0.70746 -6.49151,-1.06119c0,0 -5.91836,-0.98639 -4.93197,-6.90476c0.98639,-5.91836 6.90476,-4.93197 6.90476,-4.93197c4.91921,0.83838 9.93285,0.11658 14.74671,0.96332c2.99365,0.52657 5.92572,1.36525 8.85698,2.16958c10.2557,2.81411 21.01049,6.06567 30.7807,10.27372c4.85032,2.08904 9.36091,4.90509 14.17415,7.07821c25.29548,11.4206 50.35296,23.34073 75.62465,34.82978c20.60998,8.59328 40.78864,18.5271 61.8556,25.95587c20.17288,7.11349 40.69328,12.22786 61.1802,18.27769c9.52025,2.81135 20.15756,3.71032 30.0935,4.37765c0.80416,0.05401 1.62435,-0.05694 2.43727,-0.1222l-1.88111,-2.79828c0,0 -3.08697,-5.14496 2.05798,-8.23193z" fill="#7a19d0" stroke-width="0.5"/><path d="M569.03527,178.04095c-4.24264,4.24264 -8.48528,0 -8.48528,0l-0.91175,-1.13874c-4.51275,-1.06621 -8.90009,-2.80155 -13.29193,-4.28083c-5.33375,-0.89116 -10.44667,-0.82367 -15.77547,-1.94879c-5.35616,-1.13089 -10.56361,-2.91298 -15.93163,-3.98619c-4.27539,-0.85477 -8.64284,-1.18358 -12.92828,-1.9864c-4.84983,-0.90855 -9.58512,-2.62034 -14.50954,-2.93089c-5.60984,-0.35378 -11.24263,-0.41072 -16.83411,-0.98589c-3.93782,-0.40507 -8.00051,0.36192 -11.94749,0.0035c-10.23281,-0.92922 -20.05118,-3.77878 -30.0169,-6.15157c0,0 -1.04311,-0.24836 -2.1424,-0.97606c-1.60597,0.30979 -3.00506,-0.06103 -3.00506,-0.06103l-7.99287,-2.12722c-13.73683,-2.10552 -27.5383,-4.72046 -41.46995,-4.67252c0,0 -6,0 -6,-6c0,-6 6,-6 6,-6c14.78143,0.04073 29.34361,2.67052 43.92386,4.92611l8.61333,2.27415c0,0 0.96033,0.25453 1.99587,0.94722c1.53514,-0.29896 2.85667,0.01569 2.85667,0.01569c9.25652,2.20393 18.47542,4.98293 27.9831,5.84843c3.98196,0.36249 8.06933,-0.38433 12.05251,0.0035c2.34593,0.22842 4.64708,0.861 7,1c3.38274,0.19984 6.78551,-0.22227 10.16589,0.01411c5.25104,0.36718 10.31692,2.0982 15.49046,3.06911c4.33299,0.81316 8.74875,1.14871 13.07172,2.0136c1.65776,0.33166 14.17745,3.60178 16.06837,4.01381c5.36793,1.16965 10.7842,1.14613 16.22453,2.05121c5.59462,1.84807 11.1876,3.65961 16.70807,5.71917l3.08825,2.86126c0,0 4.24264,4.24264 0,8.48528z" fill="#7a19d0" stroke-width="0.5"/><path d="M695.54999,261.04095c-0.14079,-0.14079 -0.27224,-0.28158 -0.39481,-0.42222c-0.35186,-0.12281 -0.69501,-0.26742 -1.02549,-0.44373c-2.00085,-1.06746 -3.35889,-3.12184 -5.35795,-4.19265c-2.91521,-1.56156 -6.16499,-2.39628 -9.23556,-3.6245c-3.95096,-1.58038 -14.1832,-5.92356 -16.77278,-6.9131c-5.28699,-2.02028 -10.93579,-2.99273 -16.22205,-5.01494c-3.742,-1.43147 -7.19737,-3.53862 -10.91362,-5.03567c-11.16329,-4.497 -23.45041,-7.29729 -34.99271,-10.7154c-18.05374,-5.3464 -36.07761,-10.50446 -54.34303,-15.07111c-11.05429,-2.9472 -22.13963,-5.94635 -33.43267,-7.88234c-11.02761,-1.89049 -22.43347,-2.03553 -33.56482,-2.94768c-9.73453,-0.79769 -19.41076,-1.48007 -29.20298,-0.98673c-10.92224,0.55027 -21.43112,3.00745 -32.29888,3.00745c0,0 -6,0 -6,-6c0,-6 6,-6 6,-6c10.61635,0 20.99596,-2.46125 31.70112,-2.99255c10.32582,-0.51248 20.53027,0.17417 30.79702,1.01327c11.43139,0.93428 23.10911,1.12057 34.43518,3.05232c11.67622,1.99148 23.13979,5.06967 34.56733,8.11766c18.40151,4.60008 36.56116,9.79752 54.74912,15.18365c11.86782,3.5145 24.4282,6.42478 35.91513,11.02984c3.70677,1.48602 7.14904,3.59074 10.8774,5.02173c5.20609,1.99815 10.7754,2.94372 15.98693,4.92766c0.95523,0.36364 13.96519,5.75485 17.22722,7.0869c3.5858,1.46426 7.34375,2.55867 10.76444,4.3755c1.76741,0.93872 2.9161,2.7944 4.64205,3.80735c0.81847,0.48036 1.86152,0.37056 2.79228,0.55583l1.78743,11.0635c0,0 -4.24264,4.24264 -8.48528,0z" fill="#7a19d0" stroke-width="0.5"/><path d="M617.2755,127.23514c-2.43683,5.48287 -7.9197,3.04604 -7.9197,3.04604l-8.79829,-3.91472c-6.4073,-2.3151 -13.15369,-3.55699 -19.76017,-5.22062c-7.49534,-1.88746 -14.72739,-4.76516 -22.26385,-6.48113c-8.96023,-2.04015 -18.31095,-2.87491 -27.37476,-4.44873c-13.23285,-2.29771 -26.2949,-5.9513 -39.73914,-6.72336c-11.91028,-0.70322 -23.69213,-0.69431 -35.62696,-0.69431c-11.92165,0 -23.99335,-0.63877 -35.74866,1.86806c-9.95278,2.12244 -19.60933,6.78118 -28.95524,10.67521c-3.09444,1.28932 -6.41778,2.07439 -9.35655,3.68731c-1.78719,0.98089 -3.13231,2.74837 -5.04218,3.46151c-1.48858,0.55584 -3.20932,-0.13469 -4.76272,0.19964c-3.81966,0.82207 -7.18001,3.08383 -10.77113,4.62313c0,0 -5.51487,2.36352 -7.87839,-3.15135c-2.36352,-5.51487 3.15135,-7.87839 3.15135,-7.87839c1.47392,-0.63158 11.20191,-4.91345 13.22887,-5.37687c1.05395,-0.24096 2.22582,0.5815 3.23728,0.19964c1.21552,-0.4589 1.82555,-1.90127 2.95782,-2.53849c0.56527,-0.31812 9.6399,-3.89454 10.64345,-4.31269c10.04202,-4.18427 20.35811,-9.02537 31.04476,-11.32479c12.58778,-2.70847 25.47911,-2.13194 38.25134,-2.13194c12.17135,0 24.1843,0.00306 36.33162,0.71502c13.9203,0.83623 27.38552,4.50262 41.08648,6.8794c9.22036,1.5995 18.72379,2.46657 27.84102,4.53919c7.67401,1.74453 15.04294,4.65657 22.67485,6.57693c3.9243,0.98744 8.00068,1.30773 11.90879,2.35742c3.21169,0.86263 6.26156,2.2426 9.39234,3.3639l9.20171,4.08528c0,0 5.48287,2.43683 3.04604,7.9197z" fill="#7a19d0" stroke-width="0.5"/><path d="M657.69,125.49041c-5.6921,1.89737 -7.58947,-3.79473 -7.58947,-3.79473l0.15938,-0.96616c-4.94858,-1.76912 -7.98584,-6.06732 -12.58921,-8.80739c-6.25556,-3.7235 -12.95581,-6.64959 -19.54328,-9.74826c-4.38316,-2.06179 -8.37044,-4.91506 -12.78877,-6.90035c-7.02783,-3.15781 -14.5494,-5.08569 -21.72727,-7.88575c-3.35497,-1.30876 -6.53045,-3.08864 -9.96258,-4.17913c-3.74586,-1.19017 -7.69108,-1.63856 -11.49234,-2.63773c-9.25883,-2.43371 -17.66961,-6.51702 -27.27434,-7.91641c-9.26711,-1.3502 -19.2837,-1.77942 -28.60666,-2.87852c-9.78507,-0.53883 -19.47334,-1.11042 -29.28315,-0.98099c-5.01066,0.06611 -9.99194,0.82538 -15,1c-9.94587,0.34679 -19.71914,0.27764 -29.66955,0.97986c-5.41389,0.38207 -10.74257,1.64177 -16.1573,2.01187c-3.33922,0.22824 -6.69864,-0.17355 -10.04102,0.00241c-10.6868,0.5626 -21.3714,1.56077 -32.08245,2.004c-13.36253,0.55295 -26.86847,0.00518 -40.24935,0.00518c0,0 -6,0 -6,-6c0,-6 6,-6 6,-6c13.21359,0 26.5558,0.55691 39.75065,0.00518c10.65694,-0.4456 21.2848,-1.43652 31.91755,-1.996c3.31507,-0.17443 6.64686,0.22604 9.95898,0.00241c5.31023,-0.35853 10.53394,-1.60848 15.8427,-1.98813c10.17053,-0.72733 20.16541,-0.66821 30.33045,-1.02014c5.0081,-0.17339 9.98937,-0.93163 15,-1c10.29174,-0.14043 20.45203,0.44402 30.71685,1.01901c9.49892,1.11527 19.88801,1.55609 29.32265,2.9622c10.17513,1.51646 18.99241,5.67241 28.79635,8.24287c3.93656,1.03212 8.01549,1.52346 11.89305,2.7589c3.66332,1.16718 7.06901,3.02991 10.65203,4.42424c0.90168,0.35089 21.70329,7.85843 22.27273,8.11425c4.5603,2.04871 8.68543,4.97582 13.21123,7.09965c6.90478,3.24023 13.92437,6.3143 20.45672,10.25174c5.73364,3.45601 9.69716,7.85362 15.41079,11.19261l2.15938,5.03384c0,0 1.89737,5.6921 -3.79473,7.58947z" fill="#7a19d0" stroke-width="0.5"/><path d="M662.1592,87.48159c-2.68328,5.36656 -8.04984,2.68328 -8.04984,2.68328l-3.55936,-2.12392c-2.83356,-2.90851 -6.19564,-3.98819 -9.44983,-6.51341c-1.59541,-1.23803 -2.8727,-2.83898 -4.30906,-4.25846c-1.33979,-1.09558 -2.52693,-2.41039 -4.01936,-3.28673c-1.64197,-0.96415 -3.70029,-1.11497 -5.28206,-2.17499c-1.76365,-1.18191 -2.93297,-3.08551 -4.5753,-4.43093c-2.01238,-1.64856 -4.16582,-3.12514 -6.35802,-4.52574c-4.45922,-2.84899 -9.21335,-5.20821 -13.78695,-7.8697c-4.78701,-2.78568 -10.65281,-6.55129 -15.44556,-8.71412c-3.52376,-1.59018 -7.33899,-2.45665 -10.902,-3.95681c-5.87949,-2.47548 -11.41874,-5.79898 -17.47524,-7.80279c-6.43959,-2.13056 -13.20129,-3.13472 -19.74406,-4.92349c-10.48203,-2.86575 -20.91314,-5.11832 -31.83525,-5.80056c-12.44079,-0.7771 -24.84748,0.26602 -37.14933,2c-8.1038,-0.00625 -15.47631,1.60728 -23.43894,2.93346c-6.3914,1.06449 -13.06586,1.99197 -19.27671,3.8329c-6.15313,1.82381 -13.08688,5.51351 -18.28439,9.17493c-2.79584,1.96955 -5.30567,4.34911 -8.2168,6.14387c-1.94565,1.19953 -3.82902,2.53304 -5.9124,3.47321c-1.25272,0.56532 -2.73845,0.45466 -4,1c-3.96172,1.71256 -7.39426,5.06343 -10.9679,7.44902c0,0 -4.9923,3.3282 -8.3205,-1.6641c-3.3282,-4.9923 1.6641,-8.3205 1.6641,-8.3205c4.31918,-2.87526 8.26108,-6.38462 13.0321,-8.55098c1.25141,-0.56822 2.7402,-0.45064 4,-1c1.46831,-0.64029 2.73634,-1.66656 4.0876,-2.52679c2.73885,-1.74358 5.11847,-4.00124 7.7832,-5.85613c6.27104,-4.36521 14.35427,-8.59595 21.71561,-10.82507c6.66307,-2.01768 13.85977,-3.0224 20.72329,-4.1671c8.30739,-1.38552 16.0985,-3.06014 24.56106,-3.06654c15.38783,-2.23017 30.74675,-2.88846 46.18098,-0.96732c2.77182,0.34502 13.36939,1.3531 16.53426,2.09252c3.48909,0.81518 6.84344,2.13119 10.30017,3.07424c6.71537,1.83205 13.65064,2.88044 20.25594,5.07651c6.4076,2.13034 12.3015,5.57678 18.52476,8.19721c3.62863,1.5279 7.51274,2.41613 11.098,4.04319c5.69045,2.58243 11.13172,6.13032 16.55444,9.28588c0.41957,0.24416 13.99107,7.98682 14.21305,8.1303c2.63163,1.70092 5.21561,3.49151 7.64198,5.47426c1.27673,1.04331 2.05014,2.6585 3.4247,3.56907c1.40574,0.93123 3.27915,0.94571 4.71794,1.82501c2.16579,1.32359 3.98709,3.14218 5.98064,4.71327c4.38399,4.44408 9.81,6.87205 14.24111,11.22813l0.44064,-0.12392c0,0 5.36656,2.68328 2.68328,8.04984z" fill="#7a19d0" stroke-width="0.5"/><path d="M313.25681,443.99827c1.77617,0.4214 4.53583,1.73089 4.53583,5.80004c0,6 -6,6 -6,6l-5.24264,-1.75736c-1.7934,-1.81608 -4.08395,-3.08914 -5.88993,-4.89271c-4.97142,-4.96481 -9.03286,-11.03722 -14,-16c-1.19307,-1.19202 -2.85355,-1.84619 -4.04329,-3.04154c-3.65439,-3.67163 -6.92893,-7.7431 -9.84557,-12.0243c-3.55933,-5.22455 -3.40752,-9.79052 -3.94937,-15.69287c-0.48735,-5.3086 -3.11867,-10.40014 -3.95172,-15.63013c-0.11007,-0.69101 -0.07748,-8.87043 -0.07748,-8.96109c0,0 0,-6 6,-6c6,0 6,6 6,6c0,2.34644 -0.49125,4.72923 -0.07748,7.03891c0.98286,5.48632 3.44809,10.75929 4.04828,16.36987c0.42472,3.9703 -0.44964,6.86549 2.05063,10.30713c2.52428,3.47469 5.10937,6.94699 8.15443,9.9757c1.1676,1.16134 2.79272,1.7935 3.95671,2.95846c4.96726,4.97138 9.03751,11.03014 14,16c1.31847,1.32043 2.87073,2.38499 4.3316,3.54989z" fill="#4b0f7f" stroke-width="0.5"/><path d="M336.5687,332.37093c-0.10851,-0.04678 -0.21762,-0.09175 -0.3273,-0.13505c0.55123,1.3408 0.55123,2.56243 0.55123,2.56243c0,3.46961 -0.18127,6.9425 -0.0292,10.40877c0.04434,1.01072 -0.07952,2.13585 0.44211,3.0027c1.11537,1.85356 2.94193,3.17751 4.2933,4.86675c5.5456,6.93209 6.21634,9.1751 12.55297,15.49574c0.36157,0.36065 0.72977,0.71421 1.10306,1.06234c0.16651,-0.37697 0.3794,-0.76542 0.64546,-1.1645c3.3282,-4.9923 8.3205,-1.6641 8.3205,-1.6641c3.43574,2.32519 7.51854,5.24227 9.7757,8.83792c0.66387,1.05754 0.68101,2.42598 1.28599,3.51828c2.9115,5.25683 7.16578,9.7011 10,15c0.84595,1.5816 1.03539,3.44321 1.63839,5.1313c1.33786,0.96035 2.67291,1.92445 3.92464,2.99101c1.7447,1.4866 3.07876,3.42009 4.85101,4.87374c6.85643,5.62387 15.20072,10.23929 22.59023,15.05209c3.16741,2.06294 6.09581,4.51828 9.43205,6.29528c7.0026,3.72984 14.55512,6.33563 21.667,9.85263c14.67965,7.28355 30.06709,12.46153 46.50678,12.44005h3c0,0 2.99022,0 4.74875,2.11095c4.6526,0.59193 9.30109,1.22317 13.92398,2.03568c9.07598,1.60198 18.19148,2.55746 27.33512,3.11622c-0.31301,-1.27426 -0.17485,-2.829 0.99985,-4.59105c0.14918,-0.22377 0.3017,-0.43082 0.45696,-0.6222c-0.84536,-0.784 -1.687,-1.56426 -2.52681,-2.34069c-2.51387,-0.49144 -4.8311,-0.994 -5.52617,-1.14894c-14.36628,-3.20246 -27.41914,-8.04867 -40.8556,-14.08026c-6.75626,-3.03287 -13.66624,-5.64857 -20.11399,-9.31658c-11.56126,-6.60651 -23.38956,-12.99274 -34.64983,-20.09258c-15.64853,-9.86675 -30.82309,-20.69429 -46.11795,-31.07657c-2.04874,-1.3907 -4.13734,-2.71509 -6.24524,-4.0076c-0.14256,0.00083 -0.28557,0.0053 -0.42906,0.01363c0,0 -4.30408,0 -5.62144,-3.64539c-5.0843,-3.02036 -10.16735,-6.04571 -14.96832,-9.54695c-6.25913,-4.56463 -11.62363,-10.3584 -17.88461,-14.91596c-1.71695,-1.24982 -3.84903,-1.91517 -5.4286,-3.33464c-1.40129,-1.25926 -2.68339,-2.63751 -3.92498,-4.05676c-1.74794,-1.07749 -3.51487,-2.11671 -5.39597,-2.92767zM324.97178,323.3431c1.45521,-5.82086 7.27607,-4.36564 7.27607,-4.36564c1.04895,0.26894 2.11685,0.482 3.1833,0.69935c0.03885,-0.04037 0.07846,-0.08075 0.11884,-0.12113c4.24264,-4.24264 8.48528,0 8.48528,0c2.01564,2.01902 3.78745,4.27596 5.64161,6.44975c0.83294,0.50236 1.6689,0.9985 2.51484,1.4742c6.95472,3.91084 13.91303,7.81563 20.89992,11.66871c5.22327,2.8805 10.56037,5.70915 15.81627,8.66489c3.98997,1.66827 8.02022,3.24551 12.09041,4.97465c-4.60945,-2.64945 -9.27251,-5.20811 -14.01636,-7.6058c-3.64527,-1.84244 -7.54682,-3.16829 -11.11947,-5.14789c-3.12979,-1.73421 -5.81251,-4.19988 -8.92769,-5.96018c-2.05096,-1.15894 -4.33713,-1.84054 -6.50569,-2.76081c0,0 -5.51487,-2.36352 -3.15135,-7.87839c2.36352,-5.51487 7.87839,-3.15135 7.87839,-3.15135c2.4981,1.07973 5.11993,1.90929 7.49431,3.23919c3.16965,1.77533 5.89519,4.27789 9.07231,6.03982c3.42426,1.89899 7.17675,3.1437 10.67155,4.90951c6.25565,3.16078 12.37639,6.59056 18.41878,10.14207c8.78353,5.16266 17.22957,10.90884 26.04065,16.0239c11.55913,6.71037 23.55515,12.69756 35.05774,19.4855c3.66529,2.16297 7.23264,4.49642 10.78704,6.8524c2.77024,0.70233 5.55125,1.35968 8.34584,1.95451c7.81372,1.66314 15.81818,2.316 23.64041,3.93862c1.09982,0.22814 22.06036,5.52291 23.37097,5.81381c10.59639,2.35196 21.34543,4.16735 31.99939,6.24987c21.50758,5.05856 43.32998,9.60565 64.45998,16.11823c10.07799,3.10619 19.92636,6.98751 30.0297,10.00899c11.47527,3.43176 23.13877,6.23541 34.62885,9.61785c14.92739,4.39431 29.5153,9.46684 44.67421,13.02858l5.31899,1.25153c0,0 5.8405,1.37424 4.46627,7.21474c-1.37424,5.8405 -7.21474,4.46627 -7.21474,4.46627l-5.31899,-1.25153c-15.37471,-3.62254 -30.17343,-8.74079 -45.31451,-13.19801c-11.52868,-3.3938 -23.23111,-6.20715 -34.74444,-9.65251c-10.08351,-3.01748 -19.91282,-6.88778 -29.9703,-9.99101c-20.82405,-6.42527 -42.34281,-10.89213 -63.54002,-15.88177c-10.67977,-2.08476 -21.45311,-3.90878 -32.07463,-6.26631c-7.6916,-1.70722 -15.22337,-4.10265 -22.93364,-5.72157c2.09119,1.11876 4.18144,2.23921 6.2632,3.37477c6.90696,3.93902 13.68273,8.1173 20.71906,11.82028c8.508,4.47747 17.41892,8.19509 25.98293,12.56618c12.43819,6.34848 24.65194,13.59171 37.62623,18.82793c9.65172,3.89529 19.23906,7.32388 29.4632,9.33141c2.67211,0.52467 5.45525,0.88356 8.1926,0.78909c0.81203,-1.35059 2.29935,-2.58746 5.02355,-2.58746c6,0 6,6 6,6l-4.8233,7.88348c-12.59731,2.33826 -25.18115,-1.75795 -36.99081,-6.10496c-17.38384,-6.39881 -33.40314,-15.00477 -49.88031,-23.41755c-0.47224,-0.24111 -0.94551,-0.48026 -1.41971,-0.71767c0.07389,0.41419 0.11413,0.86532 0.11413,1.35669c0,1.48361 -0.36685,2.60037 -0.91913,3.44099c3.12543,2.85882 6.26427,5.73023 8.81716,9.09358l0.03449,0.17708l0.05978,-0.03985l1.54033,2.3105c1.06376,0.00727 2.12778,0.01209 3.19202,0.01483c1.49391,-0.98709 4.50595,-2.25181 7.51799,0.76023c4.24264,4.24264 0,8.48528 0,8.48528l-5.24264,2.75736c-19.58107,0 -39.06848,-0.64369 -58.40634,-4.03484c-11.84998,-2.08651 -23.86844,-2.97497 -35.69538,-5.06717c-12.16703,-2.15237 -24.35296,-6.077 -36.3535,-9.07713c-11.52004,-2.88001 -23.41791,-5.61871 -34.90499,-9.2541c0.63521,2.16639 1.2844,4.32823 2.02615,6.45915c1.35835,3.90232 3.27607,7.6367 4.18981,11.66638c0.29185,1.28707 0.47071,2.59219 0.59398,3.90622c1.75089,1.10137 3.53637,2.14129 5.36294,3.10606c0.51037,-0.47517 4.47017,-3.907 8.42997,0.0528c1.67945,1.67945 2.02928,3.3589 1.83898,4.77518c2.08276,0.93565 4.15841,1.88599 6.19484,2.91609c0.28225,0.14277 0.5832,0.28646 0.87108,0.44861c0.26598,-0.62474 0.72181,-1.30021 0.92994,-1.85833l-0.07748,-3.03891c0,0 0,-6 6,-6c6,0 6,6 6,6l-0.07748,4.96109c-1.75646,5.61911 -2.68454,12.03998 -10.30115,13.00664c-1.90853,0.24222 -12.3871,-4.20353 -14.39345,-5.14921c-1.89277,-0.89214 -3.75244,-1.81524 -5.58257,-2.77044c-1.20704,0.04382 -2.44034,-0.07265 -3.64536,-0.0481c-0.04186,0.00085 -0.08366,0.00164 -0.12543,0.00237c0.65873,5.87919 1.38728,11.74671 2.11383,17.6248c-0.02196,2.77797 0.44705,5.60362 -0.06588,8.33392c-0.42032,2.2373 -1.0702,4.67186 -2.67988,6.28155c-5.22872,5.22872 -13.15516,2.05988 -18.79463,0.55316c-2.90787,-0.77691 -5.82941,-1.50168 -8.74411,-2.25253l-5.79087,-3.39832c0,0 -5.14496,-3.08697 -2.05798,-8.23193c3.08697,-5.14496 8.23193,-2.05798 8.23193,-2.05798l4.20913,2.60168c2.41863,0.58249 4.85173,1.10785 7.25589,1.74747c2.10933,0.56119 4.16279,1.324 6.28022,1.8538c0.03356,0.0084 0.07751,0.01207 0.12889,0.01259c-0.14617,-1.27354 0.06358,-3.57242 0.05049,-4.69776c-0.84003,-6.63886 -1.68389,-13.26491 -2.39426,-19.91338c-4.74605,-1.2326 -9.32004,-3.03259 -14.51526,-4.76753c-3.89308,-1.30009 -8.03896,-1.8355 -11.83699,-3.39154c-3.87415,-1.58722 -7.33228,-4.04516 -11.04372,-5.98256c-14.85736,-7.75569 -30.33927,-15.83588 -43.15257,-26.78509c-2.18917,-1.87069 -3.99255,-4.15592 -6.11482,-6.10219c-1.98694,-1.82216 -4.33338,-3.24814 -6.20106,-5.19235c-8.31792,-8.65875 -14.9465,-19.12777 -22.43812,-28.49002c0,0 -3.74817,-4.68521 0.93704,-8.43338c4.68521,-3.74817 8.43338,0.93704 8.43338,0.93704c7.19707,8.99849 13.55276,19.20751 21.56188,27.50998c1.74325,1.80711 3.94763,3.11141 5.79894,4.80765c2.04772,1.8762 3.7795,4.0869 5.88518,5.89781c12.06172,10.37326 26.84662,17.86849 40.84743,25.21491c3.37673,1.77182 6.49553,4.068 10.02577,5.50989c3.55579,1.45232 7.4496,1.90163 11.09351,3.11601c0.00208,0.00069 0.00416,0.00139 0.00624,0.00208c-0.48168,-0.39324 -0.96237,-0.78985 -1.44219,-1.18986c-3.08381,-2.57092 -5.99067,-5.34829 -9.0536,-7.94406c-3.07297,-2.60428 -6.23425,-5.10252 -9.35138,-7.65378c-18.02522,-16.72416 -33.97042,-34.84202 -49.69694,-53.71603c-4.52375,-5.42913 -9.4216,-10.59525 -13.34762,-16.47114c-5.04794,-7.55503 -10.30559,-15.52663 -14.38336,-23.66076c-1.13768,-2.26939 -1.86579,-4.72887 -3,-7c-4.94656,-9.90496 -11.73203,-18.39445 -14.44993,-29.21932c0,0 -1.45521,-5.82086 4.36564,-7.27607c5.82086,-1.45521 7.27607,4.36564 7.27607,4.36564c2.45149,9.85348 9.03218,17.75527 13.55007,26.78068c1.13634,2.27006 1.86724,4.72815 3,7c3.83443,7.69031 8.866,15.19607 13.61664,22.33924c3.68215,5.53656 8.34011,10.35888 12.59711,15.46668c15.3151,18.37597 30.82096,36.04755 48.35833,52.34614c5.74626,4.69983 11.35465,9.83801 17.13619,14.76042c-1.66198,-4.87888 -2.85647,-9.91326 -4.56884,-14.77493c-11.2033,-4.66133 -21.6248,-11.84005 -30.53637,-20.01431c-3.19142,-2.92738 -6.39941,-5.89131 -9.07787,-9.29433c-0.93673,-1.19012 -1.0588,-2.83801 -1.58819,-4.25702c0,0 -1.89737,-5.6921 3.79473,-7.58947c5.6921,-1.89737 7.58947,3.79473 7.58947,3.79473c0.85748,3.62934 4.54048,5.97802 7.33393,8.44865c4.00164,3.53919 8.21558,6.92659 12.66903,9.94807c-2.48917,-4.02738 -5.01003,-8.02869 -7.19654,-12.14779c-1.01883,-0.74746 -2.0198,-1.51662 -2.96616,-2.35249c-6.84666,-6.04731 -13.02964,-13.39155 -19.67929,-19.66096c-2.95891,-2.78971 -6.24068,-5.23255 -9.11225,-8.11208c-6.2995,-6.31698 -8.1275,-9.6286 -13.44703,-16.50426c-1.8633,-2.40838 -4.31445,-4.42515 -5.7067,-7.13325c-2.79872,-5.44387 -1.58709,-12.73126 -1.58709,-18.58852c0,0 0,-3.40114 2.56072,-5.08199c-1.52974,-0.98342 -3.24935,-2.9021 -2.38157,-6.37322zM522.62089,432.60537c-3.31146,-2.1115 -6.61685,-4.18648 -9.93265,-6.22373c-0.57535,0.88249 -1.27796,1.45866 -2.01058,1.82575c4.00767,1.54256 8.01305,3.00063 11.94323,4.39798zM550.57535,438.54155c-1.46688,-0.68746 -2.93583,-1.37102 -4.40336,-2.05728c0.95013,0.85491 1.89745,1.71487 2.84419,2.57992zM401.98677,426.18321c0.47946,0.90965 0.94681,1.82463 1.39299,2.74869c2.22305,0.83 4.47101,1.61241 6.73748,2.35583c-2.65698,-1.69576 -5.39673,-3.38254 -8.13047,-5.10452z" fill="#4b0f7f" stroke-width="0.5"/><path d="M627.79263,403.79831c0,6 -6,6 -6,6l-4.42533,-0.01509c-20.43653,-2.88472 -39.97644,-9.51352 -58.98729,-17.49134c-5.54832,-2.32833 -10.71954,-5.47211 -16.14809,-8.06745c-5.90453,-2.8229 -11.96167,-5.31483 -17.94214,-7.97307c-15.64439,-7.40958 -31.23028,-14.95368 -47.01627,-22.05714c-6.51754,-2.9328 -12.85826,-6.30141 -19.56552,-8.76969c-3.66073,-1.34715 -12.07835,-3.31966 -16.21146,-5.08293c-5.05513,-2.15663 -9.83569,-4.93692 -14.93962,-6.97537c-5.85433,-2.33815 -12.67303,-4.49155 -18.32071,-7.13977c-6.68754,-3.13581 -13.03511,-6.98782 -19.81571,-9.91697c-6.06919,-2.62183 -11.19542,-3.73899 -16.32033,-7.78193c-2.04241,-1.61122 -3.70011,-3.65773 -5.55017,-5.48659c0,0 -4.24264,-4.24264 0,-8.48528c4.24264,-4.24264 8.48528,0 8.48528,0c1.48328,1.50447 2.81236,3.17841 4.44983,4.51341c3.35348,2.73403 10.72263,4.94008 13.67967,6.21807c6.90372,2.98369 13.37855,6.88216 20.18429,10.08303c4.63863,2.18164 12.74477,4.88355 17.67929,6.86023c5.14213,2.05985 9.97289,4.83329 15.06038,7.02463c5.06251,2.18058 10.6169,3.00969 15.78854,4.91707c1.11672,0.41186 20.22014,9.03385 20.3206,9.07906c15.81306,7.11611 31.42695,14.67023 47.09761,22.09411c6.01953,2.67508 12.11456,5.1865 18.05786,8.02693c5.33109,2.54784 10.40095,5.65239 15.85191,7.93255c17.71829,7.41164 35.9789,13.75121 55.01271,16.50866l3.57467,-0.01509c0,0 6,0 6,6z" fill="#4b0f7f" stroke-width="0.5"/><path d="M620.79263,316.79831c-4.01458,0 -5.34302,-2.68614 -5.7826,-4.46385c-19.89325,-3.74103 -39.7592,-7.56049 -59.5932,-11.69602c-10.88739,-2.86208 -21.85861,-5.46282 -32.7942,-8.19172c1.18272,0.53121 2.37018,1.05304 3.56326,1.56375c7.07579,3.06939 13.88842,7.57758 20.50092,11.98274c13.15475,2.58354 26.34558,5.04629 39.42215,7.95127c8.37077,1.85958 16.04935,3.88622 24.68367,3.85383l5.24264,2.75736c0,0 4.24264,4.24264 0,8.48528c-3.0645,3.0645 -6.129,1.70196 -7.59465,0.70893c-8.59583,-0.32437 -16.49207,-2.21442 -24.96431,-4.09774c-3.96596,-0.88161 -7.94256,-1.72218 -11.92555,-2.5376c4.09298,3.00489 8.47633,5.67203 12.17309,9.15105c6.79234,6.39229 10.81304,10.92807 17.10974,17.74614c5.37546,5.82056 11.82595,12.5021 11.95463,21.01684c0.02441,1.61505 -0.86899,3.1114 -1.30348,4.66711l-6.6921,4.10263c0,0 -6,0 -6,-6c0,-2.08458 0.72425,-3.44492 1.66949,-4.33263c-0.43021,-2.56366 -3.02293,-5.14062 -4.43581,-7.02289c-3.54982,-4.72915 -7.97573,-8.73393 -12.07171,-12.99879c-10.92217,-11.3725 -24.06926,-20.59781 -37.31237,-29.10953c-1.49785,-0.96271 -3.02601,-1.98158 -4.57808,-3.02539c-3.3688,-0.66544 -6.73468,-1.34085 -10.09507,-2.03578c-7.67369,-1.93648 -15.51468,-3.14008 -23.29675,-4.5805c-7.1077,-1.3156 -14.03595,-3.47007 -21.09644,-5.01915c-10.50341,-2.30447 -21.18439,-3.3603 -31.79625,-4.96146c-13.87927,-2.09416 -27.64049,-6.20686 -41.57823,-7.94307c-2.39517,-0.29836 -4.85143,0.31163 -7.24098,-0.02879c-2.40245,-0.34226 -4.60631,-1.60105 -7,-2c-1.64399,-0.274 -3.35631,0.27578 -5,0c-5.85582,-0.98249 -11.52156,-2.89692 -17.34449,-4.05852c0,0 -5.88348,-1.1767 -4.70679,-7.06018c1.1767,-5.88348 7.06018,-4.70679 7.06018,-4.70679c5.59386,1.12151 11.02684,3.01027 16.65551,3.94148c1.64432,0.27203 3.35601,-0.274 5,0c2.39369,0.39895 4.59782,1.65585 7,2c2.23025,0.31952 4.52372,-0.31089 6.75902,-0.02879c14.22363,1.79506 28.25681,5.93674 42.42177,8.05693c10.75086,1.60917 21.56362,2.70936 32.20375,5.03854c5.43297,1.1893 10.78449,2.75152 16.20302,3.99853c-10.73322,-5.30682 -21.3139,-10.91283 -32.43046,-15.47014c-4.77143,-1.95608 -10.01271,-2.49075 -14.94915,-3.98217c-4.80956,-1.45308 -9.09735,-4.31672 -13.84875,-5.94997c-5.99428,-2.06048 -12.442,-2.44448 -18.61309,-3.89179c-5.98633,-1.40398 -11.79219,-3.50924 -17.7701,-4.94869c-8.77811,-2.11372 -18.4423,-2.11084 -27.38896,-2.90862c-5.72337,-0.51035 -11.41359,-1.34155 -17.12032,-2.01293c0,0 -5.9589,-0.70105 -5.25786,-6.65995c0.70105,-5.9589 6.65995,-5.25786 6.65995,-5.25786c5.62661,0.66195 11.23655,1.48508 16.87968,1.98707c9.10613,0.81006 18.7831,0.90166 27.76743,2.89778c0.02524,-0.07833 0.05144,-0.15512 0.07856,-0.23041c-5.60589,-2.32707 -11.21939,-4.39584 -16.5137,-7.55059c0,0 -5.14496,-3.08697 -2.05798,-8.23193c3.08697,-5.14496 8.23193,-2.05798 8.23193,-2.05798c9.35995,5.66166 20.40034,9.15879 30.3264,13.85957c3.15554,1.4944 6.31971,3.05072 9.51232,4.54847c7.53483,1.28221 15.07971,2.52056 22.60296,3.84203c-1.36609,-0.4757 -2.73954,-0.92747 -4.13025,-1.32282c-7.30155,-2.07569 -10.12295,-1.70095 -17.31388,-4.09626c-3.2167,-1.07149 -10.73595,-4.82571 -14.09446,-6.0327c-2.50658,-0.90082 -5.23943,-1.16491 -7.65858,-2.27941c-1.76675,-0.81394 -3.10272,-2.35139 -4.72453,-3.42546c-2.55106,-1.68948 -5.19129,-3.24031 -7.78694,-4.86046c0,0 -4.4766,-2.79787 -2.40734,-7.34387c-6.03665,-1.16361 -12.01869,-2.46629 -17.86788,-3.92327c0,0 -5.82086,-1.45521 -4.36564,-7.27607c1.45521,-5.82086 7.27607,-4.36564 7.27607,-4.36564c6.79674,1.70603 13.73274,2.64987 20.61902,3.9178c9.23857,1.70105 18.19316,3.51278 27.52604,4.64357c4.07869,0.49418 8.21775,0.51924 12.26366,1.23376c4.0508,0.71539 7.95511,2.10139 11.95912,3.04409c10.25838,2.41522 20.69057,4.19949 30.80869,7.20777c16.3801,4.87007 32.20537,10.59352 47.89273,17.33079c12.07451,6.03405 24.26691,11.88614 36.23977,18.11776c4.55271,2.36959 9.4194,4.26859 13.54564,7.32085c3.27145,2.41995 6.22853,5.25221 9.54207,7.6142c5.42857,3.86964 11.77981,6.42772 16.89448,10.70367c1.45775,1.21871 2.79267,2.57084 4.10375,3.94953c5.14192,1.24499 10.3379,2.21702 15.49137,2.73113c4.97564,0.49637 10.2547,0.1362 15.33979,0.03187c1.47843,-0.99081 4.51985,-2.31 7.56127,0.73142c4.24264,4.24264 0,8.48528 0,8.48528l-0.01796,0.00945c4.77346,0.83447 9.52886,1.75534 14.23053,2.92706l-0.45521,-0.17914c0,0 6,0 6,6c0,6 -6,6 -6,6l-2.45521,-0.17914c-10.581,-2.65442 -21.46638,-3.95632 -32.18362,-5.95617c-3.28153,-0.61234 -6.56237,-1.22431 -9.8425,-1.83697l-2.51867,2.97228c0,0 -1.95501,0 -3.63312,-1.11596c-0.41698,0.07505 -0.87148,0.11596 -1.36688,0.11596zM561.84248,272.53144c-8.85864,-4.42898 -17.7168,-8.85887 -26.57433,-13.29006c-15.11268,-6.46171 -30.3394,-11.97062 -46.10727,-16.66921c-9.94653,-2.96392 -20.21514,-4.69397 -30.2994,-7.07583c-3.78244,-0.8934 -7.46413,-2.23089 -11.29147,-2.90654c-3.83223,-0.67652 -7.75551,-0.67087 -11.61887,-1.13789c-4.5795,-0.5536 -9.20705,-1.17294 -13.84767,-1.86484c0.74852,0.67826 1.4463,1.43028 2.3577,1.83733c1.99984,0.89317 4.27726,0.98821 6.34142,1.72059c4.75361,1.6866 9.12081,4.37112 13.90554,5.9673c3.97982,1.32766 13.00152,2.85631 16.68612,3.90374c5.09489,1.44833 9.9613,3.64457 15.07592,5.02157c3.8807,1.04479 7.84857,1.76545 11.69607,2.92654c9.63546,2.90776 19.05255,6.94248 28.5842,10.16259c8.36058,2.82448 16.71943,5.6441 25.07025,8.48903c9.81316,2.08719 19.55899,4.43649 29.19621,7.20398c-3.16071,-1.47034 -6.32312,-2.86274 -9.17442,-4.28828zM558.16844,288.95818c2.15228,0.44801 4.30493,0.89232 6.45794,1.33325c-2.72507,-1.00378 -5.44154,-1.99054 -8.1496,-2.94606c-2.64044,-0.91841 -5.28217,-1.83196 -7.92499,-2.74164c-8.66336,-1.8362 -17.44047,-3.27541 -26.23565,-4.48839c11.93844,2.98443 23.95837,5.70943 35.8523,8.84284z" fill="#4b0f7f" stroke-width="0.5"/><path d="M609.85294,253.64684c-0.84853,-5.9397 5.09117,-6.78823 5.09117,-6.78823l6.47001,-0.8998c0.96015,-0.04377 1.9299,0.01101 2.88045,-0.13132c0.16668,-0.02496 -0.33977,-0.1043 -0.44884,-0.23279c-0.44835,-0.52812 -0.79105,-1.13756 -1.19332,-1.70156c-1.46063,-2.04789 -2.82551,-4.16872 -4.38323,-6.14321c-13.87512,0.79405 -27.57852,-1.33359 -41.44567,-3.31487c-9.6181,-1.3742 -19.43921,-2.24111 -29.03347,-3.72111c-7.66494,-1.18239 -15.28974,-3.30497 -22.8109,-5.18436c-25.41827,-6.35574 -51.07896,-11.72297 -76.54682,-17.88752c-14.69888,-3.5579 -29.84948,-5.86329 -44.38372,-10.10283c-10.1595,-2.96345 -20.10232,-6.70818 -30.15333,-10.04883c0,0 -5.6921,-1.89737 -3.79473,-7.58947c1.89737,-5.6921 7.58947,-3.79473 7.58947,-3.79473c9.94678,3.32417 19.78948,7.00955 29.84667,9.95117c14.27248,4.17454 29.17775,6.4056 43.61628,9.89717c25.53232,6.17431 51.25467,11.56401 76.7366,17.93333c7.2236,1.8068 14.54369,3.86678 21.90568,4.99479c9.49937,1.4555 19.20511,2.31315 28.72531,3.673c9.3795,1.33975 18.76569,2.86942 28.17576,3.31148c-1.11855,-0.99869 -2.24693,-1.98505 -3.37663,-2.96506c-10.75285,-8.61583 -22.18112,-15.50751 -34.04492,-22.5278c-3.29955,-1.95248 -6.44038,-4.20019 -9.89338,-5.86632c-3.53985,-1.70803 -7.37492,-2.72561 -11.01014,-4.21995c-4.78374,-1.96646 -9.1362,-4.87334 -13.87471,-6.94643c-5.59408,-2.4474 -11.55055,-3.97024 -17.38143,-5.78256c-22.31626,-6.93619 -45.99983,-8.92381 -69.06668,-11.80705c0,0 -5.95367,-0.74421 -5.20946,-6.69788c0.74421,-5.95367 6.69788,-5.20946 6.69788,-5.20946c23.71273,2.96421 47.98832,5.08592 70.93332,12.19295c6.25013,1.93593 12.61964,3.60502 18.61857,6.21744c4.82516,2.10126 9.2563,5.05599 14.12529,7.05357c3.76507,1.54468 7.72743,2.62177 11.39015,4.39555c3.74952,1.81581 7.18326,4.22197 10.77236,6.33726c12.44616,7.33532 24.34678,14.63245 35.6299,23.64581c4.28648,3.73518 8.50442,7.48612 12.36115,11.56596c0.81263,-0.11051 1.62551,-0.23465 2.43865,-0.37324l1.98639,-0.08164c0,0 6,0 6,6c0,2.45465 -1.00422,3.90509 -2.19099,4.76213c0.45673,0.70168 0.90078,1.41569 1.33122,2.14303c2.96172,5.00457 5.13432,10.43552 0.35784,16.06565c-2.13621,2.51799 -6.0797,2.57912 -9.11955,3.86868l-7.52999,1.1002c0,0 -5.9397,0.84853 -6.78823,-5.09117z" fill="#4b0f7f" stroke-width="0.5"/><path d="M628.07881,162.81837c-5.02006,3.28618 -8.30624,-1.73389 -8.30624,-1.73389l-0.97724,-1.49286c-2.06602,-3.17645 -3.8023,-6.5936 -6.19806,-9.52935c-0.95305,-1.16787 -2.98637,-3.17467 -5.3302,-5.38449l-2.37181,-0.18738c-5.12008,-1.7472 -10.60468,-2.28384 -15.99379,-2.75865c-13.00416,-2.71983 -25.99544,-5.64234 -39.06993,-8.01093c-3.84092,-0.69582 -7.72474,-1.21122 -11.62519,-1.64775c3.05423,0.55334 6.09435,1.1817 9.11311,1.92275c12.18935,2.99225 25.50148,9.91882 35.30298,17.52624c3.04682,2.36479 5.57922,5.32669 8.36883,7.99004c6.98428,6.99486 10.53917,9.94552 16.25991,18.28371c2.1795,3.1767 3.83378,6.68348 5.75067,10.02522l1.15735,2.29398c0,0 2.68328,5.36656 -2.68328,8.04984c-5.36656,2.68328 -8.04984,-2.68328 -8.04984,-2.68328l-0.84265,-1.70602c-1.75222,-3.07798 -3.26084,-6.30802 -5.25665,-9.23393c-0.20686,-0.30326 -0.41141,-0.59919 -0.61393,-0.88831c0.05193,0.35506 0.0798,0.73608 0.0798,1.14498c0,6 -6,6 -6,6l-3.10674,-0.38202c-8.60394,-3.22648 -17.36111,-6.12228 -25.93981,-9.39092c-12.14368,-4.62696 -24.01933,-9.97824 -36.15503,-14.64557c-18.09154,-7.31338 -36.68589,-13.29925 -54.8942,-20.37331c-8.6213,-3.34944 -16.99448,-7.53164 -25.64278,-10.80151c-8.77051,-3.31607 -18.29649,-6.7021 -27.17794,-9.72099c-3.39407,-1.15368 -6.96709,-1.77665 -10.29538,-3.10827c-3.57763,-1.43138 -6.86546,-3.50379 -10.34884,-5.1513c-7.71197,-3.64748 -14.66254,-6.71286 -21.76748,-11.43381c0,0 -4.9923,-3.3282 -1.6641,-8.3205c3.3282,-4.9923 8.3205,-1.6641 8.3205,-1.6641c10.61409,7.10209 22.19317,12.10652 34.05873,16.48272c9.9221,1.72373 19.84691,3.84988 29.79445,5.60186c-3.11961,-1.06729 -6.1299,-2.47904 -9.28577,-3.44155c-8.11175,-2.47402 -13.69212,-3.24512 -21.96892,-4.74751c0,0 -5.90322,-1.07331 -4.82991,-6.97653c1.07331,-5.90322 6.97653,-4.82991 6.97653,-4.82991c9.00237,1.6394 14.42063,2.37498 23.3145,5.07334c3.76654,1.14275 7.30867,2.97527 11.10571,4.01217c6.67585,1.82305 13.55045,2.8586 20.39439,3.88377c3.28113,0.49149 6.61684,0.5386 9.90421,0.98646c12.05787,1.64271 23.96535,4.43714 36.03267,6.00444c11.32113,1.47039 22.89485,1.99527 34.1363,4.02051c11.22471,2.02222 22.39262,4.45185 33.55039,6.84166c-7.029,-3.69726 -14.11898,-7.16486 -21.55907,-10.27933c-9.60075,-4.01893 -20.80551,-4.99655 -30.88249,-7.17423c-13.98478,-3.02217 -27.51807,-6.59643 -41.7288,-8.50186c-5.3592,-0.71858 -10.81689,-0.4132 -16.18875,-1.03008c-14.54415,-1.67018 -29.26471,-4.80491 -43.50153,-8.08728c0,0 -5.84635,-1.34916 -4.49719,-7.1955c1.34916,-5.84635 7.1955,-4.49719 7.1955,-4.49719c13.79749,3.18708 28.07464,6.24021 42.17192,7.85829c4.12806,0.47382 8.30635,0.40509 12.45214,0.67309c-4.85509,-1.29756 -9.70803,-2.60713 -14.48639,-4.1982c-10.69863,-3.56621 -21.3838,-7.52311 -32.19373,-10.73475c-7.55267,-2.2439 -15.26891,-3.89766 -22.87218,-5.96361c-0.97533,-0.26502 -20.87639,-5.95644 -20.90118,-5.96202c-1.46304,-0.3289 -2.93452,-0.61504 -4.41071,-0.87755c-5.24746,0.07787 -10.49371,0.71184 -15.73621,1.03949c-5.2093,0.32558 -10.45044,0.31006 -15.62862,0.96526c0,0 -5.95367,0.74421 -6.69788,-5.20946c-0.16335,-1.30679 -0.00401,-2.3626 0.34422,-3.21465c-3.48483,-0.54621 -6.97468,-1.08348 -10.47215,-1.62747c-3.81219,-0.59293 -7.57404,-1.54233 -11.41329,-1.92254c-4.93165,-0.48839 -9.99176,-0.02941 -14.82459,-1.12644c-7.97639,-1.81061 -15.82536,-4.57776 -23.5779,-7.16102c0,0 -5.6921,-1.89737 -3.79473,-7.58947c1.89737,-5.6921 7.58947,-3.79473 7.58947,-3.79473c7.38304,2.46192 14.84028,5.05495 22.4221,6.83898c4.28443,1.00814 8.79574,0.43624 13.17541,0.87356c16.00067,1.59771 32.21435,4.91409 47.99052,7.98728c3.85266,0.7505 7.74618,1.29032 11.61683,1.94413c1.04902,-0.00487 2.09807,0.01107 3.14712,0.05332c5.2008,0.20949 10.41144,0.55783 15.62505,0.90645c-0.054,-3.34228 3.21174,-5.15658 3.21174,-5.15658c2.86105,-1.58896 12.06305,-6.88993 15.83218,-8.38237c3.14501,-1.24531 6.31487,-1.2898 9.54167,-2.17169c3.85618,-1.0539 7.62893,-2.50834 11.57891,-3.12353c9.969,-1.5526 19.77213,-2.06704 29.52507,-1.80313c-1.49314,-0.47827 -15.44512,-5.02777 -18.29707,-5.3193c-3.40459,-0.34802 -6.84457,0.04495 -10.2669,0.04495c-3.85798,0 -7.81473,-0.16439 -11.54479,0.82086c0,0 -5.82086,1.45521 -7.27607,-4.36564c-1.45521,-5.82086 4.36564,-7.27607 4.36564,-7.27607c8.02048,-1.92641 18.04582,-2.01216 26.18831,-1.13419c3.03345,0.32709 5.95439,1.34754 8.89001,2.17876c9.22454,2.61192 18.48447,5.78127 27.62667,8.66837c4.95408,1.56449 15.18186,4.74959 19.25718,6.29071c4.96281,1.87674 9.66915,4.39684 14.65219,6.21917c3.28537,1.20148 6.5826,2.36453 9.88834,3.50045c3.80561,0.94085 7.55549,2.00009 11.18356,3.24335c2.50527,0.8585 4.95671,1.85805 7.38992,2.90593c5.41169,1.74766 10.82934,3.47934 16.2385,5.24372c7.51204,2.45031 14.76527,5.70842 22.38622,7.7955c3.76181,1.03021 7.66556,1.44544 11.49834,2.16816c2.53983,1.07536 5.07966,2.15071 7.61948,3.22607l2.31977,1.14831c0,0 5.36656,2.68328 2.68328,8.04984c-2.68328,5.36656 -8.04984,2.68328 -8.04984,2.68328l-1.68023,-0.85169c-2.12684,-0.92464 -4.25368,-1.84929 -6.38052,-2.77393c-3.7222,-0.69086 -7.51623,-1.06914 -11.1666,-2.07257c-7.38631,-2.03038 -14.44649,-5.09999 -21.70502,-7.55083c-0.83396,0.53179 -1.93382,0.88246 -3.38435,0.88246c-2.68694,0 -4.17061,-1.20328 -4.98985,-2.53212c-3.15223,-1.30891 -6.25542,-2.74359 -9.38914,-4.09752c-6.05938,-1.95758 -12.11105,-3.93606 -18.13492,-6.00267c-7.31192,-1.7826 -14.84234,-3.10202 -22.04774,-4.50205c-21.97494,-4.26978 -43.19051,-6.32301 -65.47725,-2.94313c-3.56286,0.54032 -6.94398,1.93009 -10.42109,2.87647c-2.78331,0.75755 -5.78513,0.74449 -8.45833,1.82831c-1.13512,0.46022 -3.68301,1.80423 -6.31436,3.24029c1.81142,0.06522 3.6223,0.1124 5.43235,0.13572c12.06304,0.15544 23.9659,0.37085 36.01084,0.85648c5.433,0.21905 10.91545,-0.5071 16.31142,0.16294c18.02628,2.23837 35.72884,5.41853 52.97625,11.15673c6.33304,2.66311 12.99742,4.53466 19.21051,7.46674c2.31651,1.09321 4.2766,2.82065 6.4149,4.23097l8.79027,4.87787c0,0 5.24494,2.91386 2.33109,8.1588c-2.91386,5.24494 -8.1588,2.33109 -8.1588,2.33109l-9.20973,-5.12213c-7.34768,-4.95848 -15.46696,-7.28427 -23.60619,-10.71282c-16.19838,-5.41082 -32.8748,-8.24482 -49.79215,-10.43273c-5.20666,-0.67338 -10.50375,0.08312 -15.74957,-0.12713c-7.6557,-0.30685 -15.25177,-0.50097 -22.86891,-0.64484c9.8648,3.05733 19.63814,6.63608 29.42197,9.89736c9.40498,3.13854 19.10334,5.16158 28.53456,8.17883c7.34994,2.3514 14.30241,5.91095 21.75135,7.9269c3.54897,0.96048 7.28425,1.08211 10.85394,1.96243c4.27143,1.05338 17.69166,5.56266 22.24644,7.06567l7.78736,1.94267c0,0 5.82086,1.45521 4.36564,7.27607c-0.02906,0.11624 -0.05986,0.22957 -0.09232,0.34008c10.23993,4.55286 19.96195,9.74611 29.77037,15.33053c4.27303,3.8248 14.93238,13.06607 18.59727,17.54424c2.66684,3.25865 4.6311,7.03394 6.94665,10.5509l0.97724,1.49286c0,0 3.28618,5.02006 -1.73389,8.30624zM582.594,168.0845c-10.50789,-10.1402 -23.84661,-18.98675 -38.32819,-22.48371c-14.29794,-3.45262 -29.09034,-4.38802 -43.55486,-6.90079c-10.11374,-1.75696 -20.14054,-4.33663 -30.32009,-5.76468c1.54416,0.64855 3.09356,1.28043 4.6514,1.88558c18.22815,7.08086 36.84147,13.07133 54.95196,20.39592c12.08322,4.64764 23.9072,9.97969 35.99881,14.5852c8.23032,3.13481 16.62375,5.92719 24.88895,8.99855c0.31889,0.01241 1.44533,0.09298 2.63058,0.61608c-3.29239,-4.02008 -6.4353,-6.85615 -10.91857,-11.33215z" fill="#4b0f7f" stroke-width="0.5"/><path d="M231.69,474.10621c5.6921,1.89737 3.79473,7.58947 3.79473,7.58947l-3.15938,8.03384c-2.70246,1.35123 -5.40493,2.70246 -8.10739,4.05369c-2.51384,-0.87316 -5.54593,-0.85896 -7.54152,-2.61947c-1.95852,-1.7278 -2.33901,-4.67187 -3.41898,-7.04984c-3.3763,-7.43424 -6.01437,-15.30576 -7.38736,-23.3545c-1.47775,-8.66287 -1.07392,-11.92126 -1.07748,-20.96109c-0.00042,-1.06173 -0.00338,-2.12335 -0.00732,-3.18481c-1.29389,3.53678 -2.55471,7.1183 -3.0285,10.83951c-0.2559,2.00991 0.20497,4.06361 -0.00913,6.0784c-0.15419,1.45098 -0.93873,3.07631 -0.26295,4.36953c0.18403,0.5521 0.36807,1.1042 0.5521,1.6563c0.09178,0.09282 4.19389,4.28827 -0.00156,8.48371c-4.24264,4.24264 -8.48528,0 -8.48528,0l-2.44946,-3.34527c-0.33333,-1 -0.66667,-2 -1,-3c-0.43449,-1.5557 -1.2594,-3.05247 -1.30348,-4.66711c-0.04614,-1.68979 0.88107,-3.28048 1.04053,-4.96336c0.1862,-1.96507 -0.28005,-3.96641 -0.00913,-5.9216c0.47396,-3.4204 1.29722,-6.79175 2.23142,-10.11606c2.43106,-8.65081 6.37941,-17.10412 10.42262,-25.02253c1.32057,-2.58628 1.65553,-5.57224 2.68282,-8.28839c0.49429,-1.30691 1.07133,-2.6117 1.70723,-3.9013c0.00734,-0.03958 0.0147,-0.07916 0.02209,-0.11874c2.26496,-12.13013 7.35231,-25.0435 4.07713,-37.44307c0,0 -1.45521,-5.82086 4.36564,-7.27607c5.82086,-1.45521 7.27607,4.36564 7.27607,4.36564c1.43649,5.98072 1.48391,11.82288 0.85489,17.61993c1.44794,1.23268 2.01635,2.93791 2.01635,2.93791c0.43449,1.5557 1.293,3.0519 1.30348,4.66711c0.04907,7.56175 -5.26973,13.36926 -8.50619,19.67208c-1.95041,12.0966 -1.48445,24.34471 -1.48939,36.55818c-0.0041,10.11425 0.0936,20.1162 3.22558,29.89464c0.98739,3.08276 2.68088,5.89358 3.9407,8.87616l0.14162,-0.66817c0,0 1.89737,-5.6921 7.58947,-3.79473z" fill="#4b0f7f" stroke-width="0.5"/><path d="M405.79263,531.79831c6,0 6,6 6,6v1c-0.10263,2.96579 0.76062,6.12885 -0.3079,8.89737c-5.77579,14.96501 -22.56919,5.40819 -31.68177,0.30474c-2.9539,-1.65432 -5.55593,-3.87049 -8.3339,-5.80573c-31.70732,-22.21567 -57.99121,-50.76497 -82.35986,-80.64597c-5.60605,-6.87417 -10.94211,-14.05284 -16.16798,-21.21998c-2.73907,-3.75656 -5.09607,-7.92199 -7.88304,-11.67251c0.1917,2.47709 0.41772,4.95787 0.69393,7.44599c0.43213,3.89258 0.82592,7.80237 1.54588,11.65098c0.84659,-0.57214 1.97924,-0.95488 3.49464,-0.95488c6,0 6,6 6,6l-0.07748,4.96109c-2.18134,3.62613 -2.73231,9.04045 -6.54401,10.8784c-2.64941,1.27751 -5.58567,-2.10743 -7.91124,-3.90828c-3.46286,-2.68153 -5.37815,-8.72652 -6.30677,-12.55269c-3.61678,-14.90217 -3.3611,-30.90646 -4.15306,-46.07964c-0.46481,-8.90529 -1.41103,-10.1706 -1.99827,-18.96708c-0.22635,-3.39054 -0.20468,-6.82739 -0.89267,-10.15511c0,0 -1.1767,-5.88348 4.70679,-7.06018c5.88348,-1.1767 7.06018,4.70679 7.06018,4.70679c0.75774,3.89245 0.84391,7.88814 1.10733,11.84489c0.42376,6.36521 1.66377,12.66258 2.00173,19.03292c0.10221,1.92655 0.19533,3.84853 0.28672,5.76762c0.81134,0.34923 1.32073,0.73127 1.32073,0.73127c7.47211,5.74936 11.75488,13.73049 17.25141,21.26958c5.1169,7.01838 10.34103,14.05047 15.83202,20.78002c23.64598,28.97957 49.0977,56.78443 79.87544,78.31661c2.47693,1.7439 4.7918,3.7444 7.4308,5.23169c4.49672,2.53426 9.66203,3.68726 14.29813,5.95074c-0.09072,-1.58318 -0.19229,-3.16573 -0.2878,-4.74864v-1c0,0 0,-6 6,-6z" fill="#4b0f7f" stroke-width="0.5"/><path d="M543.79263,6.79831c0,6 -6,6 -6,6l-4.37852,-0.16051c-2.85721,-1.36879 -5.71443,-2.73758 -8.57164,-4.10637c-3.38673,-1.7055 -6.612,-3.77899 -10.1602,-5.11651c-3.47638,-1.31044 -7.1973,-1.84635 -10.79276,-2.78185c-10.26371,-2.67051 -19.55053,-4.12854 -30.16345,-4.83514c-8.04804,-0.53583 -17.90225,1.38038 -25.78145,2.88874c-6.83743,1.30893 -13.65289,2.82088 -20.31976,4.82503c-6.15103,1.84908 -11.82213,5.03648 -17.83877,7.28465c-3.64184,1.3608 -7.48538,2.18415 -11.04449,3.74859c-3.56338,1.56631 -6.79447,3.80193 -10.24242,5.60823c-9.34078,4.89342 -19.64896,8.02984 -28.10654,14.44513c0,0 -4.8,3.6 -8.4,-1.2c-3.6,-4.8 1.2,-8.4 1.2,-8.4c9.13931,-6.79218 19.87272,-10.31706 29.89346,-15.55487c16.67823,-8.71766 34.64194,-15.8817 52.99049,-20.26141c12.00727,-2.86608 25.338,-6.1213 37.78262,-5.38335c11.56168,0.68559 21.88788,2.30176 33.05936,5.22299c3.99695,1.04516 8.11846,1.7032 11.98442,3.16002c3.93779,1.48389 7.53737,3.74441 11.30605,5.61662c1.98737,1.0535 3.97474,2.107 5.96211,3.16051l1.62148,-0.16051c0,0 6,0 6,6z" fill="#4b0f7f" stroke-width="0.5"/></g></g></svg>