<svg version="1.1" xmlns="http://www.w3.org/2000/svg" xmlns:xlink="http://www.w3.org/1999/xlink" width="608.5" height="434.5" viewBox="0,0,608.5,434.5"><g transform="translate(54.25,34.91667)"><g data-paper-data="{&quot;isPaintingLayer&quot;:true}" fill-rule="nonzero" stroke-linecap="butt" stroke-linejoin="miter" stroke-miterlimit="10" stroke-dasharray="" stroke-dashoffset="0" style="mix-blend-mode: normal"><path d="M-54,399.33333v-434h608v434z" fill="#000000" stroke="#000000" stroke-width="0.5"/><g fill="#ff0000" stroke="none" stroke-width="0"><path d="M247.00001,180c0,21.53911 -2.91015,39 -6.5,39c-3.58985,0 -6.5,-17.46089 -6.5,-39c0,-21.53911 2.91015,-39 6.5,-39c3.58985,0 6.5,17.46089 6.5,39z"/><path d="M240.10893,187.99909c-21.53608,0.36094 -39.04329,-2.2562 -39.10345,-5.84555c-0.06016,-3.58935 17.34952,-6.79169 38.8856,-7.15263c21.53608,-0.36094 39.04329,2.2562 39.10345,5.84555c0.06016,3.58935 -17.34952,6.79169 -38.8856,7.15263z"/></g></g></g></svg>