<svg version="1.1" xmlns="http://www.w3.org/2000/svg" xmlns:xlink="http://www.w3.org/1999/xlink" width="608.5" height="434.5" viewBox="0,0,608.5,434.5"><g transform="translate(64.25,37.25)"><g data-paper-data="{&quot;isPaintingLayer&quot;:true}" fill-rule="nonzero" stroke-linejoin="miter" stroke-miterlimit="10" stroke-dasharray="" stroke-dashoffset="0" style="mix-blend-mode: normal"><path d="M-64,397v-434h608v434z" fill="#000000" stroke="#5a00ff" stroke-width="0.5" stroke-linecap="butt"/><path d="M284.5,218.3125c0,42.52593 -19.47562,77 -43.5,77c-24.02438,0 -43.5,-34.47407 -43.5,-77c0,-42.52592 19.47562,-77 43.5,-77c24.02438,0 43.5,34.47408 43.5,77z" fill="#9700ff" stroke="#6700ff" stroke-width="5.5" stroke-linecap="butt"/><path d="M283.5,144.3125c0,42.52593 -19.47562,77 -43.5,77c-24.02438,0 -43.5,-34.47407 -43.5,-77c0,-42.52592 19.47562,-77 43.5,-77c24.02438,0 43.5,34.47408 43.5,77z" fill="#a400ff" stroke="#5a00ff" stroke-width="5.5" stroke-linecap="butt"/><path d="M241.90551,223.47645c-56.58367,1.39927 -103.30693,-16.93147 -104.35931,-40.94284c-1.05238,-24.01138 43.96462,-44.61078 100.5483,-46.01005c56.58368,-1.39927 103.30693,16.93147 104.35931,40.94284c1.05238,24.01138 -43.96462,44.61078 -100.5483,46.01005z" fill="#9700ff" stroke="#6600ff" stroke-width="5.5" stroke-linecap="butt"/><path d="M292.83334,224.77084l-103.66667,-90.33334" fill="none" stroke="#5a00ff" stroke-width="5.5" stroke-linecap="round"/><path d="M290.83333,132.77084l-100.33333,93.33333" fill="none" stroke="#5a00ff" stroke-width="5.5" stroke-linecap="round"/><path d="M239.5,69.4375l0.66666,63.33334" fill="none" stroke="#5a00ff" stroke-width="5.5" stroke-linecap="round"/><path d="M237.66667,180.60417l-99.5,2.5" fill="none" stroke="#5a00ff" stroke-width="5.5" stroke-linecap="round"/><path d="M242,180.4375l99.83333,-1.66666" fill="none" stroke="#5a00ff" stroke-width="5.5" stroke-linecap="round"/><path d="M239.16667,224.10417l0.66667,67.33334" fill="none" stroke="#5a00ff" stroke-width="5.5" stroke-linecap="round"/><path d="M310.5,180c0,38.93608 -31.56392,70.5 -70.5,70.5c-38.93608,0 -70.5,-31.56392 -70.5,-70.5c0,-38.93608 31.56392,-70.5 70.5,-70.5c38.93608,0 70.5,31.56392 70.5,70.5z" fill="none" stroke="#5a00ff" stroke-width="5.5" stroke-linecap="butt"/><path d="M261.34754,185.66194c0,-0.13807 0.11193,-0.25 0.25,-0.25c0.13807,0 0.25,0.11193 0.25,0.25c0,0.13807 -0.11193,0.25 -0.25,0.25c-0.13807,0 -0.25,-0.11193 -0.25,-0.25z" fill="#9966ff" stroke="none" stroke-width="0.5" stroke-linecap="butt"/></g></g></svg>