<svg version="1.1" xmlns="http://www.w3.org/2000/svg" xmlns:xlink="http://www.w3.org/1999/xlink" width="355.73892" height="355.73892" viewBox="0,0,355.73892,355.73892"><g transform="translate(-70.53852,-2.57307)"><g data-paper-data="{&quot;isPaintingLayer&quot;:true}" fill-rule="nonzero" stroke-linecap="butt" stroke-linejoin="miter" stroke-miterlimit="10" stroke-dasharray="" stroke-dashoffset="0" style="mix-blend-mode: normal"><path d="M403,180c0,88.14694 -72.97758,159.60417 -163,159.60417c-90.02242,0 -163,-71.45723 -163,-159.60417c0,-88.14694 72.97758,-159.60417 163,-159.60417c90.02242,0 163,71.45723 163,159.60417z" fill="#4b0f7f" stroke="none" stroke-width="0"/><path d="M131.33333,180c0,-60.01493 48.65173,-108.66667 108.66667,-108.66667c60.01493,0 108.66667,48.65173 108.66667,108.66667c0,60.01493 -48.65173,108.66667 -108.66667,108.66667c-60.01493,0 -108.66667,-48.65173 -108.66667,-108.66667z" fill="#7a19d0" stroke="none" stroke-width="0"/><path d="M198.04694,210.19003c0.38281,-0.49364 0.76808,-0.98465 1.15712,-1.47176c0.77026,-0.96444 1.11018,-2.39341 2.19503,-2.9821c0.29551,-0.16036 0.59418,-0.31382 0.89562,-0.46127c7.40167,-10.42071 14.59363,-20.8947 21.52085,-31.68427c-0.60141,-1.30619 -1.10131,-2.64107 -1.32367,-4.05442c-0.14546,-0.92453 0.29493,-1.79999 0.8327,-2.63973c-0.65037,-1.36718 -1.21656,-2.76223 -1.55266,-4.23346c-0.27665,-1.21099 0.89738,-2.31815 1.27772,-3.50068c0.5249,-1.63204 1.19687,-2.99119 1.96003,-4.24939c1.24594,-3.59067 2.65138,-7.12515 3.67325,-10.8003c1.18952,-4.27812 1.61942,-9.79668 4.55443,-13.40566c2.91024,-3.57853 7.40747,-3.32311 10.70732,-6.02787c2.41849,-1.98235 4.03397,-5.3587 5.95551,-7.76584c4.32078,-5.41271 7.72617,-10.85892 12.67009,-15.86255c2.98397,0.64304 6.50964,0.09805 8.95192,1.92913c0.09108,0.06829 0.17761,0.14014 0.25991,0.2153c0.8799,-0.66512 1.76399,-1.32361 2.6485,-1.97775c0.56025,-0.52439 1.1089,-1.05007 1.63324,-1.58146c1.6652,-1.6876 3.00435,-3.93625 5.34198,-4.88941c1.17091,-0.47744 2.37849,-0.84909 3.59998,-1.18057c1.44789,-0.94372 2.78304,-1.87656 3.99674,-3.35552l9.76449,-2.39148c-0.01355,0.39101 -0.02008,0.78283 -0.02195,1.17519c2.99116,-2.88624 6.1124,-5.63855 9.38934,-8.08471c0,0 4.64757,-3.38564 8.03321,1.26194c2.25812,3.0998 0.94267,5.63822 -0.18394,6.98517c1.00567,3.48642 -2.21043,5.92918 -2.21043,5.92918c-2.54853,1.91723 -4.62949,4.39144 -7.0499,6.46808c-4.47408,3.83863 -9.61567,6.96564 -13.77245,11.1462c-0.03796,0.03818 -0.07585,0.07641 -0.11369,0.11471l0.05903,4.13398c-4.66807,9.56864 -11.3875,17.53825 -18.34444,25.4407c-5.24752,11.03965 -10.87015,21.69724 -17.05075,32.11331c0.09807,0.8953 0.11971,1.79184 0.01452,2.69043c-0.18675,1.59531 -2.1704,2.37527 -3.13282,3.6612c-1.75956,2.35102 -3.53349,4.6929 -5.21245,7.10214c-0.34184,0.49053 -0.68378,0.98069 -1.02584,1.47049c-1.05242,1.59005 -2.1205,3.17589 -3.20492,4.75804c-2.46705,3.59939 -4.97702,7.18302 -7.67629,10.6126c-0.72381,1.00655 -1.44959,2.01234 -2.17765,3.01752c-0.01046,0.01775 -0.02092,0.03549 -0.03137,0.05324c0.09223,0.68313 0.12767,1.37171 0.08532,2.06776c-0.09899,1.62692 -2.15864,2.33789 -3.39322,3.50472c-0.54766,0.89138 -1.10175,1.77598 -1.66372,2.65438c-0.37834,0.79383 -0.74227,1.59744 -1.21902,2.3317c-2.20386,3.39415 -4.70686,6.83838 -7.33709,10.09594c-0.6187,1.11249 -1.25917,2.19656 -2.30552,2.7688c-0.65175,0.75856 -1.30806,1.50214 -1.96648,2.22738l-4.01411,-1.24242c-1.51941,1.50164 -3.05287,2.96123 -4.59304,4.36914c-3.98573,3.64348 -8.49799,6.66758 -12.65455,10.1149c-1.50313,1.24664 -3.01853,2.48156 -4.55342,3.69162c-0.61068,0.82526 -1.2199,1.65171 -1.82735,2.47956c-5.35461,7.29742 -10.35138,14.7329 -16.007,21.80875l-9.97639,5.54045c-0.34227,-3.81977 -1.09746,-7.62489 -1.02681,-11.45931c0.04796,-2.60289 2.02572,-4.5925 2.96616,-6.81218c0.12448,-0.29381 0.24494,-0.58926 0.36197,-0.88609c-1.0902,-3.07747 1.33282,-5.57816 1.6799,-5.91548l0.82272,-4.3199c0.95091,-2.03248 1.80886,-4.04173 2.74374,-6.0225c1.09214,-3.30289 2.29516,-6.57606 3.7995,-9.84625l5.71851,-1.21715l1.28806,0.88589c0.9263,0.56622 1.91483,1.08538 2.73253,1.73376l1.45696,-7.14322c0.51881,-0.70717 1.02351,-1.42117 1.51745,-2.14043c-0.42465,-1.93061 -0.77898,-3.86563 -0.71107,-5.82708c0.04117,-1.18908 1.4501,-1.88717 2.14569,-2.85244c0.85298,-1.18368 1.5167,-2.50209 2.1082,-3.8358l2.40285,-2.82477c0,0 1.94886,-1.78034 4.41196,-1.60806zM246.95226,170.60058c0.01545,-0.02593 0.0309,-0.05186 0.04634,-0.07779c-0.0205,0.02793 -0.04095,0.05582 -0.06135,0.08366z" fill="#f6deff" stroke="none" stroke-width="0.5"/><path d="M212.06402,136.30805c0.47153,0.40973 0.94031,0.82177 1.40497,1.23736c0.92001,0.82282 2.32781,1.24187 2.85511,2.35784c0.14364,0.30399 0.28021,0.61075 0.41063,0.91994c9.99193,7.97102 20.04875,15.73564 30.43541,23.25351c1.33768,-0.52767 2.69835,-0.95238 4.1219,-1.09561c0.9312,-0.0937 1.78075,0.3948 2.58921,0.97855c1.40131,-0.57315 2.82575,-1.0607 4.31343,-1.31427c1.22453,-0.20872 2.26452,1.0252 3.42402,1.47087c1.60024,0.61506 2.91982,1.36174 4.13353,2.19385c3.51564,1.44415 6.96628,3.04442 10.57876,4.26956c4.20516,1.42614 9.69118,2.16298 13.13095,5.2946c3.41075,3.10519 2.90504,7.58119 5.42166,11.02667c1.84446,2.52523 5.12551,4.3264 7.4218,6.37913c5.16345,4.61577 10.41137,8.31945 15.13164,13.53459c-0.80837,2.94349 -0.46075,6.49405 -2.42512,8.83047c-0.07326,0.08713 -0.14982,0.16952 -0.22945,0.2475c0.61504,0.91561 1.22323,1.83503 1.82704,2.75462c0.49235,0.58861 0.98663,1.16571 1.48796,1.71885c1.59216,1.75668 3.76266,3.21909 4.58404,5.60622c0.41143,1.1957 0.71519,2.42212 0.97807,3.66019c0.86155,1.49824 1.71851,2.88331 3.12752,4.17757l1.84348,9.88261c-0.38965,-0.03532 -0.78049,-0.06368 -1.17214,-0.08742c2.71502,3.14739 5.28907,6.4172 7.54877,9.82539c0,0 3.12132,4.82906 -1.70776,7.95038c-3.22085,2.08182 -5.682,0.62692 -6.96406,-0.57302c-3.53706,0.80977 -5.79675,-2.53749 -5.79675,-2.53749c-1.77219,-2.65144 -4.12656,-4.86708 -6.06505,-7.39948c-3.58327,-4.68109 -6.41882,-9.98899 -10.36118,-14.37234c-0.036,-0.04003 -0.07206,-0.07999 -0.10819,-0.11991l-4.13084,-0.17149c-9.29356,-5.19418 -16.87623,-12.3474 -24.37861,-19.73401c-10.72998,-5.85472 -21.05759,-12.06268 -31.11295,-18.81427c-0.89937,0.04801 -1.79573,0.01964 -2.68706,-0.13547c-1.58242,-0.27538 -2.2506,-2.29943 -3.48088,-3.33203c-2.24928,-1.88787 -4.48864,-3.78958 -6.80055,-5.60023c-0.47071,-0.36865 -0.94105,-0.73738 -1.41102,-1.10621c-1.52891,-1.13941 -3.05275,-2.29423 -4.572,-3.46516c-3.45628,-2.66385 -6.89443,-5.36967 -10.16821,-8.25591c-0.96464,-0.77879 -1.92841,-1.55951 -2.89144,-2.34246c-0.01714,-0.01143 -0.03427,-0.02287 -0.05141,-0.03429c-0.68721,0.05401 -1.37669,0.05101 -2.0693,-0.03007c-1.61887,-0.18952 -2.21393,-2.2856 -3.31013,-3.5833c-0.85947,-0.5965 -1.71181,-1.19903 -2.55752,-1.80909c-0.77151,-0.422 -1.55358,-0.83016 -2.26013,-1.3471c-3.26603,-2.38963 -6.56538,-5.08072 -9.67127,-7.88844c-1.07627,-0.67975 -2.12296,-1.37965 -2.63598,-2.45627c-0.72105,-0.69302 -1.42689,-1.38976 -2.1143,-2.08758l1.46424,-3.93862c-1.41461,-1.60075 -2.78646,-3.21319 -4.10633,-4.82944c-3.41565,-4.18263 -6.18353,-8.85644 -9.39379,-13.19869c-1.16092,-1.57028 -2.30945,-3.15216 -3.43207,-4.75212c-0.78994,-0.65573 -1.58114,-1.31007 -2.37385,-1.96272c-6.9876,-5.75305 -14.133,-11.15652 -20.88259,-17.19776l-4.97574,-10.26971c3.83291,-0.12882 7.67421,-0.67073 11.49873,-0.38646c2.59617,0.19297 4.47244,2.27856 6.63625,3.34127c0.28641,0.14066 0.57469,0.27741 0.86454,0.4108c3.13345,-0.91696 5.49519,1.64168 5.81264,2.00702l4.26732,1.06224c1.97632,1.06272 3.93462,2.03134 5.8602,3.07518c3.23688,1.27455 6.4379,2.65815 9.61915,4.34243l0.8965,5.77746l-0.95631,1.23668c-0.61697,0.8933 -1.19043,1.85135 -1.88338,2.63164l7.0509,1.85287c0.67715,0.55742 1.36191,1.10114 2.05252,1.6344c1.95128,-0.31638 3.90304,-0.56229 5.85766,-0.38516c1.18494,0.10739 1.80341,1.55304 2.7284,2.30135c1.13429,0.91763 2.41366,1.65381 3.71232,2.31873l2.68644,2.55657c0,0 1.66894,2.04507 1.35963,4.49474zM248.86588,187.3441c0.02503,0.01687 0.05006,0.03374 0.07509,0.0506c-0.02674,-0.02202 -0.05345,-0.044 -0.08011,-0.06592z" fill="#f6deff" stroke="none" stroke-width="0.5"/><path d="M282.13238,131.28112c1.11803,2.23607 -1.11803,3.3541 -1.11803,3.3541l-1.61803,0.76393c-3.54079,2.65559 -7.34436,4.41769 -10.82203,7.06185c0.88233,3.15964 -2.27731,4.73946 -2.27731,4.73946l-0.35066,0.09868c-1.66487,1.24326 -3.24205,2.53766 -5.16146,3.40735c-0.42428,0.19224 -1.06277,-0.1401 -1.38334,0.19785c-0.36826,0.38822 -0.05645,1.10062 -0.3002,1.57698c-0.9185,1.79501 -2.11825,3.4409 -3.35513,5.03332c-1.99983,2.57469 -4.31501,4.93198 -6.44114,7.42767c0.61425,1.16925 1.03725,2.45469 1.22744,3.81473c5.22172,0.42547 10.61197,1.96529 15.69733,2.97463l2.67171,1.66226c0,0 0.32201,0.32201 0.64981,0.86063c2.11082,-0.0937 4.24997,-0.1467 6.19173,0.16874c2.08264,0.33832 4.07422,1.11232 6.14354,1.52438l1.80028,0.57974c0,0 2.37171,0.79057 1.58114,3.16228c-0.79057,2.37171 -3.16228,1.58114 -3.16228,1.58114l-1.19972,-0.42026c-1.97377,-0.39634 -3.87236,-1.13474 -5.85646,-1.47562c-1.85648,-0.31895 -3.95173,-0.233 -6.00199,-0.12169c-0.04702,0.05034 -0.09569,0.1007 -0.14605,0.15106c-2.30545,2.30545 -4.6109,1.07364 -5.55954,0.37499c-1.51071,-0.39805 -2.99532,-0.91369 -4.53514,-1.17127c-1.96065,-0.32798 -4.00346,-0.11423 -5.93499,-0.58424c-1.43787,-0.34989 -2.87784,-0.89095 -4.35495,-0.87706c-0.1679,0.23894 -0.34447,0.47135 -0.52926,0.69675c3.56344,4.32151 7.36034,8.33824 11.78198,11.97041l1.57273,3.50681c0,0 0.75452,1.88631 -0.08396,3.57223c2.1725,1.84178 4.24378,3.73837 6.4057,5.73841c2.58138,2.38809 5.48046,3.23657 8.23223,5.26777l0.61803,0.26393c0,0 2.23607,1.11803 1.11803,3.3541c-1.11803,2.23607 -3.3541,1.11803 -3.3541,1.11803l-1.38197,-0.73607c-2.97423,-2.2772 -5.76236,-3.03917 -8.76777,-5.73223c-2.76813,-2.48044 -5.32094,-4.86722 -8.17497,-7.16822c-0.85869,-0.318 -1.47643,-0.92848 -1.8834,-1.46906c-0.0578,-0.04353 -0.11575,-0.08703 -0.17386,-0.13049c0,0 -1.35414,-1.0156 -0.99825,-2.48969c-4.91771,-2.96974 -8.9742,-7.95568 -12.61875,-12.84084c-0.45361,0.05318 -0.91511,0.08053 -1.383,0.08053c-0.23972,0 -0.47777,-0.00718 -0.71393,-0.02133c-1.2197,-0.00376 -2.43651,-0.13653 -3.55167,-0.40996c-0.00049,0.03344 -0.00213,0.0668 -0.00508,0.10008c-0.1758,1.98062 -0.86158,3.89824 -0.99001,5.88249c-0.3176,4.90699 0.36553,9.66943 -0.57184,14.53222l0.08253,1.16651c0,0 0,4.06971 -3.98245,4.24422c-0.20464,0.73778 -0.29661,1.50845 -0.26755,2.25578v2.5c0,0 0,2.5 -2.5,2.5c-2.5,0 -2.5,-2.5 -2.5,-2.5v-2.5c0.04195,-1.69615 0.3901,-3.42183 1.01691,-5.01936c-0.26691,-0.80916 -0.26691,-1.48064 -0.26691,-1.48064l0.08253,-2.83349c0.92857,-4.41936 0.12179,-8.9801 0.42816,-13.46778c0.15024,-2.20061 0.51707,-7.16353 1.14352,-9.33319c0.17683,-0.61242 0.45484,-1.19297 0.74747,-1.76799c-1.84869,0.25137 -3.69467,0.49976 -5.56084,1.01008c-2.85603,0.78101 -5.55035,2.15212 -8.37981,2.96619c-3.00302,0.86399 -6.59385,1.0967 -9.82837,1.15862c-0.401,0.3811 -0.79243,0.77766 -1.20831,1.12406c-2.59731,2.16339 -3.21387,1.96276 -6.18406,2.59496l-0.22252,0.81632c0,0 -1.76777,1.76777 -3.53553,0c-1.76777,-1.76777 0,-3.53553 0,-3.53553l2.77748,-2.18368c0.64451,-0.11736 1.21692,-0.2925 1.74033,-0.50977c-0.10339,-0.21169 -0.19792,-0.44274 -0.28195,-0.69481c-1.34397,-4.0319 2.68794,-5.37587 2.68794,-5.37587l2.84397,-0.7181c6.4202,0.0638 11.31227,-2.19855 17.40916,-3.85762c2.24409,-0.61066 4.48964,-0.81035 6.71994,-1.12215c-2.50922,-2.14125 -4.97438,-4.34168 -7.6791,-6.37022l-1.35066,-0.59868c0,0 -3.80132,-1.90066 -1.90066,-5.70197c0.1526,-0.30521 0.31746,-0.57365 0.49162,-0.80928c-2.32709,-1.19218 -4.38142,-2.55885 -6.6903,-4.29006l-1.26777,-1.23223c0,0 -1.76777,-1.76777 0,-3.53553c1.76777,-1.76777 3.53553,0 3.53553,0l0.73223,0.76777c3.03168,2.27433 5.40831,3.77074 8.92848,5.17881c0,0 2.04799,0.81919 1.5271,2.84232l1.09442,0.57887c2.74399,2.05799 6.01353,3.99041 8.4552,6.3948c0.0012,0.00118 0.00239,0.00236 0.00359,0.00353c0.41192,-0.44212 0.85266,-0.84168 1.32901,-1.18356c0.14343,-4.2709 0.4122,-8.50139 0.4122,-12.81477v-2.5c0,0 0,-3.65073 3.38357,-4.18505c0.27321,-2.83011 0.96223,-5.50749 2.04524,-8.24343l1.55342,-1.83929c0,0 1.76777,-1.76777 3.53553,0c1.76777,1.76777 0,3.53553 0,3.53553l-0.44658,0.16071c-1.19935,2.96181 -1.83846,5.87219 -1.82119,9.07152c0,0 0,0.02301 -0.00221,0.06462c0.25221,0.78878 0.25221,1.43538 0.25221,1.43538v2.5c0,4.07517 -0.23954,8.07435 -0.38702,12.10126c0.4002,0.1002 0.79227,0.22092 1.17502,0.36098c2.04222,-2.36162 4.20536,-4.63016 6.11213,-7.07774c1.5105,-1.93893 2.72368,-5.79654 4.34467,-7.3897c1.61425,-1.58653 5.44799,-2.88161 7.4552,-4.3948l1.64934,-0.90132c0,0 1.00278,-0.50139 2.23578,-0.47409c3.74069,-2.99077 7.84355,-4.8586 11.66488,-7.7246l2.38197,-1.23607c0,0 2.23607,-1.11803 3.3541,1.11803z" fill="#000000" stroke="none" stroke-width="0.5"/><path d="M83.78852,180.44253c0,-90.91681 73.70264,-164.61946 164.61946,-164.61946c90.91682,0 164.61945,73.70264 164.61945,164.61946c0,90.91682 -73.70264,164.61946 -164.61945,164.61946c-90.91682,0 -164.61946,-73.70264 -164.61946,-164.61946z" fill="none" stroke="#7a19d0" stroke-width="26.5"/></g></g></svg>