<svg version="1.1" xmlns="http://www.w3.org/2000/svg" xmlns:xlink="http://www.w3.org/1999/xlink" width="8.00534" height="9.00535" viewBox="0,0,8.00534,9.00535"><g transform="translate(-235.82926,-175.32983)"><g data-paper-data="{&quot;isPaintingLayer&quot;:true}" fill="#9966ff" fill-rule="nonzero" stroke="none" stroke-width="0.5" stroke-linecap="butt" stroke-linejoin="miter" stroke-miterlimit="10" stroke-dasharray="" stroke-dashoffset="0" style="mix-blend-mode: normal"><path d="M236.10249,180.95661c-0.17678,-0.17678 0,-0.35355 0,-0.35355l0.19772,-0.16039c0.43196,-0.14399 0.79489,-0.24478 1.20447,-0.28848c-0.0031,-0.051 -0.00468,-0.10241 -0.00468,-0.15418c0,-0.02599 0.00039,-0.05189 0.00118,-0.07769c-0.06563,-0.05133 -0.13078,-0.10674 -0.19602,-0.16697c-0.36793,-0.05687 -0.73429,-0.12551 -1.1259,-0.12551h-0.1c0,0 -0.25,0 -0.25,-0.25c0,-0.25 0.25,-0.25 0.25,-0.25h0.1c0.31011,0 0.60886,0.04551 0.90479,0.09312c0.00567,-0.00662 0.0118,-0.01326 0.01844,-0.01989c0.17677,-0.17677 0.35356,0 0.35356,0l0.08994,0.08994c0.01781,0.00229 0.03563,0.00451 0.05345,0.00664c0.11396,-0.39128 0.321,-0.74291 0.59553,-1.02933c-0.86018,-0.49437 -1.72605,-1.38216 -2.28701,-1.90839l-0.07869,-0.28208c0,0 0,-0.25 0.25,-0.25c0.22436,0 0.24737,0.20135 0.24973,0.24265c0.51872,0.49809 1.45177,1.45421 2.25964,1.86373c0.23506,-0.16106 0.49903,-0.28301 0.78253,-0.35646c-0.04183,-0.22771 -0.0419,-0.43925 -0.0419,-0.69992v-0.1c0,0 0,-0.25 0.25,-0.25c0.16373,0 0.22023,0.10723 0.23973,0.18123c0.00553,-0.08259 0.00929,-0.16503 0.01028,-0.24737c0,-0.26128 0,-0.52258 0,-0.78386v-0.1c0,-0.0316 0.00586,-0.06182 0.01656,-0.08965c0.02436,-0.07172 0.08459,-0.16035 0.23344,-0.16035c0.14885,0 0.20908,0.08863 0.23344,0.16035c0.01069,0.02783 0.01656,0.05806 0.01656,0.08965c0,0.3 0,0.7 0,1c0,0 0,0.02061 -0.00592,0.05c0.00592,0.02939 0.00592,0.05 0.00592,0.05c0,0.1 0,0.3 0,0.4c0,0 0,0.10123 -0.06442,0.17486c-0.00806,0.08518 -0.01558,0.17074 -0.02161,0.25699c0.161,0.01555 0.31755,0.04636 0.46816,0.09099c0.27333,-0.10752 0.50043,-0.26185 0.7888,-0.36001l0.17906,-0.01283c0,0 0.25,0 0.25,0.25c0,0.25 -0.25,0.25 -0.25,0.25l-0.02094,-0.01283c-0.12668,0.04113 -0.24161,0.094 -0.35402,0.14979c0.10698,0.06554 0.20864,0.13891 0.30419,0.2193c0.3085,-0.12974 0.60276,-0.2687 0.94022,-0.35439l0.33055,-0.00188c0,0 0.01818,0 0.04472,0.0049c0.09207,-0.03069 0.18415,-0.06138 0.27622,-0.09207l0.17906,-0.01283c0,0 0.25,0 0.25,0.25c0,0.25 -0.25,0.25 -0.25,0.25l-0.02095,-0.01283c-0.1,0.03333 -0.2,0.06667 -0.3,0.1c0,0 -0.06442,0.02148 -0.1373,0.00847c-0.02492,0.00437 -0.04175,0.00436 -0.04175,0.00436l-0.26945,-0.00187c-0.22236,0.05435 -0.43005,0.14258 -0.63779,0.23526c0.0358,0.04587 0.07004,0.09304 0.10263,0.14139c0.33187,-0.02963 0.65593,-0.07478 1.00462,-0.07478h0.1c0,0 0.25,0 0.25,0.25c0,0.25 -0.25,0.25 -0.25,0.25h-0.1c-0.26,0 -0.50675,0.02532 -0.75386,0.05048c0.11267,0.28466 0.1746,0.59495 0.1746,0.91969c0,0.07751 -0.00353,0.15419 -0.01043,0.2299c0.38795,0.02093 0.75748,0.09766 1.12837,0.34192l0.1381,0.13124c0,0 0.17677,0.17678 0,0.35356c-0.17677,0.17677 -0.35356,0 -0.35356,0l-0.0619,-0.06877c-0.30015,-0.20305 -0.61565,-0.26012 -0.94495,-0.27075c-0.06442,0.21552 -0.15713,0.41882 -0.27381,0.60561c0.00743,0.03313 0.00744,0.05713 0.00744,0.05713c-0.00277,0.62654 0.29646,1.17538 0.3,1.8l-0.17322,0.27678c0,0 -0.17678,0.17677 -0.35356,0c-0.17677,-0.17677 0,-0.35356 0,-0.35356l0.02678,0.07677c0.00319,-0.4589 -0.16279,-0.88304 -0.2492,-1.32849c-0.19205,0.17439 -0.41135,0.31929 -0.65075,0.42759c0.00889,0.00718 0.0178,0.0152 0.02672,0.02411c0.17677,0.17677 0,0.35356 0,0.35356c-0.35207,0.33694 -0.48634,0.94248 -0.6396,1.40228l-0.16039,0.19772c0,0 -0.17678,0.17677 -0.35356,0c-0.17677,-0.17677 0,-0.35356 0,-0.35356l0.0396,-0.00228c0.16755,-0.50265 0.31712,-1.05571 0.64901,-1.47107c-0.18952,0.04594 -0.38746,0.07029 -0.5911,0.07029c-0.398,0 -0.77428,-0.093 -1.10829,-0.25847c-0.28288,0.39762 -0.53615,0.8061 -0.88101,1.15096l-0.35237,0.1245c0,0 -0.23717,0.07906 -0.31623,-0.15811c-0.07906,-0.23717 0.15811,-0.31623 0.15811,-0.31623l0.24762,-0.07549c0.28289,-0.28289 0.50442,-0.63075 0.7386,-0.97726c-0.07321,-0.05577 -0.14325,-0.11548 -0.20981,-0.17883c-0.35813,0.11769 -0.70646,0.21653 -1.09736,0.21875l-0.27678,-0.17322c0,0 -0.17677,-0.17678 0,-0.35356c0.17677,-0.17677 0.35356,0 0.35356,0l-0.07678,0.02678c0.26386,0.00183 0.50749,-0.05447 0.74949,-0.12941c-0.15371,-0.22691 -0.27112,-0.48041 -0.34389,-0.75218c-0.38535,0.03764 -0.71502,0.13159 -1.12654,0.26876l-0.00228,0.03961c0,0 -0.17678,0.17678 -0.35355,0z"/></g></g></svg>