<svg version="1.1" xmlns="http://www.w3.org/2000/svg" xmlns:xlink="http://www.w3.org/1999/xlink" width="16.8026" height="13.02171" viewBox="0,0,16.8026,13.02171"><g transform="translate(-231.5987,-173.48914)"><g data-paper-data="{&quot;isPaintingLayer&quot;:true}" fill="#bf00ff" fill-rule="nonzero" stroke="none" stroke-width="0.5" stroke-linecap="butt" stroke-linejoin="miter" stroke-miterlimit="10" stroke-dasharray="" stroke-dashoffset="0" style="mix-blend-mode: normal"><path d="M248.02303,184.80143c-0.79057,2.37171 -3.16228,1.58114 -3.16228,1.58114l-0.6778,-0.22714c-2.20392,-0.75091 -3.10959,-1.39472 -4.04856,-2.36629l-0.77343,1.39218c-0.41981,0.7909 -1.25182,1.32954 -2.20964,1.32954c-1.38071,0 -2.5,-1.11929 -2.5,-2.5c0,-0.41989 0.10352,-0.81561 0.28642,-1.16302l1.08352,-2.16705c-0.79203,-0.20563 -1.43147,-0.78982 -1.71365,-1.54789c-0.4438,-0.34432 -0.89422,-0.67361 -1.37041,-0.93665c0,0 -2.18539,-1.21411 -0.97129,-3.3995c1.21411,-2.18539 3.3995,-0.97129 3.3995,-0.97129c1.22602,0.68452 2.06934,2.11197 3.42318,2.46154c1.08485,-1.40316 2.41126,-2.51496 3.98561,-2.44622c0.21186,0.00925 0.42073,0.03272 0.6271,0.06817v-0.1481h2.5c1.38071,0 2.5,1.11929 2.5,2.5c0,1.22888 -0.88665,2.25067 -2.05512,2.46053l-2.2068,0.44136c-0.34369,0.17517 -0.717,0.37363 -1.11013,0.57688c0.89452,0.72806 1.75527,1.43722 2.59043,1.62666l0.8222,0.27286c0,0 2.37171,0.79057 1.58114,3.16228z"/></g></g></svg>