<svg version="1.1" xmlns="http://www.w3.org/2000/svg" xmlns:xlink="http://www.w3.org/1999/xlink" width="130" height="125" viewBox="0,0,130,125"><g transform="translate(-175,-117.5)"><g data-paper-data="{&quot;isPaintingLayer&quot;:true}" fill="#0014e3" fill-rule="nonzero" stroke="none" stroke-width="0" stroke-linecap="butt" stroke-linejoin="miter" stroke-miterlimit="10" stroke-dasharray="" stroke-dashoffset="0" style="mix-blend-mode: normal"><path d="M235,242.5v-125h14v125z"/><path d="M175,174.5h130v14h-130z"/><path d="M243,176.5v-23h26v23z"/><path d="M247,203.5v-23h26v23z"/><path d="M215,176.5v-23h26v23z"/><path d="M215,208.5v-23h26v23z"/><path d="M208,177.5v-11h10v11z"/><path d="M208,197.75v-11h10v11z"/><path d="M227,216.5v-11h10v11z"/><path d="M249,212.75v-11h10v11z"/><path d="M270,196v-11h10v11z"/><path d="M266.25,177.25v-11h10v11z"/><path d="M247.75,155.75v-11h10v11z"/><path d="M225.75,154.75v-11h10v11z"/></g></g></svg>